<svg width="500" height="490" fill="none" xmlns="http://www.w3.org/2000/svg"><path d="M474.485 227.636l-124.753 15.671 12.528 99.73 124.753-15.671-12.528-99.73z" fill="#FAFAFA"/><path d="M474.506 227.68l-.604.088-1.746.242-6.777.89-25.527 3.295-90.068 11.467.285-.362c3.735 29.656 8.018 63.706 12.555 99.723l-.407-.319 124.756-15.597-.264.33c-3.701-30.041-6.777-54.92-8.919-72.352-1.098-8.71-1.889-15.542-2.46-20.221-.275-2.329-.494-4.119-.637-5.338-.143-1.219-.198-1.857-.198-1.857s.099.594.253 1.78.395 2.976.703 5.272c.604 4.657 1.483 11.467 2.603 20.134l9.26 72.494v.307h-.308L362.272 343.44h-.362v-.362c-4.504-36.017-8.787-70.045-12.478-99.734v-.319h.33l90.299-11.171 25.482-3.108 6.723-.813 1.713-.187.527-.066z" fill="#E0E0E0"/><path d="M470.807 234.474l-115.991 14.571 10.951 87.175 115.991-14.57-10.951-87.176z" fill="#EBEBEB"/><path d="M365.743 336.257l33.71-59.281 29.349 30.755 14.74-20.254 38.192 34.215-115.991 14.565zM434.371 265.861a9.21 9.21 0 01-4.586 9.139 9.21 9.21 0 01-10.199-.737 9.207 9.207 0 01-.376-14.223 9.206 9.206 0 0115.161 5.821z" fill="#E0E0E0"/><path d="M72.582 82.649l-5.69-2.032-6.239-21.727 4.042-11.357s-8.6-3.669-12.862 11.566c-4.262 15.235-4.042 11.05-4.042 11.05s-18.673-6.59-20.87-5.492c-1.548.78-8.677 19.145-12.455 29.13-1.9 5.03-.473 10.84 3.811 13.718a8.773 8.773 0 001.911.989c4.658 1.658 29.789 6.349 29.789 6.349l9.885 3.503 12.72-35.697zM89.98 85.328l-17.365 37.664-9.743-3.471 13.587-38.125 13.521 3.932z" fill="#EBEBEB"/><path d="M141.484 35.967a14.395 14.395 0 00-2.252-8.326 13.71 13.71 0 00-6.326-5.624 11.371 11.371 0 00-8.875.132 11.237 11.237 0 00-4.207 3.295 11.15 11.15 0 00-2.626-4.119 11.265 11.265 0 00-8.27-3.218 13.764 13.764 0 00-7.854 3.075 14.28 14.28 0 00-5.009 7.03 17.476 17.476 0 00.231 10.984 24.778 24.778 0 006.975 9.358c4.888 4.284 11.357 9.721 11.357 9.721s6.92-3.47 12.983-5.788a24.743 24.743 0 009.798-6.338 17.57 17.57 0 004.075-10.182zM171.789 46.237a5.88 5.88 0 00-1.922-2.966 5.548 5.548 0 00-3.153-1.406 4.534 4.534 0 00-4.668 2.988 4.523 4.523 0 00-5.162-1.505 5.624 5.624 0 00-2.681 2.197 5.917 5.917 0 00-1.098 3.36 7.132 7.132 0 001.483 4.197 10.056 10.056 0 003.888 2.779c2.439 1.098 5.646 2.372 5.646 2.372s2.263-2.197 4.394-3.877a10.182 10.182 0 003.031-3.702 7.192 7.192 0 00.242-4.437z" fill="#F5F5F5"/><path d="M355.534 8.029L313.48 152.215l144.186 42.054L499.72 50.082 355.534 8.03z" fill="#FAFAFA"/><path d="M457.668 194.267s.055-.241.187-.692c.131-.45.318-1.098.56-1.988.505-1.768 1.263-4.393 2.197-7.754a24331.42 24331.42 0 008.49-29.339l30.349-104.479.164.297L355.462 8.298l.352-.198-42.102 144.187-.164-.308 104.413 30.579 29.305 8.612 7.689 2.295 1.988.594.681.208-.659-.175-1.977-.561-7.689-2.196-29.283-8.48-104.644-30.382-.231-.065.066-.242c12.247-41.948 26.669-91.375 42.047-144.22l.087-.274.275.077 144.153 42.058.231.076-.066.231A309911.003 309911.003 0 01469.3 154.681c-3.702 12.599-6.591 22.495-8.59 29.25-.999 3.362-1.757 5.943-2.273 7.689l-.593 1.966-.176.681z" fill="#263238"/><path d="M489.174 54.056l-128.813-37.57-37.57 128.813 128.813 37.57 37.57-128.813z" fill="#EBEBEB"/><path d="M451.594 182.877s.055-.22.164-.615c.11-.396.286-1.011.517-1.791l1.988-6.92c1.746-6.063 4.316-14.938 7.579-26.218l27.086-93.364.176.308-128.831-37.51.352-.187-37.609 128.787-.165-.297 93.276 27.328 26.174 7.689 6.909 2.043 1.78.527c.406.121.604.198.604.198l-.583-.154-1.757-.505-6.887-1.977-26.153-7.557-93.506-27.12-.231-.065.066-.242 37.532-128.83.088-.275.275.076 128.798 37.61.241.076-.066.231c-11.324 38.653-20.77 70.858-27.383 93.43-3.295 11.247-5.909 20.089-7.688 26.119l-2.032 6.843-.528 1.758c-.12.439-.186.604-.186.604z" fill="#263238"/><path d="M388.765 85.074l-7.808 26.945a4.46 4.46 0 003.042 5.524l44.595 12.922a4.46 4.46 0 005.525-3.042l7.807-26.944a4.459 4.459 0 00-3.042-5.525L394.29 82.032a4.46 4.46 0 00-5.525 3.042z" fill="#455A64"/><path opacity=".3" d="M388.765 85.074l-7.808 26.945a4.46 4.46 0 003.042 5.524l44.595 12.922a4.46 4.46 0 005.525-3.042l7.807-26.944a4.459 4.459 0 00-3.042-5.525L394.29 82.032a4.46 4.46 0 00-5.525 3.042z" fill="#000"/><path d="M426.836 98.575c.041-.233.108-.462.198-.68.186-.506.406-1.1.681-1.901a44.698 44.698 0 001.999-7.118 16.69 16.69 0 00-1.34-10.577 10.984 10.984 0 00-4.394-4.394 29.996 29.996 0 00-6.436-2.471c-4.537-1.307-9.282-1.703-13.049-.088a12.091 12.091 0 00-4.559 3.427 17.376 17.376 0 00-2.614 4.317 37.74 37.74 0 00-2.054 7.095c-.165.802-.296 1.461-.406 1.977a3.367 3.367 0 01-.176.692 2.586 2.586 0 010-.703c.055-.46.154-1.098.286-2.01a33.25 33.25 0 011.889-7.227 17.907 17.907 0 012.614-4.481 12.457 12.457 0 014.745-3.636 15.31 15.31 0 016.579-1.22c2.358.08 4.697.449 6.964 1.099a30.2 30.2 0 016.591 2.548 11.421 11.421 0 014.613 4.723 16.938 16.938 0 011.252 10.984 38.88 38.88 0 01-2.197 7.129 45.722 45.722 0 01-.791 1.867c-.1.234-.233.452-.395.648z" fill="#263238"/><path d="M382.109 82.94l-7.808 26.945a4.46 4.46 0 003.043 5.525l44.594 12.922a4.46 4.46 0 005.525-3.042l7.807-26.945a4.459 4.459 0 00-3.042-5.524l-44.594-12.922a4.46 4.46 0 00-5.525 3.042z" fill="#455A64"/><path d="M421.97 128.353a6.43 6.43 0 001.768.077 4.667 4.667 0 001.978-.791 4.395 4.395 0 001.636-2.329c1.241-4.393 3.01-10.566 5.185-18.244l1.735-6.041c.286-1.044.637-2.142.89-3.186a4.152 4.152 0 00-.703-3.108 4.395 4.395 0 00-2.801-1.78l-3.559-1.032-7.436-2.197-33.095-9.556a4.118 4.118 0 00-5.063 2.647l-.626 2.131c-.835 2.856-1.648 5.679-2.45 8.447-1.614 5.492-3.163 10.863-4.646 15.949a5.585 5.585 0 00-.341 1.845c.025.606.174 1.201.44 1.746a4.169 4.169 0 002.68 2.197l7.008 2.043 12.565 3.691 18.19 5.371 4.943 1.494 1.274.406c.147.042.29.097.428.165a2.458 2.458 0 01-.45-.099l-1.296-.341-4.965-1.383-18.244-5.174-12.577-3.559-7.03-2.032a4.77 4.77 0 01-3.053-2.482 4.662 4.662 0 01-.495-1.999 6.155 6.155 0 01.352-2.021c1.472-5.086 3.009-10.424 4.602-15.96.802-2.768 1.615-5.59 2.45-8.447.208-.713.395-1.416.637-2.196a4.745 4.745 0 011.296-2 4.808 4.808 0 014.558-1.098l33.073 9.611 7.425 2.197 3.559 1.032a5.065 5.065 0 013.097 2.01 4.7 4.7 0 01.758 3.504c-.275 1.099-.615 2.197-.923 3.296-.615 2.097-1.197 4.108-1.768 6.03-2.263 7.688-4.097 13.861-5.382 18.189a4.574 4.574 0 01-1.769 2.406 4.616 4.616 0 01-2.065.768 3.492 3.492 0 01-1.79-.197z" fill="#263238"/><path d="M390.699 100.398a2.878 2.878 0 11-5.686-.892 2.878 2.878 0 015.686.892z" fill="#455A64"/><path d="M343.802 93.15l-.155 1.087 44.136 6.305.155-1.088-44.136-6.304z" fill="#455A64"/><path d="M438.095 346.845s-7.371-3.932-14.28 13.456c-6.908 17.387-9.193 27.251-9.193 27.251s-1.911 3.69-4.515 1.636c-2.603-2.054-6.469-8.183-10.423-6.59-3.955 1.593-5.042 6.426-3.581 13.247 1.461 6.821 4.086 21.902 4.317 23.264.23 1.362-.363 3.405-2.351 2.295-1.988-1.109-13.917-12.082-18.793-6.14-4.877 5.943 2.295 24.319 3.042 26.362.747 2.043.428 2.943-.516 3.548-.945.604-4.591-3.471-8.106-6.459-3.515-2.988-8.117-5.832-10.644-2.197-2.526 3.636-2.109 17.915 13.532 39.63l7.898 9.589 12.346-1.856c26.164-5.58 36.049-15.85 36.642-20.265.593-4.416-4.723-5.405-9.336-5.558-4.613-.154-10.05.417-10.336-.659-.286-1.077.088-1.988 1.999-2.977 1.911-.989 19.552-9.776 19.947-17.464.395-7.689-15.806-7.568-18.036-8.085-2.229-.516-1.274-2.438-.208-3.295 1.065-.857 13.18-10.248 18.826-14.279 5.646-4.031 8.216-8.293 6.25-12.236-1.966-3.943-8.875-1.845-12.181-2.076-3.306-.231-2.197-4.251-2.197-4.251s4.932-8.853 11.5-26.361c6.569-17.509-1.735-19.552-1.735-19.552" fill="#FF725E"/><path d="M384.13 485.869c4.877-12.84 11.764-30.524 19.431-50.032 7.667-19.507 14.609-37.159 19.551-49.966l5.844-15.18a603.64 603.64 0 011.593-4.119c.186-.461.318-.812.428-1.098a2.22 2.22 0 01.154-.351s0 .12-.121.373l-.384 1.098c-.352.978-.857 2.373-1.516 4.163-1.329 3.603-3.295 8.787-5.723 15.224-4.877 12.84-11.764 30.513-19.431 50.01-7.666 19.496-14.608 37.17-19.551 49.988M404.78 391.407c.175.25.312.524.407.813.23.527.538 1.296.911 2.263.758 1.922 1.725 4.602 2.735 7.59a648.594 648.594 0 012.549 7.688l.779 2.307c.115.279.2.57.253.868a4.408 4.408 0 01-.406-.802 61.313 61.313 0 01-.912-2.274c-.725-1.933-1.659-4.624-2.669-7.612a1574.67 1574.67 0 00-2.603-7.622c-.308-.901-.582-1.681-.791-2.307a4.242 4.242 0 01-.253-.912zM413.567 412.947c0-.11 5.404-2.34 12.16-4.998 6.755-2.658 12.28-4.712 12.324-4.602.044.109-5.404 2.35-12.171 4.997-6.766 2.647-12.269 4.712-12.313 4.603z" fill="#263238"/><path d="M400.442 442.373c.293-.085.595-.133.9-.143l2.494-.231c2.087-.198 4.986-.472 8.161-.901 3.174-.428 6.052-.889 8.128-1.252l2.46-.417c.298-.077.604-.114.912-.11a4.494 4.494 0 01-.879.264c-.571.142-1.406.34-2.438.56-2.065.428-4.932.955-8.128 1.373-3.197.417-6.097.659-8.194.78-1.099.055-1.912.099-2.505.099a4.622 4.622 0 01-.911-.022zM388.195 424.579c.206.194.391.412.549.648.34.428.813 1.098 1.384 1.845a307.973 307.973 0 014.448 6.173c1.714 2.427 3.295 4.624 4.339 6.239.549.802.988 1.461 1.285 1.922.167.228.307.475.417.736-.212-.193-.4-.41-.56-.648l-1.34-1.834c-1.098-1.571-2.724-3.757-4.393-6.173-1.67-2.417-3.296-4.636-4.394-6.25l-1.274-1.911a2.982 2.982 0 01-.461-.747zM373.3 449.084c.264.248.5.524.703.824l1.78 2.361a656.856 656.856 0 015.755 7.865 576.33 576.33 0 015.657 7.941c.67.967 1.23 1.79 1.68 2.428.22.29.408.603.561.933a7.19 7.19 0 01-.703-.835c-.462-.626-1.099-1.417-1.78-2.35a748.356 748.356 0 01-5.755-7.876 663.482 663.482 0 01-5.657-7.93l-1.67-2.438a5.542 5.542 0 01-.571-.923zM389.205 470.788a5.776 5.776 0 011.098-.198l3.142-.406a325.86 325.86 0 0010.325-1.472 324.61 324.61 0 0010.27-1.823l3.108-.593a6.531 6.531 0 011.153-.176 6.167 6.167 0 01-1.098.329c-.725.187-1.768.44-3.075.725a179.506 179.506 0 01-10.27 1.955c-4.032.649-7.689 1.099-10.358 1.351a88.268 88.268 0 01-3.153.275 6.226 6.226 0 01-1.142.033z" fill="#263238"/><path d="M374.508 76.223H113.991c-7.006 0-12.686 5.68-12.686 12.686v384.9c0 7.006 5.68 12.686 12.686 12.686h260.517c7.007 0 12.687-5.68 12.687-12.686v-384.9c0-7.006-5.68-12.686-12.687-12.686z" fill="#263238"/><path d="M378.045 105.495H110.18v342.633h267.865V105.495z" fill="#fff"/><path d="M254.95 468.361c1.354-5.907-2.337-11.794-8.244-13.148-5.907-1.354-11.793 2.337-13.147 8.244-1.354 5.907 2.337 11.794 8.244 13.148 5.907 1.354 11.793-2.337 13.147-8.244zM285.956 88.03h-83.423c-.74 0-1.34.6-1.34 1.34v1.857c0 .74.6 1.34 1.34 1.34h83.423c.74 0 1.34-.6 1.34-1.34v-1.856c0-.74-.6-1.34-1.34-1.34z" fill="#455A64"/><path d="M236.748 423.261a2.489 2.489 0 01-1.525 2.301c-.453.189-.953.24-1.435.146a2.48 2.48 0 01-1.817-3.384 2.486 2.486 0 014.046-.812c.465.464.728 1.092.731 1.749zM246.721 423.261a2.485 2.485 0 01-2.964 2.446 2.482 2.482 0 112.964-2.446zM256.695 423.261a2.485 2.485 0 01-2.964 2.446 2.485 2.485 0 01-1.954-1.954 2.486 2.486 0 011.063-2.55 2.483 2.483 0 013.855 2.058zM146.24 134.207h-12.62a.482.482 0 01-.342-.825.482.482 0 01.342-.142h12.62a.484.484 0 010 .967z" fill="#263238"/><path d="M138.518 138.238a.473.473 0 01-.274-.099l-5.668-4.02a.486.486 0 01.011-.791l5.833-3.987a.493.493 0 01.67.132.467.467 0 01.071.357.46.46 0 01-.203.302l-5.262 3.603 5.108 3.624a.481.481 0 01.11.67.478.478 0 01-.396.209zM349.981 134.251h-12.62a.484.484 0 01-.484-.483.483.483 0 01.484-.473h12.62c.126 0 .246.05.334.139a.469.469 0 01.139.334.487.487 0 01-.473.483z" fill="#263238"/><path d="M344.896 138.238a.531.531 0 01-.407-.208.496.496 0 01.132-.67l5.261-3.592-5.107-3.636a.484.484 0 11.56-.78l5.668 4.031a.43.43 0 01.198.396.469.469 0 01-.209.384l-5.833 3.987a.471.471 0 01-.263.088z" fill="#263238"/><path d="M283.737 142.566c0 .143-17.574.252-39.289.252-21.716 0-39.29-.109-39.29-.252 0-.143 17.574-.253 39.29-.253 21.715 0 39.289.11 39.289.253zM257.343 145.751c0 .132-5.767.242-12.895.242-7.129 0-12.907-.11-12.907-.242s5.778-.252 12.907-.252c7.128 0 12.895.109 12.895.252z" fill="#E0E0E0"/><path d="M347.828 172.223c0 .153-20.254.285-45.242.285-24.989 0-45.243-.132-45.243-.285 0-.154 20.254-.286 45.243-.286 24.988 0 45.242.132 45.242.286zM347.829 182.888c0 .154-23.649.286-52.811.286-29.163 0-52.822-.132-52.822-.286 0-.154 23.648-.286 52.822-.286 29.173 0 52.811.11 52.811.286zM347.829 192.795c0 .154-23.649.286-52.811.286-29.163 0-52.822-.132-52.822-.286 0-.153 23.648-.285 52.822-.285 29.173 0 52.811.088 52.811.285zM347.829 202.703c0 .154-23.649.286-52.811.286-29.163 0-52.822-.132-52.822-.286 0-.154 23.648-.286 52.822-.286 29.173 0 52.811.132 52.811.286zM347.829 212.611c0 .164-23.649.285-52.811.285-29.163 0-52.822-.121-52.822-.285 0-.165 23.615-.242 52.822-.242 29.206 0 52.811.088 52.811.242zM347.829 222.518c0 .165-23.649.286-52.811.286-29.163 0-52.822-.121-52.822-.286 0-.165 23.615-.264 52.822-.264 29.206 0 52.811.11 52.811.264zM347.829 232.437c0 .153-23.649.285-52.811.285-29.163 0-52.822-.132-52.822-.285 0-.154 23.615-.297 52.822-.297 29.206 0 52.811.132 52.811.297zM347.829 241.74c0 .154-23.649.286-52.811.286-29.163 0-52.822-.132-52.822-.286 0-.154 23.648-.286 52.822-.286 29.173 0 52.811.121 52.811.286zM295.018 252.296c0 .153-11.83.285-26.362.285-14.532 0-26.416-.132-26.416-.285 0-.154 11.819-.286 26.416-.286 14.598 0 26.362.132 26.362.286zM347.829 289.18c0 .164-23.649.285-52.811.285-29.163 0-52.822-.121-52.822-.285 0-.165 23.648-.286 52.822-.286 29.173 0 52.811.132 52.811.286zM347.829 299.933c0 .165-23.649.286-52.811.286-29.163 0-52.822-.121-52.822-.286 0-.165 23.648-.286 52.822-.286 29.173 0 52.811.132 52.811.286zM347.829 310.39c0 .153-23.649.285-52.811.285-29.163 0-52.822-.132-52.822-.285 0-.154 23.615-.264 52.822-.264 29.206 0 52.811.11 52.811.264zM347.829 320.846c0 .154-23.649.286-52.811.286-29.163 0-52.822-.132-52.822-.286 0-.154 23.648-.285 52.822-.285 29.173 0 52.811.12 52.811.285zM295.018 330.995c0 .165-11.83.286-26.362.286-14.532 0-26.416-.121-26.416-.286 0-.164 11.819-.285 26.416-.285 14.598 0 26.362.132 26.362.285zM240.307 160.437h12.324l.12 3.701h-.516a4.39 4.39 0 00-.977-2.273 3.98 3.98 0 00-2.483-.527h-1.208v11.137c0 .846.132 1.362.395 1.56a3.418 3.418 0 001.714.395v.407h-6.338v-.407a2.938 2.938 0 001.714-.45c.302-.533.422-1.15.34-1.757v-10.885h-1.219a4.105 4.105 0 00-2.526.505 3.79 3.79 0 00-.978 2.274h-.538l.176-3.68z" fill="#263238"/><path d="M301.355 387.87a5.23 5.23 0 002.867.846 5.31 5.31 0 005.003-3.46 5.3 5.3 0 00.325-2.12c.37-.262.69-.59.944-.966-.35.15-.72.25-1.098.296.39-.238.683-.608.824-1.043-.37.221-.775.377-1.198.461a1.88 1.88 0 00-3.196 1.703 5.302 5.302 0 01-3.855-1.956 1.877 1.877 0 00.571 2.505 1.985 1.985 0 01-.846-.231 1.863 1.863 0 001.505 1.856 1.806 1.806 0 01-.846 0 1.885 1.885 0 001.746 1.307 3.732 3.732 0 01-2.746.802zM329.024 380.533h2.01c.319.006.634.066.934.176.216.079.411.207.571.373.163.163.29.357.373.571.105.297.161.608.165.923v4.031a2.887 2.887 0 01-.165.934c-.083.214-.21.408-.373.571-.16.166-.355.294-.571.373a2.947 2.947 0 01-.934.165h-4.031a2.849 2.849 0 01-.923-.165 1.681 1.681 0 01-.571-.373 1.681 1.681 0 01-.373-.571 2.787 2.787 0 01-.176-.934v-2.01-2.021c.006-.315.065-.627.176-.923.084-.214.211-.408.373-.571.163-.162.357-.289.571-.373.296-.111.608-.17.923-.176h2.021zm0-.89h-2.054c-.417.011-.83.092-1.219.242a2.322 2.322 0 00-.879.571 2.497 2.497 0 00-.582.879 4.012 4.012 0 00-.264 1.285v4.108c.014.412.092.82.231 1.208.132.333.33.636.582.89.249.251.548.446.879.571a3.7 3.7 0 001.219.231h4.108a3.693 3.693 0 001.208-.231 2.48 2.48 0 001.461-1.461c.144-.387.222-.795.231-1.208v-2.054-2.054a3.7 3.7 0 00-.231-1.219 2.5 2.5 0 00-1.461-1.45 3.644 3.644 0 00-1.208-.242h-2.054" fill="#FF725E"/><path d="M329.024 382.071a2.562 2.562 0 00-2.364 1.58 2.552 2.552 0 00.554 2.789 2.56 2.56 0 101.81-4.369zm0 4.218a1.665 1.665 0 01-1.649-1.993 1.667 1.667 0 012.282-1.217 1.665 1.665 0 011.026 1.551 1.674 1.674 0 01-1.659 1.659M332.286 381.961a.605.605 0 01-.604.604.605.605 0 01-.548-.831.6.6 0 01.321-.321.604.604 0 01.831.548M351.31 388.782h1.67v-4.185h1.164l.132-1.406h-1.296v-.802c0-.329.066-.461.384-.461h.912v-1.45h-1.164c-1.241 0-1.802.549-1.802 1.593v1.098h-.867v1.417h.867v4.196z" fill="#FF725E"/><path d="M303.75 409.871c0 .154-12.818.286-28.635.286-15.817 0-28.624-.132-28.624-.286 0-.154 12.818-.285 28.624-.285s28.635.12 28.635.285zM354.43 403.775c0 .154-24.165.286-53.964.286-29.8 0-53.975-.132-53.975-.286 0-.154 24.164-.285 53.975-.285 29.81 0 53.964.131 53.964.285z" fill="#E0E0E0"/><path d="M211.793 130.844L.241 156.295l33.504 278.489 211.552-25.451-33.504-278.489z" fill="#FAFAFA"/><path d="M245.26 409.355c-.263-2.197-13.74-113.409-33.731-278.465l.285.231L.297 156.582l.252-.319C12.95 259.864 24.494 355.94 33.951 434.761l-.263-.209 211.572-25.197-211.517 25.669h-.231v-.23C23.989 356.006 12.422 259.929 0 156.351v-.286h.286l211.528-25.406h.264v.264a871462.611 871462.611 0 0133.182 278.432z" fill="#263238"/><path d="M206.764 139.927L7.786 163.865l28.507 236.95 198.978-23.938-28.507-236.95z" fill="#EBEBEB"/><path d="M235.177 376.908c-.275-2.196-11.632-95.856-28.745-236.923l.286.23L7.831 164.149l.253-.318c10.5 87.531 20.287 169.043 28.438 236.957l-.264-.209 198.919-23.671-198.93 24.154h-.242v-.242c-8.183-67.913-17.991-149.381-28.558-236.945v-.286h.286l198.886-23.879h.252v.253c16.883 141.067 28.042 234.749 28.306 236.945zM62.762 419.317a5.145 5.145 0 01-5.11-2.584 5.152 5.152 0 119.603-3.138 5.082 5.082 0 01-.495 2.899l1.099 1.769a.241.241 0 01-.275.351l-1.933-.593a5.107 5.107 0 01-2.889 1.296zm-1.175-9.753a4.676 4.676 0 00-3.861 5.162 4.677 4.677 0 004.96 4.119 4.624 4.624 0 002.658-1.252.23.23 0 01.23-.066l1.483.45-.769-1.307a.24.24 0 010-.23c.45-.837.626-1.793.505-2.735a4.682 4.682 0 00-3.374-3.997 4.683 4.683 0 00-1.832-.144z" fill="#263238"/><path d="M48.703 421.064h-.132c-.253-.121-6.063-2.878-6.415-5.833a3.47 3.47 0 015.492-3.295 3.473 3.473 0 015.282.056 3.47 3.47 0 01.782 1.811c.351 2.955-4.636 7.008-4.844 7.184a.3.3 0 01-.165.077z" fill="#FF725E"/><path d="M48.703 421.064h-.132c-.253-.121-6.063-2.878-6.415-5.833a3.47 3.47 0 015.492-3.295 3.473 3.473 0 015.282.056 3.47 3.47 0 01.782 1.811c.351 2.955-4.636 7.008-4.844 7.184a.3.3 0 01-.165.077zm-3.46-9.249a3 3 0 00-2.614 3.295c.296 2.461 5.13 4.954 6.008 5.394.747-.627 4.855-4.207 4.558-6.668a2.997 2.997 0 00-3.295-2.614 2.922 2.922 0 00-2.032 1.164.242.242 0 01-.17.071.242.242 0 01-.17-.071 2.96 2.96 0 00-1.077-.553 2.967 2.967 0 00-1.208-.073v.055zM234.189 398.47h-.154l-4.394-2.428-3.734 3.405a.249.249 0 01-.132.037.246.246 0 01-.132-.037.265.265 0 01-.165-.208l-1.307-10.852a.265.265 0 01.231-.286l8.469-1.022a.264.264 0 01.285.231l1.307 10.841a.271.271 0 01-.11.253l-.164.066zm-4.625-3.032a.253.253 0 01.154 0l4.163 2.263-1.219-10.083-7.953.955 1.209 10.084 3.504-3.186a.348.348 0 01.142-.033zM123.438 173.046c-1.264-3.24-3.01-6.447-5.833-8.468-2.823-2.021-6.59-2.999-9.413-1.175a8.926 8.926 0 00-6.437-1.769 21.086 21.086 0 00-9.16 3.647 29.352 29.352 0 00-8.26 9.633c-2.735 4.953-2.274 10.984-1.736 16.629a8916.938 8916.938 0 003.295 34.369 2.194 2.194 0 001.772 2.628c.39.068.791.029 1.161-.113a373.877 373.877 0 0041.223-7.172c-3.833-15.828-.725-33.051-6.612-48.209z" fill="#263238"/><path d="M171.119 332.907c-4.515-16.619-11.445-45.759-11.445-45.759l-25.044-75.021c-4.558.088-9.16 0-9.16 0s-2.296-7.688-12.797-5.558l-17.574 2.12s-6.502 3.065-8.49 7.425c-1.989 4.361-2.296 7.601-4.834 9.271-2.537 1.669-12.247 14.279-11.445 17.168.802 2.889-2.669 10.16-1.966 17.86.703 7.699 2.197 18.672 2.197 18.672s-5.13 4.965-2.054 11.468c0 0-2.263 7.82.066 13.949l3.47 5.986s-4.646 16.575-3.613 25.154c1.032 8.578 4.778 60.664 4.778 60.664l74.372-9.084 30.316-10.984s-2.252-26.713-6.777-43.331z" fill="#FF725E"/><path opacity=".3" d="M120.922 214.621c.67-2.197-.34-4.064-2.263-5.317a10.392 10.392 0 00-5.546-1.153c-6.525-.077-13.379.417-18.893 3.888a9.524 9.524 0 00-3.756 3.878c-.758 1.647-.132 2.954.736 4.866l7.117-6.668 22.605.506z" fill="#000"/><path d="M91.397 172.409l11.764-7.128 3.383-.143c7.403-1.219 13.884 6.096 14.938 12.082 1.176 6.656 2.34 14.829 2.109 19.925-.472 10.226-8.04 12.368-8.04 12.368s.538 2.691 1.098 5.997a10.61 10.61 0 01-1.809 8.142 10.617 10.617 0 01-7.132 4.325 10.611 10.611 0 01-11.961-8.787l-7.14-42.838a3.559 3.559 0 012.79-3.943z" fill="#9E5F58"/><path d="M118.736 184.393a1.296 1.296 0 01-1.098 1.439 1.254 1.254 0 01-.943-.198 1.237 1.237 0 01-.518-.813 1.296 1.296 0 011.098-1.439 1.254 1.254 0 01.944.198 1.237 1.237 0 01.517.813zM119.626 181.306c-.132.187-1.197-.428-2.581-.263-1.384.164-2.329.966-2.493.813-.165-.154 0-.385.45-.758a3.554 3.554 0 011.977-.868 3.448 3.448 0 012.076.428c.472.286.67.571.571.648zM112.739 193.18a9.32 9.32 0 012.197-.659c.351-.077.681-.187.714-.429a1.819 1.819 0 00-.363-1.032l-1.351-2.581a48.99 48.99 0 01-3.141-6.788 45.93 45.93 0 013.691 6.524c.45.912.889 1.769 1.307 2.603.27.404.391.89.34 1.373a.89.89 0 01-.527.582c-.191.074-.39.122-.593.143a8.845 8.845 0 01-2.274.264z" fill="#263238"/><path d="M115.529 209.491a25.718 25.718 0 01-13.862-2.076s4.394 6.591 14.279 4.493l-.417-2.417zM112.52 196.585a2.484 2.484 0 00-2.34-.67 2.27 2.27 0 00-1.439 1.076 1.472 1.472 0 00.077 1.67 1.678 1.678 0 001.867.253 5.134 5.134 0 001.659-1.264c.144-.127.263-.279.351-.45a.461.461 0 00-.066-.516" fill="#794742"/><path d="M108.741 194.597c.22 0 .396 1.472 1.801 2.394 1.406.923 2.999.582 3.032.791.033.209-.329.33-1 .429a3.832 3.832 0 01-2.526-.583 3.294 3.294 0 01-1.417-2.01c-.099-.626.022-1.021.11-1.021zM118.473 176.418c-.209.352-1.208.132-2.362.242-1.153.11-2.098.45-2.361.143-.11-.143 0-.483.395-.824a3.302 3.302 0 011.856-.736 3.208 3.208 0 011.945.429c.439.274.615.582.527.746zM102.557 186.37a1.3 1.3 0 001.428 1.098 1.253 1.253 0 001.098-1.362 1.298 1.298 0 00-1.427-1.098 1.255 1.255 0 00-1.099 1.362zM100.701 183.975c.186.154 1.098-.714 2.427-.922 1.329-.209 2.505.34 2.625.143.121-.198-.142-.363-.637-.616a3.583 3.583 0 00-2.131-.318 3.437 3.437 0 00-1.9.945c-.373.384-.472.714-.384.768zM101.228 181.076c.297.285 1.197-.187 2.34-.374 1.142-.187 2.141-.11 2.317-.472.077-.165-.132-.461-.593-.692a3.434 3.434 0 00-3.756.681c-.352.384-.484.725-.308.857z" fill="#263238"/><path d="M93.968 192.883c-.088-.747-1.099-2.416-1.9-2.449-2.01-.088-5.493.461-5.02 5.492.714 6.865 7.458 4.723 7.447 4.525-.011-.197-.23-4.986-.527-7.568z" fill="#9E5F58"/><path d="M91.53 198.09s-.11.088-.297.208a1.213 1.213 0 01-.901.11 2.972 2.972 0 01-1.648-2.504 4.007 4.007 0 01.165-1.757 1.394 1.394 0 01.802-1.011.626.626 0 01.736.253c.11.186.088.329.12.34.034.011.133-.132 0-.406a.671.671 0 00-.307-.407.904.904 0 00-.68-.11 1.725 1.725 0 00-1.1 1.198 4.239 4.239 0 00-.208 1.955 3.096 3.096 0 002.054 2.779 1.282 1.282 0 001.099-.297c.175-.208.197-.351.164-.351z" fill="#794742"/><path d="M90.98 190.401l2.032 1.505c6.25-8.392 17.816-28.69 17.19-27.46a21.975 21.975 0 00-10.841.637c-5.382 1.867-15.378 6.404-14.17 12.917 1.209 6.514 5.789 12.401 5.789 12.401z" fill="#263238"/><path opacity=".3" d="M139.573 308.38c1.955-.78 2.757-3.296 4.679-4.163a8.962 8.962 0 012.867-.473 13.457 13.457 0 009.621-5.394 13.46 13.46 0 002.362-10.774c-4.811 1.845-9.709 3.734-13.708 6.997-3.998 3.262-6.996 8.161-6.645 13.356" fill="#000"/><path d="M137.969 289.257l5.492-8.623.56-16.761v-18.409l-1.23-9.084-8.106-24.319s10.984.407 13.181 4.789c2.197 4.383 15.795 41.827 15.795 41.827s3.064 8.557 3.295 10.303c.231 1.747 1.878 4.976.626 7.777-1.252 2.801-7.908 10.325-7.908 10.325l-2.197 2.91c.229.818.292 1.673.186 2.516-.186.373-2.592 4.811-5.492 6.733-1.482.988-4.305.264-4.393.143l-9.809-10.127z" fill="#FF725E"/><path d="M81.281 247.814c.027.171.027.345 0 .516-.077.407-.165.89-.263 1.472a203.087 203.087 0 00-.956 5.393c-.747 4.559-1.56 10.896-2.197 17.926-.637 7.03-.856 13.422-.988 18.047-.066 2.196-.11 4.097-.154 5.492v1.493a1.62 1.62 0 01-.066.517 2.723 2.723 0 010-.517v-1.493c0-1.296-.055-3.175 0-5.492 0-4.636.242-11.039.824-18.091.582-7.052 1.46-13.4 2.317-17.948.418-2.284.824-4.119 1.099-5.382l.373-1.439c-.099-.329.011-.505.011-.494z" fill="#263238"/><path d="M83.665 223.144c-.049.14-.115.273-.198.396l-.637 1.098-2.472 4.086c-2.196 3.537-5.239 8.469-8.787 14.279l-.077-.351a31.167 31.167 0 006.59 3.295 37.66 37.66 0 017.327 3.493 12.213 12.213 0 014.998 6.063 27.85 27.85 0 011.23 7.238c.41 4.113.34 8.26-.209 12.357a25.024 25.024 0 01-2.493 7.953c-.353.666-.75 1.308-1.186 1.922a5.444 5.444 0 01-.484.637s.604-.912 1.472-2.669a26.253 26.253 0 002.318-7.964c.481-4.07.507-8.182.077-12.258a27.814 27.814 0 00-1.23-7.084 11.643 11.643 0 00-4.778-5.789 37.44 37.44 0 00-7.228-3.427 31.524 31.524 0 01-6.722-3.383l-.209-.154.132-.197 8.985-14.148c1.098-1.68 1.966-3.031 2.603-4.009l.714-1.098c.077-.105.165-.201.264-.286z" fill="#263238"/><path d="M92.155 279.371s1.549-14.762 2.197-21.858c.648-7.096-.154-10.501-.45-14.521-.297-4.02-3.12-23.22-3.12-23.22l4.646-2.911s4.822 6.272 10.391 5.492c9.732-1.351 10.512-7.897 10.512-7.897l4.624.165s-.549 20.353-.538 25.351c0 6.59.285 21.341.846 25.998.56 4.658 3.591 16.85 3.591 16.85l-32.699-3.449z" fill="#E0E0E0"/><path opacity=".3" d="M75.79 310.598a83.4 83.4 0 00-1.681 36.983c3.68 20.661 7.689 47.693 7.689 47.693l65.387-7.865c6.59-2.416 12.335-4.492 12.335-4.492s-11.72-69.496-19.398-75.57c-11.335-8.985-64.333 3.251-64.333 3.251z" fill="#000"/><path d="M92.155 279.371s-18.233 27.24-18.145 40.003c.088 12.764 15.938 74.922 15.938 74.922l51.47-6.184s5.547-55.656 4.767-66.167c-.78-10.512-21.781-40.828-21.781-40.828l-32.249-1.746z" fill="#263238"/><path d="M118.714 307.072a55.63 55.63 0 005.624-5.162c1.274-1.604 2.098-2.537 2.098-2.537s5.229-1.571 7.151-3.779c1.922-2.208 5.074-5.404 5.074-5.404l6.206 6.492s-3.581 5.799-3.866 7.688a54.185 54.185 0 01-2.471 7.173l-11.907-7.118s-2.526 3.548-4.152 3.933c-1.329.34-3.658 1.307-3.757-1.286zM71.275 294.946s-2.867 6.195-2.516 8.271c.352 2.076 9.513 9.479 9.513 9.479l6.886-8.468s3.823.812 5.24.219c1.417-.593 2.197-1.867 2.032-2.592-.165-.725-3.493-.747-4.778-.802-1.285-.055-8.633-3.108-11.072-2.394 0 0 .319-3.845-1.428-4.185a8.61 8.61 0 00-3.877.472z" fill="#9E5F58"/><path d="M128.029 301.767c.143 0 0 .945-.637 1.889-.637.945-1.351 1.472-1.45 1.351-.099-.12.417-.79.977-1.658.561-.868.956-1.637 1.11-1.582z" fill="#794742"/><path d="M125.47 212.017c.141.06.274.138.395.231l1.098.725 3.999 2.79 13.653 9.787.274.186-.252.242a64.478 64.478 0 00-6.129 6.393 145.374 145.374 0 00-12.994 18.672 252.33 252.33 0 00-3.46 5.998c-.374.659-.67 1.208-.912 1.636a3.96 3.96 0 01-.352.56c.054-.214.135-.421.242-.615.187-.395.461-.955.835-1.691a141.072 141.072 0 013.295-6.096 131.688 131.688 0 0112.895-18.893 63.188 63.188 0 016.206-6.436v.428l-13.543-9.885-3.91-2.911-1.022-.802c-.22-.198-.329-.297-.318-.319zM155.489 338.849s.088.132.197.406l.198.506.132.329.066.165s.066.088 0 0 0 0-.099 0 0 .077 0 .066c-.275-1.099-.736-2.636-1.285-4.558a1484.84 1484.84 0 01-4.229-15.081c-1.615-5.899-3.032-11.259-3.976-15.158-.472-1.944-.835-3.526-1.099-4.624a8.833 8.833 0 01-.274-1.725c.201.545.367 1.103.494 1.67l1.241 4.58c1.099 3.965 2.527 9.259 4.13 15.103 1.604 5.843 3.065 11.247 4.064 15.125.506 1.944.912 3.515 1.099 4.635v.198c0 .077-.11 0-.11 0s-.066-.099-.099-.143l-.066-.187-.11-.34c0-.187-.099-.363-.142-.528a1.637 1.637 0 01-.132-.439zM90.629 275.351c-.055.143-.89 0-1.857-.451-.966-.45-1.702-.823-1.647-.966.055-.143.89.055 1.856.439.967.385 1.714.824 1.648.978zM129.545 270.452a4.132 4.132 0 01-2.318 1.384 4.056 4.056 0 01-2.691.187 15.868 15.868 0 012.526-.725c.8-.358 1.631-.641 2.483-.846z" fill="#263238"/><path d="M93.979 207.316s-.11.253-.473.593a4.586 4.586 0 01-1.845.978 5.105 5.105 0 01-3.097-.099 5.117 5.117 0 01-2.955-6.425 5.14 5.14 0 011.944-2.428 4.774 4.774 0 011.944-.747c.494-.066.769 0 .769 0a7.117 7.117 0 00-2.471 1.099 4.962 4.962 0 00-1.692 2.273 4.646 4.646 0 00.209 3.394 4.592 4.592 0 002.438 2.362 4.96 4.96 0 002.812.209 7.018 7.018 0 002.417-1.209z" fill="#E0E0E0"/><path opacity=".3" d="M121.197 258.502s5.887-10.007 9.82-14.225c3.932-4.217 8.995-7.688 14.696-8.578a21.24 21.24 0 00-4.569-7.008s-14.565 17.146-19.947 29.811z" fill="#000"/><path d="M159.663 287.06a4.113 4.113 0 01-.506.79l-1.581 2.197v-.099c.055.418.12.868.186 1.351 0 .242.066.484.099.747.003.295-.077.584-.23.835a21.09 21.09 0 01-2.109 3.01 36.41 36.41 0 01-2.911 3.295 3.151 3.151 0 01-2.329.901c-.88 0-1.753-.153-2.581-.451l-9.237-9.281a2.933 2.933 0 01-.901-2.197 6.366 6.366 0 01.472-2.351 8.59 8.59 0 013.01-3.767 8.777 8.777 0 011.79-.945l-.154.121 3.889-6.898v.198l-4.504-22.33-1.263-6.536c-.132-.725-.231-1.307-.307-1.746a2.61 2.61 0 01-.077-.615c.07.193.125.391.164.593.11.439.242 1.021.407 1.735.351 1.582.835 3.779 1.428 6.503 1.175 5.601 2.812 13.367 4.69 22.275v.198c-1.23 2.197-2.537 4.525-3.877 6.909v.077h-.099a8.911 8.911 0 00-1.659.889 8.017 8.017 0 00-2.812 3.504c-.274.678-.42 1.4-.428 2.131a2.355 2.355 0 00.692 1.812l9.128 9.227-.088-.055c1.537.527 3.394.769 4.393-.319a35.703 35.703 0 002.911-3.163 21.554 21.554 0 002.131-2.922c.138-.2.215-.437.22-.681l-.088-.736c0-.472-.088-.911-.132-1.329v-.055l1.658-2.13c.185-.245.387-.476.605-.692z" fill="#263238"/><path d="M155.236 291.596a51.091 51.091 0 00-5.492-5.547 54.2 54.2 0 00-6.59-4.207 7.316 7.316 0 012.197.78 23.91 23.91 0 014.745 2.977 23.558 23.558 0 013.888 4.02 6.968 6.968 0 011.252 1.977zM159.849 271.99a24.8 24.8 0 00-7.062.197 24.794 24.794 0 00-6.514 2.713 5.502 5.502 0 011.637-1.351 14.81 14.81 0 014.767-1.867 14.618 14.618 0 015.129-.198 5.501 5.501 0 012.043.506z" fill="#263238"/><path opacity=".3" d="M89.97 255.041c-1.472-3.295-4.394-5.492-7.601-6.996-3.208-1.505-6.536-2.505-9.886-4.46v.297a9.196 9.196 0 003.658 4.163c1.56 1.098 3.295 1.823 4.887 2.801a23.383 23.383 0 0110.238 13.455 20.226 20.226 0 00-1.297-9.26z" fill="#000"/><path d="M115.529 391.528c-.154 0-2.01-14.367-4.152-32.128-2.142-17.761-3.734-32.172-3.581-32.194.154-.022 2.021 14.367 4.152 32.128 2.131 17.761 3.735 32.172 3.581 32.194zM114.233 314.52c.143.088-1.56 2.68-3.427 6.008s-3.229 6.107-3.372 6.041a39.354 39.354 0 016.799-12.049zM111.674 253.394a7.418 7.418 0 01-1.384 1.801 31.1 31.1 0 01-8.721 6.591 7.276 7.276 0 01-2.11.845c-.076-.153 3.054-1.647 6.415-4.217 3.361-2.571 5.668-5.141 5.8-5.02z" fill="#455A64"/><path d="M76.822 286.302c-.528.068-1.06.098-1.593.088a8.514 8.514 0 00-3.537 1.098 8.413 8.413 0 00-2.702 2.526c-.55.791-.78 1.362-.868 1.329a2.918 2.918 0 01.517-1.537 7.534 7.534 0 012.757-2.823 7.457 7.457 0 013.811-.989 3.006 3.006 0 011.615.308zM73.395 277.328c.099.132-.495.714-1.318 1.307-.824.593-1.571.967-1.659.846-.088-.121.494-.714 1.318-1.307.824-.593 1.57-1 1.659-.846z" fill="#263238"/><path d="M62.905 259.237a2.637 2.637 0 01-4.384 2.119 2.638 2.638 0 114.129-3.118c.15.313.237.652.255.999zM128.325 338.453a2.63 2.63 0 01-1.476 2.53 2.637 2.637 0 01-3.647-3.23 2.634 2.634 0 012.333-1.771 2.638 2.638 0 012.79 2.471z" fill="#455A64"/><path d="M40.377 241.74c.099-.121 4.646 3.734 10.138 8.611 5.492 4.877 9.886 8.919 9.765 9.04-.121.121-4.646-3.734-10.15-8.611-5.502-4.877-9.863-8.93-9.753-9.04zM166.033 325.613a9.278 9.278 0 01-1.658.341l-4.57.714c-3.855.571-9.193 1.329-15.092 2.131l-1.01.131h.099a938.07 938.07 0 01-12.786 6.986l-3.866 2.043a9.345 9.345 0 01-1.45.681c.42-.329.868-.62 1.34-.867l3.79-2.197a749.32 749.32 0 0112.697-7.14l1.011-.143c5.898-.801 11.247-1.493 15.114-1.966l4.591-.527a11.32 11.32 0 011.79-.187zM40.915 234.414a82.735 82.735 0 01-9.82.285 82.761 82.761 0 01-9.808-.285 85.626 85.626 0 019.809-.286 85.592 85.592 0 019.82.286zM36.741 237.204a43.191 43.191 0 01-6.953.285 43.212 43.212 0 01-6.963-.285 41.77 41.77 0 016.963-.286 41.746 41.746 0 016.953.286zM195.229 323.12c-3.391.526-6.809.86-10.237 1a94.923 94.923 0 01-10.27.417 89.351 89.351 0 0110.237-.989 93.395 93.395 0 0110.27-.428zM191.373 326.173a29.878 29.878 0 01-5.854.561c-1.958.192-3.93.192-5.888 0a30.712 30.712 0 015.866-.55 30.599 30.599 0 015.876-.011z" fill="#455A64"/><path d="M463.325 486.495c0 .165-99.746.286-222.766.286s-222.787-.121-222.787-.286c0-.165 99.723-.286 222.787-.286 123.064 0 222.766.132 222.766.286z" fill="#263238"/></svg>