<svg width="500" height="330" fill="none" xmlns="http://www.w3.org/2000/svg"><path d="M137.87 94.226H42.654V29.084h95.216v65.142zm-94.465-.752h93.713V29.836H43.405v63.638z" fill="#EBEBEB"/><path d="M50.105 33.28a1.895 1.895 0 11-3.79 0 1.895 1.895 0 013.79 0z" fill="#A6A6A6"/><path d="M57.841 33.28a1.895 1.895 0 11-3.79 0 1.895 1.895 0 013.79 0z" fill="#EBEBEB"/><path d="M65.578 33.28a1.895 1.895 0 11-3.79 0 1.895 1.895 0 013.79 0z" fill="#FF725E"/><path d="M137.494 36.618H43.029v.752h94.465v-.752zM482.068 125.744l4.428-7.135-2.188-1.353a1.966 1.966 0 01-.924-1.873c0-.421.045-.842 0-1.255a1.99 1.99 0 011.037-1.812l2.256-1.218-3.97-7.399-2.256 1.211a2.002 2.002 0 01-2.082-.135c-.344-.239-.701-.46-1.068-.662a2 2 0 01-1.053-1.812l.083-2.564-8.391-.263-.082 2.579a1.995 1.995 0 01-1.166 1.737l-.556.278-.534.308a2.01 2.01 0 01-2.083 0l-2.18-1.331-4.429 7.135 2.188 1.361a1.985 1.985 0 01.925 1.88c-.022.416-.022.832 0 1.248a1.987 1.987 0 01-1.045 1.812l-2.256 1.218 3.97 7.399 2.256-1.211a1.992 1.992 0 012.083.128c.344.239.7.46 1.067.662a2 2 0 011.053 1.811l-.075 2.572 8.39.263.083-2.579a1.988 1.988 0 011.166-1.729l.556-.278.534-.309a2.007 2.007 0 012.098 0l2.165 1.316zm-7.105-5.263a6.875 6.875 0 01-7.608-.74 6.876 6.876 0 01-.014-10.635 6.878 6.878 0 0110.434 2.059 6.88 6.88 0 01-2.812 9.286v.03zM181.478 45.069l-2.939-5.098-1.564.902a1.393 1.393 0 01-1.504-.052 6.807 6.807 0 00-.752-.436 1.393 1.393 0 01-.752-1.248V37.34h-5.857v1.797a1.4 1.4 0 01-.752 1.248 7.897 7.897 0 00-.752.436 1.388 1.388 0 01-1.466.052l-1.556-.902-2.992 5.098 1.563.902a1.392 1.392 0 01.685 1.293v.865a1.396 1.396 0 01-.677 1.293l-1.571.91 2.939 5.098 1.564-.903a1.377 1.377 0 011.466.053c.243.158.494.304.752.436a1.402 1.402 0 01.752 1.24v1.805h5.887v-1.804a1.388 1.388 0 01.752-1.241 8.24 8.24 0 00.752-.436 1.374 1.374 0 011.504-.053l1.564.903 2.939-5.098-1.563-.902a1.392 1.392 0 01-.685-1.294V47.7v-.436a1.404 1.404 0 01.685-1.3l1.578-.895zm-5.624 2.631a4.824 4.824 0 01-5.75 4.744 4.823 4.823 0 01-3.795-3.783 4.824 4.824 0 012.047-4.952 4.82 4.82 0 014.521-.45 4.819 4.819 0 012.608 2.6c.243.584.368 1.21.369 1.841zM41.796 172.744a22.915 22.915 0 00-22.485 27.383 22.918 22.918 0 0041.532 8.266 22.915 22.915 0 003.863-12.732 22.913 22.913 0 00-14.14-21.173 22.905 22.905 0 00-8.77-1.744zm0 33.608a10.694 10.694 0 01-9.88-6.612 10.698 10.698 0 1120.587-4.079 10.697 10.697 0 01-6.61 9.882c-1.3.536-2.691.811-4.097.809z" fill="#EBEBEB"/><path d="M46.165 173.699h-8.812l.489-6.241h7.834l.489 6.241zM29.398 176.668l-6.233 6.226-4.068-4.752 5.542-5.541 4.759 4.067zM19.639 190.623v8.812l-6.24-.489v-7.834l6.24-.489zM22.601 207.39l6.233 6.233-4.752 4.067-5.54-5.541 4.06-4.759zM36.563 217.149h8.812l-.489 6.24h-7.834l-.489-6.24zM53.33 214.179l6.233-6.225 4.06 4.751-5.534 5.542-4.759-4.068zM63.09 200.224v-8.812l6.24.489v7.835l-6.24.488zM60.12 183.458l-6.226-6.233 4.752-4.068 5.541 5.541-4.068 4.76zM424.204 147.902a22.906 22.906 0 00-21.165 14.142 22.91 22.91 0 1021.165-14.142zm0 33.608a10.695 10.695 0 01-9.885-6.604 10.705 10.705 0 012.32-11.66 10.699 10.699 0 117.565 18.264z" fill="#EBEBEB"/><path d="M428.61 148.849h-8.812l.489-6.233h7.834l.489 6.233zM411.843 151.819l-6.233 6.233-4.067-4.759 5.541-5.534 4.759 4.06zM402.084 165.774v8.812l-6.24-.489v-7.835l6.24-.488zM405.047 182.548l6.233 6.225-4.752 4.068-5.542-5.541 4.061-4.752zM419.009 192.307h8.804l-.481 6.233h-7.835l-.488-6.233zM435.775 189.337l6.233-6.233 4.06 4.76-5.541 5.541-4.752-4.068zM445.535 175.383v-8.812l6.233.489v7.834l-6.233.489zM442.565 158.608l-6.226-6.225 4.752-4.068 5.541 5.542-4.067 4.751zM488.684 192.683l-9.864.211-5.008.082c-1.676.038-3.36 0-5.037.045h-.331v-.338l-.045-8.436v-.376h.376l9.955.045c3.323 0 6.639.083 9.954.121h.211v.21c0 1.429-.06 2.85-.098 4.256l-.113 4.18zm0 0l-.105-4.248c-.038-1.399-.083-2.782-.098-4.165l.203.21c-3.315.038-6.631.12-9.954.12l-9.955.046.376-.376v8.413l-.339-.331c1.64 0 3.279 0 4.925.038l4.895.128 10.052.165zM477.579 203.292l-9.864.211-5.015.082c-1.669 0-3.354 0-5.03.045h-.331V194.503h.376l9.955.052c3.315 0 6.639.083 9.954.121h.211v.203c0 1.428-.06 2.849-.098 4.255l-.158 4.158zm0 0l-.105-4.248c-.038-1.399-.083-2.782-.098-4.165l.203.21c-3.315.038-6.639.12-9.954.12l-9.955.046.376-.376v8.413l-.339-.331c1.639 0 3.279 0 4.925.038l4.94.09 10.007.203zM499.789 203.292l-9.864.211-5.008.082c-1.676 0-3.36 0-5.037.045h-.331v-.338l-.045-8.413v-.376h.376l9.955.052c3.323 0 6.639.083 9.954.121H500v.203c0 1.428-.068 2.849-.098 4.255l-.113 4.158zm0 0l-.105-4.248c0-1.399-.083-2.782-.098-4.165l.203.21c-3.315.038-6.631.12-9.954.12l-9.955.046.376-.376v8.413l-.338-.331c1.646 0 3.278 0 4.924.038l4.948.09 9.999.203zM204.794 92.572l-9.865.21-5.007.083h-5.368v-.338l-.046-8.414v-.376h.376l9.955.045c3.323 0 6.639.083 9.955.12h.21v.204c0 1.428-.067 2.842-.105 4.248l-.105 4.218zm0 0l-.105-4.256c0-1.398-.083-2.782-.098-4.158l.203.203c-3.316 0-6.632.12-9.955.12l-9.955.053.376-.376-.037 8.414-.339-.339c1.639 0 3.279 0 4.925.045l4.947.083 10.038.21zM193.674 103.181l-9.865.21-5.015.083c-1.669 0-3.353 0-5.03.038h-.331v-.339l-.06-8.398v-.376h.376l9.955.045c3.316 0 6.639.083 9.955.12h.21v.21c0 1.43-.06 2.843-.097 4.249l-.098 4.158zm0 0l-.105-4.256c-.038-1.398-.083-2.782-.098-4.158l.203.203c-3.316.038-6.639.12-9.955.12l-9.955.053.376-.376-.015 8.414-.338-.339c1.639 0 3.278 0 4.925.046l4.939.082 10.023.211zM215.899 103.181l-9.865.21-5.007.083c-1.677 0-3.353 0-5.037.038h-.331v-.339l-.045-8.398v-.376h.376l9.954.045c3.324 0 6.639.083 9.955.12h.211v.21c0 1.43-.068 2.843-.098 4.249l-.113 4.158zm0 0l-.105-4.256c0-1.398-.083-2.782-.098-4.158l.203.203c-3.316.038-6.631.12-9.955.12l-9.954.053.375-.376-.037 8.414-.338-.339c1.646 0 3.278 0 4.924.046l4.948.082 10.037.211zM42.458 148.24l-9.864.211-5.016.082c-1.669 0-3.353 0-5.03.038h-.3V139.443h.376l9.954.045c3.316 0 6.64.083 9.955.121h.21v.203c0 1.428-.06 2.842-.097 4.248l-.188 4.18zm0 0l-.105-4.255c0-1.399-.083-2.782-.098-4.158l.203.203c-3.316.037-6.639.12-9.955.12l-9.954.053.375-.376-.037 8.413-.338-.338c1.639 0 3.278 0 4.924.045l4.94.083 10.045.21zM372.513 92.564l-9.864.21-5.008.083c-1.676.038-3.361 0-5.037.038h-.331v-.338l-.045-8.414v-.376h.376l9.954.045c3.324 0 6.639.09 9.955.128h.211v.203c0 1.429-.06 2.85-.098 4.248l-.113 4.173zm0 0l-.105-4.248c-.038-1.406-.083-2.79-.098-4.165l.203.203c-3.316.037-6.631.12-9.955.128l-9.954.045.376-.376-.038 8.413-.338-.338c1.639 0 3.278 0 4.924.045l4.948.083 10.037.21zM487.534 10.851l-9.865.21-5.014.084c-1.67 0-3.354 0-5.03.045h-.331V2.062h.376l9.954.045c3.316 0 6.639.09 9.955.128h.211v.203c0 1.428-.061 2.85-.098 4.248l-.158 4.165zm0 0l-.105-4.248c-.038-1.406-.083-2.79-.098-4.165l.203.203c-3.316 0-6.639.12-9.955.128l-9.954.045.375-.376-.037 8.413-.338-.338c1.639 0 3.278 0 4.924.045l4.94.083 10.045.21zM498.639 21.46l-9.864.21-5.008.083c-1.677.038-3.361 0-5.037.038h-.331v-.338l-.045-8.414v-.376h.376l9.954.045c3.324 0 6.639.09 9.955.128h.211v.203c0 1.429-.068 2.85-.106 4.248l-.105 4.173zm0 0l-.105-4.248c0-1.406-.083-2.79-.098-4.165l.203.203c-3.316 0-6.631.12-9.955.128l-9.954.045.376-.376v8.413l-.339-.338c1.639 0 3.278 0 4.925.045l4.947.083 10 .21zM20.248 10.859l-9.872.21-5.008.083c-1.669 0-3.353 0-5.03.045H0V2.069h.383l9.955.053c3.316 0 6.632.083 9.955.12h.203v.203c0 1.429-.068 2.85-.098 4.256l-.15 4.158zm0 0l-.113-4.248c0-1.406-.083-2.79-.098-4.166l.21.203c-3.322.045-6.638.12-9.954.128l-9.955.045.376-.376L.67 10.86l-.33-.294h4.917l4.947.083 10.045.21z" fill="#EBEBEB"/><path d="M438.843 207.021c-4.804-9.872-13.21-14.947-22.684-12.142-9.473 2.804-10.94 16.007-3.872 19.345 7.068 3.339 14.143-6.406 17.879-8.406 3.737-2 8.677 1.203 8.677 1.203z" fill="#FF725E"/><path d="M443.49 233.299c0-1.188-.068-2.376-.113-3.564l-.248-7.135c-.166-4.346-.632-8.609-2.436-12.616a19.548 19.548 0 00-7.617-8.782 15.963 15.963 0 00-4.007-1.729 9.367 9.367 0 00-4.677-2.564 19.042 19.042 0 00-6.661-.173c-.076 0-.076.135 0 .128a16.042 16.042 0 016.3.451c.879.241 1.73.571 2.542.985.522.275 1.024.587 1.503.932a13.536 13.536 0 00-5.789.06c-.686.165-1.358.386-2.008.662a5.626 5.626 0 00-1.579-.136 9.485 9.485 0 00-2.052.294 15.755 15.755 0 00-3.895 1.699.046.046 0 00-.017.017.062.062 0 00-.011.047.085.085 0 00.009.022.098.098 0 00.017.018.067.067 0 00.023.01c.008.001.016.002.024 0a.05.05 0 00.023-.009 14.588 14.588 0 013.804-1.428 12.064 12.064 0 011.955-.286 8.508 8.508 0 011.083 0 12.523 12.523 0 00-6.12 6.105c0 .068.075.128.105.06a11.54 11.54 0 017.804-6.263c.211-.052.429-.075.639-.12a8.74 8.74 0 00-.105.955c-.06.481-.143.962-.24 1.436a23.25 23.25 0 01-1.918 5.691 13.173 13.173 0 01-1.601 2.7c-.06.075.052.158.097.075.572-.887 1.234-1.714 1.752-2.639.498-.883.928-1.803 1.286-2.752.362-.963.643-1.953.842-2.962.105-.534.188-1.068.248-1.609.065-.322.086-.651.06-.978a12.926 12.926 0 013.369-.067c-.421 2.353-.872 4.811-2.196 6.857 0 .067.076.127.113.06a28.206 28.206 0 001.624-3.369c.438-1.125.712-2.308.812-3.511a15.56 15.56 0 015.564 1.865 18.355 18.355 0 017.406 8.105 30.285 30.285 0 012.744 11.609c.316 5.045.384 10.12.887 15.157 0 .324.549.436.617.068.117-1.122.13-2.252.038-3.376zM432.392 200.413a5.65 5.65 0 00-1.098-1.008c-.39-.331-.796-.642-1.218-.932a8.95 8.95 0 00-2.729-1.263c-.075 0-.105.105 0 .12.982.249 1.901.7 2.699 1.323.399.294.752.617 1.158.94.335.351.705.666 1.105.94.038.038.128-.053.083-.12z" fill="#263238"/><path d="M417.061 203.991a27.922 27.922 0 00-2.203 2.91 17.79 17.79 0 00-1.639 3.248c0 .038 0 .06.053 0a38.773 38.773 0 013.88-6.105c.052-.03-.046-.12-.091-.053zM427.392 203.044a6.98 6.98 0 01-.541 1.782c-.263.553-.57 1.083-.918 1.587 0 0 0 .067.061.037a6.398 6.398 0 001.503-3.376c.008-.113-.09-.143-.105-.03z" fill="#263238"/><path d="M442.82 207.262s6.767-8.549 19.932-5.519c12.474 2.88 18.233 25.759 5.624 28.496-12.608 2.737-10.383-18.436-14.977-22.022-3.338-2.639-8.225-2.075-10.579-.955z" fill="#FF725E"/><path d="M472.888 214.24a26.028 26.028 0 00-2.707-2.076 11.734 11.734 0 00-2.88-1.436 17.294 17.294 0 00-1.714-2.203 17.121 17.121 0 00-3.962-3.157h.391a19.026 19.026 0 012.082 0c1.4.091 2.773.432 4.053 1.007a.086.086 0 00.023.006.06.06 0 00.024-.004.072.072 0 00.021-.012.095.095 0 00.015-.02.06.06 0 00.005-.024c.001-.008-.001-.016-.003-.024a.063.063 0 00-.013-.02.062.062 0 00-.02-.015 18.588 18.588 0 00-4.045-1.218 11.657 11.657 0 00-2.052-.173c-.369 0-.752 0-1.098.06h-.21a17.827 17.827 0 00-3.76-1.398l.369-.098a19.114 19.114 0 011.947-.316 14.909 14.909 0 013.925.061.075.075 0 00.033-.025.069.069 0 00.012-.039.072.072 0 00-.012-.04.066.066 0 00-.033-.024c-1.317-.158-2.645-.211-3.97-.158a17.075 17.075 0 00-3.301.428 16.972 16.972 0 00-2.391-.27c-4.579-.196-9.571 1.503-12.391 5.263-2.819 3.759-3.368 8.789-3.864 13.33a101.838 101.838 0 00-.504 19.083c0 .376.556.308.572-.053.172-5.391.36-10.789.879-16.165.233-2.489.504-4.985.917-7.458a22.103 22.103 0 011.805-6.136 11.288 11.288 0 014.436-4.767 14.89 14.89 0 016.271-1.924 16.89 16.89 0 015.894.549 4.005 4.005 0 000 1.157c.045.488.143.97.293 1.436.139.444.323.872.549 1.279.241.451.549.849.82 1.278 0 .075.15 0 .098-.068a5.94 5.94 0 01-1.015-2.586 10.023 10.023 0 01-.158-1.339v-1.015a17.236 17.236 0 015.736 3.008c.316.255.624.526.925.804a6.352 6.352 0 00-1.113 1.369 13.798 13.798 0 00-1.165 2.075c-.608 1.463-1.017 3-1.218 4.571 0 .075.113.098.128 0 .245-1.52.754-2.985 1.504-4.33.35-.664.739-1.307 1.165-1.925.226-.316.451-.624.692-.925.128-.165.27-.331.391-.504a18.053 18.053 0 013.759 5.263 8.882 8.882 0 00-1.504 2.211c-.473.843-.883 1.72-1.225 2.624a44.06 44.06 0 00-1.572 5.353c0 .075.113.098.128 0a22.602 22.602 0 011.857-5.263c.399-.827.812-1.632 1.248-2.436.453-.742.864-1.507 1.233-2.293a16.905 16.905 0 011.504 6.082c0 .076.128.068.128 0a21.221 21.221 0 00-3.12-9.285c.797.346 1.609.669 2.376 1.09.988.52 1.905 1.164 2.729 1.917.06.068.143 0 .083-.082z" fill="#263238"/><path d="M463.264 214.728c-.399 1.293-.895 2.549-1.248 3.857a14.965 14.965 0 00-.579 3.865s.06.037.06 0a37.545 37.545 0 011.886-7.709.075.075 0 00-.004-.026.061.061 0 00-.037-.034.054.054 0 00-.05.006.054.054 0 00-.028.041zM471.579 211.51a7.31 7.31 0 00-1.744-1.241 12.854 12.854 0 00-2.008-.714c-.075 0-.105.105 0 .12a7.928 7.928 0 011.933.805c.623.318 1.221.683 1.789 1.09a.046.046 0 00.02-.005.036.036 0 00.014-.016.045.045 0 00.004-.02.046.046 0 00-.008-.019z" fill="#263238"/><path d="M449.309 195.849s1.256-15.361 12.669-20.338c9.534-4.158 14.992 6.556 8.271 13.112-5.489 5.309-14.233 2.918-20.94 7.226z" fill="#FF725E"/><path d="M468.106 178.488a46.591 46.591 0 00-5.075 2.406 37.452 37.452 0 00-3.948 2.601c.196-.391.354-.797.549-1.18.294-.592.618-1.17.97-1.729a16.366 16.366 0 012.511-3.188c.06-.053 0-.143-.09-.083a24.686 24.686 0 00-2.647 3.083 17.185 17.185 0 00-1.082 1.737 6.576 6.576 0 00-.752 1.766l-.128.091a37.326 37.326 0 00-5.451 5.338c0-.15.06-.301.098-.444.218-.752.451-1.503.692-2.255a18.835 18.835 0 012.067-4.511c.045-.068-.067-.136-.113-.061a36.165 36.165 0 00-2.391 4.361 17.548 17.548 0 00-.751 2.256 10.294 10.294 0 00-.369 1.549 39.657 39.657 0 00-1.443 1.917c-4.903 6.977-7.369 15.421-7.955 23.864a74.558 74.558 0 00-.128 7.564c.02 2.545.243 5.085.669 7.594 0 .158.278.113.278-.045-.06-2.218-.285-4.429-.33-6.647a67.837 67.837 0 01.21-6.669 61.88 61.88 0 012.496-13.067 46.761 46.761 0 015.745-12.218c.481-.098.954-.226 1.428-.346.474-.12 1.143-.293 1.707-.451a17.265 17.265 0 003.188-1.173c.067 0 0-.143-.068-.105-1.006.552-2.1.929-3.233 1.112-.887.181-1.819.301-2.714.504a42.945 42.945 0 012.654-3.488c2.177.195 4.372.03 6.496-.489 1.13-.268 2.24-.612 3.323-1.03 1.143-.444 2.256-1.008 3.354-1.504.09-.038 0-.158-.045-.113a19.347 19.347 0 01-6.587 2.158 40.32 40.32 0 01-6.158.504 38.844 38.844 0 012.542-2.684c3.007-2.857 6.563-5.481 10.526-6.85.06.015.022-.105-.045-.075z" fill="#263238"/><path d="M458.805 178.533a17.134 17.134 0 00-1.398 2.045 11.466 11.466 0 00-1.008 2.384s.038.045.045 0c.384-.752.707-1.542 1.09-2.256a11.23 11.23 0 011.361-2.075c.053-.075-.037-.158-.09-.098zM469.422 183.646c-.743.409-1.527.736-2.339.977a20.28 20.28 0 01-2.383.64c-.038 0 0 .075 0 .067a11.45 11.45 0 002.466-.541 20.007 20.007 0 002.316-1.038c.075-.03.015-.143-.06-.105z" fill="#263238"/><path d="M440.407 193.082c-.068.662-1.722-5.571-11.376-11.113-8.767-5.03-19.233-18.112-10.639-26.375 6.94-6.684 25.218 7.872 22.015 37.488z" fill="#FF725E"/><path d="M447.053 228.848a169.607 169.607 0 00-1.503-19.406 87.227 87.227 0 00-4.075-17.375c-.752-2.03-1.504-4.023-2.429-6.015.06-.763.06-1.53 0-2.293a64.199 64.199 0 00-.233-2.948c-.098-.977-.188-1.962-.301-2.94-.113-.977-.323-1.947-.368-2.924a.06.06 0 00-.005-.023.053.053 0 00-.013-.02.064.064 0 00-.019-.013.062.062 0 00-.023-.004.059.059 0 00-.023.004c-.008.003-.014.008-.02.013a.053.053 0 00-.013.02.06.06 0 00-.005.023c.191 1.028.306 2.068.346 3.112.076.948.128 1.895.158 2.843V184.826a81.717 81.717 0 00-2.932-5.646c.654-4.008-.196-8.188-1.015-12.098 0-.083-.135-.045-.12 0 .403 2.044.617 4.12.639 6.203 0 1.647 0 3.293-.045 4.932-.234-.391-.467-.789-.7-1.173a94.992 94.992 0 00-4.015-6.015 9.263 9.263 0 00-.09-2.849 23.094 23.094 0 00-.699-3.12 31.64 31.64 0 00-1.068-3.008c-.406-.977-.977-1.977-1.383-3.007a.061.061 0 00-.035-.032.061.061 0 00-.048.002.061.061 0 00-.032.035.06.06 0 00.002.047c.515.954.921 1.963 1.211 3.008a27.7 27.7 0 01.751 3.007c.203 1.015.369 2.03.512 3.06.097.677.158 1.384.27 2.068a74.275 74.275 0 00-6.766-7.865c-.053-.06-.136 0-.083.091a89.309 89.309 0 019.812 13.353l.315.534c-.533-.331-1.142-.594-1.646-.872l-2.812-1.549c-.917-.489-1.827-.993-2.737-1.504-.466-.256-.932-.526-1.406-.752a11.162 11.162 0 01-1.661-.915c-.008-.003-.017-.004-.026-.003a.053.053 0 00-.024.008.061.061 0 00-.019.017.064.064 0 00-.01.024.076.076 0 00.001.026.1.1 0 00.012.023.1.1 0 00.02.016c.925.511 1.745 1.27 2.647 1.842a64.024 64.024 0 002.752 1.654c1.722.955 3.579 1.646 5.263 2.639a81.626 81.626 0 013.248 6.293 44.578 44.578 0 00-3.135-1.872c-.685-.384-1.369-.752-2.06-1.128a10.012 10.012 0 01-1.948-1.173.06.06 0 00-.02-.012.067.067 0 00-.024-.004.046.046 0 00-.023.006.052.052 0 00-.019.014.063.063 0 00-.013.02.066.066 0 00-.003.024.06.06 0 00.005.023.094.094 0 00.014.019 18.156 18.156 0 003.707 2.579 53.995 53.995 0 003.76 2.06 81.87 81.87 0 012.789 6.903c4.068 11.511 5.556 23.721 6.271 35.849.218 3.616.323 7.233.368 10.857.045 3.624-.143 7.225-.135 10.842 0 .105.173.127.188 0 .436-3.211.511-6.474.654-9.7.143-3.225.143-6.466.067-9.759z" fill="#263238"/><path d="M429.52 176.766a45.987 45.987 0 01-5.135-2.654 54.766 54.766 0 01-4.873-3.09s-.052 0 0 .045a41.249 41.249 0 004.677 3.271 47.536 47.536 0 005.263 2.541c.075.03.136-.083.068-.113zM432.309 163.759a21.026 21.026 0 00-.504-1.654.055.055 0 00.013-.034.055.055 0 00-.013-.034c-.12-.308-.248-.616-.375-.925a.908.908 0 00-.046-.112l-.075-.181s-.037 0 0 0c.038 0 .06.218.098.323a.94.94 0 00.053.181 46.503 46.503 0 011.428 6.549.063.063 0 00.007.055.067.067 0 00.022.019.064.064 0 00.028.007.064.064 0 00.049-.026.063.063 0 00.007-.055 21.876 21.876 0 00-.692-4.113z" fill="#263238"/><path d="M457.256 231.187l-.691 8.165-2.106 24.894h-22.593l-2.106-24.894-.684-8.165h28.18z" fill="#37474F"/><path d="M457.256 231.187l-.691 8.165H429.76l-.684-8.165h28.18z" fill="#263238"/><path d="M459.474 227.908h-32.616v7.835h32.616v-7.835z" fill="#37474F"/><path d="M6.248 264.246l60.954-.181 60.954-.067 121.908-.121 121.908.121 60.954.067 60.954.181-60.954.188-60.954.067-121.908.121-121.908-.121-60.954-.067-60.954-.188z" fill="#263238"/><path d="M250.064 328.26c122.086 0 221.057-7.847 221.057-17.526 0-9.68-98.971-17.526-221.057-17.526-122.086 0-221.057 7.846-221.057 17.526 0 9.679 98.971 17.526 221.057 17.526zM407.949 65.993H90.916v212.072h317.033V65.993z" fill="#EBEBEB"/><path d="M405.641 68.58H93.217v206.899H405.64v-206.9z" fill="#263238"/><path d="M449.241 293.975H49.623v14.556h399.618v-14.556z" fill="#DBDBDB"/><path d="M49.623 293.975l41.293-15.902h317.033l41.292 15.902H49.623z" fill="#EBEBEB"/><path d="M94.6 288.328l26.646-10.255h256.372l26.647 10.255H94.6z" fill="#263238"/><path d="M387.994 84.301H110.878v175.464h277.116V84.301z" fill="#fff"/><path d="M383.069 91.053H110.637v42.413h272.432V91.053z" fill="#FF725E"/><path d="M387.987 84.301h-277.35v6.752h277.35v-6.752z" fill="#455A64"/><path d="M116.006 87.677a1.68 1.68 0 01-2.004 1.645 1.674 1.674 0 01-1.317-1.318A1.673 1.673 0 01114.329 86a1.678 1.678 0 011.677 1.677z" fill="#C7C7C7"/><path d="M122.848 87.677a1.68 1.68 0 01-2.004 1.645 1.674 1.674 0 01-1.317-1.318A1.673 1.673 0 01121.171 86a1.678 1.678 0 011.677 1.677z" fill="#fff"/><path d="M129.682 87.677a1.678 1.678 0 01-2.004 1.645 1.674 1.674 0 01-1.221-2.287 1.668 1.668 0 011.549-1.034 1.675 1.675 0 011.676 1.676z" fill="#FF725E"/><path d="M387.987 91.053h-4.918v168.712h4.918V91.053z" fill="#DBDBDB"/><path d="M385.528 149.541a1.265 1.265 0 01-1.271-1.271V93.316a1.272 1.272 0 01.37-.9 1.27 1.27 0 01.901-.37 1.268 1.268 0 011.174.784c.064.154.097.32.097.486v54.954a1.266 1.266 0 01-.372.899 1.277 1.277 0 01-.899.372z" fill="#A6A6A6"/><path d="M368.867 99.286h-66.232v8.842h66.232v-8.842z" fill="#fff"/><path d="M368.964 108.218h-66.42v-9.022h66.42v9.022zm-66.239-.18h66.059v-8.662h-66.089l.03 8.662z" fill="#C7C7C7"/><path d="M368.964 99.196h-9.022v9.022h9.022v-9.022z" fill="#455A64"/><path d="M367.25 106.181l-.812.624-1.504-2-.556-.752a1.379 1.379 0 00.737-.722l.586.752 1.549 2.098z" fill="#fff"/><path d="M365.649 101.481a2.252 2.252 0 00-2.279-.872 2.258 2.258 0 00-1.739 1.71 2.25 2.25 0 00.834 2.293 2.252 2.252 0 002.432.193c.109-.058.212-.126.308-.203a2.256 2.256 0 00.444-3.121zm-.963 2.414a1.333 1.333 0 11-1.624-2.113 1.331 1.331 0 111.624 2.113z" fill="#fff"/><path d="M304.958 101.023h-.474v5.368h.474v-5.368z" fill="#C7C7C7"/><path d="M299.311 99.286H146.772v8.842h152.539v-8.842z" fill="#fff"/><path d="M299.409 108.218H146.682v-9.022h152.727v9.022zm-152.547-.18h152.367v-8.662H146.862v8.662z" fill="#C7C7C7"/><path d="M149.096 101.023h-.474v5.368h.474v-5.368z" fill="#C7C7C7"/><path d="M130.088 106.73l-3.218-2.963 3.211-3.082.504.518-2.662 2.557 2.654 2.443-.489.527zM137.863 100.677l3.218 2.97-3.218 3.083-.497-.527 2.662-2.549-2.654-2.443.489-.534z" fill="#fff"/><path d="M240.741 244.366h49.45v-37.939h-49.45v37.939z" fill="#FF725E"/><path opacity=".6" d="M245.658 214.728a4.512 4.512 0 108.845 1.79 4.512 4.512 0 00-8.845-1.79z" fill="#fff"/><path d="M257.049 236.201h33.142l-16.571-20.42-16.571 20.42z" fill="#FF725E"/><path opacity=".2" d="M257.049 236.201h33.142l-16.571-20.42-16.571 20.42z" fill="#000"/><path d="M240.741 236.216h29.383l-14.692-13.293-14.691 13.293z" fill="#FF725E"/><path opacity=".1" d="M240.741 236.216h29.383l-14.692-13.293-14.691 13.293z" fill="#000"/><path d="M290.184 236.201h-49.451v8.173h49.451v-8.173z" fill="#FF725E"/><path opacity=".1" d="M290.184 236.201h-49.451v8.173h49.451v-8.173z" fill="#000"/><path d="M161.494 206.435h-37.142v3.128h37.142v-3.128z" fill="#A6A6A6"/><path d="M231.846 213.683H124.352v3.127h107.494v-3.127zM231.846 220.555H124.352v3.128h107.494v-3.128zM231.846 227.434H124.352v3.128h107.494v-3.128zM231.846 234.306H124.352v3.128h107.494v-3.128zM231.846 241.186H124.352v3.128h107.494v-3.128z" fill="#EBEBEB"/><path d="M251.019 145.082h-37.143v8.361h37.143v-8.361z" fill="#A6A6A6"/><path d="M290.191 159.21h-76.315v3.128h76.315v-3.128zM290.191 166.082h-76.315v3.128h76.315v-3.128zM290.191 172.962h-76.315v3.127h76.315v-3.127zM290.191 179.834h-76.315v3.128h76.315v-3.128zM290.191 188.984h-76.315v3.128h76.315v-3.128zM290.191 195.856h-76.315v3.128h76.315v-3.128z" fill="#EBEBEB"/><path d="M368.949 145.082h-67.923v8.511h67.923v-8.511z" fill="#FF725E"/><path d="M368.776 153.594h-67.562v90.63h67.562v-90.63z" fill="#fff"/><path d="M368.964 244.396h-67.938V153.42h67.938v90.976zm-67.562-.3h67.186v-90.352h-67.186v90.352z" fill="#DBDBDB"/><path d="M301.386 244.276l-.353-.113 67.57-90.622.346.105-67.563 90.63z" fill="#DBDBDB"/><path d="M368.603 244.276l-67.57-90.63.353-.105 67.563 90.622-.346.113z" fill="#DBDBDB"/><path d="M205.448 145.233h-80.954v53.6h80.954v-53.6z" fill="#fff"/><path d="M124.367 198.984v-53.879h81.224v53.879h-81.224zm.255-53.608v53.337h80.683v-53.337h-80.683z" fill="#DBDBDB"/><path d="M124.622 145.375c6.812 4.316 13.579 8.7 20.338 13.091l20.218 13.255 20.127 13.398 10.03 6.767 9.985 6.82-10.188-6.512-10.142-6.579-20.226-13.255-20.127-13.398c-6.692-4.511-13.368-9.015-20.015-13.587z" fill="#DBDBDB"/><path d="M205.32 145.375a1567.721 1567.721 0 01-20.015 13.534l-20.127 13.436L144.96 185.6l-10.15 6.579-10.188 6.511 9.985-6.819 10.03-6.767 20.127-13.398 20.226-13.256c6.759-4.375 13.518-8.789 20.33-13.075z" fill="#DBDBDB"/><path d="M285.289 106.053a7.584 7.584 0 007.411-4.011 7.589 7.589 0 00-4.537-10.812 7.584 7.584 0 00-8.054 2.479 7.59 7.59 0 00.04 9.629 7.59 7.59 0 005.14 2.715zm-5.902-8.18a6.66 6.66 0 0113.259-.074 6.658 6.658 0 01-7.244 7.322 6.662 6.662 0 01-6.015-7.248zm5.902 8.18a7.584 7.584 0 007.411-4.011 7.589 7.589 0 00-4.537-10.812 7.584 7.584 0 00-8.054 2.479 7.59 7.59 0 00.04 9.629 7.59 7.59 0 005.14 2.715zm-5.902-8.18a6.66 6.66 0 0113.259-.074 6.658 6.658 0 01-7.244 7.322 6.662 6.662 0 01-6.015-7.248zm5.902 8.18a7.584 7.584 0 007.411-4.011 7.589 7.589 0 00-4.537-10.812 7.584 7.584 0 00-8.054 2.479 7.59 7.59 0 00.04 9.629 7.59 7.59 0 005.14 2.715zm-5.902-8.18a6.66 6.66 0 0113.259-.074 6.658 6.658 0 01-7.244 7.322 6.662 6.662 0 01-6.015-7.248zm5.15 16.541a15.998 15.998 0 0017.372-17.613 15.998 15.998 0 00-20.667-13.597 16 16 0 003.265 31.21h.03zm-7.248-16.737a8.767 8.767 0 117.917 9.54 8.782 8.782 0 01-7.947-9.54h.03zm1.18.105a7.593 7.593 0 004.011 7.411 7.583 7.583 0 0010.794-8.939 7.585 7.585 0 00-6.534-5.321 7.588 7.588 0 00-8.301 6.85h.03zm.918.09a6.66 6.66 0 0113.259-.074 6.658 6.658 0 01-7.244 7.322 6.662 6.662 0 01-6.015-7.247zm5.902 8.181a7.584 7.584 0 007.411-4.011 7.589 7.589 0 00-4.537-10.812 7.584 7.584 0 00-8.054 2.479 7.59 7.59 0 00.04 9.629 7.59 7.59 0 005.14 2.715zm-5.902-8.18a6.66 6.66 0 0113.259-.074 6.658 6.658 0 01-7.244 7.322 6.662 6.662 0 01-6.015-7.248zm5.902 8.18a7.584 7.584 0 007.411-4.011 7.589 7.589 0 00-4.537-10.812 7.584 7.584 0 00-8.054 2.479 7.59 7.59 0 00.04 9.629 7.59 7.59 0 005.14 2.715zm-5.902-8.18a6.66 6.66 0 0113.259-.074 6.658 6.658 0 01-7.244 7.322 6.662 6.662 0 01-6.015-7.248z" fill="#FF725E"/><path d="M284.349 82.933l6.12.571.068-4.36-5.451-.512-.737 4.3zM295.815 86.083l3.925 4.73 3.135-3.038-3.496-4.21-3.564 2.518zM301.695 96.414l-.572 6.128 4.369.06.503-5.444-4.3-.744zM298.544 107.88l-4.729 3.925 3.038 3.135 4.21-3.496-2.519-3.564zM288.214 113.759l-6.12-.571-.068 4.368 5.451.504.737-4.301zM276.748 110.617l-3.925-4.737-3.135 3.045 3.496 4.21 3.564-2.518zM270.868 100.286l.572-6.128-4.369-.067-.504 5.45 4.301.745zM274.018 88.82l4.73-3.932-3.038-3.128-4.21 3.489 2.518 3.571z" fill="#FF725E"/><g opacity=".3" fill="#000"><path opacity=".3" d="M285.289 106.053a7.589 7.589 0 008.249-8.333 7.59 7.59 0 00-5.375-6.49 7.584 7.584 0 00-8.054 2.479 7.59 7.59 0 00.04 9.629 7.59 7.59 0 005.14 2.715zm-5.902-8.18a6.665 6.665 0 014.664-5.749 6.658 6.658 0 017.095 2.11 6.664 6.664 0 01.766 7.362 6.658 6.658 0 01-6.51 3.525 6.662 6.662 0 01-6.015-7.248zm5.902 8.18a7.589 7.589 0 008.249-8.333 7.59 7.59 0 00-5.375-6.49 7.584 7.584 0 00-8.054 2.479 7.59 7.59 0 00.04 9.629 7.59 7.59 0 005.14 2.715zm-5.902-8.18a6.665 6.665 0 014.664-5.749 6.658 6.658 0 017.095 2.11 6.664 6.664 0 01.766 7.362 6.658 6.658 0 01-6.51 3.525 6.662 6.662 0 01-6.015-7.248zm5.902 8.18a7.589 7.589 0 008.249-8.333 7.59 7.59 0 00-5.375-6.49 7.584 7.584 0 00-8.054 2.479 7.59 7.59 0 00.04 9.629 7.59 7.59 0 005.14 2.715zm-5.902-8.18a6.665 6.665 0 014.664-5.749 6.658 6.658 0 017.095 2.11 6.664 6.664 0 01.766 7.362 6.658 6.658 0 01-6.51 3.525 6.662 6.662 0 01-6.015-7.248zm5.15 16.541a15.998 15.998 0 0017.372-17.613 15.998 15.998 0 00-20.667-13.597 15.993 15.993 0 00-11.178 13.827 16.003 16.003 0 0014.443 17.383h.03zm-7.248-16.737a8.767 8.767 0 117.917 9.54 8.782 8.782 0 01-7.947-9.54h.03zm1.181.105a7.584 7.584 0 0012.392 6.546 7.586 7.586 0 00-4.122-13.395 7.588 7.588 0 00-8.301 6.85h.031zm.917.09a6.665 6.665 0 014.664-5.748 6.658 6.658 0 017.095 2.11 6.664 6.664 0 01.766 7.362 6.658 6.658 0 01-6.51 3.525 6.662 6.662 0 01-6.015-7.248zm5.902 8.181a7.589 7.589 0 008.249-8.333 7.59 7.59 0 00-5.375-6.49 7.584 7.584 0 00-8.054 2.479 7.59 7.59 0 00.04 9.629 7.59 7.59 0 005.14 2.715zm-5.902-8.18a6.665 6.665 0 014.664-5.749 6.658 6.658 0 017.095 2.11 6.664 6.664 0 01.766 7.362 6.658 6.658 0 01-6.51 3.525 6.662 6.662 0 01-6.015-7.248zm5.902 8.18a7.589 7.589 0 008.249-8.333 7.59 7.59 0 00-5.375-6.49 7.584 7.584 0 00-8.054 2.479 7.59 7.59 0 00.04 9.629 7.59 7.59 0 005.14 2.715zm-5.902-8.18a6.665 6.665 0 014.664-5.749 6.658 6.658 0 017.095 2.11 6.664 6.664 0 01.766 7.362 6.658 6.658 0 01-6.51 3.525 6.662 6.662 0 01-6.015-7.248z"/><path opacity=".3" d="M284.349 82.933l6.12.571.068-4.36-5.451-.512-.737 4.301zM295.815 86.083l3.925 4.73 3.135-3.038-3.496-4.21-3.564 2.518zM301.695 96.414l-.572 6.128 4.369.06.503-5.444-4.3-.744zM298.544 107.88l-4.729 3.925 3.038 3.135 4.21-3.496-2.519-3.564zM288.214 113.76l-6.12-.572-.068 4.369 5.451.503.737-4.3zM276.748 110.617l-3.925-4.737-3.135 3.045 3.496 4.211 3.564-2.519zM270.868 100.286l.572-6.128-4.369-.067-.504 5.45 4.301.745zM274.018 88.82l4.73-3.932-3.038-3.128-4.21 3.489 2.518 3.571z"/></g><path d="M358.807 120.105a4.863 4.863 0 001.825-9.511 4.866 4.866 0 10-1.825 9.511zm-3.76-5.263a4.27 4.27 0 113.857 4.654 4.263 4.263 0 01-3.713-2.971 4.26 4.26 0 01-.181-1.66l.037-.023zm3.76 5.263a4.863 4.863 0 001.825-9.511 4.866 4.866 0 10-1.825 9.511zm-3.76-5.263a4.27 4.27 0 113.857 4.654 4.263 4.263 0 01-3.713-2.971 4.26 4.26 0 01-.181-1.66l.037-.023zm3.76 5.263a4.863 4.863 0 001.825-9.511 4.866 4.866 0 10-1.825 9.511zm-3.76-5.263a4.27 4.27 0 113.857 4.654 4.263 4.263 0 01-3.713-2.971 4.26 4.26 0 01-.181-1.66l.037-.023zm3.286 10.632a10.263 10.263 0 0011.134-11.288 10.262 10.262 0 00-7.289-8.759 10.249 10.249 0 00-10.881 3.381 10.246 10.246 0 00-2.242 5.515 10.24 10.24 0 002.327 7.499 10.236 10.236 0 006.951 3.652zm-4.647-10.729a5.63 5.63 0 011.23-3.027 5.636 5.636 0 012.705-1.832 5.629 5.629 0 017.26 4.79 5.626 5.626 0 01-6.119 6.181 5.625 5.625 0 01-5.098-6.112h.022zm.752.067a4.867 4.867 0 005.355 5.293 4.866 4.866 0 002.534-8.631 4.87 4.87 0 00-2.626-1.053 4.866 4.866 0 00-5.285 4.391h.022zm.594.053a4.273 4.273 0 017.54-2.324 4.274 4.274 0 01.489 4.719 4.27 4.27 0 01-4.172 2.259 4.262 4.262 0 01-1.605-.47c-.5-.26-.942-.617-1.303-1.05a4.28 4.28 0 01-.971-3.134h.022zm3.76 5.263a4.871 4.871 0 004.76-2.577 4.867 4.867 0 00-2.935-6.934 4.866 4.866 0 00-6.216 4.248 4.86 4.86 0 001.125 3.526 4.859 4.859 0 003.281 1.714l-.015.023zm-3.76-5.263a4.273 4.273 0 017.54-2.324 4.274 4.274 0 01.489 4.719 4.27 4.27 0 01-4.172 2.259 4.262 4.262 0 01-1.605-.47c-.5-.26-.942-.617-1.303-1.05a4.28 4.28 0 01-.971-3.134h.022zm3.76 5.263a4.871 4.871 0 004.76-2.577 4.867 4.867 0 00-2.935-6.934 4.866 4.866 0 00-6.216 4.248 4.86 4.86 0 001.125 3.526 4.859 4.859 0 003.281 1.714l-.015.023zm-3.76-5.263a4.273 4.273 0 017.54-2.324 4.274 4.274 0 01.489 4.719 4.27 4.27 0 01-4.172 2.259 4.262 4.262 0 01-1.605-.47c-.5-.26-.942-.617-1.303-1.05a4.28 4.28 0 01-.971-3.134h.022z" fill="#FF725E"/><path d="M358.205 105.293l3.925.361.045-2.797-3.489-.323-.481 2.759zM365.558 107.308l2.519 3.038 2.008-1.955-2.241-2.692-2.286 1.609zM369.325 113.932l-.361 3.925 2.797.045.324-3.496-2.76-.474zM367.31 121.286l-3.037 2.518 1.955 2.008 2.699-2.241-1.617-2.285zM360.686 125.053l-3.924-.361-.038 2.797 3.489.323.473-2.759zM353.341 123.038L350.822 120l-2.008 1.955 2.233 2.699 2.294-1.616zM349.566 116.414l.369-3.925-2.805-.045-.323 3.496 2.759.474zM351.581 109.06l3.038-2.511-1.948-2.007-2.699 2.233 1.609 2.285z" fill="#FF725E"/><g opacity=".6" fill="#fff"><path opacity=".6" d="M358.807 120.105a4.863 4.863 0 001.825-9.511 4.866 4.866 0 10-1.825 9.511zm-3.76-5.263a4.266 4.266 0 015.473-3.69 4.269 4.269 0 01.813 7.847 4.274 4.274 0 01-2.429.497 4.263 4.263 0 01-3.713-2.971 4.26 4.26 0 01-.181-1.66l.037-.023zm3.76 5.263a4.863 4.863 0 001.825-9.511 4.866 4.866 0 10-1.825 9.511zm-3.76-5.263a4.266 4.266 0 015.473-3.69 4.269 4.269 0 01.813 7.847 4.274 4.274 0 01-2.429.497 4.263 4.263 0 01-3.713-2.971 4.26 4.26 0 01-.181-1.66l.037-.023zm3.76 5.263a4.863 4.863 0 001.825-9.511 4.866 4.866 0 10-1.825 9.511zm-3.76-5.263a4.266 4.266 0 015.473-3.69 4.269 4.269 0 01.813 7.847 4.274 4.274 0 01-2.429.497 4.263 4.263 0 01-3.713-2.971 4.26 4.26 0 01-.181-1.66l.037-.023zm3.286 10.632a10.263 10.263 0 0010.012-5.441 10.253 10.253 0 00-17.048-11.225 10.246 10.246 0 00-2.242 5.515 10.24 10.24 0 002.327 7.499 10.236 10.236 0 006.951 3.652zm-4.647-10.729a5.63 5.63 0 011.23-3.027 5.636 5.636 0 012.705-1.832 5.629 5.629 0 017.26 4.79 5.626 5.626 0 01-6.119 6.181 5.625 5.625 0 01-5.098-6.112h.022zm.752.067a4.867 4.867 0 005.355 5.293 4.866 4.866 0 002.534-8.631 4.87 4.87 0 00-2.626-1.053 4.864 4.864 0 00-5.285 4.391h.022zm.594.053a4.274 4.274 0 012.994-3.68 4.276 4.276 0 015.506 3.642 4.272 4.272 0 01-4.643 4.692 4.272 4.272 0 01-3.879-4.654h.022zm3.76 5.263a4.86 4.86 0 004.759-2.577 4.867 4.867 0 00-.569-5.383 4.857 4.857 0 00-5.193-1.524 4.87 4.87 0 00-3.388 4.221 4.86 4.86 0 001.125 3.526 4.859 4.859 0 003.281 1.714l-.015.023zm-3.76-5.263a4.274 4.274 0 012.994-3.68 4.276 4.276 0 015.506 3.642 4.272 4.272 0 01-4.643 4.692 4.272 4.272 0 01-3.879-4.654h.022zm3.76 5.263a4.86 4.86 0 004.759-2.577 4.867 4.867 0 00-.569-5.383 4.857 4.857 0 00-5.193-1.524 4.87 4.87 0 00-3.388 4.221 4.86 4.86 0 001.125 3.526 4.859 4.859 0 003.281 1.714l-.015.023zm-3.76-5.263a4.274 4.274 0 012.994-3.68 4.276 4.276 0 015.506 3.642 4.272 4.272 0 01-4.643 4.692 4.272 4.272 0 01-3.879-4.654h.022z"/><path opacity=".6" d="M358.205 105.294l3.925.36.045-2.797-3.489-.323-.481 2.76zM365.558 107.308l2.519 3.038 2.008-1.955-2.241-2.692-2.286 1.609zM369.325 113.932l-.361 3.925 2.797.045.324-3.496-2.76-.474zM367.31 121.286l-3.037 2.518 1.955 2.008 2.699-2.241-1.617-2.285zM360.686 125.053l-3.924-.361-.038 2.797 3.489.323.473-2.759zM353.341 123.038L350.822 120l-2.008 1.955 2.233 2.699 2.294-1.616zM349.566 116.414l.369-3.925-2.805-.045-.323 3.496 2.759.474zM351.581 109.06l3.038-2.511-1.948-2.007-2.699 2.233 1.609 2.285z"/></g><path d="M301.687 121.737a20.036 20.036 0 0011.878 18.818 20.034 20.034 0 0021.932-3.769 20.032 20.032 0 00-2.221-30.883 20.036 20.036 0 00-18.739-2.348 20.026 20.026 0 00-12.85 18.182zm10.669.286a9.354 9.354 0 119.135 9.593 9.356 9.356 0 01-9.135-9.593z" fill="#263238"/><path d="M318.371 102.97l7.699.196-.285-5.459-6.842-.18-.572 5.443zM332.957 105.947l5.309 5.587 3.661-4.06-4.722-4.97-4.248 3.443zM341.168 118.376l-.203 7.699 5.466-.286.18-6.842-5.443-.571zM338.183 132.962l-5.587 5.301 4.061 3.669 4.977-4.722-3.451-4.248zM325.762 141.172l-7.699-.203.278 5.467 6.85.18.571-5.444zM311.168 138.188l-5.3-5.587-3.662 4.06 4.714 4.97 4.248-3.443zM302.965 125.767l.203-7.707-5.466.286-.18 6.849 5.443.572zM305.943 111.173l5.586-5.301-4.06-3.661-4.97 4.714 3.444 4.248zM327.033 117.331l-6.564-1.947-4.993 4.744 1.602 6.654 6.556 1.947 4.978-4.714-1.579-6.684zm-5.023 6.887a2.174 2.174 0 112.256-2.113 2.172 2.172 0 01-.677 1.545 2.154 2.154 0 01-1.579.591v-.023zM347.468 45.347c-3.759 4.42-10.202 6.067-15.849 6.353-5.646.286-12.21-.308-17.391-3.007a13.854 13.854 0 01-5.646-5.015c-1.406-2.323-1.549-4.76 0-6.91 1.255-1.73 3.977-2.947 4-4.511.022-1.564-1.293-2.895-1.617-4.398-.594-2.64.88-4.587 2.775-6.271 4.511-4 3.33-9.36 6.112-14.36 1.587-2.85 6.015-8.076 13.857-5.565 3.008.948 4.985 3.64 6.173 6.421 1.399 3.264.331 7.519 2.045 10.662 1.466 2.677 3.654 3.135 5.045 5.947.609 1.218.887 2.632-.458 5.474-.489 1.03-1.008 2.594-.587 3.834.594 1.707 2.639 2.519 3.293 4.3.842 2.422-.105 5.091-1.752 7.046z" fill="#263238"/><path d="M310.326 44.4c-2.692-.466-3.804-4.136-2.075-5.97 1.098-1.173 2.729-1.692 3.827-2.857 1.805-1.91.233-3.684-.707-5.594-2.037-4.15.85-6.895 3.895-9.398 2.308-1.903 2.797-4.113 3.007-6.955a.043.043 0 00-.041-.027.043.043 0 00-.041.027c-.233 2.09-.557 4.15-2.068 5.766-1.233 1.316-2.857 2.204-4.045 3.572a6.236 6.236 0 00-.917 7.474c.391.751 1.135 1.646 1.285 2.473.354 1.97-1.157 2.955-2.594 3.902-1.105.752-2.323 1.504-2.751 2.827-.647 1.97 1.12 4.684 3.21 4.925.083.015.12-.165.015-.165z" fill="#263238"/><path d="M311.762 46.43c-1.639-1.008-3.421-1.925-4.368-3.662-1.406-2.564.421-4.45 2.12-6.225a3.639 3.639 0 001.323-2.617c0-1.631-1.225-3.007-1.406-4.646-.421-3.873 3.497-6.143 5.497-8.948 2-2.804 2.736-6.233 3.511-9.57a.06.06 0 00-.113 0c-1.023 4.255-2.361 8.27-5.489 11.495-2.18 2.256-4.511 4.714-3.556 8.053.233.827.714 1.579.925 2.398.428 1.624-.038 2.67-1.143 3.812-1.105 1.143-2.293 2.256-2.519 3.797-.428 3.068 2.662 5.15 5.09 6.376a.147.147 0 00.128-.263zM349.927 37.317c-1.301-1.895-3.406-2.872-2.782-5.526.421-1.827 1.504-3.27 1.143-5.263a7.043 7.043 0 00-2.504-3.932c-1.549-1.384-3.263-2.52-4.361-4.301-1.21-1.94-1.714-4.203-2.255-6.376 0-.045-.083 0-.075 0 .533 2.955 1.21 6.015 3.421 8.27 1.158 1.181 2.579 2.083 3.721 3.279 2.061 2.142 1.978 4.428 1 7.015-.451 1.188-.857 2.375-.33 3.616.526 1.24 1.691 2.023 2.496 3.06 3.391 4.436-2.151 9.775-6.632 10.459-.203 0-.188.33 0 .308 3.346-.406 6.955-3.27 7.79-6.474a5.038 5.038 0 00-.632-4.135z" fill="#263238"/><path d="M349.709 39.633c0-1.948-1.18-3.053-2.09-4.61-1.436-2.435.188-4.751.451-7.277a6.166 6.166 0 00-1.579-4.594c-1.444-1.775-3.316-3.068-4.511-5.09a12.31 12.31 0 01-1.572-7.098c0-.045-.067-.038-.075 0a11.816 11.816 0 002.963 9.293c1.451 1.616 3.436 2.955 4.21 5.098.82 2.255-.391 4.27-.752 6.488a4.849 4.849 0 00.85 3.76 10.122 10.122 0 011.601 2.646 5.886 5.886 0 01-.541 4.15c-1.917 4.03-6.376 6.452-10.571 6.985-.143 0-.143.256 0 .241a14.602 14.602 0 009.714-5.293 7.976 7.976 0 001.902-4.7z" fill="#263238"/><path d="M328.063 27.603c-10.526 11.067-23.692 34.202-21.09 38.804 2.887 5.127 18.12-10.632 17.639-11.383-.406-.64 4.857-14.572 8.684-24.76 3.827-10.187-2.617-5.413-5.233-2.661z" fill="#D3766A"/><path d="M315.123 40.873l15.165 2.73s3.76-10.745 4.511-16.707c.421-3.346-1.548-3.481-4.022-1.707-8.616 6.218-15.654 15.684-15.654 15.684z" fill="#FF725E"/><path d="M325.311 32.678a5.245 5.245 0 00-.481 1.436c-.105.494-.135 1-.091 1.504.227-.454.386-.937.474-1.436.104-.494.137-1 .098-1.504zm-7.902 6.353c-.249-.047-.5-.08-.752-.097-.072.079-.14.161-.203.248.288.097.582.175.88.233.494.104 1 .136 1.503.098a5.388 5.388 0 00-1.428-.482zm16.022-8.165a5.534 5.534 0 00-1.007-1.135c.162.482.39.94.676 1.36.227.311.478.603.752.873 0-.098.053-.196.075-.286a7.62 7.62 0 00-.496-.812zm-6.248 10.526c-.423.28-.805.616-1.135 1a5.882 5.882 0 002.496-1.684 5.375 5.375 0 00-1.361.684z" fill="#fff"/><path d="M330.19 41.121a101.101 101.101 0 00-12.781-2.526s-.045.09 0 .098c3.451.887 10.436 2.158 12.781 2.571.016.008.046-.128 0-.143z" fill="#263238"/><path opacity=".1" d="M334.83 26.896c-.752 5.962-4.512 16.707-4.512 16.707l-11.616-2.09 14.857-17.414c.97 0 1.511.887 1.271 2.797z" fill="#000"/><path d="M321.905 65.956h38.435s-4.511-26.316-16.909-40.428a7.816 7.816 0 00-8.575-2.216c-.986.36-1.89.913-2.658 1.63-.714.638-8.767 11.277-10.037 16.713-.835 3.557 2.518 7.474 2.518 7.474l-2.774 16.827z" fill="#FF725E"/><path d="M342.777 33.31a5.131 5.131 0 00-1.136 1.007 5.451 5.451 0 001.354-.684 5.12 5.12 0 001.135-1 5.172 5.172 0 00-1.353.676zm9.195 29.886a5.33 5.33 0 00-1.135 1.008 5.2 5.2 0 001.353-.684 5.32 5.32 0 001.143-1c-.483.16-.942.387-1.361.676zm-12.902-10.82a5.342 5.342 0 00-1.143 1 5.757 5.757 0 002.496-1.683c-.48.149-.935.367-1.353.646v.038zm-14.714 10.34a5.29 5.29 0 00-1.135 1.007 5.375 5.375 0 001.361-.685c.422-.279.805-.615 1.135-1-.483.145-.941.36-1.361.64v.037zm2.827-21.324c-.423.28-.805.616-1.135 1a5.882 5.882 0 002.496-1.684 5.375 5.375 0 00-1.361.684zm17.18 3.496a5.247 5.247 0 00-1-1.135c.162.48.389.936.677 1.353.276.428.615.811 1.007 1.136a5.428 5.428 0 00-.684-1.361v.007zm13.534 12.33a5.167 5.167 0 00-1.008-1.142c.163.484.393.942.685 1.361a5.22 5.22 0 001 1.135 4.982 4.982 0 00-.707-1.39l.03.037zm-24.699 2.67a5.143 5.143 0 00-1.007-1.135c.163.48.394.936.684 1.353.277.425.613.807 1 1.135a5.184 5.184 0 00-.707-1.36l.03.007zm.233-29.022a5.534 5.534 0 00-1.007-1.135 5.73 5.73 0 001.684 2.496 5.37 5.37 0 00-.677-1.361zm4.662-21.564a5.318 5.318 0 00-1.504-.097c.452.231.936.393 1.436.48.494.104 1 .137 1.504.099a5.448 5.448 0 00-1.436-.512v.03zm7.458 48.157c-.494-.103-1-.136-1.504-.097.454.227.938.389 1.437.481.494.104 1 .134 1.503.09a5.322 5.322 0 00-1.436-.474zm-12.541-9.954a5.371 5.371 0 00-1.504-.09c.457.227.943.389 1.444.48a5.625 5.625 0 001.504.091 5.267 5.267 0 00-1.474-.481h.03zm17.94-7.323a5.613 5.613 0 00-1.504-.09c.456.228.942.39 1.443.48a5.613 5.613 0 001.504.09 5.336 5.336 0 00-1.473-.48h.03zm-10.339-15.038c-.494-.103-1-.136-1.503-.097.455.228.942.39 1.443.48a5.064 5.064 0 001.504.09 5.363 5.363 0 00-1.474-.45l.03-.023zm11.557 24.195a5.336 5.336 0 00-.482 1.444 5.66 5.66 0 00-.09 1.504c.229-.453.391-.937.481-1.436.086-.492.106-.992.061-1.49l.03-.022zm-24.481 1.97a5.405 5.405 0 00-.474 1.444c-.103.494-.136 1-.098 1.504a5.28 5.28 0 00.482-1.436c.089-.491.109-.993.06-1.49l.03-.022zm14.985 10.932a5.239 5.239 0 00-.474 1.437c-.103.494-.136 1-.098 1.503.227-.456.389-.942.481-1.443.089-.486.109-.982.06-1.474l.031-.023zm-6.143-24.187a5.3 5.3 0 00-.481 1.443c-.098.495-.128 1.001-.091 1.504.229-.456.391-.942.482-1.444.097-.494.127-1 .09-1.503z" fill="#fff"/><path d="M331.394 48.061a33.2 33.2 0 014.774.827c.752.21 1.541.451 2.301.707.376.128.751.24 1.142.36.401.13.814.21 1.233.242.038 0 .038.052 0 .06a8.89 8.89 0 01-1.187-.038 9.3 9.3 0 01-1.128-.218c-.79-.203-1.572-.444-2.361-.654-1.587-.421-3.181-.842-4.797-1.15-.105-.038-.053-.143.023-.136zM327.401 49.452a37.322 37.322 0 013.993-.158c.669 0 1.33.068 1.992.136l.955.12c.346.045.684.143 1.037.18v.06h-.992l-1-.037-1.992-.068a117.234 117.234 0 00-3.993-.105c-.075-.015-.068-.12 0-.128z" fill="#263238"/><path d="M306.973 66.407c2.473 3.42 9.067 3.97 25.563 6.91 2.256.405 9.481-14.903 7.068-15.466-3.008-.707-14.985-2.782-15.872-2.828-7.549-.345-18.443 9.068-16.759 11.384z" fill="#D3766A"/><path d="M336.281 57.181s6.977.933 10.488 2.557a24.995 24.995 0 019.098 7.669c2.564 3.504 6.346 13.752 3.586 15.36-2.503 1.452-5.842-9.217-5.842-9.217s5.203 10.315 1.872 11.51c-3.33 1.196-6.503-11.413-6.503-11.413s5.105 10.722 1.503 11.414c-2.744.518-6.255-10.737-6.255-10.737s4.323 9.24 1.504 9.902c-3.091.752-6.985-9.458-6.985-9.458-7.391.466-11.105-2.331-13.534-4.64-.571-.578 11.068-12.947 11.068-12.947z" fill="#D3766A"/><path d="M352.047 69.843c.654 1.188 1.324 2.39 1.873 3.631a55.447 55.447 0 011.503 3.797 22.675 22.675 0 011.188 5.173 50.628 50.628 0 00-3.007-8.834c-.549-1.24-1.03-2.504-1.579-3.76-.038-.022.007-.037.022-.007zM347.521 71.73c.752 1.556 1.587 3.075 2.293 4.662.707 1.586 1.218 3.142 1.805 4.774.045.12-.038.105-.09 0-.647-1.602-1.376-3.007-2.046-4.624-.669-1.617-1.278-3.218-2-4.782-.015-.037.023-.053.038-.03zM343.341 72.655a38.869 38.869 0 012.962 7.398c.038.128-.068.09-.113 0-.94-2.474-1.654-4.42-2.932-7.316-.015-.082.038-.127.083-.082z" fill="#263238"/><path d="M342.047 81.377c.449.632.952 1.223 1.504 1.766.278.27.583.509.91.715.304.216.673.323 1.045.3a.997.997 0 00.752-.684 3.21 3.21 0 00.165-1.112 9.698 9.698 0 00-.3-2.256l-.361-1.451.646 1.346c.392.811.826 1.602 1.301 2.368a9.628 9.628 0 001.647 2.06 1.247 1.247 0 001.037.399 1.424 1.424 0 00.933-.654 4.226 4.226 0 00.06-2.512l-.226-1.504.699 1.369c.394.806.881 1.563 1.451 2.255.276.333.601.622.963.858a1.153 1.153 0 001.075.173 1.252 1.252 0 00.692-.858c.121-.415.177-.846.165-1.278-.02-.892-.139-1.78-.353-2.646l-.624-2.632 1.143 2.444c.253.525.549 1.028.887 1.504.306.475.718.874 1.203 1.165a.862.862 0 00.676.067c.234-.097.435-.258.579-.466a3.07 3.07 0 00.452-1.601 11.282 11.282 0 00-.512-3.519 63.299 63.299 0 00-1.09-3.466 26.08 26.08 0 00-3.165-6.504 26.553 26.553 0 00-5.083-5.18 26.786 26.786 0 015.263 5.022c1.424 2 2.551 4.197 3.346 6.52a51.2 51.2 0 011.158 3.473 11.64 11.64 0 01.556 3.676 3.615 3.615 0 01-.526 1.873 1.816 1.816 0 01-.827.661 1.383 1.383 0 01-1.083-.075 4.176 4.176 0 01-1.421-1.33 10.778 10.778 0 01-.947-1.617l.519-.188c.241.913.368 1.852.375 2.797a4.8 4.8 0 01-.203 1.443 1.802 1.802 0 01-1.015 1.18 1.698 1.698 0 01-1.548-.217 4.802 4.802 0 01-1.076-.978 11.886 11.886 0 01-1.503-2.376l.466-.142c.08.457.132.92.158 1.383a2.82 2.82 0 01-.293 1.436 1.865 1.865 0 01-1.241.85 1.15 1.15 0 01-.797-.098 2.754 2.754 0 01-.617-.406 9.81 9.81 0 01-1.684-2.196 23.16 23.16 0 01-1.27-2.428l.293-.098a9.51 9.51 0 01.255 2.354 3.508 3.508 0 01-.233 1.18 1.18 1.18 0 01-.924.752 1.77 1.77 0 01-1.136-.361 5.877 5.877 0 01-.902-.752 13.162 13.162 0 01-1.414-1.804zM316.439 56.873c1.098-.692 4.195-2.323 7.248-1.872v.053a19.968 19.968 0 00-7.226 1.864l-.022-.045z" fill="#263238"/><path d="M375.626 52.302a14.03 14.03 0 0114.488-2.963l-8.36 7.895 2.676 6.075 5.91 3.008 8.376-7.903a14.05 14.05 0 01-3.319 13.852 14.056 14.056 0 01-20.106.14 14.05 14.05 0 01.335-20.104zM336.16 128.165a14.058 14.058 0 01-14.496 3.008l8.361-7.895-2.677-6.083-5.909-3.007-8.369 7.849a14.06 14.06 0 013.33-13.847 14.05 14.05 0 0113.719-3.826 14.05 14.05 0 019.889 17.504 14.047 14.047 0 01-3.848 6.297z" fill="#C7C7C7"/><path d="M327.884 108.043l8.594 9.103 49.688-46.905-8.594-9.103-49.688 46.905z" fill="#C7C7C7"/><path d="M345.023 96.92l3.54 3.751 20.465-19.318-3.541-3.751-20.464 19.319z" fill="#EBEBEB"/><path d="M345.844 27.107c9.279 6.473 23.308 19.383 24.489 25.255 1.188 6.015-3.76 22.127-6.444 27.556-1.12 2.255-19.608-3.993-18.473-6.444 2.316-4.992 7.188-16.624 7.015-18.263-.173-1.639-7.444-14.21-11.383-21.473-6.316-11.631-1.76-11.195 4.796-6.631z" fill="#D3766A"/><path d="M346.619 70.828s-3.068 6.699-4.827 11.165c-1.008 2.496-2.346 6.932-2.256 9.105.151 3.248 2.865 16.737 6.151 16.143 3.007-.527-.828-11.82-.828-11.82s2.828 11.737 6.286 10.436c3.459-1.301-2.526-13.488-2.526-13.488s3.173 11.992 6.534 10.09c2.533-1.436-2.256-12.782-2.256-12.782s2.804 10.285 5.481 8.917c2.955-1.504-.827-12.255-.827-12.255 6.21-4.617 7.977-8.767 8.338-12.233-.037.007-13.436-2.7-19.27-3.278z" fill="#D3766A"/><path d="M343.596 91.437c.279 1.383.557 2.797.963 4.157a44.51 44.51 0 001.391 4.023 23.28 23.28 0 002.549 4.925c-1.64-2.865-3.166-7.715-3.572-9.075-.406-1.361-.872-2.692-1.278-4.053l-.053.023zM348.484 89.88c0 1.978 1.503 7.383 3.097 10.286.068.128.105.067.06-.068-.564-1.714-2.639-8.496-3.12-10.233-.007-.022-.037-.007-.037.015zM352.438 87.797a21.798 21.798 0 002.632 7.895c.067.12.113 0 .067-.105-.924-2.61-1.669-4.647-2.608-7.812a.046.046 0 00-.022-.029.045.045 0 00-.063.016.044.044 0 00-.006.035z" fill="#263238"/><path d="M359.461 36.242l-14.774 5.97s-5.331-9.218-7.181-14.94c-1.03-3.21.857-4.804 3.617-3.519 9.691 4.497 18.338 12.489 18.338 12.489z" fill="#FF725E"/><path d="M350.882 29.949a5.245 5.245 0 00-.481 1.436c-.097.495-.128 1-.09 1.504.228-.456.39-.942.481-1.444.097-.492.127-.996.09-1.496zm-10.301-4.782c-.494-.103-1-.136-1.503-.098.455.229.942.39 1.443.481a5.064 5.064 0 001.504.09 5.361 5.361 0 00-1.444-.473zm8.827 14.925c.077.043.158.08.241.112l.323-.127a3.556 3.556 0 00-.564.015zm-6.631-6.767a5.129 5.129 0 00-1.136 1.007 5.451 5.451 0 001.354-.684 5.12 5.12 0 001.135-1 5.176 5.176 0 00-1.353.662v.015z" fill="#fff"/><path d="M344.453 39.355a101.418 101.418 0 0112.091-4.865s.067.075.045.09c-3.226 1.504-9.857 4.068-12.083 4.902-.038.023-.098-.112-.053-.127zM345.551 41.866a3.752 3.752 0 01-.752.285c-.34-.492-.642-1.01-.902-1.548-.436-.88-.895-1.752-1.338-2.632-.88-1.752-1.865-3.443-2.812-5.158 0-.045-.113 0-.09 0 .375.895.751 1.775 1.157 2.647l-.037-.053-.752-1.082h-.053l.752 1.112.316.692a56.58 56.58 0 001.338 2.692c.474.887 1.903 3.654 2.256 3.691.327-.156.645-.33.955-.518.037-.045.007-.158-.038-.128zM342.047 81.241a159.364 159.364 0 011.97-4.91l2.068-4.857 4.263-9.654c-.481 1.692-1.098 3.346-1.737 4.993-.639 1.646-1.33 3.263-2.015 4.887a114.096 114.096 0 01-2.188 4.812c-.759 1.594-1.526 3.225-2.361 4.73z" fill="#263238"/><path d="M336.145 21.994c2.805.166 3.218 3.12 1.835 6.165-1.384 3.045-3.857 4.21-5.211 4.075-1.353-.135-2.691-1.503-1.729-5.045 1.211-4.51 3.414-5.293 5.105-5.195z" fill="#37474F"/><path d="M337.484 23.708c.082.647-1.324 5.594-4.106 6.489-.902.286-2.699-4.587-2.699-4.587l-.218-.33-3.007-4.617 4.511-6.015.669-.82s.752 1.316 1.639 2.963c.045.075.083.158.128.24.045.083.105.174.15.264.143.24.279.496.414.752.135.255.203.375.308.586l.308.602a35.075 35.075 0 011.903 4.473z" fill="#D3766A"/><path d="M334.273 16.806a11.02 11.02 0 01-3.804 8.474l-3.008-4.617 4.511-6.015.67-.82s.721 1.331 1.631 2.978z" fill="#263238"/><path d="M317.627 14.754c.842 9.623 6.707 10.202 8.782 10.014 1.887-.165 8.27-.977 8.428-10.639.158-9.661-4.586-12.308-8.917-12.15-4.331.158-9.143 3.143-8.293 12.774z" fill="#D3766A"/><path d="M319.341 13.16c.215-.063.426-.139.632-.226.231-.05.44-.173.594-.353a.342.342 0 00-.061-.414.832.832 0 00-.857-.083 1.242 1.242 0 00-.714.55.36.36 0 00.406.525zM325.514 12.347c-.233 0-.444 0-.669-.045a1.095 1.095 0 01-.669-.18.346.346 0 01-.061-.414.84.84 0 01.805-.316c.312.004.611.122.842.331a.368.368 0 01-.248.624zM324.574 14.934s.053 0 .06.053c.053.661.226 1.398.842 1.548v.038c-.737.007-.977-1.008-.902-1.64z" fill="#263238"/><path d="M325.078 14.19c1.045-.203 1.368 1.894.406 2.082-.963.188-1.278-1.947-.406-2.082z" fill="#263238"/><path d="M325.506 14.235c.203.09.414.27.639.255.226-.015.422-.263.557-.496h.037c.068.399 0 .842-.443.963-.444.12-.752-.196-.887-.58-.03-.052.015-.18.097-.142zM320.785 15.242s-.045.038-.045.068c.127.646.165 1.406-.384 1.714 0 0 0 .045 0 0 .707-.18.647-1.195.429-1.782z" fill="#263238"/><path d="M320.093 14.655c-1.06.098-.797 2.204.18 2.12.978-.082.707-2.195-.18-2.12z" fill="#263238"/><path d="M319.672 14.851c-.158.135-.293.354-.496.391-.203.038-.421-.158-.602-.36.045.398.226.804.624.834.399.03.579-.353.624-.752-.022-.06-.09-.165-.15-.113zM322.296 17.979s0 1 .068 1.459a2.488 2.488 0 002.308-1.09c0-.046-.038-.09-.075-.053a3.32 3.32 0 01-1.918.857c-.052-.12.045-1.707 0-1.7-.351.084-.69.213-1.007.384-.075-2.075.188-4.143.09-6.21a.068.068 0 00-.103-.033.074.074 0 00-.025.033 33.83 33.83 0 00-.383 6.684c-.03.256.872-.226 1.045-.331z" fill="#263238"/><path d="M322.995 19.302c.301.281.668.48 1.068.58.221.046.452.025.661-.061.444-.203.391-.64.241-.992a2.543 2.543 0 00-.301-.527 3.11 3.11 0 01-1.669 1z" fill="#263238"/><path d="M324.055 19.881c.222.047.453.027.662-.06.444-.203.391-.639.241-.992a1.124 1.124 0 00-.903 1.052z" fill="#FF9BBC"/><path d="M334.409 15.01c-1.73.6-3.061-3.37-3.061-3.37s-7.857.34-9.819-5.69a10.696 10.696 0 01-4.038 6.841s-1.165-7.428 3.91-9.894c0 0 6.361-3.692 11.233.751 4.872 4.444 2.932 10.948 1.775 11.361z" fill="#263238"/><path d="M321.401 5.505c.119.97.442 1.902.948 2.737a7.088 7.088 0 001.962 2.188c.199.146.408.279.624.399l.316.195.331.15.676.294.707.203.353.097.361.06.752.113h1.451c-.473-.097-.947-.143-1.413-.248l-.699-.165-.339-.09a2.983 2.983 0 01-.338-.12l-.662-.241c-.218-.09-.421-.203-.631-.301l-.316-.158-.301-.188a5.167 5.167 0 01-.579-.383 8.415 8.415 0 01-1.947-2.015 8.273 8.273 0 01-.707-1.226 8.885 8.885 0 01-.549-1.3z" fill="#263238"/><path d="M333.296 14.693s1.549-3.338 3.007-2.834c1.459.504.677 5.083-.804 5.955a1.635 1.635 0 01-2.309-.489l.106-2.632z" fill="#D3766A"/><path d="M336.063 13.167s.037 0 0 0a4.151 4.151 0 00-1.654 2.917.899.899 0 011.285-.473v.06a1.009 1.009 0 00-1.03.541c-.157.31-.28.634-.368.97 0 .113-.226.09-.203 0-.271-1.429.473-3.609 1.97-4.015z" fill="#263238"/><path d="M334.521 17.55a.386.386 0 00.171.27.38.38 0 00.315.054.393.393 0 00.266-.52.376.376 0 00-.322-.289.391.391 0 00-.43.484v.001zM335.296 16.693a.285.285 0 00.568-.024.298.298 0 00-.019-.119.288.288 0 00-.346-.203.285.285 0 00-.203.346z" fill="#fff"/><path d="M336.619 12.919l.556-.196a.21.21 0 00.128-.263.21.21 0 00-.263-.128l-.556.196a.21.21 0 00-.128.263.21.21 0 00.263.128zM336.747 13.505l.579-.067a.203.203 0 00.18-.234.205.205 0 00-.146-.173.202.202 0 00-.079-.007l-.579.075a.195.195 0 00-.181.226.204.204 0 00.226.18zM330.86 12.941l1.646 1.617 2.09-3.15-.751-.715-2.985 2.248zm.924.083l1.933-1.616.165.165-1.504 2.015-.594-.564z" fill="#FF725E"/><path d="M115.216 313.734c-1.421.444-41.773-.421-43.292-1.428-.58-.376-.797-6.263-.857-13.384v-4.736c0-1.903 0-3.842.037-5.715.105-8.428.361-15.849.361-15.849l26.27.489-.3 15.849-.106 5.714-.225 4.737s15.3 7.241 16.842 8.526c1.541 1.286 2.684 5.361 1.27 5.797z" fill="#AD6359"/><path d="M115.216 313.734c-1.421.444-41.773-.421-43.292-1.428-.58-.376-.797-6.263-.857-13.384v-4.736c0-1.903 0-3.842.037-5.715l26.316.489-.106 5.714-.225 4.737s15.3 7.241 16.842 8.526c1.541 1.286 2.699 5.361 1.285 5.797z" fill="#fff"/><path d="M115.337 313.794c-.925.286-18.113 0-30.624-.458a450.027 450.027 0 01-7.677-.376c-2.947-.196-4.917-.391-5.263-.602-.706-.466-.887-9.105-.88-18.218l26.406.489-.225 4.759s15.39 7.286 16.947 8.572c1.556 1.285 2.737 5.383 1.316 5.834z" fill="#FF725E"/><path d="M114.788 312.163c-6.767-.316-34.248-.933-40.992-.752-.053 0-.053.045 0 .045 6.73.459 34.187.857 40.992.797.143.015.143-.083 0-.09zM98.096 297.9c-2.661-.557-5.947-.218-8.03 1.646-.082.076 0 .188.106.158a37.644 37.644 0 017.91-1.466.17.17 0 00.1-.056.173.173 0 00-.087-.282zM100.006 299.103c-2.67-.556-5.947-.218-8.037 1.647-.083.075 0 .188.112.165a37.156 37.156 0 017.91-1.504.175.175 0 00.102-.149.173.173 0 00-.087-.159zM101.946 300.313c-2.67-.564-5.955-.218-8.038 1.647-.082.068 0 .18.113.158a37.578 37.578 0 017.902-1.466.176.176 0 00.15-.16.174.174 0 00-.127-.179zM103.818 301.539c-2.662-.556-5.947-.218-8.03 1.647-.083.075 0 .188.105.157a37.65 37.65 0 017.91-1.466.177.177 0 00.102-.055.178.178 0 00.043-.108.172.172 0 00-.13-.175z" fill="#263238"/><path d="M103.171 291.817c-1.015-1.504-3.007-.864-4.127.053a14.33 14.33 0 00-4.256 6.015.082.082 0 00.03.091c.009.007.02.011.03.014 0 .203.188.421.414.338 2.255-.751 4.706-1.315 6.631-2.751 1.12-.805 2.248-2.369 1.278-3.76zm-4.767 4.677c-1.09.406-2.187.752-3.263 1.203.835-1.181 1.617-2.384 2.564-3.481.45-.533.936-1.035 1.451-1.504.812-.707 4-2.188 3.467.752-.294 1.609-2.933 2.541-4.219 3.03z" fill="#263238"/><path d="M87.999 297.065c2.188.993 4.729.993 7.067 1.271a.33.33 0 00.331-.421.065.065 0 00.029-.016.06.06 0 00.018-.027.067.067 0 00-.01-.062 14.278 14.278 0 00-5.443-5c-1.308-.647-3.368-.827-4.052.834-.685 1.662.789 2.842 2.06 3.421zm-1.166-1.932c-1.15-2.744 2.256-1.985 3.226-1.504.605.345 1.186.732 1.737 1.158 1.165.865 2.18 1.872 3.248 2.842-1.143-.203-2.256-.308-3.444-.473-1.368-.128-4.135-.512-4.767-2.023z" fill="#263238"/><path opacity=".2" d="M94.683 313.652a867.356 867.356 0 01-9.978-.324 295.229 295.229 0 01-7.676-.368c-2.94-.196-4.91-.391-5.263-.602-.617-.413-.835-7.082-.865-14.857 6.023 4.038 17.797 12.053 23.782 16.151z" fill="#000"/><path d="M99.69 299.08H69.706s1.646-67.487 1.323-69.059c-.752-3.759-17.827-63.254-17.827-63.254l23.677.406 8.09.142s-.7 9.91-.414 10.955c3.955 14.436 11.677 39.097 13.256 48.225 2.721 15.864 1.88 72.585 1.88 72.585z" fill="#455A64"/><path d="M98.713 294.073c-4.677-.12-21.248-.617-27.481-.15-.045 0-.045.082 0 .09 2.135.346 22.797.248 27.473.188.01.004.021.005.032.004.01 0 .02-.004.03-.01a.062.062 0 00.022-.022.071.071 0 00.01-.031.07.07 0 00-.025-.057.073.073 0 00-.03-.013.068.068 0 00-.031.001zM73.375 228.562c-.895-3.654-7.572-26.383-9.617-33.555a565.596 565.596 0 01-5.721-21.639c-.226-.918-.451-1.835-.692-2.752 0-.075-.135-.038-.12.038.676 3.646 1.564 7.263 2.42 10.879.858 3.617 1.775 7.21 2.737 10.797a459.444 459.444 0 006.331 21.466c1.15 3.534 3.008 10.804 4.038 14.383 1.03 3.579-.64 62.352-.534 63.307a.22.22 0 00.075.128.22.22 0 00.278 0 .22.22 0 00.076-.128c.127-6.924 1.608-59.322.729-62.924z" fill="#263238"/><path d="M76.879 167.195s-5.79 63.157-5.858 62.849c-.751-3.632-16.774-59.586-17.781-63.082l-.045-.165 23.684.398z" fill="#263238"/><path d="M84.119 317.193c-1.421.443-41.774-.421-43.293-1.429-.571-.376-.751-6.263-.85-13.383v-4.737-5.714c.106-8.429.362-15.849.362-15.849l26.27.488-.3 15.85-.114 5.714-.225 4.737s15.3 7.24 16.85 8.526c1.548 1.285 2.721 5.361 1.3 5.797z" fill="#AD6359"/><path d="M84.119 317.193c-1.421.443-41.774-.421-43.293-1.429-.571-.376-.751-6.263-.85-13.383v-4.737-5.714l26.316.489-.113 5.714-.225 4.737s15.3 7.24 16.85 8.526c1.548 1.285 2.736 5.361 1.315 5.797z" fill="#fff"/><path d="M84.24 317.253c-.925.286-18.113 0-30.624-.459-2.895-.12-5.541-.248-7.677-.376-2.94-.195-4.917-.391-5.263-.601-.7-.466-.88-9.105-.872-18.218l26.398.489-.226 4.759s15.391 7.286 16.948 8.571c1.556 1.286 2.744 5.384 1.315 5.835z" fill="#FF725E"/><path d="M83.698 315.621c-6.767-.316-34.255-.932-41-.752-.052 0-.052.045 0 .045 6.767.459 34.188.858 40.992.797.143.015.15-.082.008-.09zM67.007 301.358c-2.67-.556-5.955-.218-8.038 1.647-.083.075 0 .188.113.158a37.545 37.545 0 017.902-1.504.174.174 0 00.1-.144.175.175 0 00-.078-.157zM68.909 302.561c-2.662-.556-5.948-.218-8.03 1.647-.083.075 0 .188.105.165a37.156 37.156 0 017.91-1.503.17.17 0 00.072-.061.172.172 0 00.009-.181.174.174 0 00-.066-.067zM70.819 303.794c-2.67-.556-5.948-.218-8.038 1.647-.083.068 0 .18.113.158a37.58 37.58 0 017.91-1.466.175.175 0 00.145-.163.173.173 0 00-.13-.176zM72.728 304.975c-2.669-.557-5.955-.218-8.037 1.646-.083.076 0 .188.112.158a37.607 37.607 0 017.903-1.503.177.177 0 00.099-.144.171.171 0 00-.077-.157z" fill="#263238"/><path d="M72.082 295.276c-1.023-1.504-3.008-.865-4.136.052a14.23 14.23 0 00-4.248 6.015c0 .053 0 .083.06.098a.334.334 0 00.121.274.329.329 0 00.293.064c2.256-.752 4.7-1.315 6.624-2.751 1.128-.805 2.248-2.361 1.286-3.752zm-4.775 4.676c-1.09.406-2.188.752-3.255 1.203.834-1.18 1.609-2.383 2.556-3.481.451-.534.938-1.036 1.459-1.504.804-.706 3.992-2.188 3.458.752-.293 1.609-2.925 2.542-4.218 3.03z" fill="#263238"/><path d="M56.909 300.524c2.18.992 4.722.992 7.06 1.27a.33.33 0 00.33-.421.065.065 0 00.026-.052c0-.01-.002-.02-.007-.029a.06.06 0 00-.018-.024 14.286 14.286 0 00-5.444-5c-1.308-.646-3.368-.827-4.045.835-.676 1.661.82 2.849 2.098 3.421zm-1.173-1.933c-1.143-2.744 2.256-1.984 3.226-1.466.606.343 1.186.73 1.736 1.158 1.166.865 2.18 1.872 3.248 2.842-1.142-.203-2.255-.308-3.436-.473-1.368-.196-4.135-.549-4.774-2.061z" fill="#263238"/><path d="M67.758 302.133l-29.09-.534s8.166-104.931 7.15-110.487c-1.66-9.098-.247-19.489 4.136-24.421l28.346.526s.413 7.97-2.602 12.669c0 0-2.684 1.632-3.992 2.346l-3.948 119.901z" fill="#455A64"/><path d="M66.961 296.967c-4.413-.195-3.142-.195-7.518-.345-2.166-.076-16.353-.534-18.383-.248a.045.045 0 00-.045.045c0 .012.004.023.013.032.008.008.02.013.032.013 2.014.383 16.21.594 18.368.624 4.413.067 3.15 0 7.564 0a.066.066 0 00.022-.032.065.065 0 00.002-.038.063.063 0 00-.02-.033.076.076 0 00-.035-.018zM77.495 178.638a54.562 54.562 0 00-8.06 4.572.098.098 0 00.031.165.095.095 0 00.067 0c2.722-1.443 5.504-2.842 8.142-4.421a.18.18 0 00.068-.248.17.17 0 00-.046-.053.172.172 0 00-.064-.032.187.187 0 00-.138.017z" fill="#263238"/><path d="M73.894 178.165a12.606 12.606 0 00-.421 1.669c-.121.438-.157.894-.106 1.346 0 .09.136.082.173 0 .226-.421.383-.876.466-1.346.15-.519.301-1.038.436-1.557a.284.284 0 00-.228-.281.286.286 0 00-.32.169z" fill="#263238"/><path d="M73.683 175.428c.09-.474.173-.94.27-1.414.099-.473.226-.969.287-1.466 0-.075.135-.052.12 0-.083.474-.106.963-.15 1.436-.046.474-.098.963-.158 1.436-.106.895-.279 1.79-.467 2.67.47-.069.919-.247 1.309-.519.387-.357.65-.829.751-1.346.143-.541.271-1.09.429-1.624.206-.586.357-1.19.451-1.805 0-.082.135-.052.12 0a19.331 19.331 0 01-.751 3.805 2.12 2.12 0 01-.752 1.255 4.071 4.071 0 01-1.594.437c-.068.037-.158 0-.15-.076a27.59 27.59 0 01.285-2.789zM50.428 190.834c-.158-2.09-.459-4.158-.654-6.248a38.631 38.631 0 01.992-12.459c0-.075-.105-.112-.12-.037a46.278 46.278 0 00-1.331 10.94c.113 3.669.692 7.308.684 10.992-.007 3.684-.368 7.451-.676 11.165-.309 3.714-.624 7.474-.933 11.218-1.248 15.037-2.413 30.075-3.609 45.112-.33 4.195-.654 8.391-.97 12.586-.323 4.271-.82 14.797-1.06 19.075 0 .369.534.354.572 0 .752-7.518 1.406-21.36 2.022-28.909.617-7.549 1.196-14.955 1.79-22.428.594-7.474 1.18-14.948 1.767-22.421.293-3.759.57-7.519.857-11.218.285-3.699.624-7.443.752-11.18.09-2.063.063-4.129-.083-6.188zM60.819 172.052a.067.067 0 00-.057-.03.068.068 0 00-.056.03c-.177.483-.276.99-.293 1.504-.099.556-.24 1.104-.421 1.639a6.608 6.608 0 01-1.752 2.827c-1.82 1.639-4.218 2.21-6.534 2.729-.083 0-.053.143 0 .15a10.354 10.354 0 004.03-.556 8.41 8.41 0 003.128-1.677 5.81 5.81 0 001.737-3.007 10.53 10.53 0 00.225-1.827v-.887c.057-.296.055-.6-.007-.895z" fill="#263238"/><path d="M77.57 128.015c4.263 13.722 12.88 27.067 15.549 28.887 4.135 2.819 23.744 5.263 30.187 4.511 2.113-.248 1.339-14.894-.601-16.09-1.94-1.195-20.985-1.428-22.278-1.947-.692-.271-10.85-11.992-16.541-18.113-5.36-5.729-7.609-1.413-6.316 2.752z" fill="#AD6359"/><path d="M92.51 134.023l-10.865 8.781s-4.759-10.285-5.135-16.541c-.376-6.255 2.587-5.541 6.053-2.533 3.466 3.007 9.947 10.293 9.947 10.293z" fill="#FF725E"/><path d="M92.51 134.023l-3.88 3.135-6.985 5.646s-4.759-10.285-5.135-16.541c-.308-5.067 1.594-5.556 4.18-3.947.661.421 1.287.893 1.873 1.414 3.45 3.015 9.947 10.293 9.947 10.293z" fill="#FF725E"/><path d="M90.57 132.767c.075-.06.06-.128 0-.075a94.59 94.59 0 00-9.143 7.361v.037c1.662-1.015 8.346-6.714 9.143-7.323z" fill="#263238"/><path d="M88.63 137.158l-6.985 5.646s-4.759-10.285-5.135-16.541c-.308-5.067 1.594-5.556 4.18-3.947l7.94 14.842z" fill="#263238"/><path d="M45.308 169.962c.075.12 41.224 8.406 41.683 8.053.64-.489 1.399-43.113-3.526-53.323-1.233-2.556-6.812-5.165-9.67-3.316-8.27 5.354-10.758 10.662-13.428 14.887a134.81 134.81 0 00-7.225 14.226c-4.226 9.285-8.098 19.022-7.834 19.473z" fill="#FF725E"/><g opacity=".1" fill="#000"><path opacity=".1" d="M81.112 122.331l-6.647-1.286c1.917-.706 4.654.045 6.647 1.286zM83.901 125.737l-12.782-2.481c.263-.203.542-.406.827-.609l11.602 2.255c.127.248.24.534.353.835zM84.803 128.775l-16.443-3.173c.225-.218.459-.429.7-.639l15.54 3.007c.053.248.143.526.203.805zM85.405 131.752l-19.383-3.759c.19-.221.385-.439.586-.655l18.654 3.609c.052.264.143.534.143.805zM85.863 134.699l-21.804-4.225.504-.677 21.188 4.075c.045.293.082.557.112.827zM86.224 137.631l-23.849-4.624c.143-.225.286-.458.436-.684l23.308 4.511.105.797zM86.517 140.549l-25.706-4.985.421-.692 25.21 4.887c.023.263.045.519.076.79zM86.75 143.458l-27.495-5.33.406-.7 27.067 5.264c-.015.24 0 .503.023.766zM86.908 146.353l-29.082-5.631c.12-.241.24-.474.369-.707l28.713 5.556v.782zM87.096 149.24l-30.563-5.917c.113-.24.233-.473.353-.707l30.173 5.842c.007.264.022.519.037.782zM87.217 152.128l-31.955-6.188.339-.707 31.578 6.113c.023.263.03.518.038.782zM87.314 155.007l-33.285-6.443c.105-.241.218-.482.331-.715l32.932 6.376.022.782zM87.382 157.879l-34.586-6.691.316-.692 34.217 6.624a4.2 4.2 0 01.053.759zM87.435 160.751l-35.79-6.932c.114-.233.219-.473.324-.714l35.45 6.872c.008.263.008.519.016.774zM87.45 162.842v.752l-36.955-7.166c.106-.233.204-.473.316-.714l36.639 7.128zM87.457 165.699v.752l-38.082-7.376.308-.752 37.774 7.376zM87.442 168.563v.752l-39.18-7.564.301-.751 38.88 7.563zM87.39 171.413v.752l-40.18-7.782.285-.752 39.895 7.782zM87.307 174.263v.751l-41.105-7.962.271-.752 40.834 7.963zM87.149 177.09c0 .345-.068.601-.098.751l-41.751-8.09c0-.158.098-.413.196-.751l41.653 8.09z"/></g><path d="M80.142 128.444c-1.775 0-5.346-3.391-6.7-6.226-.09-.195.309-2.165.685-4.579.218-1.466.428-3.105.511-4.608l9.3 2.796a23.967 23.967 0 00-1.233 5.737c-.019.208-.019.417 0 .624v.106c.166 1.218.181 6.105-2.563 6.15z" fill="#AD6359"/><path d="M82.736 122.218a.526.526 0 000 .105 6.931 6.931 0 01-.978 0c-5.474-.428-6.466-7.255-6.631-9.127l8.82 2.631a23.796 23.796 0 00-1.242 5.737 4.13 4.13 0 00.03.654z" fill="#263238"/><path d="M71.871 103.489c-.752 3.444 1.94 12.948 4.511 14.887 3.76 2.805 9.414 2.587 11.692-1.797 2.203-4.255-1.466-16.586-4.3-18.3-4.189-2.526-10.85.128-11.903 5.21z" fill="#AD6359"/><path d="M82.397 108.166s-.045.045 0 .068c.218.624.369 1.383-.135 1.774v.038c.617-.324.406-1.324.135-1.88z" fill="#263238"/><path d="M81.578 107.685c-1.038.248-.466 2.316.504 2.082.97-.233.375-2.293-.504-2.082zM85.736 107.106h.06c.158.646.45 1.361 1.09 1.413-.73.173-1.105-.782-1.15-1.413z" fill="#263238"/><path d="M86.157 106.271c1.007-.361 1.661 1.684.752 2.023-.91.338-1.632-1.714-.752-2.023zM80.502 106.963c.264-.15.474-.331.752-.504.279-.173.512-.323.64-.654a.45.45 0 00-.249-.504 1.132 1.132 0 00-1.127.196c-.36.207-.63.543-.752.94a.482.482 0 00.736.526zM86.615 105.301h-.88a1.43 1.43 0 01-.902-.158.455.455 0 01-.127-.541 1.14 1.14 0 011.022-.504c.41-.034.818.087 1.143.339a.488.488 0 01-.256.864zM83.044 114.391c.181.15.41.23.647.226.235-.067.454-.185.639-.346h.037a.888.888 0 01-.752.571.75.75 0 01-.661-.421s.06-.045.09-.03zM85.345 112.504c-.171.428-.451.804-.813 1.09a1.187 1.187 0 01-.699.241c-.549 0-.691-.459-.706-.887a2.897 2.897 0 01.06-.677 3.495 3.495 0 002.158.233z" fill="#263238"/><path d="M84.532 113.572a1.186 1.186 0 01-.699.24c-.549 0-.691-.458-.706-.887a1.25 1.25 0 011.406.647z" fill="#FF9BBC"/><path opacity=".2" d="M72.623 110.519c.609-.451 1.504-2.872 1.872-3.872.368-1-.421-5.368-.7-6.661a7.06 7.06 0 00-1.894 3.466c-.346 1.541-.03 4.308.722 7.067z" fill="#263238"/><path d="M82.878 101.7a3.41 3.41 0 01-2.782 1.834A3.493 3.493 0 0177 102.113h-.045a3.463 3.463 0 003.188 1.684 3.511 3.511 0 002.842-2.075.053.053 0 00-.022-.055.066.066 0 00-.02-.009.074.074 0 00-.02 0 .048.048 0 00-.02.008.073.073 0 00-.015.014.059.059 0 00-.009.02zM77.518 94.256a5.391 5.391 0 00-3.858 3.451c-.22.84-.152 1.73.196 2.527 0 .037.083 0 .075 0a4.227 4.227 0 011.075-4.166 5.443 5.443 0 014.564-1.646c.81.077 1.567.44 2.136 1.022.052.068.188 0 .142-.075-.804-1.113-2.586-1.556-4.33-1.113zM89.728 95.85a4.383 4.383 0 00-2.353-1.88c-1.354-.458-2.67-.037-3.97.407-.038 0 0 .067 0 .052a6.082 6.082 0 013.42-.39 4.27 4.27 0 012.414 1.586 4.196 4.196 0 01-.519 5.473 4.271 4.271 0 01-3.195 1.091c-.045 0-.068.067 0 .075a4.284 4.284 0 004.084-1.908 4.283 4.283 0 00.119-4.506z" fill="#263238"/><path d="M71.75 105.542s-2.63-3.008-1.548-5.406c.617-1.33 3.541-1.835 3.541-1.835a5.355 5.355 0 012.827-2.97c2.294-1.097 5.496-.338 5.496-.338s2-1.842 4.429-1.098c3.39 1.038 4.052 5.692 1.36 7.85-1.886 1.504-5.195.286-5.195.286-.263.105-2.714 2.458-5.436.413 0 0-1.39 1.94-3.203 1.211a2.587 2.587 0 01-2.27 1.887z" fill="#263238"/><path d="M74.653 111.181s-2.534-2.88-3.857-1.94c-1.323.94.812 5.263 2.541 5.707a1.707 1.707 0 001.33-.117 1.695 1.695 0 00.836-1.041l-.85-2.609z" fill="#AD6359"/><path d="M166.306 126.309H85.352v53.6h80.954v-53.6z" fill="#fff"/><path d="M85.224 180.06V126.181h81.225v53.879H85.224zm.256-53.609v53.338h80.683v-53.33l-80.683-.008z" fill="#DBDBDB"/><path d="M135.028 153.105a9.196 9.196 0 11-18.391.016 9.196 9.196 0 0118.391-.016z" fill="#FF725E"/><path d="M121.953 156.992v-7.767l9.714 3.88-9.714 3.887z" fill="#fff"/><path d="M166.313 175.721H85.36v4.188h80.953v-4.188z" fill="#EBEBEB"/><path d="M158.396 177.195H90.262v1.24h68.134v-1.24zM88.743 176.503h-2.647v2.647h2.647v-2.647z" fill="#C7C7C7"/><path d="M87.217 176.977h-.504v1.707h.504v-1.707zM88.126 176.977h-.503v1.707h.503v-1.707z" fill="#A6A6A6"/><path d="M162.133 176.48h-2.647v2.647h2.647v-2.647z" fill="#C7C7C7"/><path d="M160.404 177.488h-.519v.639h.519v-.639z" fill="#A6A6A6"/><path d="M160.983 178.541l-.782-.414v-.639l.782-.413v1.466zM161.343 177.315l.121-.12a.886.886 0 01.24.488.834.834 0 01-.24.752l-.121-.12a.681.681 0 00.203-.489.688.688 0 00-.203-.511z" fill="#A6A6A6"/><path d="M161.246 178.172l-.121-.113a.37.37 0 00.106-.256.34.34 0 00-.106-.248l.121-.12a.522.522 0 010 .737z" fill="#A6A6A6"/><path d="M165.291 176.48h-2.647v2.647h2.647v-2.647z" fill="#C7C7C7"/><path d="M164.155 176.909h-1.09v1.09h1.09v-1.09z" fill="#A6A6A6"/><path d="M164.877 177.661h-1.09v1.09h1.09v-1.09z" fill="#fff"/><path d="M103.029 177.826c0 .214.049.425.142.617H90.269v-1.248h12.917a1.4 1.4 0 00-.157.631z" fill="#A6A6A6"/><path d="M105.863 177.827c.004.214-.045.425-.143.616a1.419 1.419 0 01-2.025.578 1.426 1.426 0 01-.524-.578 1.438 1.438 0 01.08-1.365 1.428 1.428 0 011.191-.672 1.423 1.423 0 011.421 1.421z" fill="#A6A6A6"/><path d="M66.36 130.406c-4.12 10.526-2.902 29.857.97 34.398 6.082 7.143 15.977 16.812 21.368 18.436 3.143.947 9.398-16.458 6.646-17.436-4.338-1.549-15.856-10.015-17.022-11.361-1.165-1.345-3.504-14.759-4.902-22.924-1.511-8.872-4.962-6.474-7.06-1.113z" fill="#AD6359"/><path d="M88.698 183.24c9.293 3.812 20.368 2.459 22.18 1.819 1.549-.533 2.338-.827 2.338-.827 2.797-.909 3.497-2.503 3.497-2.503s3.533-.106 3.827-2.256c.338-2.413-4.7-1.797-7.677-3.158-6.812-3.105-15.639-9.428-17.519-10.526l-6.646 17.451z" fill="#AD6359"/><path d="M103.45 178.09a48.056 48.056 0 006.12 2.383c2.333.572 4.705.969 7.097 1.188.076 0 .076.12 0 .12a25.49 25.49 0 01-13.315-3.549c-.098 0-.023-.188.098-.142zM100.961 181.932c2.015.752 5.571 2.022 12.263 2.255v.038a22.923 22.923 0 01-12.331-2.06c-.128-.083-.067-.278.068-.233z" fill="#263238"/><path d="M104.886 172.06c-.752-.752-.331-1.143 1.503-.887 1.835.255 8.948 2.849 9.639.293.692-2.557-9.368-6.053-12.481-6.248a49.059 49.059 0 00-8.21.586c1.834 1.075 6 4.105 9.549 6.256z" fill="#AD6359"/><path d="M75.788 143.376l-13.94 1.105s1.873-11.173 5.083-16.541 5.263-3.113 6.429 1.323c1.165 4.436 2.428 14.113 2.428 14.113z" fill="#FF725E"/><path d="M74.879 141.248c.09 0 .112-.075 0-.068-3.915.063-7.823.37-11.7.918v.052c1.985.091 10.715-.849 11.7-.902z" fill="#263238"/><path d="M63.796 144.316c-.752.075-1.233.06-1.947.165.496-1.992.955-3.985 1.503-5.962.55-1.978 1.09-4.128 1.73-6.158 0 0 0-.038 0 0-.414 1.06-.82 2.12-1.21 3.18.079-.691.212-1.374.398-2.045h-.053a12.323 12.323 0 00-.481 2.444 45.278 45.278 0 00-.805 2.481 47.711 47.711 0 00-1.39 6.346c.759-.035 1.514-.138 2.255-.308.075-.061.068-.151 0-.143zM75.27 138.293l-.136-.887c0-.835.038-1.677 0-2.511 0-.045-.06 0-.067 0 0 .646-.046 1.285-.06 1.932-.06-.361-.113-.752-.174-1.083-.127-.812-.345-1.594-.503-2.391 0-.06-.113-.045-.105 0 .09.858.127 1.715.248 2.564l.383 2.564c.24 1.624.489 3.263.842 4.872l-.188.068c-.053 0-.053.12 0 .12h.286a.12.12 0 00.105-.113c-.09-1.721-.36-3.428-.632-5.135z" fill="#263238"/><path d="M137.908 137.549c-2.023.865-1.88-2.023-1.88-2.023s-1.21 4.106-3.639 4.188c-2.429.083-2.053-3.406-2.038-3.661-.06.218-1.27 3.954-3.759 3.759-2.489-.196-1.647-3.617-1.594-3.842-.12.188-1.834 2.601-3.669 2.045-3.15-.955 1.15-8.271.519-10.857l-4.511-2a6.614 6.614 0 003.533-1.263c1.504-1.038 2.534-1.744 3.677-1.887a2.416 2.416 0 012.564 1.323s1.03-2.09 2.97-2.023c.992.046 1.812 1.67 1.812 1.67a2.876 2.876 0 012.616-1.504c1.369.135 1.978 1.744 1.978 1.744s1.594-1.18 2.955-.586c2.736 1.248 2.811 13.067-1.534 14.917z" fill="#AD6359"/><path d="M120.908 126.572l-3.481-1.354-.339-.24c-3.819-2.865-4.037-8.97-.819-7.797 2.443.894 3.413 5.203 6.015 5.752l-1.376 3.639z" fill="#AD6359"/><path d="M136.622 123.519s.053-.053.06 0a20.473 20.473 0 01-.646 12.18c-.046.128-.271.098-.241-.045a41.81 41.81 0 00.827-12.135zM131.915 122.948c0-.046.076-.053.083 0a19.24 19.24 0 01-1.504 13.248c-.075.135-.285.187-.21 0 1.248-2.828 1.977-9.444 1.631-13.248zM124.78 136.233c1.985-4.015 2.489-8.271 2.376-12.707 0-.06.083-.052.098 0 .646 2.158.421 4.993.06 7.188a11.806 11.806 0 01-2.399 5.594c-.052.06-.18.008-.135-.075z" fill="#263238"/></svg>