<svg width="500" height="490" fill="none" xmlns="http://www.w3.org/2000/svg"><path d="M73.629 453.158c-97.43-46.752-97.43-122.546 0-169.289 97.428-46.742 255.398-46.752 352.816 0 97.418 46.753 97.428 122.537 0 169.289-97.429 46.753-255.388 46.711-352.817 0z" fill="#FAFAFA"/><path d="M250.031 488.686c-63.962 0-127.934-11.686-176.633-35.057C26.091 430.928 0 400.704 0 368.514s26.05-62.414 73.367-85.115c97.397-46.743 255.869-46.743 353.266 0C473.94 306.1 500 336.324 500 368.514s-26.049 62.414-73.367 85.115C377.966 477 314.004 488.686 250.031 488.686zm0-239.308c-63.815 0-127.631 11.654-176.183 34.962-46.93 22.514-72.802 52.413-72.802 84.174 0 31.761 25.84 61.65 72.77 84.174 97.157 46.617 255.263 46.617 352.367 0 46.962-22.514 72.834-52.413 72.834-84.174 0-31.761-25.872-61.66-72.802-84.153-48.553-23.329-112.368-34.983-176.184-34.983z" fill="#F5F5F5"/><path d="M372.17 441.745c34.805 0 63.021-16.29 63.021-36.385s-28.216-36.385-63.021-36.385-63.02 16.29-63.02 36.385 28.215 36.385 63.02 36.385zM89.007 434.506l-24.648-14.228c-2.981-1.716-2.981-4.509 0-6.277l151.202-87.291a11.898 11.898 0 0110.796 0l24.647 14.227c2.971 1.716 2.971 4.509 0 6.225L99.793 434.506a11.893 11.893 0 01-10.786 0zM127.338 452.458l-2.647-1.549c-2.981-1.726-2.981-4.508 0-6.276l137.267-79.195a11.914 11.914 0 0110.796 0l2.657 1.549c2.971 1.715 2.971 4.509 0 6.277l-137.318 79.194a11.947 11.947 0 01-10.755 0z" fill="#E6E6E6"/><path d="M70.093 427.015l10.179-5.879s6.057-25.171 3.64-47.809c-3.39-31.835-24.344-43.813-32.316-41.073-7.971 2.741-10.273 12.01 2.909 30.977 7.752 11.184 17.303 34.481 15.587 63.784z" fill="#FF725E"/><path opacity=".3" d="M70.093 427.015l10.179-5.879s6.057-25.171 3.64-47.809c-3.39-31.835-24.344-43.813-32.316-41.073-7.971 2.741-10.273 12.01 2.909 30.977 7.752 11.184 17.303 34.481 15.587 63.784z" fill="#fff"/><path d="M74.277 414.65h-.094a.707.707 0 01-.564-.55.702.702 0 01-.001-.277c5.587-29.365-4.676-62.361-17.377-76.087a.691.691 0 01-.206-.497.704.704 0 01.206-.497.708.708 0 01.809-.169c.09.039.17.097.238.169 12.93 13.988 23.392 47.517 17.784 77.311a.695.695 0 01-.273.464.693.693 0 01-.522.133z" fill="#fff"/><path d="M44.451 441.797c-1.517.774-5.555-2.688-6.685-3.525a14.163 14.163 0 01-4.414-5.618 13.192 13.192 0 01-.775-8.003c.305-1.422.71-2.821 1.214-4.185l1.38-4.038c.549-1.297.827-2.693.817-4.101-.22-2.814-2.605-4.906-4.781-6.716-2.406-1.988-4.886-4.593-4.697-7.962.31-2.61 1.48-5.043 3.326-6.915 1.716-1.956 3.714-3.672 5.231-5.753a8.204 8.204 0 001.956-5.148 8.59 8.59 0 00-.972-3.337c-1.047-2.249-2.553-4.341-3.254-6.748-.7-2.406-.366-5.304 1.548-6.925 1.58-1.318 3.83-1.391 5.87-1.151a13.354 13.354 0 015.303 2.197c5.231 3.254 7.94 9.74 13.506 12.324 2.093 1.046 4.53 1.308 6.79 2.019 2.26.711 4.52 2.009 5.471 4.185 1.873 4.268-2.25 9.206-1.046 13.704 1.046 3.976 4.823 5.67 6.78 9.301a8.368 8.368 0 01.742 5.168 24.711 24.711 0 01-2.595 8.547 76.967 76.967 0 01-5.073 7.898s-25.401 14.667-25.642 14.782z" fill="#FF725E"/><path opacity=".65" d="M44.451 441.797c-1.517.774-5.555-2.688-6.685-3.525a14.163 14.163 0 01-4.414-5.618 13.192 13.192 0 01-.775-8.003c.305-1.422.71-2.821 1.214-4.185l1.38-4.038c.549-1.297.827-2.693.817-4.101-.22-2.814-2.605-4.906-4.781-6.716-2.406-1.988-4.886-4.593-4.697-7.962.31-2.61 1.48-5.043 3.326-6.915 1.716-1.956 3.714-3.672 5.231-5.753a8.204 8.204 0 001.956-5.148 8.59 8.59 0 00-.972-3.337c-1.047-2.249-2.553-4.341-3.254-6.748-.7-2.406-.366-5.304 1.548-6.925 1.58-1.318 3.83-1.391 5.87-1.151a13.354 13.354 0 015.303 2.197c5.231 3.254 7.94 9.74 13.506 12.324 2.093 1.046 4.53 1.308 6.79 2.019 2.26.711 4.52 2.009 5.471 4.185 1.873 4.268-2.25 9.206-1.046 13.704 1.046 3.976 4.823 5.67 6.78 9.301a8.368 8.368 0 01.742 5.168 24.711 24.711 0 01-2.595 8.547 76.967 76.967 0 01-5.073 7.898s-25.401 14.667-25.642 14.782z" fill="#fff"/><path d="M59.181 434.119a.676.676 0 01-.587-.462.666.666 0 01-.03-.26c2.437-26.416-8.558-56.262-17.199-65.207a.657.657 0 01-.146-.726.667.667 0 01.622-.41c.178 0 .349.07.476.194 8.809 9.175 20.034 39.514 17.565 66.264a.669.669 0 01-.7.607z" fill="#fff"/><path d="M56.566 401.531a.603.603 0 01-.2 0c-8.368-3.065-18.945-4.059-19.05-4.07a.667.667 0 01-.606-.722.656.656 0 01.47-.583.649.649 0 01.262-.023c.105 0 10.849 1.046 19.385 4.184a.672.672 0 01.398.858.652.652 0 01-.66.356z" fill="#fff"/><path d="M64.14 56.373l36.05-15.682-26.53 23.026-9.52-7.344z" fill="#FF725E"/><path opacity=".3" d="M64.14 56.373l36.05-15.682-26.53 23.026-9.52-7.344z" fill="#fff"/><path d="M100.19 40.69L60.73 51.718l-9.52-7.344 48.98-3.682z" fill="#FF725E"/><path opacity=".3" d="M100.19 40.69L60.73 51.718l-9.52-7.344 48.98-3.682z" fill="#fff"/><path d="M60.73 51.717l1.077 9.939 2.333-5.283 36.05-15.682-39.46 11.026z" fill="#FF725E"/><path opacity=".2" d="M60.73 51.717l1.077 9.939 2.333-5.283 36.05-15.682-39.46 11.026z" fill="#000"/><path d="M61.807 61.655l5.503-2.835-3.17-2.448-2.333 5.283z" fill="#FF725E"/><path opacity=".2" d="M64.14 56.372l3.17 2.448-.88.45-2.29-2.898z" fill="#000"/><path d="M53.28 63.623a.671.671 0 01-.45-.273.658.658 0 01.147-.93 38.354 38.354 0 012.25-1.507.659.659 0 01.99.715.67.67 0 01-.3.415c-.7.429-1.433.92-2.155 1.454a.67.67 0 01-.481.126zM93.244 145.306a129.145 129.145 0 01-3.85-.544.67.67 0 01.21-1.318c1.673.272 3.4.502 5.157.701a.665.665 0 01.332 1.181.666.666 0 01-.49.137l-1.36-.157zm5.701.565a.661.661 0 01-.575-.711.65.65 0 01.712-.607c1.694.125 3.452.23 5.23.293a.695.695 0 01.462.216c.12.129.187.298.187.474a.669.669 0 01-.691.638 134.276 134.276 0 01-5.23-.292l-.095-.011zm-13.83-1.873a110.416 110.416 0 01-5.136-1.161.665.665 0 01-.453-.802.67.67 0 01.777-.495c1.663.429 3.369.816 5.074 1.151a.668.668 0 01-.22 1.318l-.042-.011zm23.424 2.271a.667.667 0 01-.554-.702.672.672 0 01.637-.627c1.716 0 3.463 0 5.231-.063a.671.671 0 010 1.329c-1.768 0-3.546.073-5.231.063h-.083zm-32.724-4.603H75.7c-1.705-.524-3.39-1.047-5-1.685a.648.648 0 01-.376-.341.656.656 0 01.326-.878.676.676 0 01.51-.026 89.915 89.915 0 004.927 1.653.684.684 0 01.44.837.65.65 0 01-.712.44zm-9.018-3.285a.531.531 0 01-.178 0 74.4 74.4 0 01-4.78-2.25.667.667 0 01.065-1.277.668.668 0 01.541.095c1.507.774 3.139 1.517 4.697 2.208a.644.644 0 01.353.362.661.661 0 01-.008.506.652.652 0 01-.69.356zm-8.557-4.331a.606.606 0 01-.262-.084 73.32 73.32 0 01-4.446-2.867.668.668 0 01.774-1.046 68.707 68.707 0 004.352 2.814.663.663 0 01.294.785.66.66 0 01-.712.439v-.041zm-7.889-5.461a.74.74 0 01-.334-.147 56.233 56.233 0 01-3.955-3.525.682.682 0 01-.253-.483.671.671 0 01.696-.712.668.668 0 01.488.243 55.677 55.677 0 003.86 3.441.672.672 0 01.191.779.671.671 0 01-.692.404zm-6.894-6.664a.647.647 0 01-.418-.231 49.937 49.937 0 01-3.243-4.184.673.673 0 01-.006-.745.657.657 0 01.184-.186.653.653 0 01.737-.005.65.65 0 01.183.183 45.854 45.854 0 003.139 4.08.668.668 0 01-.063.941.672.672 0 01-.513.147zm-5.471-7.867a.654.654 0 01-.502-.346 39.133 39.133 0 01-2.208-4.843.664.664 0 011.245-.461 37.208 37.208 0 002.093 4.677.658.658 0 01-.312.924c-.112.049-.236.066-.358.049h.042zm-3.463-8.935a.655.655 0 01-.565-.512 29.66 29.66 0 01-.617-3.965c0-.45-.073-.9-.084-1.34a.647.647 0 01.628-.69.67.67 0 01.7.628c0 .429 0 .858.085 1.287a28.66 28.66 0 00.585 3.787.668.668 0 01-.732.805zm-.596-9.551a.649.649 0 01-.575-.712c0-.428.083-.847.136-1.265.165-1.345.406-2.68.721-3.997a.68.68 0 01.806-.491.67.67 0 01.492.805 35.462 35.462 0 00-.701 3.85c-.053.398-.094.806-.126 1.214a.67.67 0 01-.722.606l-.031-.01zm2.092-9.332h-.146a.658.658 0 01-.398-.847 42.875 42.875 0 012.093-4.875.67.67 0 011.192.606 43.027 43.027 0 00-2.092 4.719.671.671 0 01-.586.397h-.063zm4.185-8.6a.648.648 0 01-.272-.093.67.67 0 01-.21-.921 52.312 52.312 0 013.17-4.331.664.664 0 011.047.816c-1.047 1.37-2.093 2.793-2.971 4.185a.66.66 0 01-.65.345h-.114zm5.837-7.605a.732.732 0 01-.366-.167.67.67 0 010-.942 55.186 55.186 0 013.787-3.724.67.67 0 011.108.542.647.647 0 01-.229.452 52.36 52.36 0 00-3.682 3.63.669.669 0 01-.503.21h-.115zM118.216 145.997a.688.688 0 01-.405-.21.674.674 0 01-.181-.418.67.67 0 01.628-.701l2.646-.178a.658.658 0 01.712.607.683.683 0 01-.618.722l-2.667.178h-.115z" fill="#E0E0E0"/><path d="M430.284 316.845l36.375-18.109 14.834 6.559-51.209 11.55z" fill="#FF725E"/><path opacity=".3" d="M430.284 316.845l36.375-18.109 14.834 6.559-51.209 11.55z" fill="#fff"/><path d="M430.284 316.845l31.939-21.415-5.869-8.443-26.07 29.858z" fill="#FF725E"/><path opacity=".3" d="M430.284 316.845l31.939-21.415-5.869-8.443-26.07 29.858z" fill="#fff"/><path d="M462.223 295.43l-.617 5.837-31.322 15.578 31.939-21.415z" fill="#FF725E"/><path opacity=".2" d="M462.223 295.43l-.617 5.837-31.322 15.578 31.939-21.415z" fill="#000"/><path d="M468.615 293.296a.646.646 0 01-.46-.189.66.66 0 010-.931 28.921 28.921 0 003.222-4.069.662.662 0 01.921-.199.671.671 0 01.188.921 29.076 29.076 0 01-3.369 4.268.671.671 0 01-.502.199zm5.43-8.056a.896.896 0 01-.283 0 .668.668 0 01-.324-.889 31.017 31.017 0 001.758-4.896.666.666 0 01.799-.409.672.672 0 01.487.754 32.12 32.12 0 01-1.83 5.106.662.662 0 01-.607.334zm2.668-9.352h-.095a.67.67 0 01-.575-.743c.201-1.491.302-2.994.303-4.499v-.711a.674.674 0 01.395-.625.66.66 0 01.924.594v.742c0 1.561-.104 3.12-.314 4.666a.657.657 0 01-.638.576zm-.074-9.719a.659.659 0 01-.659-.576 37.414 37.414 0 00-1.119-5.094.667.667 0 01.706-.924.68.68 0 01.57.547 38.62 38.62 0 011.161 5.283.666.666 0 01-.565.753l-.094.011zm-2.646-9.363a.68.68 0 01-.618-.408 38.897 38.897 0 00-2.385-4.645.661.661 0 01.22-.91.67.67 0 01.92.219 39.342 39.342 0 012.469 4.813.669.669 0 01-.345.878.755.755 0 01-.261.053zm-4.938-8.369a.668.668 0 01-.523-.262 40.698 40.698 0 00-3.453-3.934.667.667 0 010-.941.66.66 0 01.942 0 43.383 43.383 0 013.557 4.069c.067.1.107.215.115.335a.674.674 0 01-.649.712l.011.021zm-6.779-6.968a.64.64 0 01-.419-.146 49.484 49.484 0 00-4.237-3.107.67.67 0 01-.007-1.107.66.66 0 01.739-.002c.607.397 1.193.795 1.779 1.213a42.887 42.887 0 012.563 1.977.652.652 0 01-.135 1.109.679.679 0 01-.283.063zm-8.087-5.429a.628.628 0 01-.325-.084 61.598 61.598 0 00-4.707-2.344.67.67 0 01.544-1.224 66.61 66.61 0 014.812 2.407.672.672 0 01.262.899.687.687 0 01-.586.304v.042zm-8.861-4.07a.593.593 0 01-.23 0 78.046 78.046 0 00-5.001-1.716.669.669 0 01.398-1.276 82.578 82.578 0 015.073 1.747.667.667 0 01.388.858.688.688 0 01-.628.345v.042zm-9.3-2.929h-.168a90.748 90.748 0 00-5.157-1.172.67.67 0 01.261-1.308c1.779.356 3.536.754 5.231 1.193a.669.669 0 01.481.806.673.673 0 01-.255.322.672.672 0 01-.393.117v.042zm-53.595-.126a.666.666 0 01-.632-.583.668.668 0 01.465-.724c1.705-.44 3.462-.837 5.23-1.193a.67.67 0 01.262 1.308 95.095 95.095 0 00-5.158 1.171l-.167.021zm44.033-1.831h-.105a106.274 106.274 0 00-5.231-.69.648.648 0 01-.446-.244.664.664 0 01-.14-.488.647.647 0 01.733-.586c1.789.188 3.578.418 5.304.69a.67.67 0 01-.094 1.329l-.021-.011zm-34.471-.104a.67.67 0 01-.105-1.329c1.747-.261 3.526-.481 5.315-.659a.657.657 0 01.651.344.676.676 0 01.052.505.66.66 0 01-.567.469 102.71 102.71 0 00-5.231.659l-.115.011zm24.773-.973h-.053a110.456 110.456 0 00-5.283-.241.67.67 0 010-1.328c1.768 0 3.568.115 5.346.24a.671.671 0 010 1.329h-.01zm-15.044-.084a.676.676 0 01-.67-.627.668.668 0 01.628-.701c1.768-.105 3.568-.178 5.346-.199a.656.656 0 01.478 1.122.678.678 0 01-.468.206c-1.768 0-3.546.095-5.283.199h-.031z" fill="#E0E0E0"/><path d="M245.669 333.677V32.133c0-5.942-2.929-12.46-6.549-14.541-3.62-2.082-10.734-1.381-15.891 1.59L91.413 95.29c-5.147 2.97-9.321 10.2-9.321 16.142v301.544c0 5.942 2.94 12.46 6.56 14.552 3.619 2.092 10.733 1.381 15.88-1.601l131.816-76.097a17.559 17.559 0 009.321-16.153z" fill="#37474F"/><path d="M237.279 336.669l-135.551 78.295V112.039l-16.958-9.792a19.07 19.07 0 00-2.73 9.185v301.544c0 5.942 2.94 12.46 6.559 14.552 3.62 2.092 10.733 1.381 15.881-1.601l131.815-76.097a17.784 17.784 0 008.077-9.007l-.523-.304-6.57-3.85z" fill="#263238"/><path d="M236.097 29.382l-132.193 76.369a14.46 14.46 0 00-6.549 11.32v298.908c0 6.381 4.53 8.997 10.064 5.795l128.678-74.277a16.442 16.442 0 007.417-12.836v-301c0-4.718-3.337-6.654-7.417-4.279z" fill="#455A64"/><path d="M237.059 48.788v278.278a15.586 15.586 0 01-7.041 12.208l-119.125 68.827c-3.882 2.26-7.041.439-7.041-4.059V123.578a15.694 15.694 0 014.948-10.619l.659-.596c.456-.358.935-.687 1.434-.983l33.477-19.354 2.176-1.266c1.213-.69 2.186-.136 2.186 1.266 0 1.402 1.046 1.925 2.343 1.172l39.064-22.556a5.013 5.013 0 002.354-3.88 4.946 4.946 0 011.956-3.662l.23-.136 32.766-18.904.701-.409c4.906-2.835 8.913-.523 8.913 5.137z" fill="#000"/><path d="M219.797 331.438a15.59 15.59 0 007.031-12.208V44.415l-32.17 18.57-.23.135a4.936 4.936 0 00-1.935 3.64 5.012 5.012 0 01-2.333 3.861l-39.064 22.555c-1.297.754-2.343.22-2.343-1.171 0-1.392-.973-1.957-2.186-1.266l-2.197 1.287-33.477 19.354c-.499.296-.978.625-1.434.983l-.659.596a15.694 15.694 0 00-4.948 10.619v274.815l115.945-66.955z" fill="#263238"/><path d="M157.007 81.282l17.9-10.336c1.046-.618 1.935-.178 1.935.983a4.182 4.182 0 01-1.935 3.201l-17.9 10.336c-1.046.618-1.935.178-1.935-.983a4.182 4.182 0 011.935-3.201zM184.124 64.794c1.203-.7 2.176-.136 2.176 1.256a4.827 4.827 0 01-2.176 3.776c-1.204.69-2.187.126-2.187-1.265a4.815 4.815 0 012.187-3.767z" fill="#263238"/><path d="M94.311 149.732a7.877 7.877 0 00-3.442-6.277 2.286 2.286 0 00-2.364-.189 131.43 131.43 0 01-2.584 1.475 2.7 2.7 0 00-1.046 2.448v26.008a7.889 7.889 0 003.452 6.277 2.345 2.345 0 002.27.24 93.254 93.254 0 002.668-1.527 2.672 2.672 0 001.046-2.448v-26.007z" fill="#455A64"/><path d="M91.748 151.207v26.018c0 2.333-1.538 3.347-3.442 2.249a7.893 7.893 0 01-3.452-6.277v-25.966c0-2.343 1.548-3.347 3.452-2.249a7.856 7.856 0 013.442 6.225z" fill="#37474F"/><path d="M94.311 195.26a7.88 7.88 0 00-3.442-6.277 2.298 2.298 0 00-2.364-.198c-.43.261-2.093 1.213-2.584 1.485a2.687 2.687 0 00-1.046 2.448v26.05a7.872 7.872 0 003.452 6.224 2.321 2.321 0 002.27.251 93.254 93.254 0 002.668-1.527 2.686 2.686 0 001.046-2.448V195.26z" fill="#455A64"/><path d="M91.748 196.735v26.008c0 2.343-1.538 3.347-3.442 2.249a7.862 7.862 0 01-3.452-6.225V192.76c0-2.343 1.548-3.358 3.452-2.26a7.872 7.872 0 013.442 6.235z" fill="#37474F"/><path d="M258.756 61.07l-128.321 73.994a6.4 6.4 0 00-2.888 5.001v283.132a6.342 6.342 0 002.898 4.99l1.8 1.046a6.428 6.428 0 005.785 0l128.321-74.12a6.434 6.434 0 002.888-5.011V67.085a6.364 6.364 0 00-2.898-4.99l-1.799-1.046a6.436 6.436 0 00-5.786.02z" fill="#E0E0E0"/><path d="M269.239 350.269c0 2.542-1.789 4.185-3.996 5.43l-126.104 72.854c-2.197 1.276-3.997.251-3.997-2.301v-280.59a7.97 7.97 0 013.976-6.884l126.125-72.854a2.655 2.655 0 013.641.968c.233.405.356.865.355 1.333V350.27z" fill="#FAFAFA"/><path d="M269.239 67.096v1.13a2.667 2.667 0 00-4.007-2.302l-126.093 72.854a7.764 7.764 0 00-2.909 2.908.393.393 0 000 .084l-7.804-4.498a5.912 5.912 0 012.092-2.208L258.756 61.07a6.416 6.416 0 015.775 0l1.81 1.046a6.331 6.331 0 012.898 4.98z" fill="#F0F0F0"/><path d="M135.142 188.994l134.097-77.416V83.677l-134.097 77.416v27.901z" fill="#FF725E"/><path opacity=".5" d="M135.142 188.994l134.097-77.416V83.677l-134.097 77.416v27.901z" fill="#fff"/><path d="M135.142 402.912v23.339c0 2.553 1.8 3.578 3.997 2.302l126.104-72.813c2.207-1.276 3.996-2.887 3.996-5.429v-24.825l-134.097 77.426z" fill="#FF725E"/><path opacity=".5" d="M135.142 402.912v23.339c0 2.553 1.8 3.578 3.997 2.302l126.104-72.813c2.207-1.276 3.996-2.887 3.996-5.429v-24.825l-134.097 77.426z" fill="#fff"/><path d="M266.571 66.677a1.56 1.56 0 011.559 1.548V350.27c0 1.726-1.046 3.139-3.442 4.467l-126.114 72.813a2.494 2.494 0 01-1.224.397c-.952 0-1.046-1.046-1.046-1.736V145.662a6.837 6.837 0 013.421-5.921l126.072-72.855c.234-.14.502-.213.774-.209zm0-1.12c-.468.001-.927.128-1.329.367l-126.103 72.854a7.967 7.967 0 00-3.976 6.884v280.589c0 1.81.9 2.846 2.208 2.846a3.538 3.538 0 001.789-.544l126.103-72.813c2.208-1.276 3.997-2.887 3.997-5.429V68.225a2.665 2.665 0 00-2.668-2.667h-.021z" fill="#E0E0E0"/><path d="M159.769 140.107a.374.374 0 010-.188v-.973l-1.454.837c-.084.041-.126 0-.126-.126v-.335-.188l.053-.178 1.548-4.185.073-.167a.286.286 0 01.105-.084l.199-.115h.136a.328.328 0 010 .21v3.284l.324-.188h.125a.411.411 0 010 .209v.22a.635.635 0 010 .23.232.232 0 01-.125.136l-.324.189v.931a.54.54 0 010 .24.285.285 0 01-.136.136l-.241.147c-.084-.021-.126-.011-.157-.042zm.063-1.967v-2.333l-1.046 2.929 1.046-.596zM161.506 138.537a3.038 3.038 0 01-.429-1.893 6.119 6.119 0 01.429-2.396 2.958 2.958 0 011.203-1.454c.182-.104.38-.178.586-.22a.627.627 0 01.449.063c.007.013.01.027.01.042a.09.09 0 01-.01.042.248.248 0 010 .115l-.125.481c0 .063 0 .094-.063.105h-.052a.825.825 0 00-.753.115 1.989 1.989 0 00-.816 1.046 4.505 4.505 0 00-.304 1.768c-.049.496.053.996.293 1.433.188.23.46.251.795.063.128-.074.247-.162.356-.262.105-.093.2-.199.282-.313v-1.517l-.606.355h-.126a.39.39 0 010-.198v-.21a.691.691 0 010-.24.374.374 0 01.126-.136l.972-.565h.147a.426.426 0 010 .24v2.156a.984.984 0 010 .188.432.432 0 01-.063.146 3.133 3.133 0 01-1.151 1.141c-.502.313-.868.251-1.15-.095zM173.777 131.12a2.228 2.228 0 01-.847 1.789c-.471.262-.848-.104-.848-.816a2.217 2.217 0 01.848-1.789c.47-.272.847.094.847.816z" fill="#455A64"/><path d="M172.93 128.17a5.116 5.116 0 00-1.967 2.95.567.567 0 00.094.597c.157.104.398-.105.492-.44a3.564 3.564 0 011.381-2.092.9.9 0 011.381.481c.094.23.334.168.491-.125a.868.868 0 00.094-.701 1.267 1.267 0 00-.811-.841 1.278 1.278 0 00-1.155.171z" fill="#455A64"/><path d="M172.93 126.088a7.91 7.91 0 00-3.013 4.3c-.094.272-.074.555.062.649.157.094.388-.094.492-.419a6.399 6.399 0 012.459-3.504 1.64 1.64 0 012.469.669c.104.188.324.126.481-.146a.893.893 0 00.073-.733 2.007 2.007 0 00-2.206-1.168 2.008 2.008 0 00-.817.352zM195.004 116.432a.32.32 0 010-.157.66.66 0 01.062-.188l1.214-2.176.094-.146a.253.253 0 01.105-.105l.429-.251a.072.072 0 01.08-.016.063.063 0 01.024.016.171.171 0 01.052.136v5.524a.414.414 0 01-.052.188.208.208 0 01-.104.126l-.45.261h-.105a.178.178 0 010-.136v-4.258l-.795 1.412a.24.24 0 01-.115.116.107.107 0 01-.105 0l-.334-.346zM197.839 114.8a.196.196 0 010-.157.426.426 0 010-.188l1.213-2.176.094-.146a.253.253 0 01.105-.105l.439-.262a.091.091 0 01.053-.018c.019 0 .037.007.052.018a.178.178 0 010 .136v5.566a.398.398 0 010 .188.264.264 0 01-.105.126l-.46.261a.083.083 0 01-.052.019.086.086 0 01-.053-.019.202.202 0 010-.146v-4.248l-.795 1.413a.281.281 0 01-.104.115.107.107 0 01-.105 0l-.282-.377zM201.542 112.415a.094.094 0 01.058-.019c.02 0 .041.006.057.019a.211.211 0 010 .136v.837a.54.54 0 010 .188.257.257 0 01-.115.136l-.513.304h-.104a.182.182 0 01-.057-.08.182.182 0 01-.006-.098v-.847a.445.445 0 01.052-.189.2.2 0 01.04-.073.205.205 0 01.065-.052l.523-.262zm0 3.013a.117.117 0 01.115 0 .263.263 0 010 .147v.836a.6.6 0 010 .189.264.264 0 01-.115.136l-.513.303h-.104a.181.181 0 01-.053-.136v-.847a.433.433 0 01.053-.189.205.205 0 01.104-.125l.513-.314zM204.534 115.01a.088.088 0 01-.052.018.091.091 0 01-.053-.018.172.172 0 010-.136v-1.047l-1.726.994a.087.087 0 01-.052.016.087.087 0 01-.052-.016.206.206 0 01-.053-.146v-.607a.593.593 0 010-.23c0-.073.053-.157.084-.241l1.716-4.278a.692.692 0 01.219-.346l.429-.251a.085.085 0 01.105 0 .178.178 0 010 .136v3.442l.492-.272a.082.082 0 01.052-.018c.019 0 .037.006.052.018a.188.188 0 010 .136v.628a.398.398 0 010 .188.344.344 0 01-.104.126l-.492.282v1.046a.403.403 0 010 .189.266.266 0 01-.105.125l-.46.262zm-.157-2.26v-1.841l-.952 2.395.952-.554zM206.783 107.917a.43.43 0 010-.189.257.257 0 01.105-.125l2.092-1.214a.083.083 0 01.053-.018c.019 0 .037.006.052.018v.743a.398.398 0 010 .188.35.35 0 01-.105.136l-1.569.9-.063 1.14c.084-.107.183-.202.293-.282l.251-.157c.175-.11.371-.182.576-.209a.666.666 0 01.47.115c.144.116.25.273.304.45.083.253.122.518.115.784.003.352-.035.703-.115 1.046a4.158 4.158 0 01-.314.816 3.04 3.04 0 01-.471.649c-.168.17-.358.318-.565.439a1.835 1.835 0 01-.669.251.684.684 0 01-.45-.115.785.785 0 01-.283-.387 1.629 1.629 0 01-.094-.575.419.419 0 010-.199.456.456 0 01.115-.125l.45-.262a.1.1 0 01.052-.016.1.1 0 01.053.016.18.18 0 01.063.115.502.502 0 00.104.262.372.372 0 00.377.104.893.893 0 00.251-.115 1.29 1.29 0 00.512-.565c.131-.259.199-.546.199-.837a.637.637 0 00-.199-.533.435.435 0 00-.512 0 1.55 1.55 0 00-.272.188 1.273 1.273 0 00-.157.188c-.036.051-.074.1-.115.147a.34.34 0 01-.126.115l-.512.293a.085.085 0 01-.105 0 .178.178 0 010-.136l.209-3.044zM143.69 150.087v-1.799l1.558-.9v1.799l-1.558.9zM146.023 148.738v-3.589l1.548-.899v3.588l-1.548.9zM148.355 147.388v-5.377l1.549-.9v5.388l-1.549.889zM150.678 146.049v-7.177l1.559-.899v7.176l-1.559.9zM259.802 77.222c-.167-.24-.366-.303-.575-.188l-5.806 3.327a2.238 2.238 0 00-.67 1.768v3.253a1.99 1.99 0 00.251 1.047.567.567 0 00.241.209.324.324 0 00.335 0l5.806-3.327a2.239 2.239 0 00.67-1.768v-3.274a1.853 1.853 0 00-.252-1.047zm-6.632 8.799a.92.92 0 01-.094-.482v-3.264a1.763 1.763 0 01.502-1.339l5.806-3.337a.207.207 0 01.262.063.91.91 0 01.094.481v3.264a1.762 1.762 0 01-.513 1.35l-5.806 3.337a.168.168 0 01-.208-.013.158.158 0 01-.043-.06z" fill="#455A64"/><path d="M254.687 80.863v3.86l-.91.523a.116.116 0 01-.161-.036.109.109 0 01-.017-.058v-2.877a1.32 1.32 0 01.376-1.046l.712-.366zM255.105 80.633l1.088-.638v3.86l-1.088.628v-3.85zM256.622 79.764l1.088-.627v3.86l-1.088.628v-3.86zM259.217 78.52v2.782a1.433 1.433 0 01-.722 1.245l-.366.21v-3.861l.868-.502a.145.145 0 01.146 0 .15.15 0 01.054.053.166.166 0 01.02.072zM260.273 78.153c.157-.094.293.377.293 1.046v.607c.045.49-.057.981-.293 1.413l-.303.198V78.28l.303-.126zM243.943 88.019l5.639-5.011-1.737 7.344-.827-3.055-3.075.722z" fill="#455A64"/><path d="M145.248 174.41a.502.502 0 01-.436-.242.486.486 0 01-.066-.249v-11.508a.488.488 0 01.251-.429l14.427-8.369a.472.472 0 01.502 0 .494.494 0 01.241.429v11.507a.517.517 0 01-.241.429l-14.437 8.37a.48.48 0 01-.241.062zm.492-11.727v10.378l13.443-7.763V154.92l-13.443 7.763z" fill="#FAFAFA"/><path d="M152.111 167.014a.473.473 0 01-.261-.073l-6.863-4.122a.477.477 0 01-.234-.499.488.488 0 01.372-.403.503.503 0 01.374.054l6.445 3.871 7.323-12.041a.511.511 0 01.69-.168.503.503 0 01.168.68l-7.595 12.46a.485.485 0 01-.419.241z" fill="#FAFAFA"/><path d="M145.248 174.41a.461.461 0 01-.209 0 .505.505 0 01-.251-.659l4.132-9.039a.496.496 0 01.913.03.495.495 0 01-.013.378l-4.122 9.05a.499.499 0 01-.45.24zM159.675 166.083a.49.49 0 01-.324-.126l-4.52-3.996a.497.497 0 01-.108-.54.51.51 0 01.269-.27.492.492 0 01.54.109l4.551 4.038a.505.505 0 010 .701.494.494 0 01-.408.084z" fill="#FAFAFA"/><path d="M159.832 170.749c-1.925 1.109-3.494-.073-3.494-2.647a8.358 8.358 0 013.494-6.685c1.925-1.109 3.494.073 3.494 2.647a8.371 8.371 0 01-3.494 6.685z" fill="#FF725E"/><path d="M160.208 168.384a.057.057 0 01-.041.016.058.058 0 01-.042-.016.143.143 0 010-.115v-.837l-1.392.806a.052.052 0 01-.018.015.048.048 0 01-.024.006.046.046 0 01-.023-.006.044.044 0 01-.018-.015.106.106 0 01-.013-.052c0-.019.004-.037.013-.053v-.491a.5.5 0 010-.189c0-.063 0-.125.073-.199l1.37-3.452a.542.542 0 01.189-.272l.345-.199a.063.063 0 01.084 0 .188.188 0 010 .115v2.773l.387-.22a.062.062 0 01.083 0 .188.188 0 010 .115v.492c.01.052.01.105 0 .157a.299.299 0 01-.083.104l-.387.22v.837a.46.46 0 010 .157.228.228 0 01-.084.105l-.419.198zm-.146-1.82v-1.465l-.764 1.925.764-.46z" fill="#fff"/><path d="M260.294 95.792a2.896 2.896 0 00-1.297 2.249c0 .826.586 1.161 1.297.753a2.863 2.863 0 001.297-2.25c0-.826-.575-1.16-1.297-.752zM260.294 101.284a2.886 2.886 0 00-1.297 2.249c0 .827.586 1.161 1.297.743.38-.245.696-.576.921-.968.226-.391.355-.83.376-1.281 0-.848-.575-1.183-1.297-.743zM260.294 106.724a2.899 2.899 0 00-1.297 2.249c0 .827.586 1.161 1.297.753a2.857 2.857 0 001.297-2.249c0-.826-.575-1.161-1.297-.753zM253.85 112.164l-3.63-.701c.282-.905.43-1.846.439-2.793 0-1.831-.628-3.254-1.726-3.882a3.14 3.14 0 00-3.285.231c-2.49 1.433-4.519 5.283-4.519 8.578a4.278 4.278 0 001.726 3.881 2.7 2.7 0 001.339.356 3.891 3.891 0 001.946-.586 9.722 9.722 0 003.766-4.844l3.756.733h.104a.485.485 0 00.469-.547.49.49 0 00-.385-.426zm-8.202 4.184a2.262 2.262 0 01-2.302.231 3.36 3.36 0 01-1.224-3.024c0-2.981 1.8-6.444 4.018-7.72.433-.275.931-.43 1.443-.45.301-.003.596.072.858.219a3.365 3.365 0 011.224 3.024c0 3.023-1.799 6.486-4.017 7.762v-.042zM230.74 123.253l-1.245 1.413c-.104.115-.209 0-.188-.136l.167-2.093c.024-.207.074-.411.147-.607l5.576-13.819c.46-1.151 1.872-.209 1.412.941l-5.576 13.82a1.67 1.67 0 01-.293.481z" fill="#FAFAFA"/><path d="M234.705 116.286v9.415l-7.867 4.541v-14.563l5.451-3.138.606-1.496-6.8 3.933a.47.47 0 00-.24.419v15.692a.467.467 0 00.24.429.44.44 0 00.251.073.454.454 0 00.251-.073l8.851-5.116a.482.482 0 00.251-.429v-12.135l-.994 2.448z" fill="#FAFAFA"/><path d="M157.677 396.373a13.723 13.723 0 00-6.204 10.744 4.758 4.758 0 001.318 3.641l-.345 3.138a.253.253 0 00.151.255.251.251 0 00.288-.066l2.26-2.522a5.71 5.71 0 002.532-.837 13.677 13.677 0 006.203-10.733c0-3.996-2.772-5.597-6.203-3.62z" fill="#fff"/><path d="M244.11 354.6a6.275 6.275 0 002.636-5.032c0-1.946-1.182-2.835-2.636-1.998a6.286 6.286 0 00-2.636 5.043c0 1.935 1.172 2.887 2.636 1.987zm8.694-5.021a6.287 6.287 0 002.636-5.032c0-1.946-1.182-2.835-2.636-1.998a6.32 6.32 0 00-2.637 5.042c0 1.935 1.183 2.835 2.637 1.988zm5.23.439c-.146-1.14-.931-1.59-1.841-1.046l-6.852 3.954c-.515.36-.946.827-1.264 1.368a4.378 4.378 0 00-.577 1.771l-.199 1.82 10.911-6.277-.178-1.59zm-19.196 11.1l-.199 1.82 7.741-4.457.262-2.479a5.15 5.15 0 01.523-1.799l-6.476 3.724a4.425 4.425 0 00-1.851 3.191z" fill="#FAFAFA"/><path d="M152.456 210.084c-3.389 1.956-6.151-.125-6.151-4.655s2.762-9.792 6.151-11.749c3.39-1.956 6.152.126 6.152 4.645 0 4.52-2.731 9.813-6.152 11.759z" fill="#FF725E"/><path d="M156.223 203.347a10.934 10.934 0 01-4.499 5.461c-.51.32-1.093.504-1.695.533a1.674 1.674 0 01-1.36-.69l.126-1.935a3.043 3.043 0 011.287-2.218l4.749-2.783c.649-.377 1.193-.063 1.287.722l.105.91zM154.434 198.336a4.608 4.608 0 01-1.925 3.682c-1.046.618-1.936 0-1.936-1.454a4.618 4.618 0 011.936-3.682c1.056-.617 1.925.042 1.925 1.454z" fill="#FAFAFA"/><path d="M137.465 224.971a.495.495 0 01-.476-.367.492.492 0 01.235-.554l128.866-74.402a.49.49 0 01.675.183.489.489 0 01.048.375.493.493 0 01-.231.3l-128.866 74.402a.552.552 0 01-.251.063z" fill="#E0E0E0"/><path d="M171.475 185.207l33.362-19.26c.984-.576 1.789-.168 1.789.9a3.83 3.83 0 01-1.789 2.971l-33.362 19.259c-.993.576-1.788.168-1.788-.899a3.812 3.812 0 011.788-2.971z" fill="#455A64"/><path d="M171.475 192.959l62.017-35.8c.983-.575 1.789-.167 1.789.9a3.856 3.856 0 01-1.789 2.971l-62.017 35.81c-.993.575-1.788.167-1.788-.91a3.835 3.835 0 011.788-2.971z" fill="#E0E0E0"/><path d="M254.854 147.43c-1.925 1.119-3.494-.073-3.494-2.647a8.363 8.363 0 013.494-6.674c1.936-1.12 3.505.073 3.505 2.636a8.369 8.369 0 01-3.505 6.685z" fill="#FF725E"/><path d="M255.199 142.377a1.76 1.76 0 00.178-.439 2.22 2.22 0 000-.346.602.602 0 00-.115-.418c-.073-.084-.199-.084-.366 0a.835.835 0 00-.366.397 2.227 2.227 0 00-.168.576.427.427 0 010 .167s-.052.074-.083.084l-.356.209a.063.063 0 01-.084 0 .126.126 0 010-.115c.01-.219.045-.437.105-.648.054-.219.134-.43.241-.628.094-.193.213-.373.355-.534.12-.15.265-.277.429-.376a.81.81 0 01.492-.136.487.487 0 01.345.167c.099.11.168.243.199.387.043.164.064.333.063.502v.335c-.012.12-.033.239-.063.356-.042.138-.09.274-.147.408a6.846 6.846 0 01-.251.512l-.837 1.653 1.256-.722a.063.063 0 01.084 0 .13.13 0 01.014.058.13.13 0 01-.014.058v.491a.282.282 0 010 .147.181.181 0 01-.084.104l-2.092 1.224a.08.08 0 01-.042.011.078.078 0 01-.042-.011.126.126 0 010-.115v-.418a.568.568 0 01.052-.23.679.679 0 01.073-.168l1.224-2.542z" fill="#fff"/><path d="M152.456 237.996c-3.389 1.956-6.151-.126-6.151-4.656 0-4.53 2.762-9.792 6.151-11.748 3.39-1.956 6.152.125 6.152 4.645 0 4.519-2.731 9.802-6.152 11.759z" fill="#FF725E"/><path d="M156.223 231.248a10.934 10.934 0 01-4.499 5.461c-.51.32-1.093.504-1.695.534a1.688 1.688 0 01-1.36-.681l.126-1.945a3.136 3.136 0 011.287-2.218l4.749-2.741c.649-.377 1.193-.063 1.287.722l.105.868zM154.434 226.237a4.614 4.614 0 01-1.925 3.682c-1.046.618-1.936 0-1.936-1.454a4.618 4.618 0 011.936-3.682c1.056-.618 1.925.042 1.925 1.454z" fill="#FAFAFA"/><path d="M137.465 252.882a.511.511 0 01-.429-.251.502.502 0 01.188-.68l128.866-74.402a.499.499 0 01.68.177.502.502 0 01-.188.68l-128.866 74.403a.457.457 0 01-.251.073z" fill="#E0E0E0"/><path d="M171.475 213.108l33.362-19.26c.984-.575 1.789-.167 1.789.9a3.83 3.83 0 01-1.789 2.971l-33.362 19.27c-.993.565-1.788.157-1.788-.91a3.812 3.812 0 011.788-2.971z" fill="#455A64"/><path d="M171.475 220.86l62.017-35.8c.983-.575 1.789-.167 1.789.9a3.86 3.86 0 01-1.789 2.971l-62.017 35.799c-.993.576-1.788.168-1.788-.899a3.845 3.845 0 011.788-2.971z" fill="#E0E0E0"/><path d="M254.854 175.331c-1.925 1.119-3.494-.073-3.494-2.636a8.376 8.376 0 013.494-6.685c1.936-1.12 3.505.073 3.505 2.646a8.372 8.372 0 01-3.505 6.675z" fill="#FF725E"/><path d="M253.996 170.403a.169.169 0 010-.125.46.46 0 010-.157l.984-1.747.073-.126s.052-.073.084-.083l.355-.21a.063.063 0 01.084 0 .158.158 0 010 .105v4.488c.01.052.01.105 0 .157a.222.222 0 01-.084.105l-.366.209a.063.063 0 01-.084 0 .135.135 0 010-.105v-3.431l-.638 1.14s0 .073-.083.084c-.084.01-.063 0-.084 0l-.241-.304z" fill="#fff"/><path d="M152.456 265.897c-3.389 1.956-6.151-.126-6.151-4.656 0-4.53 2.762-9.792 6.151-11.748 3.39-1.956 6.152.125 6.152 4.645 0 4.519-2.731 9.802-6.152 11.759z" fill="#FF725E"/><path d="M156.223 259.149a10.938 10.938 0 01-4.499 5.461c-.51.32-1.093.504-1.695.533a1.674 1.674 0 01-1.36-.68l.126-1.945a3.05 3.05 0 011.287-2.208l4.749-2.751c.649-.377 1.193-.063 1.287.722l.105.868zM154.434 254.138a4.614 4.614 0 01-1.925 3.682c-1.046.617-1.936 0-1.936-1.454a4.649 4.649 0 01.532-2.071 4.622 4.622 0 011.404-1.611c1.056-.618 1.925.041 1.925 1.454z" fill="#FAFAFA"/><path d="M137.465 280.783a.511.511 0 01-.429-.251.502.502 0 01.188-.68L266.09 205.45a.504.504 0 01.68.178.502.502 0 01-.188.68L137.716 280.71a.457.457 0 01-.251.073z" fill="#E0E0E0"/><path d="M171.475 241.009l33.362-19.26c.984-.576 1.789-.168 1.789.9a3.83 3.83 0 01-1.789 2.971l-33.362 19.27c-.993.565-1.788.157-1.788-.91a3.812 3.812 0 011.788-2.971z" fill="#455A64"/><path d="M171.475 248.792l62.017-35.8c.983-.575 1.789-.167 1.789.9a3.836 3.836 0 01-1.789 2.971l-62.017 35.81c-.993.576-1.788.168-1.788-.9a3.828 3.828 0 011.788-2.981z" fill="#E0E0E0"/><path d="M254.854 203.232c-1.925 1.119-3.494-.073-3.494-2.636a8.376 8.376 0 013.494-6.685c1.936-1.12 3.505.073 3.505 2.647a8.372 8.372 0 01-3.505 6.674z" fill="#FF725E"/><path d="M253.996 198.305a.171.171 0 010-.126.46.46 0 010-.157l.984-1.747.073-.125s.052-.074.084-.084l.355-.209a.079.079 0 01.084 0 .155.155 0 010 .104v4.488c.01.052.01.105 0 .157a.217.217 0 01-.084.105l-.366.209a.043.043 0 01-.018.015.053.053 0 01-.024.006.046.046 0 01-.023-.006.045.045 0 01-.019-.015.131.131 0 010-.105v-3.431l-.638 1.14c0 .053 0 .074-.083.084a.045.045 0 01-.019.015.046.046 0 01-.023.006.053.053 0 01-.024-.006.043.043 0 01-.018-.015l-.241-.303z" fill="#fff"/><path d="M152.456 293.777c-3.389 1.956-6.151-.126-6.151-4.645 0-4.52 2.762-9.803 6.151-11.759 3.39-1.956 6.152.126 6.152 4.645 0 4.519-2.731 9.823-6.152 11.759z" fill="#E0E0E0"/><path d="M156.223 287.05a10.934 10.934 0 01-4.499 5.461c-.51.32-1.093.504-1.695.534a1.688 1.688 0 01-1.36-.68l.126-1.946c.042-.44.178-.864.4-1.246.223-.381.525-.709.887-.962l4.749-2.751c.649-.377 1.193-.063 1.287.722l.105.868zM154.434 282.049a4.65 4.65 0 01-1.925 3.683c-1.046.607-1.936 0-1.936-1.465a4.641 4.641 0 011.936-3.682c1.056-.607 1.925.042 1.925 1.464z" fill="#FAFAFA"/><path d="M137.465 308.684a.512.512 0 01-.419-.261.506.506 0 01.189-.68L266.1 233.34a.502.502 0 01.68.178.5.5 0 01-.188.68l-128.876 74.413a.457.457 0 01-.251.073z" fill="#E0E0E0"/><path d="M171.475 268.91l33.362-19.26c.984-.575 1.789-.167 1.789.9a3.865 3.865 0 01-1.789 2.981l-33.362 19.26c-.993.565-1.788.157-1.788-.91a3.835 3.835 0 011.788-2.971z" fill="#455A64"/><path d="M171.475 276.672l62.017-35.81c.983-.575 1.789-.167 1.789.9a3.832 3.832 0 01-1.789 2.971l-62.017 35.81c-.993.575-1.788.167-1.788-.9a3.789 3.789 0 011.788-2.971zM152.456 321.698c-3.389 1.967-6.151-.125-6.151-4.645 0-4.519 2.762-9.802 6.151-11.758 3.39-1.957 6.152.125 6.152 4.645 0 4.519-2.731 9.802-6.152 11.758z" fill="#E0E0E0"/><path d="M156.223 314.951a10.89 10.89 0 01-4.499 5.461c-.51.32-1.093.504-1.695.533a1.667 1.667 0 01-1.36-.68l.126-1.945a3.05 3.05 0 011.287-2.208l4.749-2.751c.649-.377 1.193-.063 1.287.722l.105.868zM154.434 309.95a4.65 4.65 0 01-1.925 3.683c-1.046.606-1.936 0-1.936-1.465a4.649 4.649 0 01.532-2.071 4.622 4.622 0 011.404-1.611c1.056-.607 1.925.041 1.925 1.464z" fill="#FAFAFA"/><path d="M137.465 336.585a.511.511 0 01-.429-.251.502.502 0 01.188-.68l128.866-74.402a.505.505 0 01.68.177.502.502 0 01-.188.68l-128.866 74.403a.457.457 0 01-.251.073z" fill="#E0E0E0"/><path d="M171.475 296.811l33.362-19.26c.984-.576 1.789-.168 1.789.9a3.865 3.865 0 01-1.789 2.981l-33.362 19.26c-.993.565-1.788.167-1.788-.91a3.835 3.835 0 011.788-2.971z" fill="#455A64"/><path d="M171.475 304.573l62.017-35.81c.983-.575 1.789-.167 1.789.9a3.835 3.835 0 01-1.789 2.971l-62.017 35.789c-.993.575-1.788.167-1.788-.9a3.797 3.797 0 011.788-2.95zM152.456 349.6c-3.389 1.966-6.151-.126-6.151-4.645 0-4.52 2.762-9.803 6.151-11.759 3.39-1.956 6.152.125 6.152 4.655s-2.731 9.792-6.152 11.749z" fill="#E0E0E0"/><path d="M156.223 342.862a10.906 10.906 0 01-4.499 5.451c-.51.32-1.093.503-1.695.533a1.667 1.667 0 01-1.36-.68l.126-1.946a3.05 3.05 0 011.287-2.207l4.749-2.751c.649-.377 1.193-.053 1.287.721l.105.879zM154.434 337.851a4.65 4.65 0 01-1.925 3.683c-1.046.607-1.936 0-1.936-1.465a4.641 4.641 0 011.936-3.682c1.056-.607 1.925.042 1.925 1.464z" fill="#FAFAFA"/><path d="M137.465 364.486a.511.511 0 01-.429-.251.502.502 0 01.188-.68l128.866-74.402a.5.5 0 01.68.188.486.486 0 01.044.374.486.486 0 01-.232.296l-128.866 74.402a.457.457 0 01-.251.073z" fill="#E0E0E0"/><path d="M171.475 324.712l33.362-19.26c.984-.576 1.789-.168 1.789.91a3.849 3.849 0 01-1.789 2.971l-33.362 19.26c-.993.565-1.788.167-1.788-.91a3.835 3.835 0 011.788-2.971z" fill="#455A64"/><path d="M171.475 332.485l62.017-35.81c.983-.576 1.789-.168 1.789.899a3.866 3.866 0 01-1.789 2.982l-62.017 35.799c-.993.576-1.788.168-1.788-.899a3.789 3.789 0 011.788-2.971zM152.456 377.469c-3.389 1.967-6.151-.125-6.151-4.645 0-4.519 2.762-9.802 6.151-11.758 3.39-1.957 6.152.125 6.152 4.655s-2.731 9.823-6.152 11.748z" fill="#E0E0E0"/><path d="M156.223 370.764a10.908 10.908 0 01-4.499 5.45c-.51.32-1.093.504-1.695.534a1.673 1.673 0 01-1.36-.68l.126-1.946c.042-.44.178-.864.4-1.246.223-.381.525-.709.887-.962l4.749-2.751c.649-.377 1.193-.052 1.287.722l.105.879zM154.434 365.752a4.646 4.646 0 01-1.925 3.683c-1.046.617-1.936 0-1.936-1.454a4.627 4.627 0 011.936-3.693c1.056-.607 1.925.042 1.925 1.464z" fill="#FAFAFA"/><path d="M137.465 392.387a.524.524 0 01-.245-.081.523.523 0 01-.218-.565.486.486 0 01.233-.295L266.1 317.033a.502.502 0 01.68.188.489.489 0 01-.188.669l-128.876 74.435a.564.564 0 01-.251.062z" fill="#E0E0E0"/><path d="M171.475 352.613l33.362-19.26c.984-.565 1.789-.168 1.789.91a3.849 3.849 0 01-1.789 2.971l-33.362 19.312c-.993.565-1.788.167-1.788-.91a3.829 3.829 0 011.788-3.023z" fill="#455A64"/><path d="M171.475 360.375l62.017-35.81c.983-.575 1.789-.167 1.789.9a3.866 3.866 0 01-1.789 2.981l-62.017 35.8c-.993.575-1.788.167-1.788-.9a3.808 3.808 0 011.788-2.971zM137.465 196.808a.495.495 0 01-.476-.367.493.493 0 01.235-.553l128.866-74.403a.489.489 0 01.375-.048.485.485 0 01.3.231.501.501 0 01-.038.548.489.489 0 01-.145.127l-128.866 74.403a.551.551 0 01-.251.062z" fill="#E0E0E0"/><path d="M409.256 385.42c-.983-13.506.534-23.863-.585-44.985-.105-5.408-.293-11.204-.66-16.351-1.224-17.314-3.891-23.235-4.132-26.572 0 0-.46-26.939-1.59-64.862-.534-17.785-4.99-24.438-9.122-33.896l-51.681-.575c-5.481 23.34-5.105 76.035-4.948 100.096.084 12.261 5.032 77.866 5.137 79.383.345 5.345-.115 7.459-2.218 9.718-4.394 4.708-10.765 9.196-16.268 13.307.795 2.093 7.417 2.03 10.702.429a83.644 83.644 0 0012.219-7.793c4.52-3.348 10.305-6.037 10.378-11.132.021-.308.074-.613.157-.91.084-2.981 7.02-46.868 7.595-57.047.502-8.756-.565-23.622-.565-23.622l5.65-37.086s3.483 21.969 7.009 36.887c2.866 12.188 6.674 32.986 9.896 47.977 3.139 17.272 8.579 29.575 9.364 38.227.24 2.092 2.584 22.325 3.546 26.97.963 4.644 11.079 4.76 11.727-3.223.44-5.241-1.422-22.429-1.611-24.94z" fill="#C8856A"/><path d="M369.293 263.595l-4.132-26.76s-15.964-1.894-21.771-7.47c0 0 7.323 10.326 18.151 12.01l4.551 22.178-2.406 36.815 5.607-36.773z" fill="#AF6152"/><path d="M313.847 406.145c-.283 0-.732 3.075.774 4.404 1.737 1.538 6.863 4.08 13.684 3.274 6.821-.805 10.524-2.877 13.276-5.126 2.751-2.249 6.601-5.429 9.687-6.078 2.877-.596 5.994-1.862 6.915-2.741.921-.879.847-4.802.847-4.802l-45.183 11.069z" fill="#263238"/><path d="M356.739 379.907s.513 0 .68.941c.168.942.398 4.185.827 6.016.669 3.14.86 6.364.565 9.562-.398 2.008-5.074 3.358-8.066 4.467a37.765 37.765 0 00-9.729 5.994c-3.223 2.605-9.981 5.179-14.427 5.231-6.769 0-11.141-1.852-12.47-4.3-1.643-3.034-.314-4.76 7.511-8.285 1.486-.67 6.696-3.683 8.474-4.771a39.512 39.512 0 005.336-3.892 29.626 29.626 0 002.406-2.322 10.677 10.677 0 001.998-2.5c.088-.212.164-.429.23-.649.229-.591.407-1.2.534-1.82.125-.649.219-1.59.837-1.977a5.144 5.144 0 012.793-.293c1.007.076 2.007.227 2.992.449 1.14.272 2.469.388 3.138 1.476.442.873.651 1.846.607 2.824v1.371c0 .188-.084.544.188.46.272-.084.555-.753.659-.983.22-.503.367-1.047.607-1.538.26-.586.59-1.137.984-1.643a8.273 8.273 0 011.244-1.245c.465-.257.916-.54 1.35-.847.414-.487.67-1.09.732-1.726z" fill="#37474F"/><path d="M320.417 400.066c9.802.785 12.826 6.873 13.202 10.629a22.84 22.84 0 01-6.988 1.381c-6.769 0-11.414-1.852-12.742-4.3-1.559-2.866-.461-5.147 6.528-7.71z" fill="#FAFAFA"/><path d="M335.115 400.328a.467.467 0 00.304-.105.48.48 0 00.073-.68 11.51 11.51 0 00-8.83-3.588.485.485 0 00-.322.173.487.487 0 00-.054.53.46.46 0 00.284.233c.06.018.124.023.186.016a10.67 10.67 0 017.993 3.243.48.48 0 00.366.178zM339.373 397.911a.487.487 0 00.304-.104.496.496 0 00.073-.68 11.5 11.5 0 00-8.83-3.589.478.478 0 00-.419.336.473.473 0 00.032.367c.029.056.07.106.118.146a.48.48 0 00.353.103 10.65 10.65 0 017.993 3.243.472.472 0 00.376.178zM343.317 395.139a.482.482 0 00.304-.105.483.483 0 00.073-.669 11.513 11.513 0 00-8.83-3.599.488.488 0 00-.387.703.474.474 0 00.471.249 10.7 10.7 0 017.993 3.243.472.472 0 00.376.178zM347.177 392.367a.55.55 0 00.304-.095.496.496 0 00.084-.68c-1.852-2.385-6.089-3.996-9.646-3.64a.478.478 0 00-.419.335.48.48 0 00-.02.188.494.494 0 00.523.429c3.211-.314 7.155 1.161 8.798 3.285a.5.5 0 00.376.178z" fill="#F0F0F0"/><path d="M395.96 417.275c.272 4.624.994 7.69 2.636 10.399 1.643 2.71 4.739 3.568 7.867 2.773 3.128-.796 7.156-2.919 8.056-6.905.899-3.986 1.422-6.727.711-11.016l-19.27 4.749z" fill="#263238"/><path d="M409.152 383.746c1.287.105 1.674 6.277 2.416 12.554.795 6.675 2.783 9.416 3.505 14.897.816 6.277-.22 9.029-2.406 12.805-2.187 3.777-9.939 7.48-13.757 2.093-3.139-4.405-3.243-9.29-2.961-15.536.163-5.269.027-10.543-.408-15.797-.261-4.676-1.287-9.415-.167-9.917.084.69.167 1.559.261 2.239.045.843.186 1.678.419 2.489.125.346.418.712.533.147a3.59 3.59 0 000-1.161c-.188-1.726.68-1.862 1.151-1.998a54.799 54.799 0 015.995-.848c.983-.063 4.394-.22 4.833.345.294.558.445 1.18.439 1.81.105.942.325 1.622.356 1.329.063-.67-.073-2.417-.094-2.846-.021-.429-.073-.952-.084-1.36-.01-.408-.01-.826-.031-1.245z" fill="#37474F"/><path d="M415.429 414.817a15.6 15.6 0 01-2.417 9.489c-2.186 3.776-10.556 7.49-14.374 2.092-1.904-2.689-2.417-5.869-2.678-9.122 2.291-4.175 15.859-6.016 19.469-2.459z" fill="#FAFAFA"/><path d="M398.784 410.475c.052.01.105.01.157 0 .053 0 6.037-2.5 11.853-1.15a.497.497 0 00.359-.063.498.498 0 00.217-.293.48.48 0 00-.185-.5.46.46 0 00-.171-.075 22.53 22.53 0 00-12.428 1.171.482.482 0 00-.231.639.472.472 0 00.429.271zM410.501 404.669a.468.468 0 00.408-.324.482.482 0 00-.293-.607c-5.795-1.956-12.229.984-12.47 1.109a.482.482 0 10.45.848c.052 0 6.277-2.877 11.707-1.046a.428.428 0 00.198.02zM410.303 400.244a.482.482 0 00.115-.931c-6.371-2.281-12.481.931-12.701 1.046a.465.465 0 00-.219.29.476.476 0 00.347.579.484.484 0 00.364-.053c.052 0 5.953-3.138 11.884-.994a.459.459 0 00.21.063z" fill="#F0F0F0"/><path d="M409.989 395.923a.491.491 0 00.397-.313.481.481 0 00-.282-.618c-5.974-2.238-12.554 1.046-12.784 1.214a.458.458 0 00-.225.287.462.462 0 00.047.361.464.464 0 00.292.226.48.48 0 00.367-.048c.052 0 6.423-3.222 11.968-1.14l.22.031z" fill="#EBEBEB"/><path d="M356.122 145.662c-10.388 1.789-12.868 2.553-17.492 9.52-4.728 7.135-10.922 15.891-18.046 26.834l-18.674-8.725-7.49 13.014s20.086 12.899 27.503 15.41c5.555 1.873 6.863-.565 10.974-4.854 4.562-4.77 17.984-20.337 17.984-20.337l5.241-30.862z" fill="#C8856A"/><path d="M320.584 182.016c3.139 1.046 6.507 4.069 7.093 5.869-1.82-5.524-4.676-6.528-6.193-7.26l-.9 1.391z" fill="#AF6152"/><path d="M278.571 152.357l1.276-1.192a1.533 1.533 0 011.36-.209l14.479 3.326a5.227 5.227 0 013.337 2.877l11.508 29.293a1.356 1.356 0 01-.126 1.527l-1.318 1.235a1.51 1.51 0 01-1.371.219l-14.478-3.327a5.236 5.236 0 01-3.338-2.876l-11.507-29.293a1.308 1.308 0 01.178-1.58z" fill="#455A64"/><path d="M295.968 156.259a5.23 5.23 0 011.747 2.093l11.508 29.292a1.41 1.41 0 01-.084 1.496l1.245-1.151a1.343 1.343 0 00.136-1.527l-11.508-29.292a5.226 5.226 0 00-1.611-2.009l-1.433 1.098z" fill="#263238"/><path d="M309.212 187.707l-11.507-29.292a5.311 5.311 0 00-3.348-2.877l-14.479-3.317c-1.339-.314-2.019.482-1.517 1.758l11.508 29.292a5.238 5.238 0 003.337 2.877l14.479 3.327c1.35.303 2.03-.481 1.527-1.768z" fill="#37474F"/><path d="M297.945 164.618l-2.155-5.492a.978.978 0 00-.627-.534l-2.71-.627c-.251-.053-.377.094-.282.334.418 1.047 1.726 4.405 2.155 5.482a1.028 1.028 0 00.617.544l2.72.618c.251.062.376-.084.282-.325z" fill="#455A64"/><path d="M295.717 160.465a2.463 2.463 0 00-.65-.838 2.472 2.472 0 00-.94-.491c-.649-.146-.994.199-.764.785a2.476 2.476 0 001.59 1.329c.649.146.994-.199.764-.785zM296.763 163.237a2.473 2.473 0 00-1.59-1.328c-.649-.147-.994.199-.764.784a2.47 2.47 0 001.591 1.329c.648.147.993-.199.763-.785z" fill="#263238"/><path d="M281.876 170.33c-1.705-1.904-1.6-2.197-.91-3.337a6.526 6.526 0 014.99-3.285c1.821-.146 3.651-.387 4.645 0 .994.387.408 2.438-1.904 3.222-3.63 1.245-3.504 2.26-3.504 2.26 1.55-.542 3.128-1 4.728-1.37a35.067 35.067 0 015.555.219c1.601.084 2.093 2.093-.46 3.066l2.929.146c2.093.105 2.856 1.046 1.413 2.521a3.055 3.055 0 01-1.747.889s2.092-.24 2.27.471c.345 2.03-.921 2.71-5.126 4.446-4.007 1.653-4.614 3.976-3.62 5.43 0 0-1.779-.795-3.369-1.653-1.171-.638-2.186-1.381-1.883-3.138 0 0-2.364.303-2.668-1.141a7.595 7.595 0 01.231-3.201 2.59 2.59 0 01-1.57-2.281 4.251 4.251 0 01.576-2.667l-.576-.597z" fill="#C8856A"/><path d="M295.016 171.094a13.934 13.934 0 00-2.647 0 8.373 8.373 0 00-2.437 1.046 30.645 30.645 0 00-4.3 2.94 31.189 31.189 0 004.676-2.281 13.242 13.242 0 012.208-1.161c.763-.178 1.674-.261 2.5-.544zM297.611 174.651a5.743 5.743 0 00-2.846.219c-.902.299-1.774.68-2.605 1.141a26.922 26.922 0 00-4.634 3.138 53.095 53.095 0 005-2.5 14.803 14.803 0 015.085-1.998z" fill="#AF6152"/><path d="M403.816 223.078c-1.799-14.803-8.746-22.618-9.279-27.587-.889-8.202 2.417-19.229 3.222-24.627 1.758-11.759-1.611-21.614-4.352-23.926 0 0-3.138-.774-5.712-1.245-2.092-.366-3.661-.606-6.392-1.276-6.789-1.642-14.207 0-16.738.241a27.709 27.709 0 00-5.304.376c-1.831.429-6.089 1.162-6.089 1.162a102.526 102.526 0 00-8.202 9.792c-3.651 4.896-7.323 9.415-8.013 18.161-.314 3.808-.492 17.178-.932 31.74-.931 30.046-2.542 69.402-2.542 69.402 6.654 4.97 15.442 9.416 34.23 9.165 20.871-.314 34.116-3.202 42.119-10.682-.073 0-2.971-25.453-6.016-50.696z" fill="#37474F"/><path d="M347.031 97.1c7.417-9.175 17.377-11.173 26.667-9.008 5.502 1.287 11.225 4.54 12.836 10.347 4.572 0 7.658 4.864 8.202 13.6.544 8.735 1.485 22.199-1.35 26.635a8.378 8.378 0 01-5.754 3.944 7.955 7.955 0 003.139-4.823 12.962 12.962 0 01-5.482 4.572c-3.379 1.663-6.34 2.374-11.508 2.552-6.277.22-12.554-.68-15.483-1.987a6.279 6.279 0 003.358-3.421s-2.814 3.567-8.704 1.715c2.605-.554 4.08-3.693 4.133-9.039V122.05c-3.212-1.454-6.549-2.092-8.443-5.691a12.554 12.554 0 01-.858-8.725 6.125 6.125 0 00-2.249 4.75 14.077 14.077 0 011.496-15.285z" fill="#37474F"/><path d="M381.24 141.477c0-1.925.366-11.591.366-11.591.084.722 3.568 2.72 6.738-.973 3.17-3.693 3.41-7.647 1.558-10.19-2.092-2.803-6.674-2.688-8.557 1.842-3.023.69-4.363-3.934-2.019-8.37-.168-5.628-5.942-5.377-8.788-12.658-7.271 3.756-13.987.69-18.642 6.141-.963 2.72-1.727 6.999-1.81 14.646-.115 12.46 2.291 15.441 5.659 16.979 2.009.921 4.488 1.182 8.37.9l-.209 3.212c-.095 1.621 0 2.312-1.528 2.824-1.046.335-3.138.774-3.138.774s-4.572 4.269 5.398 5.691c14.897 2.093 23.088-5.032 23.088-5.032s-1.046-.167-3.556-.638c-2.511-.471-2.93-1.632-2.93-3.557z" fill="#C8856A"/><path d="M385.938 127.658a1.517 1.517 0 01-3.024-.105 1.517 1.517 0 012.62-.976 1.507 1.507 0 01.404 1.081z" fill="#fff"/><path d="M367.975 126.622l-5.409 1.663a2.773 2.773 0 001.325 1.722 2.775 2.775 0 002.159.245 2.961 2.961 0 001.925-3.63z" fill="#AF6152"/><path d="M367.619 127.856a3.14 3.14 0 00-3.138 2.407 2.639 2.639 0 001.559 0 2.923 2.923 0 001.987-2.333 2.333 2.333 0 00-.408-.074z" fill="#FFA8A7"/><path d="M352.387 110.302l4.321-.429a2.09 2.09 0 00-1.463-1.892 2.09 2.09 0 00-.839-.085 2.278 2.278 0 00-2.019 2.406zM372.861 110.699l-4.311-.889a2.085 2.085 0 01.88-1.423 2.086 2.086 0 011.642-.324 2.311 2.311 0 011.789 2.636z" fill="#37474F"/><path d="M357.221 115.784a1.877 1.877 0 01-1.685 1.956 1.738 1.738 0 01-1.31-.394 1.733 1.733 0 01-.625-1.217 1.871 1.871 0 012.389-1.899 1.738 1.738 0 011.046.881c.106.209.169.438.185.673zM370.339 116.223a1.87 1.87 0 01-1.684 1.957 1.762 1.762 0 01-1.935-1.622 1.87 1.87 0 011.684-1.956 1.754 1.754 0 011.314.397 1.749 1.749 0 01.621 1.224z" fill="#263238"/><path d="M355.965 121.716l5.702 2.782 1.266-11.026-6.968 8.244zM364.062 138.224c6.895-.638 13.506-2.835 15.076-5.963a6.186 6.186 0 01-2.815 5.042c-3.933 2.27-12.428 3.358-12.428 3.358l.167-2.437zM359.878 172.046c-3.39-2.532-5.095-3.505-6.664-3.955-1.569-.449-7.125-2.741-9.238-3.274-1.349-.335-1.893 1.81-.178 3.274 1.319 1.141 4.75 2.626 6.277 3.453 1.528.826 4.457 4.414 4.457 4.414l5.346-3.912z" fill="#AF6152"/><path d="M407.457 155.58c-3.358-7.156-6.277-7.836-14.343-8.778-7.637 7.449-1.443 24.114-1.443 24.114l4.09 20.076s-20.233-5.44-22.524-6.904c-2.291-1.465-8.432-8.066-10.461-10.044-2.804-2.699-4.185-2.333-5.618-2.092-4.666.701-5.691 1.046-6.685 1.726a2.089 2.089 0 00-.9 1.81c-1.245.157-3.138.126-3.337 2.155a5.69 5.69 0 00-.073 1.632 1.32 1.32 0 00-.806.461c-1.046 1.192.732 5.335 1.862 6.339.785.712 1.915.795 3.39.597 1.255-.168.669-1.444.669-1.444l1.758.104c3.797 2.689 3.986 8.035 9.007 9.217 2.076.206 4.128.602 6.131 1.182 10.807 3.63 28.518 14.646 38.143 15.462 9.415.806 9.122-4.184 9.269-9.949.104-5.168-4.781-38.529-8.129-45.664z" fill="#C8856A"/><path d="M395.363 189.025l.398 1.967c4.279 1.098 8.903 4.185 9.928 6.517-.826-3.703-2.793-6.475-10.326-8.484zM349.542 175.456l5.534-1.119-5.419.356a2.173 2.173 0 00-.115.763zM346.131 179.243l6.382-.826-6.392.084a3.54 3.54 0 00.01.742zM346.968 182.058c.212.322.509.579.858.743.331.169.683.296 1.046.376l-.083-.063c.167.335.345.66.533.984l.126-.168a1.307 1.307 0 00-.55.006c-.18.042-.35.122-.497.235-.26.22-.453.511-.554.837.163-.275.384-.511.649-.69.26-.157.569-.213.868-.157h.251l-.115-.22-.534-.983v-.053h-.062a6.234 6.234 0 01-1.047-.293 2.438 2.438 0 01-.889-.554z" fill="#AF6152"/><path d="M348.663 182.884c.767.102 1.539.158 2.312.167.141.477.417.902.795 1.224.391.372.803.722 1.235 1.047l-1.758-.105a2.821 2.821 0 00-2.009-1.046l-.575-1.287z" fill="#AF6152"/><path d="M376.323 73.205l-5.701-3.306a.554.554 0 01-.272-.24l-1.057-1.852 3.39-1.956-.105.303 3.745 7.051z" fill="#263238"/><path d="M372.17 66.165l3.944 6.873a.585.585 0 001.046-.094l4.185-12.042-9.175 5.263z" fill="#37474F"/><path d="M390.792 29.695a6.099 6.099 0 00-2.762-4.78l-.596-.356a6.125 6.125 0 00-5.524 0l-44.661 25.756a6.098 6.098 0 00-2.751 4.781v22.608a6.102 6.102 0 002.751 4.78l.607.367a6.102 6.102 0 005.513 0l44.922-25.945c2.48-1.412 2.501-2.835 2.501-4.593V29.695z" fill="#37474F"/><path d="M334.498 77.704a6.102 6.102 0 002.751 4.78l.607.367a6.176 6.176 0 005.043.23c-1.298.492-2.281-.251-2.281-1.82V58.643c.031-.961.309-1.898.806-2.72l-6.12-3.547a5.554 5.554 0 00-.806 2.72v22.608z" fill="#263238"/><path d="M390.698 28.91c-.325-1.17-1.392-1.537-2.658-.805l-44.671 25.757a5.608 5.608 0 00-1.945 2.092l-6.11-3.546a5.61 5.61 0 011.946-2.093l44.65-25.756a6.098 6.098 0 015.513 0l.617.366a6.078 6.078 0 012.658 3.986z" fill="#455A64"/><path d="M348.025 63.298l31.897-18.506a3.334 3.334 0 001.674-2.48c0-.826-.743-1.046-1.674-.544l-31.897 18.507a3.35 3.35 0 00-1.674 2.48c0 .867.753 1.077 1.674.543zm31.897-13.945l-31.897 18.454a3.35 3.35 0 00-1.674 2.48c0 .826.753 1.046 1.674.543l31.897-18.506a3.315 3.315 0 001.674-2.469c0-.795-.743-1.036-1.674-.502z" fill="#FF725E"/><path opacity=".4" d="M348.025 63.298l31.897-18.506a3.334 3.334 0 001.674-2.48c0-.826-.743-1.046-1.674-.544l-31.897 18.507a3.35 3.35 0 00-1.674 2.48c0 .867.753 1.077 1.674.543zm31.897-13.945l-31.897 18.454a3.35 3.35 0 00-1.674 2.48c0 .826.753 1.046 1.674.543l31.897-18.506a3.315 3.315 0 001.674-2.469c0-.795-.743-1.036-1.674-.502z" fill="#fff"/><path d="M304.139 70.077l-5.702-3.316a.555.555 0 01-.272-.24l-1.057-1.853 3.39-1.956-.105.293 3.746 7.072z" fill="#FF725E"/><path opacity=".1" d="M304.139 70.077l-5.702-3.316a.555.555 0 01-.272-.24l-1.057-1.853 3.39-1.956-.105.293 3.746 7.072z" fill="#000"/><path d="M299.985 63.036l3.955 6.863a.583.583 0 00.555.274.589.589 0 00.491-.378l4.185-12.042-9.186 5.283z" fill="#FF725E"/><path opacity=".2" d="M299.985 63.036l3.955 6.863a.583.583 0 00.555.274.589.589 0 00.491-.378l4.185-12.042-9.186 5.283z" fill="#fff"/><path d="M346.801 6.806a6.076 6.076 0 00-2.762-4.781l-.596-.366a6.102 6.102 0 00-5.514 0L284.91 32.238a6.1 6.1 0 00-2.762 4.78v26.06a6.089 6.089 0 002.762 4.781l.597.366a6.094 6.094 0 005.513 0l53.281-30.757c2.479-1.412 2.5-2.835 2.5-4.592V6.806z" fill="#FF725E"/><path opacity=".2" d="M346.801 6.806a6.076 6.076 0 00-2.762-4.781l-.596-.366a6.102 6.102 0 00-5.514 0L284.91 32.238a6.1 6.1 0 00-2.762 4.78v26.06a6.089 6.089 0 002.762 4.781l.597.366a6.094 6.094 0 005.513 0l53.281-30.757c2.479-1.412 2.5-2.835 2.5-4.592V6.806z" fill="#fff"/><path d="M282.148 63.078a6.089 6.089 0 002.762 4.781l.597.366a6.167 6.167 0 005.042.23c-1.297.492-2.281-.25-2.281-1.82V40.607c.032-.96.309-1.897.806-2.72l-6.12-3.557a5.623 5.623 0 00-.806 2.72v26.028z" fill="#FF725E"/><path opacity=".4" d="M346.707 6.021c-.314-1.172-1.381-1.548-2.658-.816L291.02 35.836a5.436 5.436 0 00-1.936 2.093l-6.12-3.6a5.545 5.545 0 011.946-2.091l52.999-30.58a6.18 6.18 0 015.523 0l.607.367a6.1 6.1 0 012.668 3.996z" fill="#fff"/><path d="M295.675 47.93l28.633-16.623c.921-.534 1.664-.283 1.664.544a3.35 3.35 0 01-1.664 2.479l-28.633 16.602c-.92.534-1.674.293-1.674-.544a3.357 3.357 0 011.674-2.458zM295.675 55.494l40.267-23.371c.92-.534 1.663-.283 1.663.544a3.343 3.343 0 01-1.663 2.48l-40.267 23.36c-.92.533-1.674.293-1.674-.544a3.352 3.352 0 011.674-2.469zM295.675 39.969l40.267-23.372c.92-.533 1.663-.292 1.663.544a3.343 3.343 0 01-1.663 2.48l-40.267 23.36c-.92.534-1.674.294-1.674-.543a3.327 3.327 0 011.674-2.47z" fill="#fff"/></svg>