<svg width="500" height="375" fill="none" xmlns="http://www.w3.org/2000/svg"><path d="M500 328.4H0v.25h500v-.25zM135.57 338.99h-34.4v.25h34.4v-.25zM93.84 339.11H74.48v.25h19.36v-.25zM214.24 338.53H175v.25h39.24v-.25zM314.56 334.97H198.78v.25h115.78v-.25zM413.67 335.1h-52.99v.25h52.99v-.25zM237 283.8H43.91a5.71 5.71 0 01-5.7-5.71V6.66A5.71 5.71 0 0143.91 1H237a5.712 5.712 0 015.71 5.71v271.38a5.715 5.715 0 01-1.672 4.038A5.715 5.715 0 01237 283.8zM43.91 1.2a5.46 5.46 0 00-5.45 5.46v271.43a5.459 5.459 0 005.45 5.46H237a5.473 5.473 0 005.46-5.46V6.66A5.473 5.473 0 00237 1.2H43.91zM453.31 283.8h-193.1a5.724 5.724 0 01-4.035-1.675 5.724 5.724 0 01-1.675-4.035V6.66A5.72 5.72 0 01260.21 1h193.1A5.71 5.71 0 01459 6.66v271.43a5.71 5.71 0 01-5.69 5.71zM260.21 1.2a5.47 5.47 0 00-5.46 5.46v271.43a5.473 5.473 0 005.46 5.46h193.1a5.473 5.473 0 005.46-5.46V6.66a5.473 5.473 0 00-5.46-5.46h-193.1z" fill="#E0E0E0"/><path d="M213.74 230.61c-.55 0-1.1 0-1.66.05a23.685 23.685 0 00-17.621 9.885 23.675 23.675 0 00-3.579 19.885 118.604 118.604 0 013.71 30.84v30.28a4 4 0 004 4h96.12v-94.94h-80.97z" fill="#E6E6E6"/><path d="M318.35 254.28a23.678 23.678 0 00-39.535-17.449 23.68 23.68 0 00-7.765 15.909 23.94 23.94 0 00.76 7.7 118.176 118.176 0 013.72 30.84v30.28a4 4 0 004 4h30.35a3.999 3.999 0 004-4V289.5a108.226 108.226 0 013.66-28.89 23.65 23.65 0 00.81-6.33z" fill="#F0F0F0"/><path d="M262.06 267.9h-86.27v57.63h86.27V267.9z" fill="#E6E6E6"/><path d="M122.4 174.61H202a17.924 17.924 0 0116.628 11.044A17.91 17.91 0 01220 192.53v88.4H104.49v-88.4a17.923 17.923 0 0117.91-17.92z" fill="#E0E0E0"/><path d="M144.1 174.61h81.36a17.05 17.05 0 0117.05 17.05v89.26H127v-89.25a17.043 17.043 0 015.008-12.08 17.05 17.05 0 0112.092-4.98z" fill="#F0F0F0"/><path d="M181.43 262.64h79.52a5.2 5.2 0 015.2 5.2v13.07a5.2 5.2 0 01-5.2 5.2h-79.52a1.55 1.55 0 01-1.55-1.55v-20.37a1.55 1.55 0 011.55-1.55z" fill="#E0E0E0"/><path d="M96 230.61c-.55 0-1.1 0-1.66.05a23.68 23.68 0 00-21.2 29.77 118.604 118.604 0 013.71 30.84v30.28a4.002 4.002 0 004 4h96.11v-94.94H96z" fill="#E6E6E6"/><path d="M200.59 254.28a23.675 23.675 0 00-6.714-16.38 23.676 23.676 0 00-32.821-1.069 23.68 23.68 0 00-7.765 15.909c-.166 2.591.09 5.192.76 7.7a118.219 118.219 0 013.72 30.84v30.28c0 1.061.421 2.078 1.171 2.829a4.003 4.003 0 002.829 1.171h30.35a3.999 3.999 0 004-4V289.5a108.185 108.185 0 013.66-28.89 23.65 23.65 0 00.81-6.33z" fill="#F0F0F0"/><path d="M293 328.41H97.67a2.877 2.877 0 01-2.88-2.88h201.08a2.88 2.88 0 01-2.87 2.88zM143.34 47.46H85.87v59.56h57.47V47.46z" fill="#E0E0E0"/><path d="M146.62 47.46H90.59v59.56h56.03V47.46z" fill="#F0F0F0"/><path d="M141.92 102.32V52.15H95.28v50.17h46.64z" fill="#FAFAFA"/><path d="M118.6 64.56l-12.75 22.09h25.51L118.6 64.56z" fill="#F0F0F0"/><path d="M219.95 72.54h-57.47v59.56h57.47V72.54z" fill="#E0E0E0"/><path d="M223.22 72.54h-56.03v59.56h56.03V72.54z" fill="#F0F0F0"/><path d="M218.52 127.41V77.24h-46.64v50.17h46.64z" fill="#FAFAFA"/><path d="M200.92 111.27l5.53-9.58c.577-1.003.88-2.14.878-3.296a6.593 6.593 0 00-3.295-5.707 6.598 6.598 0 00-3.293-.887h-11.07a6.593 6.593 0 00-6.586 6.595 6.593 6.593 0 00.886 3.295l5.53 9.58a6.594 6.594 0 009.008 2.416 6.599 6.599 0 002.412-2.416z" fill="#F0F0F0"/><path d="M353.07 186.45h-15.71v137.21h15.71V186.45zM428.51 323.66H341.5v4.73h87.01v-4.73z" fill="#E6E6E6"/><path d="M353.06 323.67h79.59V186.46h-79.59v137.21z" fill="#F0F0F0"/><path d="M361.55 282.4h62.62v-24.5h-62.62v24.5zM361.55 314.47h62.62v-24.5h-62.62v24.5z" fill="#E6E6E6"/><path d="M401.92 268.47h-18.13a1.59 1.59 0 00-1.59 1.59v.18c0 .878.712 1.59 1.59 1.59h18.13a1.59 1.59 0 001.59-1.59v-.18a1.59 1.59 0 00-1.59-1.59zM401.92 300.54h-18.13a1.59 1.59 0 00-1.59 1.59v.18c0 .878.712 1.59 1.59 1.59h18.13a1.59 1.59 0 001.59-1.59v-.18a1.59 1.59 0 00-1.59-1.59z" fill="#F0F0F0"/><path d="M361.55 218.52h62.62v-24.5h-62.62v24.5zM361.55 250.34h62.62v-24.5h-62.62v24.5z" fill="#E6E6E6"/><path d="M401.92 204.59h-18.13a1.59 1.59 0 00-1.59 1.59v.18c0 .878.712 1.59 1.59 1.59h18.13a1.59 1.59 0 001.59-1.59v-.18a1.59 1.59 0 00-1.59-1.59zM401.92 236.4h-18.13a1.59 1.59 0 00-1.59 1.59v.18c0 .878.712 1.59 1.59 1.59h18.13a1.59 1.59 0 001.59-1.59v-.18a1.59 1.59 0 00-1.59-1.59zM412.17 146.81h-14.75s2.56 8.84 2.56 14-11.22 25.6 4.82 25.6 4.81-20.39 4.81-25.6c0-5.21 2.56-14 2.56-14zM373.78 158.69a7 7 0 11-7-7.05 7.053 7.053 0 014.953 2.082 7.053 7.053 0 012.047 4.968z" fill="#F0F0F0"/><path d="M385.85 162.05a7.05 7.05 0 11-14.1 0 7.05 7.05 0 0114.1 0z" fill="#F0F0F0"/><path d="M396.16 159.33a7.05 7.05 0 11-14.1 0 7.05 7.05 0 0114.1 0z" fill="#F0F0F0"/><path d="M354.11 162.18v8c0 8.92 8.63 16.22 19.17 16.22h9.52c10.55 0 19.18-7.3 19.18-16.22v-8h-47.87z" fill="#E6E6E6"/><path d="M323.36 121a20.027 20.027 0 01-14.163-5.867 20.027 20.027 0 010-28.326 20.029 20.029 0 0114.163-5.867h2.46V121h-2.46z" fill="#E0E0E0"/><path d="M345.332 105.554c2.521-10.771-4.168-21.546-14.939-24.067-10.772-2.52-21.547 4.168-24.067 14.94-2.521 10.771 4.168 21.546 14.939 24.067 10.772 2.52 21.547-4.169 24.067-14.94z" fill="#F0F0F0"/><path d="M326.72 103.48a2.5 2.5 0 110-5 21.65 21.65 0 0021.63-21.62V43.61a2.499 2.499 0 115 0v33.25a26.662 26.662 0 01-26.63 26.62z" fill="#E0E0E0"/><path d="M374.49 76.79h-47.28l5.28-43.32h36.72l5.28 43.32z" fill="#F0F0F0"/><path d="M250 373.56c107.082 0 193.89-5.068 193.89-11.32 0-6.252-86.808-11.32-193.89-11.32-107.083 0-193.89 5.068-193.89 11.32 0 6.252 86.807 11.32 193.89 11.32z" fill="#F5F5F5"/><path d="M401.29 272.69l-1.71-13.29a8.22 8.22 0 00-8.14-7.16h-44.3a8.199 8.199 0 01-8.14-7.15l-9.19-71.28a8.198 8.198 0 011.97-6.467 8.194 8.194 0 016.16-2.783H378a8.204 8.204 0 007.844-5.812 8.208 8.208 0 00.286-3.448l-1.7-13.3a8.2 8.2 0 00-8.14-7.15H332a8.201 8.201 0 01-8.13-7.16l-8.52-66a8.21 8.21 0 00-8.14-7.16h-13.16a8.212 8.212 0 00-8.14 9.26l8 61.78a8.208 8.208 0 01-1.976 6.47 8.207 8.207 0 01-6.164 2.79H178.5a8.201 8.201 0 01-8.13-7.16l-8.52-66a8.202 8.202 0 00-8.13-7.16h-13.16a8.204 8.204 0 00-6.164 2.79 8.214 8.214 0 00-1.976 6.47l8 61.78a8.208 8.208 0 01-1.976 6.47 8.207 8.207 0 01-6.164 2.79H92.19a8.2 8.2 0 00-8.14 9.25l1.72 13.29a8.2 8.2 0 008.14 7.16h44.29a8.199 8.199 0 018.14 7.15l9.2 71.28a8.203 8.203 0 01-8.14 9.25h-40.06a8.197 8.197 0 00-6.164 2.79 8.208 8.208 0 00-1.976 6.47l1.72 13.29a8.203 8.203 0 008.13 7.16h44.3a8.199 8.199 0 018.14 7.15l8.51 66a8.21 8.21 0 008.14 7.16h13.16a8.205 8.205 0 007.849-5.812 8.208 8.208 0 00.291-3.448l-8-61.78a8.197 8.197 0 014.793-8.455A8.207 8.207 0 01199.6 282h107.24a8.2 8.2 0 018.16 7.1l8.51 66a8.21 8.21 0 008.14 7.16h13.16a8.196 8.196 0 006.161-2.79 8.207 8.207 0 001.969-6.47l-8-61.78a8.203 8.203 0 018.14-9.25h40.06a8.21 8.21 0 008.15-9.28zm-215.78-27.6l-9.19-71.28a8.205 8.205 0 014.751-8.52 8.19 8.19 0 013.379-.73h107.24a8.199 8.199 0 018.14 7.15L309 243a8.203 8.203 0 01-8.14 9.25H193.65a8.21 8.21 0 01-8.14-7.16z" fill="#FF725E"/><path opacity=".4" d="M401.29 272.69l-1.71-13.29a8.22 8.22 0 00-8.14-7.16h-44.3a8.199 8.199 0 01-8.14-7.15l-9.19-71.28a8.198 8.198 0 011.97-6.467 8.194 8.194 0 016.16-2.783H378a8.204 8.204 0 007.844-5.812 8.208 8.208 0 00.286-3.448l-1.7-13.3a8.2 8.2 0 00-8.14-7.15H332a8.201 8.201 0 01-8.13-7.16l-8.52-66a8.21 8.21 0 00-8.14-7.16h-13.16a8.212 8.212 0 00-8.14 9.26l8 61.78a8.208 8.208 0 01-1.976 6.47 8.207 8.207 0 01-6.164 2.79H178.5a8.201 8.201 0 01-8.13-7.16l-8.52-66a8.202 8.202 0 00-8.13-7.16h-13.16a8.204 8.204 0 00-6.164 2.79 8.214 8.214 0 00-1.976 6.47l8 61.78a8.208 8.208 0 01-1.976 6.47 8.207 8.207 0 01-6.164 2.79H92.19a8.2 8.2 0 00-8.14 9.25l1.72 13.29a8.2 8.2 0 008.14 7.16h44.29a8.199 8.199 0 018.14 7.15l9.2 71.28a8.203 8.203 0 01-8.14 9.25h-40.06a8.197 8.197 0 00-6.164 2.79 8.208 8.208 0 00-1.976 6.47l1.72 13.29a8.203 8.203 0 008.13 7.16h44.3a8.199 8.199 0 018.14 7.15l8.51 66a8.21 8.21 0 008.14 7.16h13.16a8.205 8.205 0 007.849-5.812 8.208 8.208 0 00.291-3.448l-8-61.78a8.197 8.197 0 014.793-8.455A8.207 8.207 0 01199.6 282h107.24a8.2 8.2 0 018.16 7.1l8.51 66a8.21 8.21 0 008.14 7.16h13.16a8.196 8.196 0 006.161-2.79 8.207 8.207 0 001.969-6.47l-8-61.78a8.203 8.203 0 018.14-9.25h40.06a8.21 8.21 0 008.15-9.28zm-215.78-27.6l-9.19-71.28a8.205 8.205 0 014.751-8.52 8.19 8.19 0 013.379-.73h107.24a8.199 8.199 0 018.14 7.15L309 243a8.203 8.203 0 01-8.14 9.25H193.65a8.21 8.21 0 01-8.14-7.16z" fill="#000"/><path d="M212.45 320.71l-1-7.6 1-.13 1 7.6-1 .13zm140.3-102.2l-3.52-27.25 1-.12 3.51 27.24-.99.13zm-166.32-99.44L185 108.13l1-.13 1.42 11-.99.07zm-2.28-17.67l-2.4-18.57 1-.13 2.39 18.57-.99.13z" fill="#FF725E"/><path opacity=".3" d="M212.45 320.71l-1-7.6 1-.13 1 7.6-1 .13zm140.3-102.2l-3.52-27.25 1-.12 3.51 27.24-.99.13zm-166.32-99.44L185 108.13l1-.13 1.42 11-.99.07zm-2.28-17.67l-2.4-18.57 1-.13 2.39 18.57-.99.13z" fill="#000"/><path d="M416 272.69l-1.72-13.29a8.21 8.21 0 00-8.14-7.16h-44.3a8.202 8.202 0 01-8.13-7.15l-9.2-71.28a8.211 8.211 0 018.14-9.25h40.06a8.205 8.205 0 007.849-5.812 8.208 8.208 0 00.291-3.448l-1.77-13.3a8.187 8.187 0 00-8.13-7.15h-44.3a8.21 8.21 0 01-8.14-7.16l-8.51-66a8.21 8.21 0 00-8.14-7.16H308.7a8.204 8.204 0 00-6.164 2.79 8.215 8.215 0 00-1.976 6.47l8 61.78a8.208 8.208 0 01-1.976 6.47 8.207 8.207 0 01-6.164 2.79H193.16a8.204 8.204 0 01-5.423-2.028A8.205 8.205 0 01185 127.7l-8.51-66a8.21 8.21 0 00-8.14-7.16h-13.14a8.198 8.198 0 00-8.13 9.26l8 61.78a8.208 8.208 0 01-1.976 6.47 8.207 8.207 0 01-6.164 2.79h-40.09a8.201 8.201 0 00-8.14 9.25l1.71 13.29a8.21 8.21 0 008.14 7.16h44.3a8.199 8.199 0 018.14 7.15l9.19 71.31a8.198 8.198 0 01-1.969 6.467 8.196 8.196 0 01-6.161 2.783H122a8.196 8.196 0 00-7.843 5.813 8.187 8.187 0 00-.287 3.447l1.71 13.29a8.21 8.21 0 008.14 7.16H168a8.195 8.195 0 018.13 7.15l8.52 66a8.21 8.21 0 008.14 7.16H206a8.205 8.205 0 007.849-5.812 8.208 8.208 0 00.291-3.448l-8-61.78a8.204 8.204 0 014.758-8.523 8.201 8.201 0 013.382-.727H321.5a8.2 8.2 0 018.13 7.15l8.52 66a8.203 8.203 0 008.13 7.16h13.16a8.205 8.205 0 007.849-5.812 8.208 8.208 0 00.291-3.448l-8-61.78a8.205 8.205 0 014.751-8.52 8.19 8.19 0 013.379-.73h40.07a8.209 8.209 0 008.22-9.31zm-215.78-27.6L191 173.81a8.211 8.211 0 018.14-9.25h107.21a8.207 8.207 0 018.14 7.15l9.19 71.29a8.205 8.205 0 01-4.751 8.52 8.19 8.19 0 01-3.379.73H208.31a8.198 8.198 0 01-8.14-7.16h.05z" fill="#FF725E"/><path opacity=".3" d="M416 272.69l-1.72-13.29a8.21 8.21 0 00-8.14-7.16h-44.3a8.202 8.202 0 01-8.13-7.15l-9.2-71.28a8.211 8.211 0 018.14-9.25h40.06a8.205 8.205 0 007.849-5.812 8.208 8.208 0 00.291-3.448l-1.77-13.3a8.187 8.187 0 00-8.13-7.15h-44.3a8.21 8.21 0 01-8.14-7.16l-8.51-66a8.21 8.21 0 00-8.14-7.16H308.7a8.204 8.204 0 00-6.164 2.79 8.215 8.215 0 00-1.976 6.47l8 61.78a8.208 8.208 0 01-1.976 6.47 8.207 8.207 0 01-6.164 2.79H193.16a8.204 8.204 0 01-5.423-2.028A8.205 8.205 0 01185 127.7l-8.51-66a8.21 8.21 0 00-8.14-7.16h-13.14a8.198 8.198 0 00-8.13 9.26l8 61.78a8.208 8.208 0 01-1.976 6.47 8.207 8.207 0 01-6.164 2.79h-40.09a8.201 8.201 0 00-8.14 9.25l1.71 13.29a8.21 8.21 0 008.14 7.16h44.3a8.199 8.199 0 018.14 7.15l9.19 71.31a8.198 8.198 0 01-1.969 6.467 8.196 8.196 0 01-6.161 2.783H122a8.196 8.196 0 00-7.843 5.813 8.187 8.187 0 00-.287 3.447l1.71 13.29a8.21 8.21 0 008.14 7.16H168a8.195 8.195 0 018.13 7.15l8.52 66a8.21 8.21 0 008.14 7.16H206a8.205 8.205 0 007.849-5.812 8.208 8.208 0 00.291-3.448l-8-61.78a8.204 8.204 0 014.758-8.523 8.201 8.201 0 013.382-.727H321.5a8.2 8.2 0 018.13 7.15l8.52 66a8.203 8.203 0 008.13 7.16h13.16a8.205 8.205 0 007.849-5.812 8.208 8.208 0 00.291-3.448l-8-61.78a8.205 8.205 0 014.751-8.52 8.19 8.19 0 013.379-.73h40.07a8.209 8.209 0 008.22-9.31zm-215.78-27.6L191 173.81a8.211 8.211 0 018.14-9.25h107.21a8.207 8.207 0 018.14 7.15l9.19 71.29a8.205 8.205 0 01-4.751 8.52 8.19 8.19 0 01-3.379.73H208.31a8.198 8.198 0 01-8.14-7.16h.05z" fill="#000"/><path d="M359.44 359.36h-13.16a5.33 5.33 0 01-5.28-4.65l-8.52-66a11.095 11.095 0 00-3.682-6.9 11.09 11.09 0 00-7.318-2.76H214.26a11.077 11.077 0 00-11 12.5l8 61.78a5.32 5.32 0 01-5.29 6H192.8a5.327 5.327 0 01-5.29-4.65l-8.51-66a11.12 11.12 0 00-11-9.66h-44.3a5.35 5.35 0 01-5.29-4.65l-1.71-13.29a5.32 5.32 0 015.28-6h40.07a11.085 11.085 0 008.326-3.764 11.087 11.087 0 002.674-8.736l-9.2-71.27a11.106 11.106 0 00-11-9.67h-44.3a5.33 5.33 0 01-5.28-4.64l-1.72-13.3a5.313 5.313 0 011.286-4.198 5.331 5.331 0 011.807-1.334c.691-.31 1.44-.47 2.197-.468h40.06a11.077 11.077 0 0011-12.5l-8-61.78a5.318 5.318 0 013.087-5.529 5.319 5.319 0 012.193-.471h13.16a5.35 5.35 0 015.29 4.65l8.51 66a11.114 11.114 0 0011 9.66H300.4a11.077 11.077 0 0011-12.5l-8-61.78a5.318 5.318 0 013.087-5.529 5.319 5.319 0 012.193-.471h13.16a5.358 5.358 0 015.29 4.65l8.51 66a11.1 11.1 0 0011 9.66H391a5.342 5.342 0 015.28 4.65l1.72 13.26a5.32 5.32 0 01-5.29 6H352.6a11.088 11.088 0 00-10.604 7.844 11.095 11.095 0 00-.396 4.656l9.2 71.28a11.1 11.1 0 0011 9.66h44.3a5.34 5.34 0 015.29 4.65l1.71 13.29a5.32 5.32 0 01-5.28 6h-40.07a11.068 11.068 0 00-10.615 7.839 11.067 11.067 0 00-.385 4.661l8 61.78a5.334 5.334 0 01-3.097 5.525 5.335 5.335 0 01-2.193.475l-.02.03zm-145.18-80.54H321.5a11.35 11.35 0 0111.23 9.88l8.52 66a5.074 5.074 0 001.67 3.152 5.075 5.075 0 003.33 1.278h13.16a5.064 5.064 0 003.793-1.737 5.068 5.068 0 001.207-3.993l-8-61.78a11.345 11.345 0 01.401-4.761 11.329 11.329 0 0110.839-8.019h40.06a5.064 5.064 0 003.793-1.737 5.068 5.068 0 001.207-3.993l-1.72-13.29a5.078 5.078 0 00-5-4.43h-44.3a11.358 11.358 0 01-11.23-9.88l-9.2-71.28a11.345 11.345 0 01.401-4.761 11.329 11.329 0 0110.839-8.019h40.06a5.064 5.064 0 003.793-1.737 5.068 5.068 0 001.207-3.993L396 142.41a5.1 5.1 0 00-5-4.43h-44.3a11.361 11.361 0 01-11.24-9.88l-8.51-66a5.093 5.093 0 00-5-4.43H308.7a5.077 5.077 0 00-4.823 3.605 5.075 5.075 0 00-.177 2.125l8 61.78a11.333 11.333 0 01-6.6 11.83c-1.478.662-3.08 1-4.7.99H193.16a11.361 11.361 0 01-11.24-9.88l-8.51-66a5.093 5.093 0 00-5-4.43h-13.2a5.068 5.068 0 00-5 5.73l8 61.78a11.323 11.323 0 01-2.74 8.968 11.337 11.337 0 01-8.56 3.832h-40.06a5.068 5.068 0 00-3.789 1.74 5.073 5.073 0 00-1.211 3.99l1.67 13.27a5.09 5.09 0 005 4.43h44.3a11.36 11.36 0 0111.24 9.88l9.19 71.28a11.323 11.323 0 01-6.561 11.774 11.306 11.306 0 01-4.669 1.006H122a5.078 5.078 0 00-3.793 1.736A5.073 5.073 0 00117 261.1l1.71 13.29a5.09 5.09 0 005 4.43H168a11.35 11.35 0 0111.23 9.88l8.52 66a5.074 5.074 0 001.67 3.152 5.075 5.075 0 003.33 1.278H206a5.064 5.064 0 003.793-1.737A5.068 5.068 0 00211 353.4l-8-61.78a11.345 11.345 0 01.401-4.761 11.329 11.329 0 0110.839-8.019l.02-.02zm101.29-23.45H208.31a11.361 11.361 0 01-11.24-9.88l-9.2-71.28a11.345 11.345 0 01.401-4.761 11.329 11.329 0 0110.839-8.019h107.24a11.36 11.36 0 0111.24 9.88l9.19 71.28a11.33 11.33 0 01-11.23 12.78zm-116.44-93.69a11.088 11.088 0 00-10.604 7.844 11.095 11.095 0 00-.396 4.656l9.2 71.28a11.114 11.114 0 0011 9.66h107.24a11.077 11.077 0 0011-12.5l-9.19-71.27a11.106 11.106 0 00-11-9.67H199.11z" fill="#FF725E"/><path d="M275.92 320.84l7.85 4.59 11.85-17.48-7.85-4.6-11.85 17.49z" fill="#E4897B"/><path d="M284.05 325.17l-6.45-7.93a.721.721 0 00-.94-.17l-7 4.2a1.477 1.477 0 00-.651 1.004 1.471 1.471 0 00.311 1.156c2.3 2.72 3.55 3.92 6.39 7.41 1.74 2.15 5.13 6.77 7.55 9.73 2.42 2.96 5.47.73 4.73-.72-3.32-6.5-3.45-10-3.4-13.15a2.34 2.34 0 00-.54-1.53z" fill="#263238"/><path d="M287 330.14h-.19c-1.28-.2-2.64-2.44-3.33-3.75a.15.15 0 01.19-.21c.42.18 4.12 1.81 4.35 3a.636.636 0 01-.2.59 1.135 1.135 0 01-.82.37zm-3-3.52c1.05 1.89 2.13 3.08 2.9 3.2a.824.824 0 00.75-.26.375.375 0 00.11-.32c-.19-.8-2.52-2.03-3.76-2.62z" fill="#FF725E"/><path d="M286.56 327a7.983 7.983 0 01-3-.61.13.13 0 01-.08-.12.142.142 0 01.009-.079.145.145 0 01.051-.061c.09-.06 2.11-1.43 3.54-1.15a1.517 1.517 0 011 .67c.31.47.19.77 0 .93a2.14 2.14 0 01-1.52.42zm-2.63-.77c1.23.49 3.49.66 3.95.15 0-.05.17-.19-.08-.56a1.185 1.185 0 00-.8-.54 5.332 5.332 0 00-3.07.99v-.04z" fill="#FF725E"/><path d="M263.6 183.13l.38 1.52.43 1.64c.29 1.1.62 2.21.95 3.32.667 2.22 1.37 4.437 2.11 6.65.78 2.2 1.53 4.42 2.38 6.61.41 1.09.82 2.2 1.25 3.29l.51 1.31a3 3 0 00.4.63 11.735 11.735 0 004.43 2.8 41.86 41.86 0 006.31 2c2.22.52 4.5.95 6.81 1.31 2.31.36 4.68.64 7 .89l.08 4.71a72.449 72.449 0 01-15 0 43.308 43.308 0 01-7.71-1.49 25.29 25.29 0 01-4-1.57 15.278 15.278 0 01-4-2.8 10.957 10.957 0 01-1.75-2.27 7.035 7.035 0 01-.37-.67l-.23-.47-.4-.83c-.54-1.11-1.08-2.22-1.58-3.35-1-2.26-2-4.53-2.88-6.85-.88-2.32-1.73-4.66-2.49-7-.37-1.2-.72-2.41-1-3.63l-.48-1.86c-.14-.65-.27-1.21-.41-2l9.26-1.89z" fill="#E4897B"/><path d="M260.63 173.22c3.75.95 6.38 16.39 6.38 16.39l-10.34 7s-9.91-15.57-7-19.7c2.98-4.26 5.49-5.09 10.96-3.69z" fill="#FF725E"/><path opacity=".2" d="M260.63 173.22c3.75.95 6.38 16.39 6.38 16.39l-10.34 7s-9.91-15.57-7-19.7c2.98-4.26 5.49-5.09 10.96-3.69z" fill="#000"/><path d="M261 178.83l-8 1.86-.77 7.85a90.752 90.752 0 004.5 8.1l6.27-4.26c-.33-3.61-1-11.11-2-13.55z" fill="#FF725E"/><path opacity=".3" d="M261 178.83l-8 1.86-.77 7.85a90.752 90.752 0 004.5 8.1l6.27-4.26c-.33-3.61-1-11.11-2-13.55z" fill="#000"/><path d="M295.18 215l6.45-6.54.85 9.21s-4.84 3.28-8.19 1.52l.89-4.19zM309.22 207.47l.29 7.76-7.03 2.43-.85-9.21 7.59-.98zM262.97 338.83h9.1l2.93-21.08h-9.11l-2.92 21.08z" fill="#E4897B"/><path d="M272.67 336.11l-9-4.81a.72.72 0 00-.93.21l-4.83 6.59a1.478 1.478 0 00-.207 1.178 1.465 1.465 0 00.737.942c3.17 1.62 4.79 2.24 8.76 4.35 2.44 1.3 8.56 4.89 11.94 6.69 3.38 1.8 5.32-1.45 4.08-2.5-5.57-4.7-8.27-8.53-9.44-11.44a2.326 2.326 0 00-1.11-1.21zM222.45 137.67c-.23 10-12.47 5.87-13.84 17.39-.77 6.47-8.61 7.14-10 13-1.36 5.67 4.17 9.79 0 16.85-5.58 9.45-8.7 25.93 22.61 27.64 23.28 1.27 31.47-22.38 27.52-36.91-3.95-14.53-6.15-16.77-1.82-20.77s11.27-6 9.05-18.22c-1.72-9.45-5.9-8.34-5.9-8.34-.21-5.22-27.07-12.89-27.62 9.36z" fill="#263238"/><path d="M295.62 307.95l-6.11 9.01-7.86-4.59 6.11-9.02 7.86 4.6zM265.89 317.76H275l-1.52 10.86h-9.1l1.51-10.86z" fill="#CE6F64"/><path d="M260.63 173.22s4.34 1.53-4.35 54.93h-37c.62-15 .63-24.32-6.56-55.2a109.334 109.334 0 0115.7-2.06c5.589-.401 11.2-.401 16.79 0 7.24.66 15.42 2.33 15.42 2.33z" fill="#FF725E"/><path opacity=".2" d="M260.63 173.22s4.34 1.53-4.35 54.93h-37c.62-15 .63-24.32-6.56-55.2a109.334 109.334 0 0115.7-2.06c5.589-.401 11.2-.401 16.79 0 7.24.66 15.42 2.33 15.42 2.33z" fill="#000"/><path d="M230.12 152c1.06 5.4 2.12 15.29-1.66 18.9 0 0 1.48 5.48 11.51 5.48 9.66 0 5.28-5.48 5.28-5.48-6-1.44-5.87-5.91-4.82-10.11L230.12 152z" fill="#E4897B"/><path d="M234.32 155.58l6.1 5.2a17.418 17.418 0 00-.51 3c-2.31-.33-5.47-2.86-5.71-5.27a8.272 8.272 0 01.12-2.93z" fill="#CE6F64"/><path d="M229.49 137.76c-1 9-1.68 12.74 2 18.1 5.52 8.06 16.77 7.38 20.47-1.1 3.33-7.63 4.48-21-3.58-26.11a12.327 12.327 0 00-11.987-.717 12.315 12.315 0 00-6.903 9.827z" fill="#E4897B"/><path d="M229.44 143.06c1.27 2.36 20.71-8.39 18.5-14.16-2.21-5.77-8-3.68-8-3.68s-10.27 2.34-12 7.67c-1.73 5.33 1.5 10.17 1.5 10.17z" fill="#263238"/><path d="M225.7 144.09a6.848 6.848 0 002.33 4.47c1.76 1.49 3.51.16 3.75-2 .22-1.93-.43-5-2.54-5.7-2.11-.7-3.74 1.14-3.54 3.23z" fill="#E4897B"/><path d="M256.28 228.15s57.54 5.54 56.94 33.29c-.62 28.87-21.35 54.87-21.35 54.87L281 310.16s12-25.41 11.38-42.72c-.5-14.8-55.68-17.64-55.68-17.64l-7.61-21.65h27.19z" fill="#FF725E"/><path opacity=".6" d="M256.28 228.15s57.54 5.54 56.94 33.29c-.62 28.87-21.35 54.87-21.35 54.87L281 310.16s12-25.41 11.38-42.72c-.5-14.8-55.68-17.64-55.68-17.64l-7.61-21.65h27.19z" fill="#FAFAFA"/><path d="M276.33 244.42l1.16 11.8c8.05 2.52 14.24 6 14.85 10.66 1.36-10.44-5.92-16.61-16.01-22.46z" fill="#FF725E"/><path opacity=".4" d="M276.33 244.42l1.16 11.8c8.05 2.52 14.24 6 14.85 10.66 1.36-10.44-5.92-16.61-16.01-22.46z" fill="#FAFAFA"/><path d="M246.52 228.15S286 241.23 287 257.42c1.84 29.81-11.27 69.1-11.27 69.1h-12.46s.7-26.07 2.19-53.08c1.86-33.93-58-.47-46.14-45.29h27.2z" fill="#FF725E"/><path opacity=".6" d="M246.52 228.15S286 241.23 287 257.42c1.84 29.81-11.27 69.1-11.27 69.1h-12.46s.7-26.07 2.19-53.08c1.86-33.93-58-.47-46.14-45.29h27.2z" fill="#FAFAFA"/><path d="M242.51 142.65c-.13.72.15 1.37.62 1.46.47.09 1-.44 1.09-1.16.09-.72-.15-1.38-.62-1.46-.47-.08-.96.43-1.09 1.16zM250.67 144.11c-.12.72.15 1.37.63 1.46.48.09 1-.43 1.09-1.16.09-.73-.15-1.37-.63-1.46-.48-.09-.96.43-1.09 1.16z" fill="#263238"/><path d="M251.55 143l1.82-.19s-1.13 1.19-1.82.19z" fill="#263238"/><path d="M248.29 145a19.79 19.79 0 001.71 5 3.195 3.195 0 01-2.66 0l.95-5z" fill="#DE5753"/><path d="M243.22 151.94h-.06a6.3 6.3 0 01-3.18-3.39.134.134 0 01.007-.105.139.139 0 01.083-.065.148.148 0 01.051-.009.128.128 0 01.051.013.127.127 0 01.068.076 6.119 6.119 0 003 3.23.14.14 0 01.07.18.136.136 0 01-.09.07zM241.6 139.41a.256.256 0 01-.112-.026.253.253 0 01-.088-.074.26.26 0 01-.065-.085.255.255 0 010-.209.275.275 0 01.065-.086 4.117 4.117 0 013.64-1 .275.275 0 01-.14.53 3.555 3.555 0 00-3.14.91.281.281 0 01-.16.04zM255.13 140.86a.302.302 0 01-.25-.17 3.6 3.6 0 00-2.46-2.14.279.279 0 01-.23-.32.28.28 0 01.32-.22 4.075 4.075 0 012.87 2.46.255.255 0 01.027.105.257.257 0 01-.167.255.194.194 0 01-.11.03z" fill="#263238"/><path d="M276.08 339.35c-1.07 0-2.52-1.12-3.33-1.84a.14.14 0 01-.05-.16.16.16 0 01.13-.11c.37 0 3.62-.3 4.3.59a.674.674 0 01.09.67 1.176 1.176 0 01-.81.81 1.663 1.663 0 01-.33.04zm-2.86-1.83c1.32 1.1 2.46 1.66 3.11 1.49a.863.863 0 00.6-.61.338.338 0 000-.38c-.48-.58-2.58-.57-3.71-.5z" fill="#FF725E"/><path d="M272.85 337.55a.129.129 0 01-.13-.08.164.164 0 01-.019-.075c0-.026.007-.052.019-.075.05-.09 1.28-2.38 2.54-2.68a1.002 1.002 0 01.89.17.667.667 0 01.33.8c-.27.92-2.52 1.91-3.62 1.94h-.01zm2.68-2.64h-.21c-.9.21-1.84 1.68-2.2 2.27 1.05-.16 2.85-1 3.06-1.69 0-.11.05-.28-.21-.46a.745.745 0 00-.44-.12z" fill="#FF725E"/><path d="M243.38 141.49l1.83-.19s-1.14 1.2-1.83.19zM218.76 226l-.29 3.31c-.13.26.17.52.6.52h37.39c.34 0 .61-.16.63-.37l.34-3.31c0-.23-.27-.43-.63-.43h-37.44a.705.705 0 00-.6.28z" fill="#263238"/><path d="M223.79 230.17h-1c-.2 0-.35-.1-.34-.23l.47-4.3c0-.13.19-.23.39-.23h1c.2 0 .35.1.34.23l-.47 4.3c-.02.13-.18.23-.39.23z" fill="#FF725E"/><path opacity=".6" d="M223.79 230.17h-1c-.2 0-.35-.1-.34-.23l.47-4.3c0-.13.19-.23.39-.23h1c.2 0 .35.1.34.23l-.47 4.3c-.02.13-.18.23-.39.23z" fill="#FAFAFA"/><path d="M253.65 230.17h-1c-.2 0-.35-.1-.33-.23l.47-4.3c0-.13.18-.23.38-.23h1c.2 0 .35.1.33.23l-.47 4.3c-.03.13-.18.23-.38.23z" fill="#FF725E"/><path opacity=".6" d="M253.65 230.17h-1c-.2 0-.35-.1-.33-.23l.47-4.3c0-.13.18-.23.38-.23h1c.2 0 .35.1.33.23l-.47 4.3c-.03.13-.18.23-.38.23z" fill="#FAFAFA"/><path d="M238.72 230.17h-1c-.2 0-.36-.1-.34-.23l.47-4.3c0-.13.19-.23.39-.23h1c.2 0 .35.1.34.23l-.47 4.3c-.02.13-.19.23-.39.23z" fill="#FF725E"/><path opacity=".6" d="M238.72 230.17h-1c-.2 0-.36-.1-.34-.23l.47-4.3c0-.13.19-.23.39-.23h1c.2 0 .35.1.34.23l-.47 4.3c-.02.13-.19.23-.39.23z" fill="#FAFAFA"/><path d="M221.46 187.29l-4.77 4.06c1 5.4 1.7 9.9 2.14 13.9.89-4.01 3.17-14.89 2.63-17.96z" fill="#FF725E"/><path opacity=".3" d="M221.46 187.29l-4.77 4.06c1 5.4 1.7 9.9 2.14 13.9.89-4.01 3.17-14.89 2.63-17.96z" fill="#000"/><path d="M322.51 202.6h-64.87l-9.4 38.31h64.87l9.4-38.31z" fill="#FAFAFA"/><path d="M289.64 233.78l-39.67 9.25-25.46-7.14.26-2.11h64.87z" fill="#FAFAFA"/><path d="M218.28 186.12c-.77 2.55-1.61 5.18-2.36 7.78-.75 2.6-1.54 5.22-2.22 7.83-.68 2.61-1.33 5.21-1.83 7.76-.24 1.27-.47 2.54-.62 3.74a21.37 21.37 0 00-.17 2.54c.22.681.597 1.301 1.1 1.81.759.824 1.6 1.568 2.51 2.22a48.001 48.001 0 006.57 3.93c2.35 1.21 4.81 2.31 7.32 3.33 2.51 1.02 5.07 2 7.58 3l-1.16 4.52c-2.87-.45-5.6-1.09-8.38-1.78-2.78-.69-5.49-1.6-8.22-2.6a48.218 48.218 0 01-8.12-3.86 23.97 23.97 0 01-4-3 12.38 12.38 0 01-3.39-5.1 9.777 9.777 0 01-.39-1.83v-1.48-2.43c.08-1.56.25-3 .47-4.5.41-2.92 1-5.74 1.62-8.52a166.868 166.868 0 014.67-16.37l9.02 3.01z" fill="#E4897B"/><path d="M212.76 173c-3.7 1.13-9.37 15.67-9.37 15.67l14.37 10.27s6.46-12.43 4.9-17.22c-1.66-5.03-5.66-10.05-9.9-8.72z" fill="#FF725E"/><path opacity=".2" d="M212.76 173c-3.7 1.13-9.37 15.67-9.37 15.67l14.37 10.27s6.46-12.43 4.9-17.22c-1.66-5.03-5.66-10.05-9.9-8.72z" fill="#000"/><path d="M234.29 230.34l8.64-2.19-4.12 8.29s-5.83.25-7.76-3l3.24-3.1z" fill="#E4897B"/><path d="M249.9 231.3l-3.82 6.76-7.27-1.62 4.12-8.29 6.97 3.15z" fill="#E4897B"/><path d="M324.51 202.6h-64.87l-9.4 38.31h64.87l9.4-38.31zM315.11 240.91l-.26 2.12h-64.88l.26-2.12h64.88zM246.39 132.42c8.74 3.5 9.46 8.53 9 5-.66-5.07-4.87-8.72-7.89-9.95-1.77-.74-4.93 3.42-1.11 4.95z" fill="#263238"/><path d="M230.1 137l-.59.69a.51.51 0 000 .71l4.72 4.3a.511.511 0 00.69 0l.81-.75a.508.508 0 00.125-.588.508.508 0 00-.125-.172l-4.95-4.24a.507.507 0 00-.68.05z" fill="#FF725E"/><path opacity=".3" d="M230.1 137l-.59.69a.51.51 0 000 .71l4.72 4.3a.511.511 0 00.69 0l.81-.75a.508.508 0 00.125-.588.508.508 0 00-.125-.172l-4.95-4.24a.507.507 0 00-.68.05z" fill="#000"/><path d="M228.89 170.26c.1.76.94 4.51 8.08 5.92 0 0-2.12 2.31-3.32 7.84 0 0-12.52-4.91-8.72-12.87a.45.45 0 01.32-.25l3.48-.74a.13.13 0 01.052-.002.104.104 0 01.049.018.119.119 0 01.038.036c.01.014.017.031.021.048z" fill="#FF725E"/><path opacity=".6" d="M228.89 170.26c.1.76.94 4.51 8.08 5.92 0 0-2.12 2.31-3.32 7.84 0 0-12.52-4.91-8.72-12.87a.45.45 0 01.32-.25l3.48-.74a.13.13 0 01.052-.002.104.104 0 01.049.018.119.119 0 01.038.036c.01.014.017.031.021.048z" fill="#FAFAFA"/><path d="M244.84 170.84c.86.91 3.21 4-2.73 5.42 0 0 3.61 2 4.81 7.53 0 0 8.89-6.11.8-12.75a.063.063 0 00-.03-.007.063.063 0 00-.03.007l-2.71-.38a.12.12 0 00-.058.019.118.118 0 00-.043.043.129.129 0 00-.009.118z" fill="#FF725E"/><path opacity=".6" d="M244.84 170.84c.86.91 3.21 4-2.73 5.42 0 0 3.61 2 4.81 7.53 0 0 8.89-6.11.8-12.75a.063.063 0 00-.03-.007.063.063 0 00-.03.007l-2.71-.38a.12.12 0 00-.058.019.118.118 0 00-.043.043.129.129 0 00-.009.118z" fill="#FAFAFA"/><path d="M329.71 113.3c-1.52-15.71-15.33-28.44-30.84-28.43-15.51.01-26.87 12.74-25.32 28.45a32.14 32.14 0 005.167 14.26 32.137 32.137 0 0011.133 10.3l-.25 10 8.32-6.85c2.122.491 4.292.743 6.47.75 15.51-.03 26.85-12.78 25.32-28.48z" fill="#FF725E"/><path opacity=".6" d="M329.71 113.3c-1.52-15.71-15.33-28.44-30.84-28.43-15.51.01-26.87 12.74-25.32 28.45a32.14 32.14 0 005.167 14.26 32.137 32.137 0 0011.133 10.3l-.25 10 8.32-6.85c2.122.491 4.292.743 6.47.75 15.51-.03 26.85-12.78 25.32-28.48z" fill="#FAFAFA"/><path d="M304 108.36c-6.87-2.07-11.72-9.42-11.72-9.42s-2.12-.12-2 1.82a10.64 10.64 0 003.45 7l-3.22-.18a10.22 10.22 0 00-3.36.37l-1 .29a3.23 3.23 0 00-1.975 1.692 3.24 3.24 0 00-.095 2.598l2.14 6.31a9.002 9.002 0 004 4.84 8.12 8.12 0 005.27 1.07c3.22-.49 8.23-1.24 9.09-1.4l2.31-.2-.68-14.15-2.21-.64z" fill="#FAFAFA"/><path d="M316.08 125.06h-9a1.45 1.45 0 01-1.39-1.28l-1.56-16.1a1.142 1.142 0 011.14-1.28h9a1.449 1.449 0 011.4 1.29l1.56 16.09a1.164 1.164 0 01-.287.899 1.155 1.155 0 01-.863.381zM183.89 190.22l-9-8.53c.13-1.778.11-3.565-.06-5.34-1.69-17.36-16.95-31.43-34.09-31.42-17.14.01-29.66 14.09-28 31.45 1.66 17.36 16.94 31.43 34.08 31.42a27.552 27.552 0 0025.33-15.7l11.74-1.88z" fill="#FF725E"/><path d="M158.18 165.12c-4.69-4.33-11.61-4.32-15.45 0-4.69-4.32-11.61-4.32-15.46 0-3.85 4.32-3.17 11.34 1.52 15.66l17 15.65 13.93-15.66c3.83-4.32 3.15-11.33-1.54-15.65z" fill="#FF725E"/><path opacity=".6" d="M158.18 165.12c-4.69-4.33-11.61-4.32-15.45 0-4.69-4.32-11.61-4.32-15.46 0-3.85 4.32-3.17 11.34 1.52 15.66l17 15.65 13.93-15.66c3.83-4.32 3.15-11.33-1.54-15.65z" fill="#FAFAFA"/></svg>