<svg width="500" height="300" fill="none" xmlns="http://www.w3.org/2000/svg"><path d="M488.684 209.448l-9.864.211-5.008.082c-1.676.038-3.36 0-5.037.045h-.331v-.338l-.045-8.436v-.376h.376l9.955.045c3.323 0 6.639.083 9.954.121h.211v.21c0 1.429-.06 2.85-.098 4.256l-.113 4.18zm0 0l-.105-4.248c-.038-1.398-.083-2.782-.098-4.165l.203.21c-3.315.038-6.631.121-9.954.121l-9.955.045.376-.376v8.413l-.339-.331c1.64 0 3.279 0 4.925.038l4.895.128 10.052.165zM477.579 220.057l-9.864.21-5.015.083c-1.669 0-3.354 0-5.03.045h-.331V211.268h.376l9.955.052c3.315 0 6.639.083 9.954.12h.211v.204c0 1.428-.06 2.849-.098 4.255l-.158 4.158zm0 0l-.105-4.248c-.038-1.399-.083-2.782-.098-4.165l.203.21c-3.315.038-6.639.12-9.954.12l-9.955.045.376-.375v8.413l-.339-.331c1.639 0 3.279 0 4.925.038l4.94.09 10.007.203zM499.789 220.057l-9.864.21-5.008.083c-1.676 0-3.36 0-5.037.045h-.331v-.338l-.045-8.413v-.376h.376l9.955.052c3.323 0 6.639.083 9.954.12H500v.204c0 1.428-.068 2.849-.098 4.255l-.113 4.158zm0 0l-.105-4.248c0-1.399-.083-2.782-.098-4.165l.203.21c-3.315.038-6.631.12-9.954.12l-9.955.045.376-.375v8.413l-.338-.331c1.646 0 3.278 0 4.924.038l4.948.09 9.999.203zM204.794 109.337l-9.865.21-5.007.083h-5.368v-.338l-.045-8.414v-.376h.375l9.955.046c3.323 0 6.639.082 9.955.12h.21v.203c0 1.428-.067 2.842-.105 4.248l-.105 4.218zm0 0l-.105-4.256c0-1.398-.083-2.782-.098-4.158l.203.203c-3.316 0-6.632.121-9.955.121l-9.955.052.376-.376-.037 8.414-.339-.338c1.64 0 3.279 0 4.925.045l4.948.082 10.037.211zM193.674 119.946l-9.865.21-5.015.083c-1.669 0-3.353 0-5.03.037h-.331v-.338l-.06-8.398v-.376h.376l9.955.045c3.316 0 6.639.083 9.955.12h.21v.211c0 1.428-.06 2.842-.098 4.248l-.097 4.158zm0 0l-.106-4.256c-.037-1.398-.082-2.782-.097-4.158l.203.203c-3.316.038-6.639.121-9.955.121l-9.955.052.376-.376-.015 8.414-.338-.339c1.639 0 3.278 0 4.925.045l4.939.083 10.023.211zM215.899 119.946l-9.865.21-5.007.083c-1.677 0-3.353 0-5.038.037h-.33v-.338l-.045-8.398v-.376h.375l9.955.045c3.323 0 6.639.083 9.955.12h.21v.211c0 1.428-.067 2.842-.097 4.248l-.113 4.158zm0 0l-.105-4.256c0-1.398-.083-2.782-.098-4.158l.203.203c-3.316.038-6.632.121-9.955.121l-9.955.052.376-.376-.037 8.414-.339-.339c1.647 0 3.279 0 4.925.045l4.947.083 10.038.211zM42.458 165.005l-9.864.211-5.016.082c-1.669 0-3.353 0-5.03.038h-.3V156.208h.376l9.954.045c3.316 0 6.64.083 9.955.121h.21v.203c0 1.428-.06 2.842-.097 4.248l-.188 4.18zm0 0l-.105-4.255c0-1.399-.083-2.782-.098-4.158l.203.203c-3.316.037-6.639.12-9.955.12l-9.954.053.375-.376-.037 8.413-.338-.338c1.639 0 3.278 0 4.924.045l4.94.083 10.045.21zM372.513 109.329l-9.864.211-5.008.083c-1.676.037-3.361 0-5.037.037h-.331v-.338l-.045-8.414v-.376h.376l9.954.046c3.324 0 6.639.09 9.955.127h.211v.203c0 1.429-.06 2.85-.098 4.248l-.113 4.173zm0 0l-.105-4.248c-.038-1.406-.083-2.789-.098-4.165l.203.203c-3.316.038-6.631.12-9.955.128l-9.954.045.376-.376-.038 8.413-.338-.338c1.639 0 3.278 0 4.924.045l4.948.083 10.037.21zM487.534 27.616l-9.865.21-5.014.084c-1.67 0-3.354 0-5.03.045h-.331v-9.128h.376l9.954.045c3.316 0 6.639.09 9.955.128h.211v.203c0 1.428-.061 2.85-.098 4.248l-.158 4.165zm0 0l-.105-4.248c-.038-1.406-.083-2.79-.098-4.165l.203.203c-3.316 0-6.639.12-9.955.128l-9.954.045.375-.376-.037 8.413-.338-.338c1.639 0 3.278 0 4.924.045l4.94.083 10.045.21zM498.639 38.225l-9.864.21-5.008.083c-1.677.038-3.361 0-5.037.045h-.331v-.338l-.045-8.413v-.376h.376l9.954.045c3.324 0 6.639.09 9.955.128h.211v.203c0 1.428-.068 2.85-.106 4.248l-.105 4.165zm0 0l-.105-4.248c0-1.406-.083-2.79-.098-4.165l.203.203c-3.316.037-6.631.12-9.955.127l-9.954.046.376-.376v8.413l-.339-.338c1.639 0 3.278 0 4.925.045l4.947.083 10 .21zM20.248 27.624l-9.872.21-5.008.083c-1.669 0-3.353 0-5.03.045H0V18.834h.383l9.955.053c3.316 0 6.632.083 9.955.12h.203v.203c0 1.429-.068 2.85-.098 4.256l-.15 4.158zm0 0l-.113-4.248c0-1.399-.083-2.79-.098-4.166l.21.203c-3.322.046-6.638.12-9.954.128l-9.955.045.376-.376-.045 8.414-.33-.293h4.917l4.947.082 10.045.21z" fill="#EBEBEB"/><path d="M132.254 20.729H43.127v60.06h89.127v-60.06z" fill="#fff" stroke="#EBEBEB" stroke-miterlimit="10"/><path d="M51.744 25.27a2.052 2.052 0 11-4.105 0 2.052 2.052 0 014.105 0z" fill="#37474F"/><path d="M60.12 25.27a2.053 2.053 0 11-1.261-1.896 2.044 2.044 0 011.26 1.896z" fill="#EBEBEB"/><path d="M68.503 25.27a2.053 2.053 0 11-4.106 0 2.053 2.053 0 014.106 0z" fill="#FF725E"/><path d="M43.127 29.774h89.127" stroke="#EBEBEB" stroke-miterlimit="10"/><path d="M118.487 99.946c0-.94.128-3.444.128-4.511 0-4.572-1.632-6.64-5.887-6.767-2-.12-3.188-1.308-3.188-3.008 0-1.699 1.188-2.88 3.188-3.007 4.255-.188 5.887-2.188 5.887-6.827 0-1.06-.128-3.564-.128-4.511 0-6.075 2.571-9.955 12.27-12.083 1.948-.443 3.444.752 3.444 2.564a2.623 2.623 0 01-1.752 2.564c-6.067 1.88-6.947 3.82-6.947 8.082 0 1.249.128 3.316.128 4.632 0 4.88-2.384 7.263-6.511 8.579 4.195 1.376 6.511 3.691 6.511 8.579 0 1.308-.128 3.376-.128 4.631 0 4.256.88 6.196 6.947 8.075a2.628 2.628 0 011.752 2.564c0 1.82-1.504 3.008-3.444 2.571-9.699-2.105-12.27-5.992-12.27-12.127zM155.178 71.337c0 .94-.128 3.444-.128 4.511 0 4.64 1.692 6.64 5.955 6.828 1.94.127 3.128 1.315 3.128 3.007 0 1.692-1.188 2.88-3.128 3.007-4.263.128-5.955 2.196-5.955 6.767 0 1.06.128 3.564.128 4.511 0 6.136-2.564 10.023-12.27 12.151-1.94.436-3.444-.752-3.444-2.572a2.594 2.594 0 011.812-2.564c6.015-1.879 6.887-3.819 6.887-8.075 0-1.255-.12-3.323-.12-4.631 0-4.887 2.376-7.263 6.511-8.579-4.195-1.376-6.511-3.7-6.511-8.579 0-1.316.12-3.383.12-4.631 0-4.263-.872-6.203-6.887-8.083a2.592 2.592 0 01-1.812-2.564c0-1.812 1.504-3.007 3.444-2.564 9.706 2.106 12.27 5.985 12.27 12.06zM202.847 214.997a2.553 2.553 0 01.575 2.782 2.548 2.548 0 01-2.357 1.586c-.694 0-1.36-.269-1.858-.752l-11.375-11.511c-.121-.037-.158-.12-.203-.24a.666.666 0 00-.121-.083.963.963 0 01-.12-.323.203.203 0 01-.12-.158c-.045-.083-.045-.203-.083-.248a.474.474 0 01-.083-.203v-.279c0-.082-.037-.12-.037-.248 0-.127.037-.158.037-.195v-.286c0-.083.083-.12.083-.165 0-.045.038-.203.083-.324.045-.12 0-.037 0-.075.058-.128.126-.251.203-.368 0-.022.009-.043.024-.059a.087.087 0 01.059-.024.74.74 0 01.24-.278l11.413-11.556a2.642 2.642 0 013.64 0 2.583 2.583 0 01.754 1.819 2.58 2.58 0 01-.754 1.82l-9.594 9.669 9.594 9.699zM213.162 216.29l9.917-23.594a2.255 2.255 0 012.955-1.172 2.187 2.187 0 011.136 2.872l-9.918 23.638a2.254 2.254 0 01-2.067 1.331 1.92 1.92 0 01-.805-.158 2.19 2.19 0 01-1.398-2.059c.002-.295.063-.587.18-.858zM246.748 206.779v.045a1.923 1.923 0 01-.278.278l-11.443 11.534a2.631 2.631 0 01-3.639 0 2.545 2.545 0 01-.761-1.82 2.553 2.553 0 01.761-1.819l9.654-9.677-9.624-9.669a2.55 2.55 0 01-.563-2.805c.13-.313.322-.596.563-.834a2.637 2.637 0 013.639 0l11.375 11.534c.102.083.196.176.279.278v.083c.077.117.145.24.203.368 0 .038.045.038.045.075.026.127.066.251.12.369 0 .037.038.037.038.12v.286s.045.158.045.195c0 .038-.045.166-.045.203v.324c0 .045-.038.045-.038.082-.048.12-.089.243-.12.369 0 .037-.045.037-.045.12 0 .083-.083.203-.166.361zM409.084 80.961a9.702 9.702 0 01-9.022 9.677h-54.917A11.403 11.403 0 01334.15 79.79a11.404 11.404 0 019.897-11.858 19.219 19.219 0 0137.241-6.016 11.41 11.41 0 0116.518 9.474 9.012 9.012 0 011.571-.128 9.705 9.705 0 019.707 9.7zM34.714 152.502a2.792 2.792 0 012.947 0c.248.15.504.293.752.428.248.136.519.271.752.399a2.806 2.806 0 011.646 2.436l.113 3.631 11.82-.368-.113-3.654a2.798 2.798 0 011.504-2.526c.517-.277 1.019-.58 1.503-.91a2.836 2.836 0 012.962-.203l3.188 1.714 5.572-10.406-3.188-1.714a2.845 2.845 0 01-1.504-2.579 16.418 16.418 0 00-.052-1.722 2.804 2.804 0 011.278-2.646l3.105-1.925-6.233-10.053-3.06 1.918a2.751 2.751 0 01-2.895 0 19.557 19.557 0 00-.797-.459l-.82-.414a2.774 2.774 0 01-1.608-2.421l-.106-3.639-11.826.369.12 3.624a2.764 2.764 0 01-1.436 2.519c-.551.302-1.086.633-1.602.992a2.734 2.734 0 01-2.887.158l-3.195-1.707-5.594 10.429 3.203 1.714a2.829 2.829 0 011.503 2.586c-.012.575.005 1.149.053 1.722a2.807 2.807 0 01-1.286 2.647l-3.097 1.917 6.195 10.037 3.083-1.894zm2.436-17.519a9.689 9.689 0 019.39-6.276 9.686 9.686 0 018.958 6.878 9.691 9.691 0 11-18.348-.602zM93.435 58.398a1.97 1.97 0 011.827-.963h1.225a1.955 1.955 0 011.82.963l1.27 2.203 7.181-4.143-1.271-2.203a1.95 1.95 0 01.075-2.068c.218-.345.429-.699.617-1.067a1.971 1.971 0 011.782-1.09h2.534v-8.271h-2.534a1.979 1.979 0 01-1.752-1.09 9.689 9.689 0 00-.617-1.068 1.958 1.958 0 01-.075-2.068l1.271-2.203-7.18-4.142-1.279 2.255a1.963 1.963 0 01-1.82.955h-1.218a1.97 1.97 0 01-1.826-.962l-1.294-2.263-7.18 4.142 1.27 2.196a1.97 1.97 0 01-.067 2.067c-.227.348-.435.706-.624 1.076a1.977 1.977 0 01-1.752 1.09h-2.534v8.27h2.534a1.979 1.979 0 011.752 1.09c.189.37.397.729.624 1.076a1.97 1.97 0 01.068 2.068l-1.27 2.195 7.18 4.143 1.263-2.188zM89.08 45.887a6.766 6.766 0 1113.533 0 6.766 6.766 0 01-13.533 0zM475.068 56.774l-4.143-7.18-2.195 1.27a1.972 1.972 0 01-2.068-.068 11.76 11.76 0 00-1.075-.624 1.982 1.982 0 01-1.09-1.752v-2.533h-8.271v2.533a1.982 1.982 0 01-1.09 1.752 11.76 11.76 0 00-1.075.624 1.97 1.97 0 01-2.068.068l-2.195-1.27-4.143 7.18 2.21 1.27a1.97 1.97 0 01.963 1.828v1.218a1.965 1.965 0 01-.955 1.82l-2.256 1.277 4.143 7.18 2.203-1.27a1.97 1.97 0 012.068.075c.344.224.701.43 1.067.617a1.971 1.971 0 011.091 1.751v2.534h8.27V72.54a1.973 1.973 0 011.09-1.751c.367-.187.723-.393 1.068-.617a1.97 1.97 0 012.068-.075l2.203 1.27 4.142-7.18-2.21-1.27a1.965 1.965 0 01-.955-1.82v-.617-.608a1.973 1.973 0 01.962-1.828l2.241-1.27zm-7.925 3.706a6.77 6.77 0 01-4.177 6.252 6.767 6.767 0 114.177-6.252z" fill="#EBEBEB"/><path d="M448.625 28.143H280.349v106.163h168.276V28.143z" fill="#37474F"/><path d="M448.625 28.143H280.349v9.353h168.276v-9.353z" fill="#FF725E"/><path d="M289.161 32.887a2.35 2.35 0 01-1.453 2.174 2.352 2.352 0 01-3.208-1.715 2.352 2.352 0 114.661-.46z" fill="#A6A6A6"/><path d="M298.732 32.887a2.357 2.357 0 01-1.452 2.174 2.355 2.355 0 01-3.075-3.075 2.353 2.353 0 014.527.9z" fill="#EBEBEB"/><path d="M308.349 32.887a2.35 2.35 0 01-1.453 2.174 2.354 2.354 0 111.453-2.174z" fill="#fff"/><path d="M295.379 56.097h-5v1.827h5v-1.827zM379.776 56.097h-80.75v1.827h80.75v-1.827z" fill="#EBEBEB"/><path d="M392.34 56.097h-9.496v1.827h9.496v-1.827z" fill="#FF725E"/><path d="M407.535 80.533h-9.496v1.827h9.496v-1.827z" fill="#EBEBEB"/><path d="M426.415 56.097H394.4v1.827h32.015v-1.827z" fill="#A6A6A6"/><path d="M300.379 60.984h-5v1.827h5v-1.827z" fill="#EBEBEB"/><path d="M341.536 60.984h-37.638v1.827h37.638v-1.827zM395.784 80.533h-14.233v1.827h14.233v-1.827zM334.972 75.645h-35.946v1.828h35.946v-1.828z" fill="#A6A6A6"/><path d="M329.115 65.871h-25.217v1.827h25.217v-1.827z" fill="#FF725E"/><path d="M414.407 70.758H389.19v1.828h25.217v-1.828zM395.581 65.871h-63.669v1.827h63.669v-1.827z" fill="#A6A6A6"/><path d="M378.295 80.533h-79.269v1.827h79.269v-1.827zM435.001 60.984h-41.653v1.827h41.653v-1.827z" fill="#FF725E"/><path d="M391.28 60.984h-47.383v1.827h47.383v-1.827zM429.264 65.871h-16.188v1.827h16.188v-1.827zM300.379 65.871h-5v1.827h5v-1.827z" fill="#EBEBEB"/><path d="M295.379 70.758h-5v1.828h5v-1.828z" fill="#A6A6A6"/><path d="M328.574 70.758h-29.548v1.828h29.548v-1.828zM333.446 85.42h-29.548v1.827h29.548V85.42z" fill="#EBEBEB"/><path d="M420.452 90.307h-38.059v1.827h38.059v-1.827zM388.874 85.42h-53.03v1.827h53.03V85.42z" fill="#FF725E"/><path d="M379.814 90.307h-49.195v1.827h49.195v-1.827z" fill="#EBEBEB"/><path d="M312.454 90.307h-8.556v1.827h8.556v-1.827z" fill="#A6A6A6"/><path d="M392.34 75.645h-55.338v1.828h55.338v-1.828z" fill="#EBEBEB"/><path d="M430.317 75.645H394.4v1.828h35.917v-1.828zM386.866 70.758h-55.292v1.828h55.292v-1.828z" fill="#FF725E"/><path d="M295.379 75.645h-5v1.828h5v-1.828zM295.379 80.533h-5v1.827h5v-1.827z" fill="#EBEBEB"/><path d="M300.379 85.42h-5v1.827h5V85.42z" fill="#A6A6A6"/><path d="M300.379 90.307h-5v1.827h5v-1.827zM295.379 94.405h-5v1.827h5v-1.827zM357.649 94.405h-58.623v1.827h58.623v-1.827zM300.379 99.292h-5v1.827h5v-1.827z" fill="#EBEBEB"/><path d="M341.536 99.292h-37.638v1.827h37.638v-1.827z" fill="#A6A6A6"/><path d="M329.115 104.179h-25.217v1.827h25.217v-1.827z" fill="#FF725E"/><path d="M395.581 104.179h-63.669v1.827h63.669v-1.827z" fill="#A6A6A6"/><path d="M435.001 99.292h-41.653v1.827h41.653v-1.827z" fill="#FF725E"/><path d="M391.28 99.292h-47.383v1.827h47.383v-1.827zM300.379 104.179h-5v1.827h5v-1.827z" fill="#EBEBEB"/><path d="M295.214 51.51l1.684-4a.383.383 0 01.205-.205.38.38 0 01.492.206.37.37 0 01-.005.286l-1.662 4.007a.376.376 0 01-.346.226.278.278 0 01-.135 0 .372.372 0 01-.239-.205.37.37 0 01.006-.314z" fill="#FF725E"/><path d="M219.786 48.608H51.511v106.164h168.275V48.608z" fill="#37474F"/><path d="M219.786 48.608H51.511v9.354h168.275v-9.354z" fill="#FF725E"/><path d="M60.285 53.353a2.353 2.353 0 11-4.707 0 2.353 2.353 0 014.707 0z" fill="#A6A6A6"/><path d="M67.54 55.706a2.353 2.353 0 100-4.707 2.353 2.353 0 000 4.707z" fill="#EBEBEB"/><path d="M79.51 53.353a2.36 2.36 0 11-4.721.015 2.36 2.36 0 014.721-.015z" fill="#fff"/><path d="M66.54 76.563h-5v1.827h5v-1.827zM135.893 76.563H70.179v1.827h65.714v-1.827zM200.185 76.563h-19.699v1.827h19.699v-1.827z" fill="#EBEBEB"/><path d="M148.464 76.563h-9.496v1.827h9.496v-1.827z" fill="#FF725E"/><path d="M163.659 100.999h-9.496v1.827h9.496v-1.827z" fill="#EBEBEB"/><path d="M178.027 76.563h-26.751v1.827h26.751v-1.827z" fill="#A6A6A6"/><path d="M71.54 81.45h-5v1.827h5V81.45z" fill="#EBEBEB"/><path d="M112.698 81.45H75.059v1.827h37.639V81.45zM151.907 100.999h-14.232v1.827h14.232v-1.827zM106.126 96.112H70.179v1.827h35.947v-1.827z" fill="#A6A6A6"/><path d="M100.277 86.337H75.059v1.827h25.218v-1.827z" fill="#FF725E"/><path d="M170.531 91.224h-25.217v1.827h25.217v-1.827zM151.705 86.337h-48.631v1.827h48.631v-1.827z" fill="#A6A6A6"/><path d="M134.411 100.999H70.179v1.827h64.232v-1.827zM185.854 81.45h-36.39v1.827h36.39V81.45z" fill="#FF725E"/><path d="M147.404 81.45h-32.346v1.827h32.346V81.45zM166.704 86.337H155.78v1.827h10.924v-1.827zM71.54 86.337h-5v1.827h5v-1.827z" fill="#EBEBEB"/><path d="M66.54 91.224h-5v1.827h5v-1.827z" fill="#A6A6A6"/><path d="M99.728 91.224H70.179v1.827h29.549v-1.827zM104.607 105.886H75.059v1.827h29.548v-1.827z" fill="#EBEBEB"/><path d="M157.629 110.773h-32.796v1.827h32.796v-1.827zM144.998 105.886h-37.992v1.827h37.992v-1.827z" fill="#FF725E"/><path d="M122.254 110.773H88.096v1.827h34.158v-1.827z" fill="#EBEBEB"/><path d="M86.164 110.773H75.06v1.827h11.105v-1.827zM169.366 110.773h-8.556v1.827h8.556v-1.827z" fill="#A6A6A6"/><path d="M148.464 96.112h-40.3v1.827h40.3v-1.827z" fill="#EBEBEB"/><path d="M181.178 96.112h-30.654v1.827h30.654v-1.827zM142.99 91.224h-40.255v1.827h40.255v-1.827z" fill="#FF725E"/><path d="M66.54 96.112h-5v1.827h5v-1.827zM66.54 100.999h-5v1.827h5v-1.827z" fill="#EBEBEB"/><path d="M71.54 105.886h-5v1.827h5v-1.827zM172.133 105.886h-24.301v1.827h24.301v-1.827zM176.802 114.825h-24.301v1.827h24.301v-1.827z" fill="#A6A6A6"/><path d="M71.54 110.773h-5v1.827h5v-1.827zM66.54 114.863h-5v1.827h5v-1.827zM128.803 114.863H70.179v1.827h58.624v-1.827zM199.787 114.863H180.87v1.827h18.917v-1.827z" fill="#EBEBEB"/><path d="M148.456 114.863H131.93v1.827h16.526v-1.827z" fill="#FF725E"/><path d="M71.54 119.75h-5v1.827h5v-1.827z" fill="#EBEBEB"/><path d="M112.698 119.75H75.059v1.827h37.639v-1.827zM106.126 134.419H70.179v1.827h35.947v-1.827z" fill="#A6A6A6"/><path d="M100.277 124.637H75.059v1.827h25.218v-1.827z" fill="#FF725E"/><path d="M151.705 124.637h-48.631v1.827h48.631v-1.827z" fill="#A6A6A6"/><path d="M134.411 139.306H70.179v1.827h64.232v-1.827zM185.854 119.75h-36.39v1.827h36.39v-1.827z" fill="#FF725E"/><path d="M147.404 119.75h-32.346v1.827h32.346v-1.827zM165.088 124.637h-10.925v1.827h10.925v-1.827zM71.54 124.637h-5v1.827h5v-1.827z" fill="#EBEBEB"/><path d="M66.54 129.532h-5v1.827h5v-1.827z" fill="#A6A6A6"/><path d="M99.728 129.532H70.179v1.827h29.549v-1.827z" fill="#EBEBEB"/><path d="M176.02 129.532h-29.549v1.827h29.549v-1.827z" fill="#A6A6A6"/><path d="M163.501 134.419h-55.337v1.827h55.337v-1.827z" fill="#EBEBEB"/><path d="M142.99 129.532h-40.255v1.827h40.255v-1.827z" fill="#FF725E"/><path d="M66.54 134.419h-5v1.827h5v-1.827z" fill="#EBEBEB"/><path d="M66.375 71.969l1.684-4a.376.376 0 01.496-.195.368.368 0 01.196.488l-1.684 4.008a.377.377 0 01-.346.225.322.322 0 01-.143 0 .375.375 0 01-.203-.526zM72.067 70.36l-.053.045-1.925 1.955a.451.451 0 01-.308.128.428.428 0 01-.308-.128.428.428 0 010-.617l1.646-1.631-1.624-1.64a.428.428 0 010-.616.444.444 0 01.617 0l1.925 1.955.052.045.038.06c.037.06 0 0 0 0a.196.196 0 000 .06v.211a.318.318 0 000 .06l-.06.113z" fill="#FF725E"/><path d="M488.286 295.567h-84.179l16.789-97.63h62.939l4.451 97.63z" fill="#DBDBDB"/><path d="M488.286 295.567h-7.383l-4.143-97.63h7.075l4.451 97.63z" fill="#A6A6A6"/><path d="M418.234 217.14c-6.766 26.902-13.466 47.473-21.135 52.51-6.18 4.068-14.864 6.917-23.796 8.91a222.6 222.6 0 01-28.947 4.143c-3.008.248-5.496.406-7.263.526-4.384.278-11.549-28.639-8.451-32.165.714-.804 3.601-1.429 7.646-1.947 13.632-1.707 40.473-2.106 42.105-3.632 1.631-1.526 15.345-20.759 27.067-35.811 8.075-10.406 16.526-7.444 12.774 7.466z" fill="#EB9481"/><path d="M345.874 280.312c-.541.255-8.27 3.608-13.022 4.796-3.541.888-13.804 3.166-15.165-.639-.94-2.586 4.94-4.639 9.067-6.18 2.173-.812 4.895-2.955 4.309-4.353-1.008-2.451-6.609-.233-10.308 1.736-7.158 3.812-16.76 10.79-20.91 7.083-1.564-1.406.406-3.759 3.241-6.083-4.564 2.632-9.399 4.752-11.203 3.264-1.038-.85-1.045-1.963-.406-3.211-1.391.399-2.602.263-3.421-.662-1.391-1.571-.602-3.759 1.067-6.014a1.717 1.717 0 01-1.285-.91c-2.895-4.797 12.962-17.662 18.323-18.722 15.789-3.143 32.33-1.173 32.33-1.173 5.97 5.151 7.399 31.06 7.383 31.068z" fill="#EB9481"/><path d="M323.431 264.921a25.574 25.574 0 00-10.571 3.631c-3.759 2.369-6.767 5.685-10.24 8.391-.091.075 0 .226.12.143 1.639-1.406 3.428-2.654 5.12-3.992 1.692-1.339 3.286-2.677 5.023-3.865a25.27 25.27 0 0110.526-4.24c.075-.068.06-.068.022-.068zM320.74 258.154c-4.151.97-8.399 1.955-12.286 3.759-4.248 1.978-7.639 5.324-10.977 8.542a185.253 185.253 0 00-5.872 5.924c-.083.083 0 .226.12.143a238.56 238.56 0 0110.451-9.669 33.46 33.46 0 0111.316-6.564c2.383-.804 4.827-1.428 7.263-2.052a.045.045 0 00.027-.018.042.042 0 00.006-.031.041.041 0 00-.017-.027c-.009-.007-.02-.009-.031-.007zM316.589 252.192c-4.022.676-7.518 1.248-11.142 3.255-4.782 2.654-9.474 7.263-11.121 8.895a161.76 161.76 0 00-5.308 5.556c-.067.075.06.203.136.128a132.368 132.368 0 0112.616-11.609 26.435 26.435 0 016.977-4.18 47.548 47.548 0 017.85-2.015l-.008-.03z" fill="#263238"/><path d="M413.264 244.252l-24.165-14.248s10.316-16.669 19.135-24.533c8.82-7.865 12.369-1.692 11.03 9.736-1.338 11.429-6 29.045-6 29.045z" fill="#FF725E"/><path d="M392.919 226.38c3.872 1.977 14.21 7.669 20.421 12.286.037 0-.053.188-.098.165-5.767-3.007-16.789-9.887-20.466-12.21-.075-.045.06-.279.143-.241z" fill="#263238"/><path d="M391.092 231.177l22.173 13.075s4.654-17.609 6.014-29.045c.858-7.383-.315-12.564-3.631-13.203l-24.556 29.173z" fill="#263238"/><path d="M389.265 295.567h83.457c.925-1.692-12.781-74.766-40.886-95.337-6.241-4.564-17.293-1.632-20.391 2.805-15.519 22.315-22.18 92.532-22.18 92.532z" fill="#fff"/><path d="M431.873 200.26s-11.18 29.902-12.338 44.022c-.301 4.098-3.842 51.466-3.842 51.466h58.894s-11.744-57.436-30.721-84.104c-6.03-8.459-11.993-11.384-11.993-11.384zM414.031 199.786s-9.924 24.015-12.405 37.594c-1.369 7.466-8.271 58.375-8.271 58.375h-6.323s6.323-54.503 16.33-79.164c5.346-13.203 10.669-16.805 10.669-16.805z" fill="#FF725E"/><path opacity=".1" d="M424.362 231.688l14.218 1.767s-.805 13.195-1.09 13.707c-.286.511-7.91 3.639-8.421 3.353-.511-.286-6.06-4.353-6.331-4.722-.271-.368 1.624-14.105 1.624-14.105z" fill="#000"/><path d="M414.678 216.531c4.955.902 12.962-7 15.962-13.233.203-.429-2.376-16.94-2.549-20.301 0-.684-20.601 6.143-20.601 6.143s2.414 6.872 2.677 12.669c.045.519-.271 13.842 4.511 14.722z" fill="#EB9481"/><path d="M429.392 193.403c-9.158 7.895-18.992 6.158-19.436 6.075a57.856 57.856 0 00-2.466-10.308s20.571-6.827 20.601-6.143c.083 1.564.692 6.03 1.301 10.376zM397.611 155.787s-5.805 4.211-5.429 11.038c.376 6.826 3.511 13.33 4.158 13.533.646.203 1.271-24.571 1.271-24.571z" fill="#263238"/><path d="M427.136 157.569c3.482 6.917 3.241 28.669-1.142 34.263-6.361 8.105-18.572 10.864-25.917 2.812-7.12-7.812-6.301-36.15-1.233-41.413 7.458-7.759 23.157-5.88 28.292 4.338z" fill="#EB9481"/><path opacity=".3" d="M426.001 191.832c-6.361 8.105-18.571 10.864-25.917 2.812-2.601-2.85-4.135-8.429-4.797-14.624 0 0 1.79 4.406 4.354 4.436a3.374 3.374 0 003.233-2.414l1.067-.353a12.4 12.4 0 0012.03 1.293c6.835-2.834 7.978-11.03 7.978-11.03l5.608.256c.091 7.962-1.06 16.428-3.556 19.624z" fill="#000"/><path d="M408.385 173.945c0-.06.113.068.113.128-.061 1.503.127 3.15 1.451 3.646.037 0 0 .091 0 .083-1.632-.256-1.85-2.496-1.564-3.857z" fill="#263238"/><path d="M409.701 172.441c2.361-.165 2.511 4.564.33 4.714-2.18.151-2.308-4.616-.33-4.714zM400.302 174.411c0-.053-.112.075-.105.135.09 1.459-.045 3.151-1.353 3.684v.083c1.594-.286 1.782-2.534 1.458-3.902z" fill="#263238"/><path d="M398.934 172.922c-2.361-.098-2.391 4.632-.203 4.722 2.188.09 2.195-4.632.203-4.722zM411.498 170.185c-.63-.158-1.25-.352-1.857-.578a3.183 3.183 0 01-1.775-.955 1.01 1.01 0 01.12-1.218 2.487 2.487 0 012.497-.339 3.661 3.661 0 012.15 1.504 1.066 1.066 0 01-1.135 1.586zM397.039 170.607a17.788 17.788 0 001.865-.549 3.13 3.13 0 001.789-.925.995.995 0 00-.097-1.218 2.5 2.5 0 00-1.189-.528 2.503 2.503 0 00-1.293.144c-.89.21-1.668.747-2.18 1.504a1.067 1.067 0 001.105 1.572zM410.573 187.478c-.339.354-.677.835-1.203.903a3.866 3.866 0 01-1.587-.316.051.051 0 00-.054.018.046.046 0 00-.011.028c-.001.01.001.02.005.029a1.97 1.97 0 001.887.752 1.568 1.568 0 001.106-1.331c.022-.143-.091-.173-.143-.083z" fill="#263238"/><path d="M408.889 183.11a4.981 4.981 0 01-3.256 2.323 6.218 6.218 0 01-1.789.143 1.667 1.667 0 01-.346 0 2.7 2.7 0 01-.324-.037.37.37 0 01-.3-.316.952.952 0 010-.151v-.127c-.068-1.128 0-2.85 0-2.85-.406.225-2.474 1.241-2.459.647.128-4.888.271-10.316 1.436-15.151 0-.035.014-.07.04-.095a.133.133 0 01.191 0c.025.025.04.06.04.095.06 4.707-.707 9.384-.752 14.105a8.638 8.638 0 012.323-.751c.166 0-.158 3.315-.09 3.819a.119.119 0 000 .053c1.902.18 3.308-.436 5.105-1.767.143-.158.263-.083.181.06z" fill="#263238"/><path d="M404.49 184.982a5.955 5.955 0 002.429 1.76c.521.184 1.086.2 1.616.045 1.166-.346 1.158-1.421.91-2.331a6.181 6.181 0 00-.571-1.391 7.679 7.679 0 01-4.384 1.917z" fill="#263238"/><path d="M406.919 186.727c.52.184 1.086.2 1.616.045 1.166-.346 1.158-1.421.91-2.331-1.248.188-2.459 1.075-2.526 2.286z" fill="#FF99BA"/><path d="M429.152 178.456c-2.602.797-5.609-7.015-6.459-10.022-.752-2.655-1.624-11.06-1.752-11.632-.128-.571-11.331 7.459-17.887 5.556-6.556-1.902-10.955-7.781-11.052-10.526-.098-2.744 8.037-9.729 15.082-10.097 7.045-.369 16.594 8.571 16.594 8.571s-3.248-3.865-3.135-4.18c.112-.316 4.661 1.503 5.503 4.736 0 0-.902-4.075-.564-4.15.339-.075 3.888 3.406 3.098 6.053 0 0 4.098 3.533 4.511 7.421.414 3.887-.887 17.338-3.939 18.27z" fill="#263238"/><path d="M398.393 161.005c1.992.917 3.992 1.925 6.195 2.211 2.414.202 4.84-.191 7.067-1.143a22.32 22.32 0 006.196-3.684c1.631-1.354 3.09-3.008 4.834-4.188.436-.301.948.331.677.752a23.488 23.488 0 01-11.879 8.781c-4.767 1.504-9.256.459-13.121-2.654-.022-.037-.007-.09.031-.075z" fill="#263238"/><path d="M425.58 175.531s3.759-7.564 7.113-6.331c3.353 1.233 1.255 11.699-2.181 13.609-.425.273-.9.457-1.398.541a3.745 3.745 0 01-3.865-1.789l.331-6.03z" fill="#EB9481"/><path d="M432.016 172.185c.053 0 .083.068 0 .098-2.398 1.421-3.383 3.992-3.955 6.586.617-1.06 1.572-1.729 3.008-1.015.067.038 0 .151-.053.143a2.318 2.318 0 00-2.391 1.173 11.52 11.52 0 00-.895 2.211c-.082.248-.511.188-.466-.091a.3.3 0 010-.06c-.511-3.248 1.301-8.188 4.752-9.045z" fill="#263238"/><path d="M444.181 209.095c16.173 20.3 37.654 55.909 28 63.202-15.872 11.977-61.044 17.435-71.39 18.255-4.466.361-12.195-29.045-9.083-32.684 3.113-3.639 50.676-4.376 51.127-7.278.256-1.639-6.368-16.308-10.293-34.12-4.526-20.541 7.083-13.105 11.639-7.375z" fill="#EB9481"/><path d="M399.581 255.786s-13.609-.647-22.557-.662c-4.977 0-13.533.752-17.165 2.421-5.473 2.496-26.766 16.436-23.496 21.669 2.955 4.737 19.729-9.556 19.729-9.556s-18.18 12.924-13.548 17.977c4.631 5.052 21.413-13.617 21.413-13.617s-18.406 13.7-12.842 18.158c4.218 3.368 20.383-12.684 20.383-12.684s-15.729 11.887-11.541 15.504c4.624 4.037 20.481-9.85 20.481-9.85 12.203 7.519 21.052 6.06 27.27 4.293 1.496-.391-8.127-33.653-8.127-33.653z" fill="#EB9481"/><path d="M362.092 264.778c-2.195 1.444-4.421 2.887-6.481 4.511a82.663 82.663 0 00-5.955 5.151 45.595 45.595 0 00-6.676 7.774c3.797-4.782 11.067-10.737 13.127-12.368 2.061-1.632 4.023-3.361 6.076-4.993.052-.037-.008-.105-.091-.075zM368.145 272.101c-2.722 1.963-5.489 3.812-8.128 5.895a185.113 185.113 0 00-8.669 7.346c-.188.173 0 .518.181.353 2.556-2.143 6.345-5.068 8.932-7.188 2.586-2.12 5.09-4.331 7.737-6.346.045-.03-.008-.09-.053-.06zM374.446 277.455c-4.309 2.782-8.098 6.36-11.737 9.962-.181.18 0 .21.225.037 3.835-3.383 6.827-6.06 11.609-9.849.075-.06-.007-.211-.097-.15z" fill="#263238"/><path d="M401.52 255.44c-6.218-.294-24.458-1.075-30.676-.85-5.481.196-10.067 1.196-14.797 4.053-10.135 6.127-16.804 13.533-18.473 15.789-1.015 1.346-2.504 3.489-1.286 5.075 1.504 1.932 7.271.338 13.534-4.88.225-.188.098-.323-.135-.15-8.76 6.534-12.106 5.601-12.94 4.391-.541-.752.06-2.075.616-3.06a19.65 19.65 0 013.166-3.88 84.437 84.437 0 0113.293-10.767 32.87 32.87 0 0117.421-5.744c6.368-.271 23.932.609 30.292.248.128 0 .113-.218-.015-.225z" fill="#263238"/><path d="M341.626 284.868c.422-1.684 1.7-3.181 2.722-4.511a31.119 31.119 0 014.226-4.722c.067-.06.173 0 .113.098a50.429 50.429 0 00-3.76 4.556 28.41 28.41 0 00-1.684 2.737c-.489.902-1.053 1.955-.865 3.007.354 2.038 2.918 2.09 4.459 1.602a16.958 16.958 0 002.887-1.256 29.608 29.608 0 003.571-2.474c.098-.082.331-.037.234.046-2.346 2.067-6.812 6.375-10.241 4.586a3.167 3.167 0 01-1.662-3.669z" fill="#263238"/><path d="M464.106 230.094l-25.834 10.932s-7.248-18.21-8.324-29.977c-1.075-11.766 6.015-10.947 14.391-3.067 8.376 7.879 19.767 22.112 19.767 22.112z" fill="#FF725E"/><path d="M437.625 235.809c3.895-1.933 14.624-6.857 22.037-9.098.038 0 .113.158.076.18-5.857 2.835-17.94 7.602-22 9.173-.075.03-.188-.218-.113-.255z" fill="#263238"/><path d="M432.016 226.102a.036.036 0 01.014-.016.046.046 0 01.02-.005c.007 0 .014.002.02.005a.036.036 0 01.014.016c.526.887.992 1.782 1.443 2.707a145.462 145.462 0 01-1.563-6.136c0-.075.082-.097.112 0 2.098 6.015 4.346 11.925 6.316 17.947.669-.067 1.346-.15 2.007-.278a.096.096 0 01.062.015.092.092 0 01.03.115.092.092 0 01-.046.043c-.715.218-1.421.489-2.121.752a.344.344 0 01-.466-.128 89.178 89.178 0 01-3.759-10.451 26.159 26.159 0 01-.88-1.624 22.762 22.762 0 01-1.203-2.962z" fill="#263238"/><path d="M24.631 295.567h84.172l-16.782-97.63H29.075l-4.444 97.63z" fill="#DBDBDB"/><path d="M24.631 295.567h7.376l4.143-97.63h-7.075l-4.444 97.63z" fill="#A6A6A6"/><path d="M113.307 233.455l-9.414.098c-1.699-3.12-3.639-8.639-2.488-16.398.195-1.278-3.249 6.067-2.294 16.451-9.94.105-23.458.24-35.27.255-.09-4.368-.383-8.406-.383-8.406a46.37 46.37 0 01-2.188 8.414h-4.714c.556-6.767-.294-18.594-.294-18.594a58.384 58.384 0 01-6.413 18.564c-7.519-.068-12.428-.241-12.098-.572 11.722-12.172 3.64-19.36 7.203-30.165 4.27-12.939 16.158-14.857 16.113-24.616 0-7.94-.61-22.36 10.075-25.308 0 0 8.894-8.827 22.27-3.759 16.541 6.271 9.158 30.676 10.143 35.669 1.406 7.127 4.902 9.684 7.323 17.826 2.421 8.143-1.654 13.639-2.256 19.203-.601 5.564 6.572 11.346 4.685 11.338z" fill="#263238"/><path d="M37.473 231.508a27.654 27.654 0 003.85-6.91c.932-2.406.639-4.887.203-7.451a72.517 72.517 0 01-1.136-7.864 19.796 19.796 0 011.083-8.158 18.47 18.47 0 014.73-6.985 51.996 51.996 0 016.6-5.105 31.254 31.254 0 006.113-5.143 14.128 14.128 0 003.226-7.06 12.998 12.998 0 01-2.406 7.616 28.217 28.217 0 01-5.91 5.812 64.522 64.522 0 00-6.142 5.188 17.4 17.4 0 00-4.113 6.331 19.547 19.547 0 00-1.023 7.383c.075 2.542.496 5.106.752 7.745.16 1.342.21 2.694.15 4.045a11.27 11.27 0 01-1.075 4.022 23.262 23.262 0 01-4.902 6.534zM102.592 158.652c1.211 3.007 1.587 6.293 1.978 9.503.391 3.211.489 6.459.609 9.677l.218 4.812c.049 1.551.255 3.092.616 4.601.752 3.008 2.421 5.602 4.324 8.271a36.84 36.84 0 012.601 4.278 21.542 21.542 0 011.714 4.759c.323 1.637.517 3.296.579 4.963a19.747 19.747 0 01-.443 5.015c-.361 1.646-.902 3.203-1.361 4.736a23.819 23.819 0 00-.925 4.647c-.346 3.083 1.278 6.188 3.857 8.271a9.78 9.78 0 01-4.917-8.271c.018-1.66.214-3.314.586-4.932.354-1.617.827-3.166 1.061-4.699a24.272 24.272 0 00-.489-9.248 21.193 21.193 0 00-1.624-4.309 34.227 34.227 0 00-2.511-4.022 46.865 46.865 0 01-2.662-4.203 18.979 18.979 0 01-1.835-4.744 24.067 24.067 0 01-.518-4.978c-.046-1.631 0-3.248 0-4.864 0-3.226.105-6.444.045-9.654a44.486 44.486 0 00-.903-9.609z" fill="#263238"/><path d="M81.254 217.177c5.361 23.308 16.203 52.879 24.587 58.841 6.766 4.805 42.217 13.278 44.194 13.489 4.895.496 14.564-34.09 9.489-35.496-6.391-1.767-36.781-2.714-38.511-4.511-1.729-1.797-12.857-16.834-25.375-34.18-8.64-11.97-17.707-12.624-14.384 1.857z" fill="#C95F50"/><path d="M146.103 287.605c.587.301 8.865 4.458 13.985 5.947 3.819 1.105 14.902 4 16.541-.083 1.12-2.789-5.203-5.263-9.624-7.097-2.338-.978-5.21-3.414-4.511-4.917 1.195-2.617 7.203 0 11.15 2.308 7.639 4.436 17.804 12.421 22.473 8.549 1.76-1.467-.285-4.136-3.285-6.767 4.864 3.045 10.045 5.541 12.067 3.992 1.158-.88 1.218-2.09.572-3.473 1.503.488 2.827.391 3.759-.587 1.586-1.654.812-4.09-.917-6.594a1.896 1.896 0 001.436-.94c3.346-5.105-13.399-19.744-19.188-21.112-17.037-4.053-35.157-2.579-35.157-2.579-6.714 5.406-9.308 33.345-9.301 33.353z" fill="#C95F50"/><path d="M171.155 271.921a28.982 28.982 0 0111.361 4.376c4.323 2.849 7.188 6.187 10.812 9.548.09.09-.038.241-.135.151-1.73-1.594-8.88-7.602-10.73-8.97a27.546 27.546 0 00-11.345-5.03c0-.008 0-.075.037-.075zM174.328 264.695c4.511 1.226 9.068 2.467 13.226 4.579 4.548 2.316 8.105 6.098 11.601 9.737a193.548 193.548 0 016.158 6.684c.082.098-.045.248-.136.15a256.95 256.95 0 00-10.984-10.939 36.488 36.488 0 00-12.03-7.602c-2.557-.977-5.188-1.751-7.82-2.526-.075-.015-.06-.098-.015-.083zM179.11 258.372c4.353.895 8.15 1.662 12.03 3.992 5.098 3.083 10.022 8.271 11.752 10.128a156.924 156.924 0 015.549 6.263c.075.083-.076.211-.151.128a144.144 144.144 0 00-13.27-13.143 28.79 28.79 0 00-7.421-4.827 51.814 51.814 0 00-8.459-2.511s-.045-.03-.03-.03z" fill="#263238"/><path d="M120.743 246.124l-32.684-1.391s-5.94-16.195-8.12-30.571c-2.18-14.376 10.067-9.218 22.202 6.271 12.135 15.488 18.602 25.691 18.602 25.691z" fill="#FF725E"/><path d="M88.818 215.959a1.45 1.45 0 01-.624.316 1.255 1.255 0 01-1.165-.361 1.626 1.626 0 00-1.797-.308 1.596 1.596 0 00-.67.586c-.15.226-.315.436-.45.677.24-.135.45-.301.676-.451.179-.159.393-.272.624-.331a1.236 1.236 0 011.166.301 1.657 1.657 0 001.782.376c.277-.123.514-.321.684-.572.15-.225.316-.436.45-.684-.24.143-.45.308-.676.451zm1.79 15.128c-.053-.263-.083-.534-.158-.797-.075.263-.106.534-.166.797-.013.238-.082.47-.203.676a1.222 1.222 0 01-1.037.609 1.596 1.596 0 00-1.61 1.888c.053.263.091.533.166.797.075-.264.105-.534.158-.797.019-.236.096-.464.226-.662a1.25 1.25 0 011.067-.572 1.634 1.634 0 001.504-1.052c.102-.285.12-.593.053-.887zm23.225 12.157v.068a1.224 1.224 0 01-1.045.609 1.652 1.652 0 00-1.504 1 1.425 1.425 0 00-.105.805h.353c.027-.209.098-.409.211-.587a1.247 1.247 0 011.075-.579 1.65 1.65 0 001.286-.654l-.271-.662zm-13.534 1.391a1.494 1.494 0 01-.624.331 1.216 1.216 0 01-1.158-.308 1.64 1.64 0 00-1.782-.369c-.28.12-.52.319-.691.572a2.14 2.14 0 01-.15.21h.375c.182-.148.396-.253.624-.308a1.272 1.272 0 011.166.354l.045.037 2.052.083c.142-.111.266-.243.369-.391.15-.226.316-.436.451-.677-.263.143-.474.308-.699.451l.022.015zm6.015-16.939a1.452 1.452 0 01-.654-.218 1.241 1.241 0 01-.571-1.075 1.603 1.603 0 00-1.94-1.557c-.271.06-.534.09-.805.166.271.075.534.105.805.157.235.018.464.087.669.203a1.24 1.24 0 01.609 1.046 1.626 1.626 0 001 1.503c.281.117.59.146.887.083.271-.053.534-.083.797-.158-.316-.068-.579-.098-.849-.158l.052.008z" fill="#fff"/><path d="M86.954 237.643c7.067-.18 14.157.128 21.225.587 2.005.125 4.01.298 6.015.518.06 0 .06.091 0 .091-3.534 0-7.068-.113-10.602-.218a364.014 364.014 0 01-10.623-.459c-2-.113-3.993-.233-6.015-.391a.058.058 0 01-.032.003.065.065 0 01-.03-.012.062.062 0 01-.02-.024.068.068 0 01.082-.095z" fill="#263238"/><path d="M116.352 245.936l-28.286-1.203s-5.94-16.195-8.12-30.571c-.925-6.12.752-8.699 3.932-8.451l32.474 40.225z" fill="#263238"/><path d="M108.848 295.477H28.947s17.36-67.022 33.42-85.886c.361-.436.752-.85 1.098-1.233l.218-.226a17.17 17.17 0 014.293-3.323c.286-.15.564-.293.858-.421 6.188-2.842 12.721-.489 17.435 3.549 1.504 1.278 18.436 23.308 19.932 31.714 1.294 7.42-3.714 15.383-3.714 15.383l6.361 40.443z" fill="#FF725E"/><path d="M73.164 224.839a1.45 1.45 0 01-.654-.218 1.245 1.245 0 01-.571-1.076 1.596 1.596 0 00-.6-1.24 1.602 1.602 0 00-1.34-.316c-.27.053-.534.09-.797.166.263.067.526.105.797.157.236.015.465.084.67.203a1.23 1.23 0 01.608 1.038 1.652 1.652 0 001 1.504c.28.116.59.145.887.082.271-.052.534-.082.805-.157-.27-.053-.534-.091-.805-.143zm14.745 52.743a1.499 1.499 0 01-.655-.225 1.244 1.244 0 01-.571-1.075 1.588 1.588 0 00-1.94-1.549c-.27.052-.534.082-.797.158.263.075.526.105.797.157.235.021.463.09.67.203a1.24 1.24 0 01.608 1.046 1.648 1.648 0 001 1.503c.281.114.59.145.888.091.27-.061.533-.091.804-.166-.3-.022-.534-.09-.804-.143zm-35.654-30.706a1.439 1.439 0 01-.654-.218 1.266 1.266 0 01-.58-1.075 1.615 1.615 0 00-1.044-1.504 1.644 1.644 0 00-.887-.06c-.271.052-.534.09-.805.158.27.075.534.113.805.165.235.014.465.084.669.203a1.244 1.244 0 01.609 1.038 1.634 1.634 0 001 1.503c.28.117.59.146.887.083.27-.052.534-.09.797-.158a3.322 3.322 0 01-.797-.135zm31.496 48.323a1.5 1.5 0 01-.662-.219 1.254 1.254 0 01-.571-1.075 1.596 1.596 0 00-.6-1.24 1.602 1.602 0 00-1.34-.316c-.263.053-.534.09-.797.158.263.075.534.113.797.165.238.013.47.083.676.203a1.244 1.244 0 01.61 1.038 1.637 1.637 0 00.992 1.504h1.293c.134-.021.267-.048.399-.083a5.878 5.878 0 01-.797-.105v-.03zM68.24 269.237a1.575 1.575 0 01-.654-.226 1.236 1.236 0 01-.572-1.075 1.618 1.618 0 00-1.053-1.504 1.58 1.58 0 00-.857-.007c-.27.052-.534.082-.797.157.263.076.527.106.797.158.235.021.463.09.67.203a1.24 1.24 0 01.608 1.045 1.652 1.652 0 001 1.504c.282.114.59.145.888.09.27-.06.534-.09.804-.165-.3-.068-.564-.098-.834-.15v-.03zM29.57 293.296h-.053l-.09.354h.15c.264-.06.527-.091.797-.166a8.091 8.091 0 00-.804-.128v-.06zm9.97-19.315a1.45 1.45 0 01-.654-.218 1.244 1.244 0 01-.572-1.075 1.599 1.599 0 00-1.234-1.55 1.602 1.602 0 00-.706-.007l-.473.09-.045.136.518.098c.236.014.466.083.67.203a1.236 1.236 0 01.609 1.037 1.634 1.634 0 001 1.504c.28.116.59.145.887.083.27-.053.534-.083.797-.158-.248-.053-.511-.091-.797-.143zm41.894-26.436a1.561 1.561 0 01-.662-.225 1.257 1.257 0 01-.571-1.076 1.614 1.614 0 00-1.053-1.503 1.58 1.58 0 00-.887-.061c-.263.053-.534.083-.797.158.263.076.534.106.797.158.237.021.467.09.677.203a1.244 1.244 0 01.601 1.045 1.652 1.652 0 001 1.504c.284.114.594.145.895.09.263-.06.534-.09.797-.165-.248-.045-.519-.045-.782-.128h-.015zm22.037 13.834a1.559 1.559 0 01-.579-.21 1.263 1.263 0 01-.571-1.075 1.627 1.627 0 00-1.053-1.504 1.652 1.652 0 00-.887-.053c-.263.053-.526.083-.797.158.27.076.534.106.797.158.237.02.468.089.677.203a1.253 1.253 0 01.609 1.045 1.626 1.626 0 00.992 1.504c.274.11.574.142.865.09l-.053-.316zm-3.195-16.759a1.496 1.496 0 01-.624.331 1.216 1.216 0 01-1.158-.308 1.64 1.64 0 00-1.782-.369c-.28.12-.521.319-.692.572-.15.225-.316.436-.451.677.24-.136.451-.301.677-.452.182-.148.395-.253.624-.308a1.272 1.272 0 011.165.354 1.616 1.616 0 001.797.315c.273-.13.504-.333.669-.586.151-.226.316-.436.451-.677-.24.143-.451.308-.676.451zm-27.113-40.601c-.052-.248-.082-.503-.142-.751-.06.248-.09.503-.143.751-.017.238-.086.47-.203.677a1.237 1.237 0 01-1.046.602 1.657 1.657 0 00-1.503 1 1.545 1.545 0 00-.083.894c.053.263.083.534.158.797.075-.263.105-.534.165-.797.02-.234.095-.461.218-.661a1.254 1.254 0 011.076-.572 1.581 1.581 0 001.549-1.233 1.589 1.589 0 000-.707h-.046zm-6.345 46.864c-.053-.263-.083-.526-.158-.797-.076.271-.106.534-.166.797a1.503 1.503 0 01-.203.677 1.23 1.23 0 01-1.037.609 1.644 1.644 0 00-1.504 1 1.58 1.58 0 00-.083.887c.053.263.09.534.166.797.075-.263.105-.534.157-.797.02-.236.097-.463.226-.661a1.256 1.256 0 011.068-.572 1.614 1.614 0 001.504-1.052c.098-.299.108-.62.03-.925v.037zm33.03 34.88c-.053-.271-.091-.534-.166-.805-.068.271-.106.534-.158.805a1.506 1.506 0 01-.203.669 1.235 1.235 0 01-1.038.609 1.63 1.63 0 00-1.504 1c-.116.28-.145.59-.082.887.053.263.083.534.158.797.075-.263.113-.534.165-.797.02-.235.095-.461.218-.662a1.277 1.277 0 011.075-.571 1.623 1.623 0 001.504-1.045c.097-.299.108-.62.03-.925v.038zM53.63 225.44c-.053-.271-.09-.534-.158-.804-.075.27-.113.533-.166.804a1.502 1.502 0 01-.203.669 1.267 1.267 0 01-.789.579c-.113.226-.218.459-.323.692h.082a1.606 1.606 0 001.24-.599 1.604 1.604 0 00.317-1.341zm36.977 5.647c-.053-.263-.083-.534-.158-.797-.075.263-.106.534-.166.797-.013.238-.082.47-.203.676a1.223 1.223 0 01-1.037.609 1.596 1.596 0 00-1.61 1.888c.053.263.091.533.166.797.075-.264.106-.534.158-.797.019-.236.096-.464.226-.662a1.249 1.249 0 011.067-.571 1.635 1.635 0 001.504-1.053c.102-.285.12-.593.053-.887zm-34.173 47.458c-.06-.264-.09-.527-.165-.797-.075.27-.105.533-.158.797a1.589 1.589 0 01-.203.676 1.252 1.252 0 01-1.045.609 1.646 1.646 0 00-1.504.993 1.55 1.55 0 00-.083.895c.053.263.083.533.158.797.075-.264.106-.534.166-.797.02-.235.094-.462.218-.662a1.253 1.253 0 011.075-.572 1.591 1.591 0 001.24-.599 1.6 1.6 0 00.316-1.34h-.015zm32.383-62.578c-.179.154-.393.263-.624.315a1.256 1.256 0 01-1.165-.36 1.629 1.629 0 00-1.797-.309 1.606 1.606 0 00-.67.587c-.15.225-.315.436-.45.676.24-.135.45-.3.676-.451.179-.158.393-.271.624-.331a1.236 1.236 0 011.166.301 1.648 1.648 0 001.782.376c.277-.122.514-.32.684-.571.15-.226.316-.436.45-.684-.24.135-.45.3-.676.443v.008zm-21.57 19.548a1.341 1.341 0 01-.625.308 1.258 1.258 0 01-1.165-.353 1.625 1.625 0 00-.85-.436 1.623 1.623 0 00-.947.12 1.657 1.657 0 00-.67.587c-.15.225-.315.436-.45.676.24-.135.45-.3.676-.451.182-.153.395-.266.624-.33a1.248 1.248 0 011.166.308 1.629 1.629 0 001.781.368c.28-.119.517-.318.685-.571.15-.226.316-.436.45-.677-.24.12-.45.286-.676.436v.015zM52.63 264.297c-.178.152-.39.26-.617.316a1.267 1.267 0 01-1.165-.361 1.641 1.641 0 00-1.805-.309 1.606 1.606 0 00-.669.587c-.15.225-.316.436-.45.677.24-.136.45-.301.683-.452.175-.16.387-.273.617-.33a1.23 1.23 0 011.165.3 1.658 1.658 0 001.782.376c.28-.12.521-.318.692-.571.15-.226.316-.436.451-.684-.24.12-.451.323-.684.436v.015zm6.323 29.909c-.18.153-.394.261-.624.316a1.255 1.255 0 01-1.165-.361 1.641 1.641 0 00-1.805-.308 1.596 1.596 0 00-.67.586c-.142.226-.307.436-.45.677.248-.136.459-.301.684-.451.177-.158.388-.271.617-.331a1.22 1.22 0 011.165.301 1.657 1.657 0 001.782.376c.28-.12.52-.319.692-.572.15-.225.315-.436.45-.684-.24.12-.45.293-.676.436v.015zm28.278-32.864c-.181.15-.395.256-.624.308a1.252 1.252 0 01-1.166-.353 1.631 1.631 0 00-1.804-.316 1.589 1.589 0 00-.662.586c-.15.226-.316.437-.458.677.248-.135.458-.301.684-.451.18-.153.39-.266.616-.331a1.23 1.23 0 011.166.308 1.64 1.64 0 001.782.369c.28-.12.52-.318.691-.572.15-.225.316-.436.452-.676-.249.12-.452.27-.677.436v.015zm18.157 12.173a1.183 1.183 0 01-.481-.309 1.661 1.661 0 00-1.804-.315 1.706 1.706 0 00-.669.586c-.151.233-.316.444-.452.684.241-.135.452-.3.677-.451a1.59 1.59 0 01.624-.338 1.248 1.248 0 011.166.308c.279.28.65.451 1.045.481l-.106-.646zm-31.435 8.781a1.5 1.5 0 01-.624.309 1.252 1.252 0 01-1.166-.354 1.602 1.602 0 00-1.964-.224 1.604 1.604 0 00-.502.495c-.15.226-.316.436-.45.677.24-.136.45-.301.676-.451.18-.153.39-.266.616-.331a1.219 1.219 0 011.166.308 1.631 1.631 0 001.782.368c.283-.115.524-.315.691-.571.15-.226.316-.436.451-.677-.24.121-.45.286-.676.436v.015zm-30.128 4.121a1.51 1.51 0 01-.624.308 1.251 1.251 0 01-1.165-.353 1.61 1.61 0 00-1.797-.316 1.56 1.56 0 00-.67.586c-.15.226-.315.436-.458.677.248-.135.459-.301.684-.451.18-.153.39-.266.617-.331a1.23 1.23 0 011.165.308 1.64 1.64 0 001.782.369c.284-.116.525-.315.692-.572.15-.225.316-.436.451-.676-.24.12-.451.285-.677.436v.015z" fill="#fff"/><path d="M90.495 252.139a69.258 69.258 0 00-10.09 1.745 68.74 68.74 0 00-4.865 1.503 67.31 67.31 0 01-2.42.752c-.844.277-1.717.451-2.602.519-.075 0-.075.12 0 .12.835.034 1.671.011 2.504-.067a17.519 17.519 0 002.39-.474c1.67-.429 3.316-.932 4.985-1.376 3.361-.895 6.715-1.79 10.135-2.436.136-.008.136-.286-.037-.286zM98.938 255.147a73.595 73.595 0 00-8.45-.331c-1.414 0-2.813.135-4.211.285l-2.008.249c-.751.097-1.458.293-2.195.383a.067.067 0 00-.033.025.066.066 0 00-.012.039.067.067 0 00.045.064c.692-.068 1.406 0 2.105 0l2.105-.075c1.406-.045 2.812-.076 4.218-.136 2.812-.12 5.617-.21 8.429-.233.165-.075.15-.27.007-.27z" fill="#263238"/><path d="M60.796 211.395c-13.466 14.429-45.51 68.563-35.12 78.548 10.391 9.985 68.037-3.459 84.21-11.173 4.819-2.293-13.489-32.33-19.15-33.029-4.715-.587-28.812 10.443-29.511 9.022-.752-1.564 4.691-11.624 10.488-32.556 6.707-24.112-4.962-17.188-10.917-10.812zM114.728 236.049c11.714-1.632 14.969-.256 24.12-6.88 6.014-4.345 11.353-2.375 7.924 4.512-5.601 11.278-20.263 16.541-25.872 16.932l-6.172-14.564z" fill="#C95F50"/><path d="M83.593 247.32s13.157-7.309 25.458-10.278c8.511-2.053 27.526-4.467 45.714 14.285 4.315 4.451 7.308 13.849-2.384 9.143-6.879-3.346-10.233-7.519-14.586-8.76 0 0 2.391 12.406-2.256 16.542a114.956 114.956 0 01-12.857 9.977 23.888 23.888 0 01-2.082-2.256s-4.684 3.466-13.534 2.632L83.593 247.32z" fill="#C95F50"/><path d="M117.487 236.35c4.068 2.12 12.616 6.767 18.285 12.985 6.301 6.917 16.541 21.939 11.421 26.541-3.759 3.368-8.21-2.023-8.21-2.023s2.94 7.105-1.143 9.406c-3.714 2.09-6.887-2.256-6.887-2.256s1.037 4.617-2.932 5.948c-4.775 1.594-6.173-8.339-12.406-10.903-1.399-.601 1.872-39.698 1.872-39.698z" fill="#C95F50"/><path d="M127.359 254.801c3.496 2.624 9.917 10.616 11.692 18.902.037.188-.083.315-.158.15a91.933 91.933 0 00-11.602-18.992c-.03-.038.023-.09.068-.06zM120.555 261.365c2.789 2.571 9.022 11.112 10.526 19.548 0 .188-.098.308-.166.143a98.536 98.536 0 00-10.451-19.654s.061-.067.091-.037zM137.795 251.643c3.819 1.12 6.301 3.007 9.519 5.263a50.16 50.16 0 004.917 3.113c1.556.842 3.849 2.113 5.503.797.918-.752.903-2.068.7-3.113a8.319 8.319 0 00-1.384-3.301c0-.045.053-.112.09-.06a11.264 11.264 0 011.579 2.82 5.13 5.13 0 01.346 3.007c-.564 2.105-3.045 2.384-4.804 1.805a16.802 16.802 0 01-3.008-1.459 41.76 41.76 0 01-2.706-1.699c-1.812-1.226-3.557-2.557-5.354-3.805a49.388 49.388 0 00-5.458-3.173.103.103 0 01-.061-.049.104.104 0 01.043-.139.105.105 0 01.078-.007z" fill="#263238"/><path d="M145.787 265.064c-.985-2.173-6.33-11.233-8.067-13.331a.059.059 0 01-.015-.04.062.062 0 01.018-.039.056.056 0 01.041-.014c.015 0 .028.007.038.018 2.97 2.819 7.752 10.308 8.865 12.707 1.113 2.398 2.368 5.398 2.368 8.045 0 3.984-2.646 4.736-3.624 4.932a5.173 5.173 0 01-3.391-.557 10.418 10.418 0 01-3.075-2.887c-.037-.052 0-.128.083-.075 1.376 1.571 3.677 3.12 5.842 2.835a3.63 3.63 0 002.466-1.331 4.73 4.73 0 00.632-3.211 21.664 21.664 0 00-2.181-7.052z" fill="#263238"/><path d="M131.103 280.928c.557.474 1.7 2.128 3.512 2.481a4.137 4.137 0 003.759-.834 5.196 5.196 0 001.428-3.624 32.459 32.459 0 00-.834-5.023c0-.075.083-.113.105-.037a18.629 18.629 0 011.196 5.398 5.432 5.432 0 01-1.504 3.97 4.08 4.08 0 01-4.173.872c-.707-.271-2.955-1.707-3.601-3.128-.053-.03.09-.097.112-.075zM115.991 275.334a9.832 9.832 0 011.691 1.429 38.244 38.244 0 011.625 1.669 22.72 22.72 0 012.759 3.759c.804 1.354 1.549 2.857 2.857 3.797a3.756 3.756 0 004.368.113 3.689 3.689 0 001.361-2.023 7.249 7.249 0 00.256-2.721c0-.014.005-.028.015-.038a.058.058 0 01.037-.015c.014 0 .028.006.038.015.01.01.015.024.015.038.148.813.213 1.639.196 2.466a4.368 4.368 0 01-.752 2.105 4.156 4.156 0 01-4.068 1.504 6.113 6.113 0 01-3.759-2.917c-1.008-1.504-1.842-3.113-2.917-4.579-.564-.752-1.121-1.549-1.737-2.256-.617-.707-1.421-1.436-2.015-2.256a.072.072 0 01-.001-.05.072.072 0 01.031-.04z" fill="#263238"/><path d="M111.329 278.733a33.904 33.904 0 006.406-1.331c.068 0 .166.165.105.203-1.014.46-2.076.811-3.165 1.045a11.34 11.34 0 01-3.338.203c-.053-.008-.083-.113-.008-.12zM39.45 265.327a84.294 84.294 0 0110.617-6.06 82.613 82.613 0 0111.278-4.361c2.195-.692 4.413-1.278 6.631-1.88.068 0 .09.083 0 .106-3.876 1.2-7.68 2.626-11.39 4.27a336.03 336.03 0 00-10.978 4.978c-2.052.977-4.06 2.045-6.082 3.09a.078.078 0 01-.062.005.079.079 0 01-.047-.039.082.082 0 01-.006-.062.082.082 0 01.04-.047z" fill="#263238"/><path d="M33.21 245.417l32.699-1.082s6.082-16.135 8.398-30.496c2.316-14.361-9.443-9.97-21.714 5.398-12.27 15.369-19.383 26.18-19.383 26.18z" fill="#FF725E"/><path d="M41.413 236.177c-.179.154-.393.26-.624.308a1.212 1.212 0 01-1.113-.308c-.128.18-.263.361-.383.541a1.622 1.622 0 001.654.256c.282-.114.523-.31.691-.564.15-.233.316-.444.452-.684-.241.135-.452.301-.677.451zm25.834-.677a1.341 1.341 0 01-.624.308 1.258 1.258 0 01-1.165-.353 1.625 1.625 0 00-.85-.436 1.623 1.623 0 00-.947.12 1.657 1.657 0 00-.67.587c-.15.225-.315.436-.45.676.24-.135.45-.3.676-.451.182-.153.395-.266.624-.33a1.248 1.248 0 011.166.308 1.629 1.629 0 001.781.368c.28-.119.517-.318.685-.571.15-.226.316-.436.45-.677-.24.135-.45.301-.676.451zm-13.616-10.097c-.053-.271-.09-.534-.158-.805-.075.271-.113.534-.166.805a1.504 1.504 0 01-.203.669 1.236 1.236 0 01-1.037.609 1.658 1.658 0 00-1.504 1c-.116.28-.145.59-.083.887.053.271.09.534.166.804.068-.27.105-.533.158-.804.017-.234.095-.459.225-.654a1.217 1.217 0 011.068-.572 1.592 1.592 0 001.24-.599 1.6 1.6 0 00.316-1.34h-.022zm18.24-20.173a.937.937 0 01-.248 0 1.65 1.65 0 00-1.504 1 1.549 1.549 0 00-.082.895c.052.263.082.534.157.797.076-.263.106-.534.166-.797.02-.235.094-.462.218-.662a1.253 1.253 0 011.075-.571c.355-.014.695-.144.97-.369a3.172 3.172 0 00-.752-.293zm-15.097 9.165c.254-.125.47-.317.624-.556l.233-.331c-.286.286-.572.587-.857.887zm-6.767 29.722a1.654 1.654 0 00-.887-.061c-.271.053-.534.091-.805.158.27.076.534.113.805.166.236.014.465.083.669.203.122.074.231.168.323.278h.752a1.573 1.573 0 00-.887-.744h.03zm21.932-20.549a1.604 1.604 0 00-1.234-1.55 1.602 1.602 0 00-.706-.006c-.27.052-.534.09-.797.165.263.068.526.105.797.158.236.014.465.084.67.203a1.224 1.224 0 01.608 1.038 1.66 1.66 0 00.684 1.345c.053-.225.113-.443.166-.669a1.186 1.186 0 01-.188-.684z" fill="#fff"/><path d="M64.563 244.229c.173 0 1.323-.203 1.33-.203.083-.428 1.948-7.172 2.437-8.646 1-3.008 2.173-5.932 3.308-8.872.038-.09.18-.053.15.045-.751 2.534-1.428 5.083-2.188 7.609.226-.361.452-.752.67-1.09.443-.752.827-1.504 1.24-2.294 0-.067.15 0 .128.061a12.897 12.897 0 01-2.293 4.165c-.068.203-.128.421-.196.624-.458 1.504-2.857 8.782-3.007 8.789h-1.58c-.06.03-.09-.188 0-.188zM38.503 239.087c7.053-.527 14.15-.557 21.233-.451 2.005.03 4.01.107 6.015.233.06 0 .068.082 0 .082-3.526.188-7.06.233-10.594.301-3.534.068-7.09.105-10.631.068-2 0-4-.038-6.015-.098a.058.058 0 01-.026-.004.066.066 0 01-.042-.086.077.077 0 01.014-.023.082.082 0 01.02-.016.057.057 0 01.026-.006z" fill="#263238"/><path d="M72.142 205.32c.128 1.429 5.436 11.346 11.797 11.955 2.075.196 3.639-11.067 3.639-11.067l.308-.805 4.27-11.278-12.413-10.737-1.812-1.451s-.962 3.166-2.128 7.113c-.052.18-.112.361-.165.556-.053.196-.143.436-.203.647-.18.586-.36 1.188-.534 1.789-.128.451-.255.903-.376 1.384-.12.481-.255.955-.383 1.443a76.728 76.728 0 00-2 10.451z" fill="#C95F50"/><path d="M75.803 189.065a24.155 24.155 0 0012.083 16.338l4.27-11.278-12.413-10.737-1.812-1.451s-.962 3.181-2.128 7.128z" fill="#263238"/><path d="M107.374 170.817c5.767 20.353-5.774 26.105-10.165 27.345-3.985 1.121-17.699 4.444-25.563-15.202-7.865-19.647-.196-28.759 8.781-31.812 8.978-3.053 21.181-.684 26.947 19.669z" fill="#C95F50"/><path d="M102.983 167.87c-.484.049-.971.071-1.458.067a2.378 2.378 0 01-1.504-.218.749.749 0 01-.233-.887 1.872 1.872 0 011.669-.887 2.737 2.737 0 011.91.511.803.803 0 01.274.833.795.795 0 01-.658.581zM90.435 174.14c.481-.128.902-.331 1.368-.504.503-.104.96-.368 1.3-.751a.755.755 0 00-.142-.903 1.856 1.856 0 00-1.88-.165 2.768 2.768 0 00-1.564 1.21.805.805 0 00.918 1.113zM93.954 176.2c0-.052-.09.098-.076.151.436 1.376.707 3.007-.413 3.834-.038 0 0 .098.037.076 1.467-.625 1.083-2.805.452-4.061z" fill="#263238"/><path d="M92.3 175.133c-2.256.458-1.174 4.977.932 4.548 2.105-.428.977-4.939-.933-4.548z" fill="#263238"/><path d="M91.472 175.584c-.33.353-.609.894-1.075 1.06-.466.165-1.068-.188-1.504-.549-.052-.045-.082 0-.067.068.195.864.752 1.676 1.707 1.579.954-.098 1.293-1 1.3-1.925-.03-.173-.225-.369-.36-.233zM101.713 173.719c0-.06.12.038.135.098.286 1.414.85 3.007 2.256 3.15.045 0 .052.076 0 .076-1.624.15-2.346-1.94-2.391-3.324z" fill="#263238"/><path d="M102.623 171.96c2.21-.699 3.451 3.759 1.398 4.428-2.053.67-3.256-3.842-1.398-4.428z" fill="#263238"/><path d="M103.638 171.997c.421.136.887.474 1.315.384.429-.09.752-.692.918-1.241 0-.06.06 0 .082 0 .256.85.218 1.82-.556 2.211-.774.391-1.504-.226-1.902-1.023-.045-.113-.045-.391.143-.331zM96.683 186.682c.406.263.827.654 1.353.594a3.827 3.827 0 001.451-.647c.038 0 .09 0 .076.06a1.938 1.938 0 01-1.647 1.113 1.51 1.51 0 01-1.353-1.03c-.046-.045.06-.128.12-.09zM101.194 180.892s.82 2.015 1.075 3.008c0 .097-3.376 1.751-5.556-.271a.107.107 0 01-.015-.133.111.111 0 01.057-.043.108.108 0 01.07.003 7.226 7.226 0 004.579.135c0-.293-1.503-3.398-1.368-3.451a9.019 9.019 0 012.361-.067c-1.586-4.233-3.842-8.181-5.36-12.429a.137.137 0 01.055-.184.136.136 0 01.184.056c2.655 3.97 4.595 8.812 6.347 13.143.203.526-2.008.301-2.429.233z" fill="#263238"/><path d="M90.307 153.396s1.353 3.008.647 5.436c-1.436 5.023-7.248 4.745-8.85 6.903-1.504 2.022-.278 5.488-1.617 7.481-1.85 2.766-5.067 2.353-5.165 4.022-.098 1.669-.308 6.97-2.255 7.962-1.948.993-17.053-31.443 9.894-34.871 0 0 3.436-2.166 9.609-.211 7.143 2.256 11.631 12.376 11.631 12.376a9.345 9.345 0 00-1.548-1.15c-1.504-.925-2.158-1.895-3.233-2.474-1.677-.91-2.421-.331-4.158-1.203a17.782 17.782 0 01-4.955-4.271z" fill="#263238"/><path d="M89.653 151.99a17.96 17.96 0 011.466 3.963 7.593 7.593 0 01.098 4.075 5.632 5.632 0 01-2.67 2.902c-1.195.684-2.578 1.053-3.856 1.834a4.187 4.187 0 00-1.542 1.662 5.58 5.58 0 00-.444 2.188c-.052 1.421-.112 2.82-.864 3.955a4.71 4.71 0 01-3.353 2.128c-1.354.225-2.903.097-4.12.909 1.278-.714 2.736-.458 4.157-.586a5.129 5.129 0 003.76-2.15c.917-1.241.962-2.835 1.045-4.203a5.06 5.06 0 01.406-1.948 3.568 3.568 0 011.353-1.361c1.135-.751 2.534-1.127 3.797-1.864a7.41 7.41 0 001.737-1.369 4.46 4.46 0 001.127-1.917 7.991 7.991 0 00-.33-4.308 18.325 18.325 0 00-1.767-3.91z" fill="#263238"/><path d="M90.367 153.118a14.794 14.794 0 001.917 3.474c.79 1.129 1.897 2 3.18 2.503.643.199 1.302.335 1.97.406a3.166 3.166 0 011.61.752c.429.508.907.971 1.428 1.384a4.365 4.365 0 001.872.706 4.857 4.857 0 01-1.661-.962 9.772 9.772 0 01-1.256-1.504 3.434 3.434 0 00-1.865-.985 10.094 10.094 0 01-1.864-.421 7.302 7.302 0 01-3.008-2.21 28.813 28.813 0 01-2.323-3.143z" fill="#263238"/><path d="M69.683 179.358s-8.135-15.481.654-24.466c9.12-9.315 21.804-5.894 21.804-5.894s-13.819.864-19.548 8.36c-6.64 8.715-2.91 22-2.91 22z" fill="#FF725E"/><path d="M92.066 184.2a6.693 6.693 0 01-6.538-2.746 6.7 6.7 0 1111.613-6.539 6.705 6.705 0 01-3.466 8.804 6.512 6.512 0 01-1.609.481zm-2-12.345a5.806 5.806 0 00-4.304 8.253 5.806 5.806 0 0010.903-1.307 5.802 5.802 0 00-6.599-6.946zM106.833 179.915c-2.534.406-5.263-1.812-6.203-5.173a7.97 7.97 0 01.075-4.895 4.178 4.178 0 012.885-2.917 4.174 4.174 0 013.987.962 8.018 8.018 0 012.647 4.113c1.007 3.556-.323 7.06-2.962 7.812a4.417 4.417 0 01-.429.098zm-2.632-12.196a1.858 1.858 0 00-.33.076 3.55 3.55 0 00-2.256 2.36 7.15 7.15 0 00-.06 4.339c.88 3.075 3.346 5.082 5.526 4.458 2.181-.624 3.218-3.624 2.346-6.699a7.114 7.114 0 00-2.338-3.661 3.681 3.681 0 00-2.888-.873z" fill="#DBDBDB"/><path d="M97.134 175.727l-.752-.504c.752-1.098 2.692-2.849 4.744-1.609l-.458.752c-1.835-1.098-3.466 1.256-3.534 1.361zM67.736 185.802l-.88-.181c.083-.406.865-4.022 2.7-4.887 1.714-.797 14.736-3.248 15.24-3.338l.158.879c-3.399.624-13.692 2.655-15.038 3.271-1.346.617-1.977 3.263-2.18 4.256z" fill="#DBDBDB"/><path d="M74.991 182.065s-5.774-5.616-8.406-3.436c-2.631 2.18 2.58 10.932 6.279 11.556a3.582 3.582 0 004.346-2.797l-2.219-5.323z" fill="#C95F50"/><path d="M68.112 181.103a.045.045 0 00-.024.019.053.053 0 000 .059.05.05 0 00.024.019c2.616.512 4.323 2.519 5.661 4.669-.894-.751-1.97-1.06-3.007 0-.053.061 0 .143.09.121a2.2 2.2 0 012.526.293 10.513 10.513 0 011.504 1.707c.158.195.526 0 .399-.233a.121.121 0 010-.053c-.542-3.068-3.775-6.925-7.173-6.601z" fill="#263238"/><path d="M61.653 209.756s14.587 10.459 22.925 9.376c8.338-1.083 7.594-9.15 7.594-9.15s-8.346-7.308-18.188-6.842c-7.135.331-12.33 6.616-12.33 6.616z" fill="#C95F50"/><path d="M10.083 295.567l59.999-.188 59.991-.06 119.991-.128 119.991.12 59.991.068 59.999.188-59.999.181-59.991.067-119.991.121-119.991-.121-59.991-.067-60-.181z" fill="#263238"/><path d="M189.102 293.672h-83.6v3.752h83.6v-3.752z" fill="#455A64"/><path d="M147.584 293.672h-42.082v3.752h42.082v-3.752z" fill="#263238"/><path d="M146.607 297.424h81.48l11.511-55.337h-81.48l-11.511 55.337z" fill="#37474F"/><path d="M186.787 270.988a4.78 4.78 0 001.18 3.832 4.807 4.807 0 003.677 1.597 6.183 6.183 0 006.015-5.429 4.8 4.8 0 00-2.849-5.034 4.786 4.786 0 00-2.016-.394 6.171 6.171 0 00-6.007 5.428z" fill="#fff"/><path d="M393.347 293.672h-83.6v3.752h83.6v-3.752z" fill="#455A64"/><path d="M393.355 293.672h-42.082v3.752h42.082v-3.752z" fill="#263238"/><path d="M352.243 297.424H270.77l-11.511-55.337h81.473l11.511 55.337z" fill="#37474F"/><path d="M312.063 270.988a4.797 4.797 0 01-4.857 5.429 6.174 6.174 0 01-6.015-5.429 4.808 4.808 0 01.17-2.044 4.807 4.807 0 012.674-2.988 4.784 4.784 0 012.013-.396 6.176 6.176 0 016.015 5.428z" fill="#fff"/><path d="M340.897 228.47c-7.278 0-12.977-15.27-12.977-34.766s5.699-34.797 12.977-34.797c7.278 0 12.977 15.271 12.977 34.767 0 19.496-5.699 34.796-12.977 34.796zm0-67.277c-5.18 0-10.721 13.068-10.721 32.511 0 19.443 5.541 32.511 10.721 32.511 5.181 0 10.722-13.06 10.722-32.511s-5.541-32.541-10.722-32.541v.03z" fill="#FF725E"/><path d="M319.131 214.546c-4.136 0-7.03-1.173-8.339-3.444-1.842-3.188-.255-7.977 4.459-13.481 4.466-5.21 11.278-10.586 19.157-15.135 7.88-4.549 15.948-7.759 22.692-9.022 7.128-1.331 12.03-.316 13.902 2.872 1.872 3.188.256 7.977-4.459 13.481-4.466 5.21-11.278 10.586-19.157 15.142-7.88 4.557-15.947 7.752-22.692 9.023a30.467 30.467 0 01-5.563.564zm43.608-39.406a28.933 28.933 0 00-5.218.542c-6.496 1.218-14.286 4.323-21.977 8.751-7.692 4.429-14.286 9.639-18.571 14.654-3.993 4.662-5.527 8.624-4.226 10.887 1.301 2.263 5.511 2.91 11.541 1.782 6.496-1.21 14.286-4.323 21.977-8.752 7.692-4.428 14.286-9.638 18.572-14.653 3.992-4.655 5.526-8.624 4.225-10.888-.895-1.548-3.113-2.338-6.331-2.338l.008.015z" fill="#FF725E"/><path d="M362.664 214.546a30.477 30.477 0 01-5.564-.572c-6.767-1.263-14.804-4.466-22.692-9.022-7.887-4.556-14.691-9.955-19.157-15.15-4.714-5.504-6.301-10.293-4.459-13.481 1.842-3.188 6.767-4.203 13.902-2.872 6.767 1.263 14.805 4.466 22.692 9.022 7.887 4.556 14.691 9.925 19.157 15.135 4.715 5.504 6.301 10.293 4.459 13.481-1.308 2.271-4.203 3.459-8.338 3.459zm-43.609-39.406c-3.218 0-5.436.79-6.323 2.324-1.301 2.255.233 6.233 4.226 10.887 4.3 5.015 10.902 10.225 18.571 14.654 7.669 4.428 15.481 7.518 21.977 8.751 6.015 1.128 10.233.482 11.541-1.782 1.308-2.263-.233-6.225-4.225-10.887-4.301-5.015-10.895-10.218-18.572-14.654-7.676-4.436-15.481-7.518-21.977-8.751a28.944 28.944 0 00-5.21-.557l-.008.015z" fill="#FF725E"/><path d="M340.897 198.809a5.105 5.105 0 100-10.21 5.105 5.105 0 000 10.21zM190.418 168.539l-34.909 57.818-34.917-57.818h25.977l8.94 16.789 8.932-16.789h25.977z" fill="#FF725E"/><path opacity=".1" d="M177.027 168.539l-21.518 36.676-21.526-36.676h12.586l8.94 16.789 8.932-16.789h12.586z" fill="#000102"/><path d="M288.364 108.863l-8.902 50.24-29.398 9.338-29.398-9.338-8.902-50.24 38.3-18.699 38.3 18.699z" fill="#FF725E"/><path opacity=".1" d="M250.064 164.441V94.164l34.345 16.767-7.977 45.059-26.368 8.451z" fill="#000"/><path d="M246.695 109.179h6.767l15.038 39.496h-7.91l-3.669-9.85h-13.782l-3.601 9.85h-7.918l15.075-39.496zm8.85 24.248l-5.481-15.519-5.677 15.519h11.158z" fill="#fff"/><path d="M281.011 172.08l3.301 7.977-3.294 1.361-3.323-8.03-5.451 4.233v-22.465l15.729 15.887-6.962 1.037zM272.244 152.712a2.996 2.996 0 01-.195-1.128 2.993 2.993 0 01.195-1.135c.14.362.209.747.203 1.135.005.386-.064.769-.203 1.128zM270.304 153.517a3.303 3.303 0 01-1.601-1.594c.355.151.674.374.94.654.279.268.503.587.661.94zM269.492 155.464c-.729.26-1.526.26-2.255 0a3.229 3.229 0 012.255 0zM270.304 157.404a3.355 3.355 0 01-1.601 1.601 3.355 3.355 0 011.601-1.601zM274.996 155.464a3.016 3.016 0 011.128-.203c.388-.006.773.063 1.135.203a2.993 2.993 0 01-1.135.195 2.996 2.996 0 01-1.128-.195zM274.191 153.517c.159-.351.381-.67.655-.94a2.88 2.88 0 01.939-.654 2.88 2.88 0 01-.654.939c-.27.274-.589.496-.94.655z" fill="#263238"/></svg>