<svg width="500" height="342" fill="none" xmlns="http://www.w3.org/2000/svg"><path d="M471.302 305.146l-.959 17.653a1.196 1.196 0 01-1.182 1.131l-31.773.231a1.196 1.196 0 01-1.204-1.182l-.101-13.746a1.197 1.197 0 011.197-1.196h19.534c.156 0 .311-.03.456-.089.144-.06.276-.147.387-.257l3.373-3.374c.223-.219.523-.344.836-.346l8.232-.057a1.177 1.177 0 01.866.358 1.182 1.182 0 01.338.874z" fill="#FF725E"/><path opacity=".3" d="M471.302 305.146l-.959 17.653a1.196 1.196 0 01-1.182 1.131l-31.773.231a1.196 1.196 0 01-1.204-1.182l-.101-13.746a1.197 1.197 0 011.197-1.196h19.534c.156 0 .311-.03.456-.089.144-.06.276-.147.387-.257l3.373-3.374c.223-.219.523-.344.836-.346l8.232-.057a1.177 1.177 0 01.866.358 1.182 1.182 0 01.338.874z" fill="#000"/><path d="M436.208 326.705l34.713-.255-.152-20.744-34.713.255.152 20.744z" fill="#F5F5F5"/><path d="M473.551 307.547l-2.494 21.624a.775.775 0 01-.757.685l-33.827.245a.776.776 0 01-.772-.721l-1.859-21.624a.779.779 0 01.721-.837l38.203-.281a.773.773 0 01.785.909z" fill="#E0E0E0"/><path d="M480.644 301.816l-.959 17.66a1.192 1.192 0 01-1.182 1.132l-31.766.23a1.194 1.194 0 01-.848-.34 1.184 1.184 0 01-.356-.842l-.101-13.746a1.195 1.195 0 011.189-1.196h19.542a1.201 1.201 0 00.843-.346l3.373-3.374c.22-.22.518-.344.829-.346l8.239-.057a1.187 1.187 0 01.861.356 1.173 1.173 0 01.336.869z" fill="#EBEBEB"/><path d="M445.56 323.371l34.713-.255-.152-20.744-34.713.255.152 20.744z" fill="#F5F5F5"/><path d="M482.9 304.216l-2.494 21.625a.773.773 0 01-.757.684l-33.828.245a.766.766 0 01-.771-.72l-1.86-21.625a.772.772 0 01.185-.567.765.765 0 01.536-.262l38.203-.281a.777.777 0 01.768.563c.031.11.037.225.018.338z" fill="#EBEBEB"/><path d="M491.168 305.946l-.959 17.66a1.186 1.186 0 01-1.182 1.124l-31.773.238a1.196 1.196 0 01-.846-.345 1.194 1.194 0 01-.351-.844l-.101-13.739a1.185 1.185 0 01.343-.85 1.2 1.2 0 01.846-.353h19.542a1.19 1.19 0 00.836-.354l3.373-3.366a1.188 1.188 0 01.836-.346l8.239-.065c.161-.001.321.031.47.093a1.202 1.202 0 01.65.675c.058.15.084.311.077.472z" fill="#F5F5F5"/><path d="M456.09 327.514l34.713-.255-.152-20.744-34.713.254.152 20.745z" fill="#FAFAFA"/><path d="M493.431 308.347l-2.494 21.624a.762.762 0 01-.721.677l-33.835.246a.768.768 0 01-.771-.721l-1.86-21.625a.76.76 0 01.197-.58.768.768 0 01.56-.249l38.203-.281a.769.769 0 01.721.909z" fill="#F5F5F5"/><path d="M453.722 311.295v30.029h43.328v-30.029h-43.328zm14.142 5.398a2.205 2.205 0 01.651-1.567 2.224 2.224 0 011.569-.645h10.603a2.218 2.218 0 012.094 2.216 2.224 2.224 0 01-2.094 2.217h-10.603a2.229 2.229 0 01-1.57-.651 2.23 2.23 0 01-.65-1.57z" fill="#EBEBEB"/><path d="M430.36 311.295v30.029h23.362v-30.029H430.36z" fill="#E0E0E0"/><path d="M81.35 100.652H.087v72.701h81.265v-72.701z" fill="#FAFAFA"/><path d="M81.35 173.353v-1.355-3.892c0-3.41 0-8.405-.05-14.755 0-12.708-.05-30.858-.093-52.699l.187.18-81.257.036.216-.216v72.701l-.194-.195 58.774.101 16.58.051h5.91H75.62l-16.535.05-58.898.094H0v-.187V100.349h81.661v.188c0 21.891-.072 40.084-.094 52.814 0 6.336 0 11.309-.043 14.719v3.856c0 .886-.173 1.427-.173 1.427z" fill="#E0E0E0"/><path d="M31.247 113.569c0 .115-4.274.216-9.55.216-5.277 0-9.559-.101-9.559-.216 0-.115 4.282-.216 9.558-.216s9.55.093 9.55.216zM65.68 119.026c0 .122-11.75.216-26.245.216-14.495 0-26.245-.094-26.245-.216 0-.123 11.75-.217 26.245-.217 14.496 0 26.245.094 26.245.217zM15.707 128.274h-3.424v3.424h3.424v-3.424zM24.133 128.274h-3.424v3.424h3.424v-3.424zM32.718 128.115h-3.424v3.424h3.424v-3.424zM40.985 128.274h-3.423v3.424h3.423v-3.424zM49.412 128.274h-3.424v3.424h3.424v-3.424zM57.838 128.274h-3.424v3.424h3.424v-3.424z" fill="#E0E0E0"/><path d="M66.272 128.274h-3.424v3.424h3.424v-3.424zM15.707 135.554h-3.424v3.424h3.424v-3.424z" fill="#EBEBEB"/><path d="M24.133 135.554h-3.424v3.424h3.424v-3.424z" fill="#E0E0E0"/><path d="M32.56 135.554h-3.425v3.424h3.424v-3.424z" fill="#EBEBEB"/><path d="M40.985 135.554h-3.423v3.424h3.423v-3.424zM49.412 135.554h-3.424v3.424h3.424v-3.424zM57.997 135.395h-3.424v3.424h3.424v-3.424zM66.272 135.554h-3.424v3.424h3.424v-3.424zM15.707 142.827h-3.424v3.424h3.424v-3.424zM24.284 142.675H20.86v3.424h3.424v-3.424zM32.56 142.827h-3.425v3.424h3.424v-3.424z" fill="#E0E0E0"/><path d="M40.985 142.827h-3.423v3.424h3.423v-3.424z" fill="#EBEBEB"/><path d="M49.412 142.827h-3.424v3.424h3.424v-3.424zM57.838 142.827h-3.424v3.424h3.424v-3.424zM66.272 142.827h-3.424v3.424h3.424v-3.424zM15.707 150.107h-3.424v3.424h3.424v-3.424zM24.133 150.107h-3.424v3.424h3.424v-3.424zM32.56 150.107h-3.425v3.424h3.424v-3.424zM41.144 149.948H37.72v3.424h3.424v-3.424zM49.412 150.107h-3.424v3.424h3.424v-3.424z" fill="#E0E0E0"/><path d="M57.838 150.107h-3.424v3.424h3.424v-3.424z" fill="#EBEBEB"/><path d="M66.272 150.107h-3.424v3.424h3.424v-3.424zM15.707 157.387h-3.424v3.424h3.424v-3.424z" fill="#E0E0E0"/><path d="M24.133 157.387h-3.424v3.424h3.424v-3.424z" fill="#EBEBEB"/><path d="M32.56 157.387h-3.425v3.424h3.424v-3.424zM40.985 157.387h-3.423v3.424h3.423v-3.424zM49.412 157.387h-3.424v3.424h3.424v-3.424zM57.997 157.229h-3.424v3.423h3.424v-3.423zM66.272 157.387h-3.424v3.424h3.424v-3.424z" fill="#E0E0E0"/><path d="M485.755 106.166a16.98 16.98 0 01-19.462-14.027 16.973 16.973 0 0114.027-19.462 16.96 16.96 0 0119.462 14.02 16.979 16.979 0 01-14.027 19.469z" fill="#EBEBEB"/><path d="M490.685 87.663l-7.54 1.233.36 2.162 5.046-.829c-.173 2.732-1.766 4.642-4.253 5.046a5.988 5.988 0 01-6.814-7.175 5.983 5.983 0 013.596-4.285 5.993 5.993 0 015.568.554l1.442-1.708a8.216 8.216 0 00-7.667-.967 8.211 8.211 0 004.257 15.772c4.325-.72 6.877-4.49 6.142-8.967l-.137-.836z" fill="#fff"/><path d="M449.527 40.645l-27.939 9.384h63.129l-26.231-9.385h-8.959z" fill="#E0E0E0"/><path d="M457.369 49.395a14.544 14.544 0 00-.209 1.65 8.202 8.202 0 001.045 4.326c.432.858.995 1.751 1.442 2.818a6.124 6.124 0 01.374 3.604 6.57 6.57 0 01-1.967 3.518 6.013 6.013 0 01-4.03 1.542 6.373 6.373 0 01-4.087-1.398 6.364 6.364 0 01-1.816-7.093c.434-.971.999-1.878 1.679-2.696.539-.665.999-1.39 1.37-2.162a5.04 5.04 0 00.439-1.867 3.607 3.607 0 00-.374-1.593c.095.11.172.234.23.368.172.386.265.802.274 1.225a4.988 4.988 0 01-.396 1.939 11.021 11.021 0 01-1.355 2.242 11.953 11.953 0 00-1.615 2.66 6.126 6.126 0 001.773 6.74 5.977 5.977 0 003.871 1.31 5.722 5.722 0 003.813-1.44 6.27 6.27 0 001.889-3.338 5.963 5.963 0 00-.325-3.467c-.418-1.038-.966-1.94-1.398-2.811a8.153 8.153 0 01-.959-4.448c.031-.416.098-.828.202-1.232.027-.137.071-.27.13-.397z" fill="#E0E0E0"/><path d="M455.062 49.986a8.79 8.79 0 01-.173 1.175c-.108.721-.252 1.846-.317 3.208a25.672 25.672 0 00.209 4.743c.033.2.123.385.26.533a.517.517 0 00.483.173c.346-.072.526-.598.461-1.009a2.043 2.043 0 00-1.946-1.701 2.025 2.025 0 00-1.99 1.643.892.892 0 00.527 1.002.786.786 0 00.908-.526c.139-.398.21-.818.209-1.24 0-.425.05-.836.058-1.24a21.233 21.233 0 00-.094-2.212 22.397 22.397 0 00-.534-3.172c-.116-.379-.21-.764-.281-1.153.05.09.091.183.123.28.108.274.202.554.281.837.307 1.041.524 2.107.649 3.186.086.744.13 1.493.129 2.242 0 .403 0 .822-.036 1.247.001.458-.075.914-.223 1.348-.102.24-.273.446-.49.59a.892.892 0 01-.8.116 1.218 1.218 0 01-.721-1.34 2.339 2.339 0 012.314-1.94 2.37 2.37 0 012.27 1.99c.035.27.001.546-.101.8a.904.904 0 01-.612.562.821.821 0 01-.779-.267 1.348 1.348 0 01-.339-.72 24.68 24.68 0 01.289-8.037c.079-.375.144-.664.202-.858.01-.09.032-.176.064-.26zM454.01 1c.02.131.02.265 0 .396v1.14c0 1.023.036 2.443.058 4.187 0 3.568 0 8.434.05 13.818.051 5.385-.043 10.257-.05 13.818 0 1.752-.044 3.172-.058 4.188v1.139c.02.131.02.265 0 .396a2.188 2.188 0 010-.396v-1.139c0-1.016 0-2.436-.05-4.188 0-3.56 0-8.433-.051-13.818-.05-5.384 0-10.25.051-13.818 0-1.744.043-3.164.05-4.188V1.396a2.187 2.187 0 010-.396z" fill="#E0E0E0"/><path d="M449.526 40.645l1.73-7.756h5.76l1.47 7.756h-8.96z" fill="#E0E0E0"/><path d="M346.717 335.377c-.994-.851-3.207-3.546-1.499-6.682.627-1.153 1.953-1.723 3.157-2.227a12.67 12.67 0 003.467-1.795c1.874-1.6 2.393-4.253 3.604-6.386 1.442-2.444 4.102-4.275 6.927-4.145 3.23.144 5.925 2.782 7.151 5.766 1.225 2.985 1.261 6.351 1.283 9.602 0 1.794-.065 3.82-1.384 5.045-1.211 1.125-3.049 1.132-4.693 1.081l-17.659-.54" fill="#F5F5F5"/><path d="M380.495 286.816h-46.464l8.362 49.887a5.572 5.572 0 003.971 4.44l.159.044c.137.036.274.079.418.108.311.062.627.098.944.108v.05l.224-.036h20.701c.383-.001.764-.04 1.139-.115a5.607 5.607 0 004.7-4.88l4.073-34.368.18-1.37 1.6-13.609-.007-.259zm-8.758 31.816h-4.772l.483-14.473h5.507l-1.218 14.473zm1.694-14.473h4.57l-1.694 14.473h-4.073l1.197-14.473zm-13.616 30.526l-.289-12.578h6.862l-.418 12.578h-6.155zm-7.418-12.578h6.668l.288 12.578h-5.982l-.974-12.578zm.512 12.578h-5.586l-1.975-12.578h6.588l.973 12.578zm-.785-16.053l-1.125-14.473h7.655l.332 14.473h-6.862zm7.323 0l-.332-14.473h7.872l-.483 14.473h-7.057zm-.411-17.948l-.31-13.407h8.823l-.447 13.407h-8.066zm-.461 0h-7.843l-1.045-13.407h8.578l.31 13.407zm-8.304 0h-8.311c-.295-1.852-.576-3.604-.822-5.182-.865-5.421-1.196-7.461-1.376-8.225h9.45l1.059 13.407zm.267 3.475l1.124 14.473H344.8c-.23-1.441-.461-2.948-.721-4.44-.54-3.416-1.081-6.833-1.585-10.033h8.044zm-6.199 14.473h-4.484l-2.429-14.473h4.628l2.285 14.473zm.54 3.475c.685 4.325 1.356 8.65 1.975 12.578h-4.324l-2.105-12.578h4.454zm21.589 12.578l.418-12.578h4.584l-1.11 12.578h-3.892zm1.131-34.001l.447-13.407h6.351l-1.146 13.407h-5.652zm-28.227-13.407c.188.973 1.038 6.242 2.163 13.407h-4.693l-2.249-13.407h4.779zm35.025 47.408h-3.604l1.074-12.578h3.986l-1.456 12.578zm3.986-34.001h-4.671l1.139-13.407h5.103l-1.571 13.407zM92.95 27.112l-6.51.065.324 32.393 6.51-.065-.325-32.393z" fill="#E0E0E0"/><path d="M46.754 27.729l-16.86.091.097 17.883 16.86-.091-.097-17.883z" fill="#EBEBEB"/><path d="M63.534 27.638l-16.86.091.097 17.883 16.86-.09-.097-17.884z" fill="#F5F5F5"/><path d="M29.92 32.766c11.212.091 22.425.04 33.641-.151a.18.18 0 000-.36c-11.201-.066-22.439 0-33.64.201a.16.16 0 00-.09.255.159.159 0 00.09.055z" fill="#E0E0E0"/><path d="M50.014 45.313l-30.627.166.079 14.575 30.626-.166-.078-14.575z" fill="#EBEBEB"/><path d="M80.503 45.156l-30.627.165.079 14.575 30.627-.166-.08-14.574z" fill="#F5F5F5"/><path d="M19.412 49.54c20.348.23 40.761 0 61.11-.303a.18.18 0 000-.36c-20.349-.102-40.77-.095-61.118.352a.159.159 0 00-.09.255.158.158 0 00.09.055h.008zM126.618 60.063H7.951v5.219h118.667v-5.219z" fill="#E0E0E0"/><path d="M32.198 62.572h-4.815V80.39h4.815V62.572zM104.114 62.572h-4.815V80.39h4.815V62.572z" fill="#E0E0E0"/><path d="M99.162 15.566l-6.509.035.241 44.553 6.51-.035-.242-44.553z" fill="#EBEBEB"/><path d="M109.327 23.858l-10.113.055.196 36.105 10.113-.055-.196-36.105z" fill="#F5F5F5"/><path d="M109.268 30.82c-1.676.18-3.362.24-5.046.18a35.4 35.4 0 01-5.046-.18 37.48 37.48 0 015.046-.173c1.684-.056 3.37.002 5.046.173zM109.268 29.306c-1.676.17-3.362.229-5.046.173a37.48 37.48 0 01-5.046-.173 36.115 36.115 0 015.046-.173c1.684-.06 3.37-.002 5.046.173zM109.268 54.542c-1.676.17-3.362.228-5.046.173a37.48 37.48 0 01-5.046-.173c1.676-.18 3.362-.24 5.046-.18 1.684-.06 3.37 0 5.046.18zM109.268 53.02c-1.676.18-3.362.24-5.046.181a35.4 35.4 0 01-5.046-.18 37.48 37.48 0 015.046-.173c1.684-.056 3.37.002 5.046.173zM104.366 49.712c-.093 0-.173-3.604-.173-8.138s.08-8.13.173-8.13c.094 0 .181 3.604.181 8.13 0 4.527-.08 8.138-.181 8.138z" fill="#E0E0E0"/><path d="M120.39 32.73h-11.014v27.254h11.014V32.73z" fill="#EBEBEB"/><path d="M97.684 23.18a1.875 1.875 0 11-1.874-1.875 1.881 1.881 0 011.874 1.874zM96.387 28.326h-1.154V54.83h1.154V28.326z" fill="#E0E0E0"/><path d="M394.68 51.976H67.071a10.22 10.22 0 00-10.228 10.22v231.381a10.23 10.23 0 0010.228 10.228h125.731s8.001 24.731-16.795 37.526h117.572s-28.025-9.601-20.817-37.504H394.68a10.229 10.229 0 0010.228-10.228V62.219a10.215 10.215 0 00-2.989-7.245 10.212 10.212 0 00-7.239-2.998z" fill="#263238"/><path d="M235.28 279.485c4.454 6.372-2.523 13.35-8.895 8.888a2.059 2.059 0 01-.541-.548c-4.447-6.365 2.516-13.328 8.888-8.888.21.153.395.338.548.548z" fill="#455A64"/><path d="M69.493 56.214h322.779a6.99 6.99 0 016.992 6.992v198.288H62.487V63.199a6.992 6.992 0 016.992-6.992l.014.007z" fill="#fff"/><path d="M399.264 74.4H62.394V62.81a6.595 6.595 0 016.595-6.596h324.768a5.413 5.413 0 015.413 5.413l.094 12.773z" fill="#EBEBEB"/><path d="M75.577 65.102a2.372 2.372 0 11-1.463-2.193 2.366 2.366 0 011.463 2.193zM82.626 65.102a2.364 2.364 0 11-4.728-.015 2.364 2.364 0 014.728.015zM89.337 65.102a2.371 2.371 0 11-1.463-2.193 2.366 2.366 0 011.463 2.193z" fill="#E0E0E0"/><path d="M336.107 303.856c0 .108-46.615.194-104.114.194s-104.114-.086-104.114-.194c0-.108 46.608-.195 104.121-.195 57.514 0 104.107.087 104.107.195z" fill="#455A64"/><path d="M139.347 100.032H62.393V259.18h76.954V100.032z" fill="#EBEBEB"/><path d="M139.347 147.822H62.393v50.702h76.954v-50.702z" fill="#E0E0E0"/><path d="M138.05 241.664c0 .109-16.903.188-37.742.188s-37.749-.079-37.749-.188c0-.108 16.896-.187 37.749-.187s37.742.087 37.742.187zM138.05 198.517c0 .108-16.903.187-37.742.187s-37.749-.079-37.749-.187 16.896-.188 37.749-.188 37.742.087 37.742.188z" fill="#263238"/><path d="M391.018 178.255H146.094v12.311h244.924v-12.311z" fill="#E0E0E0"/><path d="M391.018 125.693H146.094v47.163h244.924v-47.163z" fill="#EBEBEB"/><path d="M399.264 74.393H62.394v25.632h336.87V74.393z" fill="#455A64"/><path d="M83.03 84.672c-1.88.19-3.77.252-5.658.187a41.8 41.8 0 01-5.651-.187 43.308 43.308 0 015.65-.188c1.889-.06 3.78.002 5.66.188zM83.03 87.209c-1.88.19-3.77.253-5.658.188a41.8 41.8 0 01-5.651-.188 43.308 43.308 0 015.65-.187c1.889-.061 3.78.001 5.66.187zM83.03 89.754c-1.88.185-3.77.248-5.658.187a43.308 43.308 0 01-5.651-.188 41.8 41.8 0 015.65-.187 41.89 41.89 0 015.66.188z" fill="#fff"/><path d="M345.218 92.42H165.779a6.384 6.384 0 01-5.896-3.942 6.38 6.38 0 01-.483-2.444 6.387 6.387 0 016.379-6.386h179.439a6.387 6.387 0 010 12.773z" fill="#FAFAFA"/><path d="M168.771 85.645c-.036 0-.036-.238-.159-.635a2.673 2.673 0 00-.98-1.39 2.591 2.591 0 00-2.401-.332 2.522 2.522 0 00-1.319 3.571 2.516 2.516 0 002.745 1.254c.353-.076.685-.227.975-.443a2.66 2.66 0 00.98-1.384c.123-.403.123-.641.159-.641.054.22.054.45 0 .67a2.65 2.65 0 01-.966 1.564 2.785 2.785 0 01-2.674.447 2.842 2.842 0 01-1.89-2.681 2.843 2.843 0 011.89-2.682 2.817 2.817 0 012.674.447c.498.39.841.944.966 1.564.055.22.055.45 0 .67z" fill="#263238"/><path d="M168.021 87.447c.072-.072.605.303 1.189.836.584.533.995 1.038.93 1.117-.065.08-.605-.303-1.189-.836-.584-.533-.995-1.038-.93-1.117z" fill="#263238"/><path d="M399.272 100.032H139.347v19.397h259.925v-19.397z" fill="#FF725E"/><path d="M80.868 169.245h-6.07v-6.07h6.07v6.07zm-5.349-.721h4.628v-4.628h-4.628v4.628zM87.247 181.606h-6.07v-6.069h6.07v6.069zm-5.349-.72h4.628v-4.628H81.9v4.628zM87.247 174.593h-6.07v-6.077h6.07v6.077zm-5.349-.721h4.628v-4.635H81.9v4.635z" fill="#263238"/><path d="M81.783 179.055h-4.31v-10.171h.72v9.45h3.59v.721z" fill="#263238"/><path d="M81.538 171.955h-3.704v.721h3.704v-.721zM89.986 175.314l.281-.591a2.774 2.774 0 001.766.62c.923 0 1.319-.361 1.319-.829 0-1.305-3.236-.483-3.236-2.466 0-.821.641-1.528 2.047-1.528a3.158 3.158 0 011.715.476l-.252.613a2.697 2.697 0 00-1.442-.44c-.908 0-1.297.382-1.297.851 0 1.304 3.236.49 3.236 2.45 0 .815-.656 1.521-2.068 1.521a3.19 3.19 0 01-2.07-.677zM94.981 170.6a.489.489 0 01.147-.347.493.493 0 01.35-.136.482.482 0 11-.497.483zm.13 1.254h.721v4.044h-.72v-4.044zM99.515 175.66a1.38 1.38 0 01-.886.281 1.148 1.148 0 01-1.284-1.262v-2.248h-.684v-.599h.684v-.843h.721v.886h1.16v.556h-1.16v2.162c0 .44.224.721.627.721a.933.933 0 00.577-.195l.245.541zM103.898 174.117h-3.28a1.367 1.367 0 001.442 1.182 1.504 1.504 0 001.167-.483l.411.469a2.216 2.216 0 01-2.356.505 2.204 2.204 0 01-1.42-1.947 1.981 1.981 0 012.032-2.054 1.943 1.943 0 011.462.598 1.955 1.955 0 01.542 1.485c.021.087.007.18 0 .245zm-3.28-.526h2.595a1.304 1.304 0 00-2.595 0zM111.646 173.569v2.329h-.72v-2.242c0-.793-.375-1.182-1.046-1.182a1.17 1.17 0 00-1.171.831 1.17 1.17 0 00-.04.509v2.084h-.72v-2.242c0-.793-.382-1.182-1.046-1.182a1.178 1.178 0 00-1.211 1.34v2.084h-.72v-4.044h.72v.576a1.64 1.64 0 011.392-.634 1.492 1.492 0 011.441.721 1.836 1.836 0 011.557-.721 1.549 1.549 0 011.564 1.773zM116.202 173.454v2.443h-.721v-.533a1.511 1.511 0 01-1.334.577c-.915 0-1.492-.483-1.492-1.19 0-.706.418-1.182 1.622-1.182h1.161v-.144c0-.62-.354-.98-1.082-.98a2.053 2.053 0 00-1.283.44l-.302-.548a2.668 2.668 0 011.672-.519c1.132 0 1.759.533 1.759 1.636zm-.721 1.211v-.57h-1.125c-.72 0-.929.282-.929.628 0 .346.331.656.886.656a1.175 1.175 0 001.153-.714h.015zM121.752 173.872a1.98 1.98 0 01-.566 1.487 1.963 1.963 0 01-1.481.582 1.721 1.721 0 01-1.442-.656v2.097h-.721v-5.528h.721v.641a1.706 1.706 0 011.442-.677 1.967 1.967 0 011.919 1.254c.098.255.141.527.128.8zm-.721 0a1.357 1.357 0 00-.893-1.201 1.356 1.356 0 00-.78-.045 1.357 1.357 0 00-1.028 1.087 1.363 1.363 0 001.878 1.492 1.325 1.325 0 00.732-.788c.061-.175.085-.36.07-.545h.021zM122.257 175.472l.303-.584c.428.281.929.429 1.441.426.678 0 .959-.209.959-.555 0-.909-2.552-.123-2.552-1.73 0-.721.649-1.211 1.687-1.211a3 3 0 011.442.36l-.31.584a2.113 2.113 0 00-1.175-.324c-.635 0-.952.238-.952.562 0 .951 2.566.173 2.566 1.744 0 .721-.67 1.197-1.751 1.197a2.882 2.882 0 01-1.658-.469z" fill="#263238"/><path d="M149.294 112.697l.295-.613a2.884 2.884 0 001.824.642c.959 0 1.37-.375 1.37-.858 0-1.348-3.352-.497-3.352-2.552 0-.85.663-1.578 2.119-1.578a3.227 3.227 0 011.773.49l-.259.634a2.847 2.847 0 00-1.514-.454c-.944 0-1.348.397-1.348.879 0 1.348 3.352.505 3.352 2.538 0 .843-.678 1.571-2.163 1.571a3.302 3.302 0 01-2.097-.699zM154.462 107.853a.512.512 0 111.024 0 .496.496 0 01-.512.512.503.503 0 01-.369-.143.493.493 0 01-.143-.369zm.13 1.29h.757v4.181h-.757v-4.181zM159.148 113.086c-.263.2-.586.305-.916.296a1.201 1.201 0 01-1.326-1.312v-2.3h-.721v-.627h.721v-.915h.721v.915h1.247v.627h-1.204v2.264a.612.612 0 00.381.678.614.614 0 00.275.042.932.932 0 00.591-.201l.231.533zM163.689 111.493h-3.374a1.44 1.44 0 001.514 1.218 1.577 1.577 0 001.211-.504l.418.49a2.275 2.275 0 01-3.451-.231 2.282 2.282 0 01-.449-1.211 2.05 2.05 0 012.098-2.162 2.004 2.004 0 011.517.62 2.007 2.007 0 01.552 1.542c-.022.072-.029.166-.036.238zm-3.374-.548h2.682a1.35 1.35 0 00-2.682 0zM171.704 110.924v2.4h-.757v-2.321c0-.822-.396-1.225-1.088-1.225a1.222 1.222 0 00-1.212.857 1.22 1.22 0 00-.042.527v2.162h-.757v-2.321c0-.822-.397-1.225-1.081-1.225a1.213 1.213 0 00-1.214.862 1.23 1.23 0 00-.041.529v2.162h-.72v-4.188h.72v.627a1.714 1.714 0 011.442-.663 1.55 1.55 0 011.442.772 1.886 1.886 0 011.614-.772 1.601 1.601 0 011.276.508 1.604 1.604 0 01.418 1.309zM176.411 110.801v2.523h-.721v-.555a1.567 1.567 0 01-1.377.605c-.951 0-1.549-.511-1.549-1.232s.432-1.225 1.686-1.225h1.197v-.152c0-.641-.368-1.009-1.125-1.009a2.162 2.162 0 00-1.326.447l-.31-.57a2.786 2.786 0 011.73-.533c1.146.007 1.795.555 1.795 1.701zm-.757 1.247v-.584h-1.168c-.72 0-.965.296-.965.649 0 .353.346.678.922.678a1.216 1.216 0 001.211-.743zM182.149 111.241a2.042 2.042 0 01-.574 1.551 2.036 2.036 0 01-1.538.611 1.794 1.794 0 01-.807-.188 1.798 1.798 0 01-.635-.533v2.163h-.757v-5.702h.721v.663a1.787 1.787 0 011.492-.72 2.023 2.023 0 012.098 2.155zm-.764 0a1.445 1.445 0 00-.89-1.332 1.44 1.44 0 00-1.966 1.051 1.445 1.445 0 00.613 1.479c.237.159.516.243.801.243a1.373 1.373 0 001.349-.88c.069-.179.101-.37.093-.561zM182.661 112.891l.317-.605c.429.28.929.433 1.441.44.721 0 .995-.217.995-.57 0-.944-2.645-.129-2.645-1.795 0-.72.67-1.254 1.744-1.254a3.132 3.132 0 011.528.375l-.324.606a2.16 2.16 0 00-1.211-.332c-.663 0-.988.245-.988.577 0 .987 2.653.18 2.653 1.802 0 .764-.721 1.247-1.809 1.247a3.061 3.061 0 01-1.701-.491z" fill="#fff"/><path d="M165.498 142.092h-3.179l-.656 1.492h-.879l2.703-5.976h.85l2.711 5.976h-.894l-.656-1.492zm-.303-.685l-1.276-2.927-1.297 2.956 2.573-.029zM172.043 137.248v6.35h-.786v-.721a1.911 1.911 0 01-1.614.764 2.307 2.307 0 110-4.613 1.927 1.927 0 011.578.721v-2.494l.822-.007zm-.815 4.072a1.524 1.524 0 00-.993-1.36 1.526 1.526 0 00-1.641.38 1.523 1.523 0 00.27 2.331c.251.164.544.251.843.249a1.486 1.486 0 001.438-.989 1.49 1.49 0 00.083-.611zM177.86 137.248v6.35h-.785v-.721a1.904 1.904 0 01-1.615.764 2.307 2.307 0 110-4.613 1.924 1.924 0 011.579.721v-2.494l.821-.007zm-.814 4.072a1.524 1.524 0 00-1.866-1.401 1.52 1.52 0 00.352 3.001 1.49 1.49 0 001.514-1.6zM185.292 140.852v2.746h-.779V143a1.68 1.68 0 01-1.485.649c-1.023 0-1.672-.548-1.672-1.334s.468-1.319 1.816-1.319h1.298v-.166c0-.685-.397-1.088-1.211-1.088a2.315 2.315 0 00-1.442.483l-.339-.613a3.019 3.019 0 011.867-.577c1.247-.014 1.947.577 1.947 1.817zm-.822 1.348v-.627h-1.262c-.807 0-1.038.31-1.038.72 0 .411.375.721.995.721a1.31 1.31 0 001.305-.814zM193.4 140.982v2.616h-.821v-2.523c0-.886-.447-1.326-1.218-1.326a1.356 1.356 0 00-1.078.412 1.347 1.347 0 00-.364 1.094v2.343h-.822v-4.519h.771v.677a1.95 1.95 0 011.629-.721 1.756 1.756 0 011.821 1.178c.084.247.113.509.082.769zM199.008 141.594h-3.668a1.535 1.535 0 001.643 1.326 1.679 1.679 0 001.305-.547l.454.526a2.47 2.47 0 01-2.621.579 2.463 2.463 0 01-1.596-2.158 2.207 2.207 0 012.271-2.299 2.155 2.155 0 011.638.663 2.17 2.17 0 01.596 1.665c0 .082-.007.164-.022.245zm-3.668-.591h2.883a1.442 1.442 0 00-2.883 0zM206.923 139.064l-1.694 4.534h-.786l-1.304-3.431-1.319 3.431h-.786l-1.68-4.52h.772l1.319 3.605 1.362-3.605h.721l1.341 3.605 1.348-3.605.706-.014zM209.468 143.108l.346-.649a2.88 2.88 0 001.586.469c.756 0 1.074-.231 1.074-.613 0-1.016-2.884-.137-2.884-1.939 0-.815.721-1.355 1.882-1.355a3.335 3.335 0 011.65.404l-.353.648a2.4 2.4 0 00-1.305-.353c-.72 0-1.066.26-1.066.62 0 1.067 2.883.195 2.883 1.953 0 .822-.721 1.341-1.954 1.341a3.333 3.333 0 01-1.859-.526zM214.174 137.658a.549.549 0 01.327-.527.552.552 0 01.612.106.557.557 0 01.131.607.556.556 0 01-.515.348.551.551 0 01-.389-.151.533.533 0 01-.166-.383zm.144 1.442h.822v4.498h-.822V139.1zM219.242 143.317a1.512 1.512 0 01-.988.317 1.293 1.293 0 01-1.382-.862 1.279 1.279 0 01-.059-.579v-2.487h-.771v-.671h.771v-.994h.814v.994h1.298v.671h-1.298v2.45a.673.673 0 00.427.716c.094.036.194.05.294.041.229.005.453-.069.634-.209l.26.613zM224.15 141.594h-3.676a1.54 1.54 0 001.643 1.326 1.673 1.673 0 001.305-.547l.454.526a2.467 2.467 0 01-4.217-1.579 2.224 2.224 0 01.637-1.642 2.223 2.223 0 011.634-.657 2.163 2.163 0 012.235 2.328c0 .087-.008.173-.015.245zm-3.676-.591h2.883a1.442 1.442 0 00-2.883 0zM232.807 140.981v2.617h-.814v-2.523c0-.886-.433-1.326-1.175-1.326a1.32 1.32 0 00-1.355 1.506v2.343h-.822v-2.523c0-.886-.425-1.326-1.168-1.326a1.326 1.326 0 00-1.03.436 1.337 1.337 0 00-.282.499c-.056.185-.07.38-.043.571v2.343h-.822v-4.519h.786v.67a1.838 1.838 0 011.564-.721 1.663 1.663 0 011.572.836 2.03 2.03 0 011.737-.836c.257-.02.516.017.757.109a1.726 1.726 0 011.095 1.844zM237.903 140.852v2.746h-.778V143a1.68 1.68 0 01-1.485.648c-1.023 0-1.672-.547-1.672-1.333 0-.786.468-1.319 1.816-1.319h1.298v-.166c0-.685-.404-1.088-1.211-1.088a2.3 2.3 0 00-1.442.483l-.339-.613a3.006 3.006 0 011.867-.577c1.247-.014 1.946.577 1.946 1.817zm-.821 1.348v-.627h-1.262c-.814 0-1.045.309-1.045.72s.382.721 1.002.721a1.31 1.31 0 001.305-.814zM244.102 141.32a2.155 2.155 0 01-.618 1.675 2.158 2.158 0 01-1.667.639 1.911 1.911 0 01-1.578-.721v2.343h-.822v-6.177h.786v.72a1.934 1.934 0 011.614-.72 2.155 2.155 0 012.134 1.36c.111.28.163.58.151.881zm-.821 0a1.534 1.534 0 00-.992-1.359 1.523 1.523 0 00-1.64.376 1.518 1.518 0 00-.398.783 1.52 1.52 0 00.66 1.547c.25.165.542.253.841.253a1.506 1.506 0 001.442-.988 1.5 1.5 0 00.087-.612z" fill="#000"/><path d="M139.347 259.173c-.109 0-.188-35.125-.188-78.453s.079-78.453.188-78.453c.108 0 .187 35.118.187 78.453s-.086 78.453-.187 78.453z" fill="#263238"/><path d="M160.95 155.614l.26-.49a2.22 2.22 0 001.211.353c.576 0 .821-.173.821-.468 0-.772-2.162-.101-2.162-1.478 0-.613.555-1.031 1.442-1.031.438-.008.87.099 1.254.31l-.267.497a1.8 1.8 0 00-.995-.274c-.547 0-.814.202-.814.476 0 .815 2.162.152 2.162 1.492 0 .62-.576 1.017-1.492 1.017a2.475 2.475 0 01-1.42-.404zM164.54 151.462a.421.421 0 01.258-.382.416.416 0 01.16-.029.405.405 0 01.325.098.407.407 0 01.14.309.413.413 0 01-.465.408.403.403 0 01-.418-.404zm.108 1.067h.627v3.453h-.635l.008-3.453zM168.403 155.78c-.216.165-.484.25-.757.238a.996.996 0 01-1.042-.647.99.99 0 01-.053-.435v-1.888h-.584v-.519h.584v-.721h.627v.721h.987v.519h-.987v1.867a.512.512 0 00.318.544.48.48 0 00.222.032.815.815 0 00.491-.158l.194.447zM172.144 154.468h-2.797a1.165 1.165 0 001.247 1.009 1.313 1.313 0 001.002-.418l.339.404a1.886 1.886 0 01-1.997.438 1.879 1.879 0 01-1.218-1.642 1.688 1.688 0 011.73-1.759 1.656 1.656 0 011.709 1.773c-.002.065-.007.13-.015.195zm-2.797-.454h2.213a1.108 1.108 0 00-1.859-.727 1.114 1.114 0 00-.354.727zM178.753 153.999v1.983h-.627v-1.918c0-.677-.324-1.009-.886-1.009a1.005 1.005 0 00-1.003.711 1.016 1.016 0 00-.035.435v1.781h-.627v-1.918c0-.677-.325-1.009-.894-1.009a1 1 0 00-1.031 1.146v1.781h-.627v-3.453h.598v.519a1.449 1.449 0 011.197-.548c.239-.016.477.034.689.146.211.113.387.282.507.488a1.555 1.555 0 011.327-.634 1.32 1.32 0 011.412 1.499zM182.661 153.898v2.084h-.591v-.455a1.28 1.28 0 01-1.132.491c-.786 0-1.276-.411-1.276-1.01 0-.598.353-1.009 1.384-1.009h.988v-.129c0-.527-.303-.829-.923-.829a1.772 1.772 0 00-1.096.367l-.259-.468a2.29 2.29 0 011.441-.44c.909 0 1.464.469 1.464 1.398zm-.627 1.031v-.483h-.959c-.62 0-.8.238-.8.534 0 .295.288.562.764.562a.993.993 0 00.973-.613h.022zM187.375 154.259a1.682 1.682 0 01-1.752 1.759 1.49 1.49 0 01-1.204-.555v1.78h-.62v-4.714h.599v.548a1.437 1.437 0 011.225-.577 1.684 1.684 0 011.641 1.074c.084.218.122.451.111.685zm-.635 0a1.165 1.165 0 00-.754-1.042 1.17 1.17 0 10-.413 2.26 1.15 1.15 0 00.853-.35 1.146 1.146 0 00.314-.868zM187.469 155.982h3.258v.403h-3.258v-.403zM191.202 151.462a.413.413 0 01.128-.293.42.42 0 01.297-.118.415.415 0 01.387.5.41.41 0 01-.326.315.403.403 0 01-.235-.026.407.407 0 01-.251-.378zm.115 1.067h.62v3.453h-.627l.007-3.453zM196.406 153.999v1.983h-.627v-1.918c0-.677-.339-1.009-.93-1.009a1.03 1.03 0 00-1.095 1.146v1.781h-.62v-3.453h.598v.526a1.446 1.446 0 011.24-.555 1.342 1.342 0 011.434 1.499zM200.839 151.152v4.83h-.598v-.548a1.446 1.446 0 01-1.233.584 1.757 1.757 0 01-1.758-1.759 1.758 1.758 0 011.758-1.759 1.433 1.433 0 011.204.555v-1.903h.627zm-.62 3.107a1.158 1.158 0 00-.755-1.03 1.16 1.16 0 10-.405 2.248 1.133 1.133 0 001.16-1.218zM205.128 154.468h-2.797a1.165 1.165 0 001.247 1.009 1.282 1.282 0 00.995-.418l.346.404a1.886 1.886 0 01-1.997.438 1.879 1.879 0 01-1.218-1.642 1.688 1.688 0 011.73-1.759 1.67 1.67 0 011.611 1.092c.079.218.113.45.097.681-.001.065-.006.13-.014.195zm-2.797-.454h2.213a1.11 1.11 0 00-2.213 0zM208.112 155.981l-1.002-1.319-1.009 1.319h-.721l1.363-1.765-1.298-1.687h.721l.952 1.247.944-1.247h.685l-1.305 1.687 1.377 1.765h-.707zM209.208 155.571a.433.433 0 01.447-.44.422.422 0 01.425.44.421.421 0 01-.119.312.423.423 0 01-.306.135.438.438 0 01-.447-.447zM213.18 155.981l-.966-1.319-1.009 1.319h-.721l1.362-1.765-1.297-1.687h.721l.951 1.247.944-1.247h.721l-1.305 1.687 1.377 1.765h-.778zM220.301 153.999v1.983h-.627v-1.918c0-.677-.324-1.009-.886-1.009a1.005 1.005 0 00-1.003.711 1.001 1.001 0 00-.035.435v1.781h-.628v-1.918c0-.677-.324-1.009-.886-1.009a1.007 1.007 0 00-1.038 1.146v1.781h-.627v-3.453h.598v.519a1.449 1.449 0 011.197-.548 1.285 1.285 0 011.196.634 1.555 1.555 0 011.326-.634 1.322 1.322 0 011.364.915c.06.189.077.388.049.584zM221.455 151.152h.619v4.83h-.619v-4.83zM160.899 186.039l.188-.346c.254.163.549.248.85.246.404 0 .57-.123.57-.325 0-.548-1.528-.072-1.528-1.038 0-.432.389-.721 1.009-.721.308-.004.611.073.879.224l-.187.346a1.234 1.234 0 00-.721-.195c-.389 0-.577.144-.577.339 0 .569 1.536.101 1.536 1.045 0 .433-.404.721-1.045.721a1.76 1.76 0 01-.974-.296zM163.415 183.127a.291.291 0 01.183-.268.29.29 0 01.113-.02.276.276 0 01.205.075c.028.025.05.056.065.09a.295.295 0 01.005.223.298.298 0 01-.161.161.295.295 0 01-.114.02.28.28 0 01-.206-.079.27.27 0 01-.065-.092.276.276 0 01-.025-.11zm.079.721h.426v2.415h-.44l.014-2.415zM166.125 186.126a.863.863 0 01-.533.166.728.728 0 01-.538-.196.721.721 0 01-.226-.525v-1.326h-.411v-.361h.411v-.533h.44v.533h.72v.361h-.72v1.304a.36.36 0 00.374.411.567.567 0 00.346-.115l.137.281zM168.749 185.232h-1.947a.817.817 0 00.873.721.93.93 0 00.72-.296l.246.281a1.32 1.32 0 01-2.257-.843 1.187 1.187 0 01.738-1.147c.15-.06.311-.09.473-.086a1.17 1.17 0 011.197 1.247c-.036.022-.043.08-.043.123zm-1.961-.317h1.55a.76.76 0 00-.779-.721.722.722 0 00-.757.721h-.014zM173.376 184.901v1.391h-.439v-1.341c0-.476-.224-.721-.62-.721a.718.718 0 00-.54.239.712.712 0 00-.181.561v1.247h-.469v-1.34c0-.476-.23-.721-.627-.721a.716.716 0 00-.69.5.708.708 0 00-.03.3v1.247h-.44v-2.415h.418v.361a.964.964 0 01.836-.39.913.913 0 01.843.454 1.104 1.104 0 01.93-.454.938.938 0 01.772.291.923.923 0 01.237.791zM176.094 184.836v1.441h-.411v-.317a.896.896 0 01-.793.346c-.548 0-.901-.295-.901-.721 0-.425.253-.72.973-.72h.721v-.087c0-.368-.216-.584-.649-.584a1.238 1.238 0 00-.771.26l-.18-.332a1.657 1.657 0 011.002-.31.906.906 0 01.759.261.908.908 0 01.25.763zm-.432.721v-.339h-.678c-.433 0-.555.166-.555.375s.202.389.533.389a.724.724 0 00.7-.425zM179.41 185.081a1.163 1.163 0 01-.333.891 1.167 1.167 0 01-.886.349 1.004 1.004 0 01-.843-.397v1.254h-.454v-3.301h.418v.382a1.02 1.02 0 01.865-.411 1.178 1.178 0 011.233 1.233zm-.44 0a.806.806 0 00-.158-.44.814.814 0 10-.657 1.298.804.804 0 00.815-.858zM179.475 186.292h2.285v.281h-2.285v-.281zM182.098 183.127a.302.302 0 01.043-.168.302.302 0 01.13-.115.29.29 0 01.326.055c.043.04.073.093.085.151a.299.299 0 01-.122.307.29.29 0 01-.166.051.268.268 0 01-.112-.017.268.268 0 01-.096-.06.274.274 0 01-.088-.204zm.073.721h.439v2.415h-.439v-2.415zM185.738 184.901v1.391h-.432v-1.341c0-.476-.238-.721-.656-.721a.713.713 0 00-.731.489.713.713 0 00-.033.311v1.247h-.44v-2.414h.418v.36a1.049 1.049 0 01.873-.389.936.936 0 011.001 1.067zM188.845 182.904v3.388h-.418v-.382a1.015 1.015 0 01-.865.41 1.235 1.235 0 01-1.145-1.236 1.235 1.235 0 011.145-1.236 1.02 1.02 0 01.843.389v-1.333h.44zm-.433 2.162a.814.814 0 10-1.39.576.814.814 0 001.39-.576zM191.851 185.232h-1.983a.817.817 0 00.873.721.93.93 0 00.72-.296l.245.281a1.313 1.313 0 01-1.401.31 1.315 1.315 0 01-.855-1.153 1.187 1.187 0 01.738-1.147c.15-.06.311-.09.473-.086a1.17 1.17 0 011.197 1.247c0 .041-.002.082-.007.123zm-1.961-.317h1.55a.782.782 0 00-.775-.704.777.777 0 00-.775.704zM193.941 186.292l-.72-.923-.721.923h-.469l.952-1.233-.909-1.182h.491l.663.872.663-.872h.483l-.901 1.182.966 1.233h-.498zM194.706 186.003a.31.31 0 01.31-.31.32.32 0 01.269.314.316.316 0 01-.269.313.311.311 0 01-.289-.196.309.309 0 01-.021-.121zM197.488 186.292l-.721-.923-.721.923h-.49l.959-1.233-.88-1.182h.491l.663.872.663-.872h.476l-.909 1.182.959 1.233h-.49zM202.483 184.9v1.392h-.44v-1.341c0-.476-.231-.721-.627-.721a.712.712 0 00-.54.238.722.722 0 00-.181.562v1.247h-.432v-1.341c0-.475-.231-.72-.627-.72a.717.717 0 00-.721.8v1.247h-.44v-2.415h.425v.36a.97.97 0 01.837-.389.899.899 0 01.836.454 1.083 1.083 0 01.93-.454.94.94 0 01.752.303.938.938 0 01.228.778zM203.283 182.904h.44v3.388h-.44v-3.388zM292.224 186.025l.18-.346c.253.164.549.251.85.252.404 0 .577-.122.577-.331 0-.541-1.528-.072-1.528-1.038 0-.433.382-.721 1.009-.721.307-.006.61.069.879.216l-.187.346a1.304 1.304 0 00-.721-.187c-.382 0-.569.137-.569.331 0 .57 1.535.101 1.535 1.045 0 .44-.404.721-1.045.721a1.758 1.758 0 01-.98-.288zM294.696 183.113a.295.295 0 01.303-.288.286.286 0 01.266.352.29.29 0 01-.394.201.288.288 0 01-.175-.265zm.079.721h.44v2.422h-.44v-2.422zM297.407 186.126a.813.813 0 01-.527.166.724.724 0 01-.716-.46.717.717 0 01-.048-.297v-1.327h-.418v-.36h.418v-.533h.433v.533h.721v.36h-.721v1.312a.352.352 0 00.382.404.535.535 0 00.339-.115l.137.317zM300.03 185.218h-1.96a.81.81 0 00.872.72.88.88 0 00.721-.288l.245.281a1.228 1.228 0 01-.952.389 1.2 1.2 0 01-.925-.327 1.203 1.203 0 01-.38-.905 1.177 1.177 0 01.341-.882 1.17 1.17 0 01.878-.351 1.167 1.167 0 01.872.359 1.173 1.173 0 01.317.888.787.787 0 01-.029.116zm-1.96-.318h1.549a.776.776 0 00-1.298-.501.776.776 0 00-.251.501zM304.658 184.886v1.399h-.433v-1.348c0-.476-.23-.721-.627-.721a.707.707 0 00-.297.062.722.722 0 00-.424.745v1.247h-.439v-1.348c0-.476-.224-.721-.62-.721a.744.744 0 00-.298.062.735.735 0 00-.395.443.723.723 0 00-.028.303v1.247h-.44v-2.422h.426v.36a.98.98 0 01.828-.382.896.896 0 01.844.447 1.079 1.079 0 01.93-.447.934.934 0 01.747.301.926.926 0 01.226.773zM307.361 184.821v1.442h-.418v-.325a.882.882 0 01-.793.346c-.548 0-.894-.288-.894-.72 0-.433.252-.721.973-.721h.721v-.087c0-.367-.216-.584-.649-.584a1.222 1.222 0 00-.764.26l-.187-.324c.29-.212.642-.321 1.002-.31.655.043 1.009.36 1.009 1.023zm-.44.721v-.339h-.678c-.432 0-.555.173-.555.375s.202.389.534.389a.72.72 0 00.721-.425h-.022zM310.698 185.074a1.185 1.185 0 01-.746 1.153 1.187 1.187 0 01-.479.079 1.037 1.037 0 01-.843-.389v1.247h-.44v-3.301h.418v.382a1.05 1.05 0 01.865-.404 1.187 1.187 0 01.885.345 1.185 1.185 0 01.34.888zm-.447 0a.811.811 0 00-.994-.759.821.821 0 00-.569 1.114.817.817 0 001.338.246.81.81 0 00.218-.601h.007zM312.45 183.113a.283.283 0 01.087-.207.284.284 0 01.208-.081.279.279 0 01.158.052.286.286 0 01.036.442.28.28 0 01-.147.077.278.278 0 01-.166-.018.282.282 0 01-.128-.106.28.28 0 01-.048-.159zm.079.721h.44v2.422h-.44v-2.422zM316.097 184.886v1.398h-.439v-1.347c0-.476-.238-.721-.656-.721a.716.716 0 00-.573.223.727.727 0 00-.191.584v1.247h-.44v-2.422h.418v.368a1.025 1.025 0 01.872-.39.933.933 0 01.759.288.937.937 0 01.25.772zM319.197 182.897v3.388h-.418v-.39a1.018 1.018 0 01-.865.411 1.234 1.234 0 01-.872-2.104c.231-.231.545-.361.872-.361a1.045 1.045 0 01.85.389v-1.333h.433zm-.433 2.162a.81.81 0 00-.527-.726.818.818 0 00-.875.199.818.818 0 00-.161.883.813.813 0 00.749.495.811.811 0 00.588-.242.798.798 0 00.226-.594v-.015zM322.202 185.218h-1.96a.822.822 0 00.879.72.885.885 0 00.721-.288l.245.281a1.206 1.206 0 01-.952.389 1.2 1.2 0 01-.925-.327 1.208 1.208 0 01-.379-.905 1.176 1.176 0 01.742-1.149 1.19 1.19 0 01.476-.084c.163-.004.324.026.475.087a1.16 1.16 0 01.721 1.16.808.808 0 01-.043.116zm-1.96-.318h1.535a.778.778 0 00-1.55 0h.015zM324.293 186.284l-.721-.929-.721.929h-.49l.951-1.239-.908-1.182h.49l.671.872.656-.872h.482l-.915 1.182.966 1.239h-.461z" fill="#000"/><path d="M336.914 185.917l.166-.353c.298.239.67.369 1.052.367.555 0 .793-.216.793-.497 0-.779-1.939-.288-1.939-1.442 0-.497.389-.915 1.226-.915.363-.006.72.092 1.03.281l-.151.368a1.653 1.653 0 00-.879-.26c-.541 0-.772.231-.772.505 0 .785 1.932.295 1.932 1.441 0 .483-.389.909-1.24.909a1.884 1.884 0 01-1.218-.404zM342.248 183.863v2.421h-.418v-.367a.975.975 0 01-.822.389.949.949 0 01-1.038-1.052v-1.391h.44v1.34c0 .476.238.721.649.721a.71.71 0 00.543-.241.722.722 0 00.177-.566v-1.247l.469-.007zM342.854 185.074a1.197 1.197 0 01.372-.898 1.217 1.217 0 01.911-.335 1.056 1.056 0 01.98.512l-.331.216a.72.72 0 00-.656-.346.854.854 0 00-.851.851.853.853 0 00.851.85.718.718 0 00.656-.346l.331.209a1.061 1.061 0 01-.98.519 1.217 1.217 0 01-1.191-.745 1.196 1.196 0 01-.092-.487zM347.827 185.218h-1.968a.822.822 0 00.88.72.91.91 0 00.72-.288l.238.281a1.315 1.315 0 01-1.401.31 1.319 1.319 0 01-.855-1.153 1.194 1.194 0 01.34-.882 1.183 1.183 0 01.878-.351 1.166 1.166 0 011.197 1.247c-.022.022-.029.072-.029.116zm-1.968-.318h1.557a.787.787 0 00-1.557 0zM348.13 186.025l.188-.346c.251.163.544.251.843.252.411 0 .577-.122.577-.331 0-.541-1.528-.072-1.528-1.038 0-.433.389-.721 1.009-.721.307-.007.61.068.879.216l-.187.346a1.29 1.29 0 00-.721-.187c-.382 0-.569.137-.569.331 0 .57 1.535.101 1.535 1.045 0 .44-.404.721-1.045.721a1.761 1.761 0 01-.981-.288zM350.415 186.025l.18-.346c.254.163.549.25.851.252.411 0 .576-.122.576-.331 0-.541-1.528-.072-1.528-1.038 0-.433.39-.721 1.009-.721.307-.006.611.069.88.216l-.188.346a1.285 1.285 0 00-.72-.187c-.382 0-.57.137-.57.331 0 .57 1.536.101 1.536 1.045 0 .44-.404.721-1.046.721a1.758 1.758 0 01-.98-.288zM360.809 158.959H323.81a8.944 8.944 0 01-8.946-8.939 8.944 8.944 0 018.946-8.938h36.999a8.94 8.94 0 018.938 8.938 8.942 8.942 0 01-8.938 8.939z" fill="#FF725E"/><path d="M330.103 151.361l.273-.62c.418.308.923.473 1.442.469.663 0 .944-.238.944-.555 0-.923-2.544-.317-2.544-1.91 0-.721.548-1.283 1.723-1.283a2.697 2.697 0 011.441.382l-.252.619a2.332 2.332 0 00-1.175-.338c-.663 0-.937.259-.937.584 0 .908 2.544.317 2.544 1.888 0 .685-.555 1.276-1.729 1.276a2.782 2.782 0 01-1.73-.512zM334.283 149.941v-2.415h.793v2.386c0 .88.396 1.262 1.088 1.262.692 0 1.089-.382 1.089-1.262v-2.386h.785v2.415a1.885 1.885 0 01-1.131 1.843 1.878 1.878 0 01-2.516-1.088 1.885 1.885 0 01-.108-.755zM342.962 150.647c0 .721-.577 1.161-1.68 1.161h-2.162v-4.282h2.011c1.03 0 1.578.433 1.578 1.11a1.032 1.032 0 01-.548.945 1.067 1.067 0 01.801 1.066zm-3.021-2.501v1.218h1.132c.548 0 .865-.194.865-.583 0-.39-.317-.599-.865-.599l-1.132-.036zm2.213 2.422c0-.432-.324-.62-.922-.62h-1.291v1.24h1.298c.591 0 .915-.195.915-.62zM347.726 151.808v-2.84l-1.441 2.357h-.354l-1.441-2.321v2.804h-.757v-4.282h.656l1.701 2.84 1.672-2.84h.656v4.282h-.692zM349.658 147.526h.8v4.282h-.8v-4.282zM352.484 148.197h-1.442v-.671h3.604v.671h-1.442v3.604h-.72v-3.604z" fill="#fff"/><path d="M271.003 221.892h-28.45v33.489h28.45v-33.489z" fill="#FF725E"/><path d="M305.941 231.263H277.49v24.118h28.451v-24.118z" fill="#E0E0E0"/><path d="M201.135 205.062h-28.45v50.319h28.45v-50.319z" fill="#FF725E"/><path d="M236.072 195.958h-28.45v59.423h28.45v-59.423z" fill="#E0E0E0"/><path d="M340.879 243.322h-28.451v12.059h28.451v-12.059z" fill="#FF725E"/><path d="M375.809 218.303h-28.451v37.078h28.451v-37.078z" fill="#E0E0E0"/><path d="M383.378 195.958h-2.364l-6.783.036-24.948.058-82.287.093-82.331-.057-24.948-.058-6.782-.036h-2.365 2.365l6.782-.036 24.948-.058 82.331-.137 82.316.058 24.948.058 6.782.036h2.221c.064.036.122.036.115.043zM383.377 211.39h-9.147l-24.947.058-82.317.058-82.331-.058-24.947-.058h-9.147 2.364l6.783-.036 24.947-.065 82.36-.086 82.317.05 24.947.065 6.783.036h2.22c.065 0 .123 0 .115.036zM383.377 226.823h-9.147l-24.947.065-82.317.05-82.331-.05-24.947-.065h-9.147 2.364l6.783-.036 24.947-.058 82.36-.094 82.317.058 24.947.058 6.783.036h2.364l-.029.036zM383.377 242.263h-2.364l-6.783.036-24.947.057-82.317.058-82.331-.058-24.947-.007-6.783-.036h-2.364 9.147l24.947-.065 82.36-.173 82.317.051 24.947.065h9.003c.065.064.123.064.115.072zM382.693 255.381h-2.357l-6.762.036-24.875.058-82.071.058-82.086-.058-24.883-.058-6.761-.036H150.541h9.118l24.883-.064 82.086-.051 82.071.051 24.875.064h8.974c.094-.007.152-.007.145 0zM154.816 246.674v.346h-1.961v-.267l1.11-1.074c.288-.281.346-.454.346-.627 0-.281-.202-.454-.584-.454a.86.86 0 00-.721.303l-.266-.231a1.253 1.253 0 011.002-.418c.569 0 .937.296.937.764a1.112 1.112 0 01-.447.858l-.815.8h1.399zM155.125 245.629c0-.887.476-1.399 1.118-1.399.641 0 1.11.512 1.11 1.399 0 .886-.476 1.398-1.11 1.398-.635 0-1.118-.504-1.118-1.398zm1.839 0c0-.721-.296-1.053-.721-1.053-.426 0-.721.354-.721 1.053s.295 1.052.721 1.052c.425 0 .721-.353.721-1.052zM157.728 245.629c0-.887.483-1.399 1.117-1.399.635 0 1.118.512 1.118 1.399 0 .886-.476 1.398-1.118 1.398-.641 0-1.117-.504-1.117-1.398zm1.845 0c0-.721-.302-1.053-.721-1.053-.418 0-.72.354-.72 1.053s.295 1.052.72 1.052c.426 0 .743-.353.743-1.052h-.022zM155.27 230.585h-.519v.678h-.382v-.678h-1.521v-.266l1.398-1.795h.425l-1.34 1.73h1.052v-.598h.368v.598h.519v.331zM155.508 229.893c0-.893.476-1.398 1.117-1.398.642 0 1.11.505 1.11 1.398 0 .894-.476 1.399-1.11 1.399-.634 0-1.117-.476-1.117-1.399zm1.838 0c0-.72-.296-1.052-.721-1.052s-.721.353-.721 1.052c0 .7.303 1.053.721 1.053s.721-.353.721-1.053zM158.153 229.893c0-.893.476-1.398 1.11-1.398.635 0 1.118.505 1.118 1.398 0 .894-.476 1.399-1.118 1.399-.641 0-1.11-.476-1.11-1.399zm1.838 0c0-.72-.295-1.052-.72-1.052-.426 0-.721.353-.721 1.052 0 .7.295 1.053.721 1.053.425 0 .684-.353.684-1.053h.036zM155.01 215.773a.886.886 0 01-.295.64.88.88 0 01-.671.218c-.72 0-1.146-.491-1.146-1.363a1.273 1.273 0 01.309-1.022 1.256 1.256 0 01.982-.419c.237-.011.472.047.677.165l-.144.303a.978.978 0 00-.526-.13c-.555 0-.908.346-.908 1.031a.427.427 0 000 .101.882.882 0 01.778-.36.834.834 0 01.66.206.844.844 0 01.284.63zm-.375 0c0-.325-.245-.526-.627-.526a.57.57 0 00-.627.526c0 .281.224.526.649.526a.528.528 0 00.414-.124.53.53 0 00.191-.388v-.014zM155.306 215.232c0-.886.475-1.398 1.117-1.398.641 0 1.11.512 1.11 1.398 0 .887-.476 1.399-1.11 1.399-.634 0-1.117-.505-1.117-1.399zm1.838 0c0-.721-.296-1.045-.721-1.045s-.721.346-.721 1.045.296 1.053.721 1.053.721-.354.721-1.053zM157.908 215.232c0-.886.475-1.398 1.117-1.398.641 0 1.117.512 1.117 1.398 0 .887-.476 1.399-1.117 1.399-.642 0-1.117-.505-1.117-1.399zm1.838 0c0-.721-.296-1.045-.721-1.045s-.721.346-.721 1.045.296 1.053.721 1.053.721-.354.721-1.053zM155.053 199.958c0 .498-.425.808-1.088.808s-1.081-.31-1.081-.808a.72.72 0 01.476-.663.621.621 0 01-.383-.584c0-.461.397-.721.988-.721s.988.282.988.721a.615.615 0 01-.383.584.72.72 0 01.483.663zm-.389 0c0-.295-.267-.483-.721-.483-.454 0-.72.188-.72.483 0 .296.259.505.72.505.462 0 .721-.209.721-.519v.014zm-1.297-1.218c0 .267.223.44.598.44s.605-.173.605-.44-.237-.44-.605-.44-.598.152-.598.426v.014zM155.414 199.367c0-.894.476-1.398 1.117-1.398.642 0 1.11.504 1.11 1.398 0 .894-.475 1.398-1.11 1.398-.634 0-1.117-.511-1.117-1.398zm1.838 0c0-.721-.295-1.052-.721-1.052-.425 0-.72.353-.72 1.052 0 .699.295 1.045.72 1.045.426 0 .721-.346.721-1.045zM158.016 199.367c0-.894.476-1.398 1.117-1.398.642 0 1.11.504 1.11 1.398 0 .894-.475 1.398-1.11 1.398-.634 0-1.117-.511-1.117-1.398zm1.838 0c0-.721-.295-1.052-.721-1.052-.425 0-.72.353-.72 1.052 0 .699.295 1.045.72 1.045.426 0 .721-.346.721-1.045z" fill="#000"/><path d="M374.612 183.524h-1.629v3.178h1.629v-3.178zM377.294 181.974h-1.629v4.729h1.629v-4.729zM379.976 181.131h-1.629v5.572h1.629v-5.572z" fill="#FF725E"/><path d="M138.907 147.822c0 .101-17.22.187-38.455.187s-38.462-.086-38.462-.187 17.213-.187 38.462-.187c21.25 0 38.455.079 38.455.187zM138.763 100.032c0 .101-17.098.188-38.203.188-21.105 0-38.203-.087-38.203-.188 0-.1 17.09-.194 38.203-.194 21.112 0 38.203.086 38.203.194z" fill="#263238"/><path d="M145.993 87.209c0 .108-11.814.187-26.389.187s-26.389-.079-26.389-.187 11.814-.187 26.389-.187 26.389.086 26.389.187z" fill="#fff"/><path d="M152.876 183.726l2.076 2.948 1.81-2.948h-3.886z" fill="#EBEBEB"/><path d="M126.351 125.693c0 .101-8.21.188-18.337.188-10.128 0-18.338-.087-18.338-.188s8.21-.187 18.338-.187c10.127 0 18.337.072 18.337.187zM80.868 128.728h-6.07v-6.033h6.07v6.033zm-5.349-.721h4.628v-4.592h-4.628v4.592zM126.351 220.963c0 .101-8.21.187-18.337.187-10.128 0-18.338-.086-18.338-.187s8.21-.188 18.338-.188c10.127 0 18.337.087 18.337.188zM80.868 223.997h-6.07v-6.069h6.07v6.069zm-5.349-.72h4.628v-4.628h-4.628v4.628z" fill="#263238"/><path d="M33.619 263.418v-8.094c-10.092 0-8.398-6.235-8.398-26.966 0-14.236.447-21.797-5.247-21.797-5.255 0-6.488 3.69-6.488 19.894-.028 30.022 3.972 36.963 20.133 36.963zM44.128 288.423v-8.08c10.092 0 8.398-6.228 8.398-26.966 0-14.236-.447-21.79 5.247-21.79 5.255 0 6.488 3.691 6.488 19.887.029 30.008-3.98 36.949-20.133 36.949z" fill="#FF725E"/><path opacity=".3" d="M47.66 279.968l1.572 8.153-2.747.245-.404-8.117 1.58-.281z" fill="#000"/><path d="M39.148 181.001c-7.98 0-7.389 10.444-7.389 23.231V305.91h14.777V204.232c0-12.787.613-23.231-7.388-23.231z" fill="#FF725E"/><path d="M39.148 181.001c-7.98 0-7.389 10.444-7.389 23.231V305.91h14.777V204.232c0-12.787.613-23.231-7.388-23.231z" fill="#FF725E"/><path d="M34.852 306.234v-.324-.959-3.669c0-3.2.043-7.806.079-13.486.108-11.403.26-27.131.418-44.496.159-17.364.396-33.099.533-44.502.036-2.848.065-5.428.238-7.691.124-1.941.399-3.869.822-5.767.27-1.194.634-2.366 1.088-3.503.152-.397.296-.678.382-.879l.145-.289c-.031.105-.067.209-.109.31-.072.202-.209.49-.346.887a24.858 24.858 0 00-1.045 3.539 37.97 37.97 0 00-.72 5.73c-.152 2.257-.166 4.83-.188 7.677-.1 11.403-.252 27.131-.418 44.503-.166 17.371-.39 33.099-.526 44.503-.087 5.68-.152 10.279-.202 13.486a589.31 589.31 0 00-.072 3.662v.959c0 .237-.08.309-.08.309zM41.526 306.083a2.78 2.78 0 010-.324v-4.599c0-3.193 0-7.778.058-13.429.086-11.36.209-27.016.346-44.315.137-17.3.331-32.956.447-44.316 0-2.833.057-5.391 0-7.64a49.542 49.542 0 00-.534-5.767c-.18-1.2-.42-2.391-.72-3.568-.108-.389-.195-.721-.26-.915a1.373 1.373 0 01-.072-.317c.56 1.547.968 3.145 1.218 4.771.318 1.908.518 3.834.599 5.767.115 2.256.115 4.822.093 7.662-.086 11.353-.209 27.016-.339 44.316-.13 17.299-.338 32.955-.454 44.308-.079 5.658-.137 10.242-.18 13.428 0 1.572-.05 2.797-.065 3.655v.944c0 .224-.137.339-.137.339zM46.687 288.286a23.473 23.473 0 01-.324-4.116 23.103 23.103 0 01.065-4.123c.233 1.36.344 2.737.331 4.116a21.912 21.912 0 01-.072 4.123zM58.17 231.674c.01.194.01.389 0 .584l.043 1.672c0 1.485.043 3.604.072 6.141 0 5.219.072 12.369.115 20.269 0 3.951 0 7.756-.72 11.151a18.197 18.197 0 01-3.756 8.275 12.423 12.423 0 01-4.88 3.705c-.69.298-1.417.5-2.162.599a20.81 20.81 0 002.119-.721 12.796 12.796 0 004.736-3.741 18.177 18.177 0 003.604-8.181c.677-3.345.72-7.129.677-11.079v-20.27c0-2.566.036-4.656.044-6.141v-1.672c.015-.2.05-.399.108-.591zM31.752 255.035c.25 3.09.25 6.195 0 9.284a57.578 57.578 0 010-9.284zM19.585 206.59c.02.199.02.399 0 .598v1.694c-.043 1.513-.108 3.64-.18 6.242-.159 5.276-.462 12.557-.36 20.601.1 4.015.064 7.871.9 11.244a18.908 18.908 0 003.893 8.225 11.607 11.607 0 005.045 3.467c.726.222 1.468.384 2.22.483a6.927 6.927 0 01-2.263-.339 11.478 11.478 0 01-5.197-3.431 19.025 19.025 0 01-4.03-8.325c-.864-3.424-.843-7.309-.936-11.324-.101-8.052.245-15.339.468-20.608l.296-6.242c.043-.721.072-1.269.1-1.694a2.926 2.926 0 01.044-.591z" fill="#263238"/><path opacity=".3" d="M29.748 263.252l.303-8.303 1.715.295v8.131s-1.722-.086-2.018-.123z" fill="#000"/><path d="M15.065 234.031a4.465 4.465 0 01-1.759.454 4.316 4.316 0 01-1.816.079 4.535 4.535 0 011.758-.447 4.54 4.54 0 011.817-.086zM14.885 226.001a4.647 4.647 0 01-1.824-.173 4.642 4.642 0 01-1.744-.541 4.466 4.466 0 011.816.173c.615.06 1.21.244 1.752.541zM11.67 213.149a3.607 3.607 0 011.802.778c.915.606 1.485 1.291 1.442 1.363a8.947 8.947 0 01-1.644-1.053 8.86 8.86 0 01-1.6-1.088zM16.875 204.939c.408.507.712 1.09.893 1.715.297.577.478 1.207.534 1.853a5.21 5.21 0 01-.887-1.716 5.303 5.303 0 01-.54-1.852zM24.19 205.487a8.283 8.283 0 01-.994 2.263 8.244 8.244 0 01-1.326 2.054c.214-.792.55-1.545.994-2.234.33-.76.778-1.463 1.327-2.083zM26.663 215.11a3.783 3.783 0 01-1.557.627 3.863 3.863 0 01-1.65.266 3.783 3.783 0 011.556-.627 3.863 3.863 0 011.65-.266zM22.561 225.46c-.079.072-.54-.31-1.03-.85-.49-.541-.83-1.038-.757-1.11.072-.072.54.317 1.03.858.49.54.837 1.038.757 1.102zM25.935 235.862a4.737 4.737 0 01-1.442-1.118c-.72-.72-1.276-1.311-1.203-1.391.072-.079.72.426 1.441 1.118.72.692 1.269 1.29 1.204 1.391zM15.96 240.28a5.473 5.473 0 01-1.305 1.478c-.786.721-1.485 1.276-1.557 1.196a5.391 5.391 0 011.304-1.441c.786-.771 1.485-1.326 1.557-1.233zM17.206 249.384c-.101-.036 0-.663.267-1.398.266-.735.526-1.312.627-1.283a2.88 2.88 0 01-.267 1.398c-.238.735-.526 1.312-.627 1.283zM18.122 259.922c.15-.777.423-1.527.807-2.22a7.273 7.273 0 011.146-2.068 7.618 7.618 0 01-.807 2.227 7.58 7.58 0 01-1.146 2.061zM24.205 264.737a5.97 5.97 0 01.18-2.083c.065-.699.25-1.382.548-2.018a11.712 11.712 0 01-.72 4.101h-.008zM27.391 248.836a4.194 4.194 0 01-1.737-.194 4.283 4.283 0 01-1.65-.555 4.11 4.11 0 011.737.187 4.078 4.078 0 011.65.562zM26.663 242.601c0 .101-.67.065-1.442-.086-.77-.152-1.441-.346-1.39-.447.05-.101.677-.065 1.44.079.765.144 1.414.353 1.392.454z" fill="#263238"/><path opacity=".3" d="M19.57 207.029c.252 0 .404 3.201.195 8.354-.094 2.574-.274 5.637-.476 9.025-.202 3.388-.433 7.114-.512 11a43.259 43.259 0 00.915 10.769c.33 1.528.776 3.029 1.334 4.49a16.438 16.438 0 001.917 3.525 11.66 11.66 0 004.383 3.727c1.261.598 2.04.8 2.011.951-.029.151-.843.151-2.278-.274a10.964 10.964 0 01-5.16-3.604 16.518 16.518 0 01-2.3-3.727 28.531 28.531 0 01-1.586-4.699 40.503 40.503 0 01-1.139-11.187c.08-3.957.375-7.698.663-11.086.289-3.388.613-6.437.88-8.996.57-5.111.886-8.268 1.153-8.268z" fill="#000"/><path d="M54.06 268.651a3.609 3.609 0 01-1.628.188 3.606 3.606 0 01-1.622-.188 3.708 3.708 0 011.622-.187 3.74 3.74 0 011.629.187zM53.967 260.809a3.533 3.533 0 01-1.571-.151 3.461 3.461 0 01-1.492-.519 3.394 3.394 0 011.571.151c.53.057 1.041.234 1.492.519zM54.356 252.029a4.787 4.787 0 01-1.874.037 4.739 4.739 0 01-1.852-.346 4.88 4.88 0 011.881 0 4.92 4.92 0 011.845.309zM53.102 244.259a3.282 3.282 0 01-1.441-.447c-.764-.346-1.355-.721-1.312-.793a3.281 3.281 0 011.442.447c.77.325 1.355.699 1.311.793zM53.867 237.664a3.508 3.508 0 01-1.529-.93c-.72-.642-1.225-1.305-1.146-1.37.08-.065.656.462 1.391 1.089.736.627 1.341 1.117 1.284 1.211zM56.151 232.784c-.086.05-.468-.534-.836-1.305-.368-.771-.598-1.442-.505-1.442.094 0 .469.534.844 1.305.375.771.59 1.399.497 1.442zM62.675 231.068c.086.065-.274.635-.721 1.334-.447.699-.771 1.268-.865 1.232-.094-.036.1-.72.54-1.441.44-.721.974-1.19 1.046-1.125zM65.731 239.667a3.521 3.521 0 01-1.751.426 3.461 3.461 0 01-1.788-.137 5.879 5.879 0 011.759-.238 6.108 6.108 0 011.78-.051zM65.637 245.888a4.465 4.465 0 01-1.499 1.017 4.404 4.404 0 01-1.665.72c-.05-.093.62-.547 1.492-1.016.5-.355 1.07-.601 1.672-.721zM65.81 256.044c-.043.094-.656-.108-1.37-.454-.713-.346-1.254-.721-1.21-.785.043-.065.655.108 1.369.446.714.339 1.29.707 1.211.793zM65.248 261.66c.043.093-.454.425-1.118.72-.663.296-1.232.498-1.275.404-.044-.094.454-.425 1.11-.721.656-.295 1.203-.497 1.283-.403zM63.727 273.524c-.08.065-.57-.346-1.095-.93-.527-.584-.894-1.11-.822-1.175.072-.065.57.339 1.095.923.527.584.901 1.11.822 1.182zM59.892 283.861a8.285 8.285 0 01-.49-1.867 7.856 7.856 0 01-.432-1.874c.414.514.687 1.128.793 1.78.217.63.262 1.307.13 1.961zM52.915 289.202a8.96 8.96 0 01.26-3.604c.145.599.165 1.223.058 1.831a4.655 4.655 0 01-.318 1.773zM52.526 277.171a3.756 3.756 0 01-1.492-.72c-.764-.505-1.341-.981-1.283-1.067.057-.087.72.252 1.492.721.77.468 1.34.98 1.283 1.066zM61.42 258.517c-.072.079-.576-.238-1.131-.721s-.945-.923-.88-1.002c.065-.079.57.238 1.125.721s.951.93.886 1.002zM56.468 245.809c.072.072-.382.649-1.023 1.276-.642.627-1.211 1.081-1.283 1.009-.072-.072.382-.649 1.023-1.276.642-.627 1.211-1.081 1.283-1.009zM61.896 235.862c.05.093-.39.439-.988.778s-1.117.548-1.167.454c-.05-.093.389-.439.98-.778s1.117-.577 1.175-.454zM56.224 282.109c-.094 0-.375-.411-.635-1.009-.26-.599-.382-1.11-.288-1.154.093-.043.382.411.634 1.01.252.598.39 1.11.288 1.153zM33.496 214.843a5.378 5.378 0 01-2.018.086 5.53 5.53 0 01-1.997-.295 5.66 5.66 0 012.019-.079 5.617 5.617 0 011.996.288zM32.862 203.252a5.191 5.191 0 01-1.867-.569 5.346 5.346 0 01-1.73-.916 5.216 5.216 0 011.867.57c.63.192 1.217.503 1.73.915zM33.922 188.865a3.428 3.428 0 01-2.019-.541 3.378 3.378 0 01-1.578-1.362c.072-.079.771.512 1.751 1.031.98.519 1.867.764 1.846.872zM36.581 182.147a5.125 5.125 0 01-1.095-1.622 5.277 5.277 0 01-.764-1.795 5.137 5.137 0 011.095 1.629c.364.544.623 1.15.764 1.788zM45.743 180.179a5.518 5.518 0 01-1.146 1.68c-.72.865-1.362 1.513-1.442 1.441a5.523 5.523 0 011.154-1.687c.713-.857 1.355-1.506 1.434-1.434zM48.078 190.112c.058.086-.562.62-1.376 1.204a4.561 4.561 0 01-1.593.901c-.065-.087.555-.628 1.376-1.204a4.423 4.423 0 011.593-.901zM49.152 203.887c-.463.31-.99.515-1.542.598a3.7 3.7 0 01-1.636.245c.464-.311.99-.518 1.542-.606a3.756 3.756 0 011.636-.237zM48.51 215.556a5.14 5.14 0 01-1.91.087 5.135 5.135 0 01-1.895-.288 5.033 5.033 0 011.917-.087 4.783 4.783 0 011.889.288zM48.727 227.363a6.442 6.442 0 01-1.809 1.226 6.63 6.63 0 01-1.997.893 6.315 6.315 0 011.81-1.225 6.657 6.657 0 011.996-.894zM32.43 233.108a5.766 5.766 0 01-2.048-.245 5.711 5.711 0 01-1.975-.605 5.628 5.628 0 012.047.238c.69.083 1.36.291 1.975.612zM32.826 243.394a6.458 6.458 0 01-1.535 1.535 6.668 6.668 0 01-1.802 1.247c.43-.596.96-1.115 1.564-1.535a6.706 6.706 0 011.773-1.247zM33.064 274.13a8.523 8.523 0 01-2.025-1.442 8.532 8.532 0 01-1.788-1.73c.745.374 1.428.86 2.025 1.442a8.338 8.338 0 011.788 1.73zM32.653 282.786c.065.08-.498.664-1.255 1.312a4.51 4.51 0 01-1.499 1.017c-.065-.08.497-.663 1.254-1.305.757-.642 1.428-1.096 1.5-1.024zM47.87 263.512a6.369 6.369 0 01-1.587 1.442 6.234 6.234 0 01-1.809 1.117c.44-.57.977-1.058 1.586-1.442a5.928 5.928 0 011.81-1.117zM48.093 248.728a3.466 3.466 0 01-1.745 1.161 3.518 3.518 0 01-2.061.324c.629-.253 1.271-.472 1.924-.656 1.045-.418 1.817-.915 1.882-.829zM48.309 237.93a4.076 4.076 0 01-1.658-.461 3.997 3.997 0 01-1.514-.807c.577.034 1.14.191 1.65.461a4.067 4.067 0 011.522.807zM49.13 292.69a6.861 6.861 0 01-1.931 1.118 6.893 6.893 0 01-2.09.778 6.67 6.67 0 011.931-1.117 6.688 6.688 0 012.09-.779zM32.66 224.177a8.407 8.407 0 01-2.026-1.549 8.91 8.91 0 01-1.78-1.838c.747.418 1.43.942 2.026 1.557a9.176 9.176 0 011.78 1.83zM49.57 218.692a6.194 6.194 0 01-1.7 1.312 6.37 6.37 0 01-1.904 1.009 6.547 6.547 0 011.701-1.326 6.328 6.328 0 011.903-.995zM32.227 195.633a3.146 3.146 0 01-1.506 0c-.822-.122-1.442-.295-1.442-.403a3.197 3.197 0 011.507 0c.807.122 1.456.302 1.441.403zM48.302 196.477c.036.1-.598.418-1.442.72a3.373 3.373 0 01-1.55.354 3.652 3.652 0 011.442-.721 3.584 3.584 0 011.55-.353zM39.86 221.669a5.763 5.763 0 01-1.13 1.701c-.722.872-1.334 1.528-1.442 1.442a5.386 5.386 0 011.124-1.701c.728-.851 1.362-1.507 1.449-1.442zM39.84 210.633c-.051.08-.721-.331-1.298-1.139a2.543 2.543 0 01-.605-1.614c.108 0 .396.663.915 1.441.519.779 1.088 1.247.988 1.312zM39.63 194.999c.073.087-.519.649-1.088 1.442-.304.526-.646 1.03-1.023 1.506a2.886 2.886 0 01.72-1.723c.606-.843 1.334-1.304 1.392-1.225zM38.362 237.52a3.349 3.349 0 01.353-1.543c.288-.822.605-1.442.72-1.442a3.608 3.608 0 01-.352 1.543c-.31.843-.628 1.478-.721 1.442zM35.983 260.175a9.693 9.693 0 01-1.34-2.343 9.939 9.939 0 01-1.01-2.509 10.048 10.048 0 011.348 2.343c.449.786.786 1.63 1.002 2.509zM40.221 263.728c-.291.956-.7 1.871-1.218 2.725-.41.916-.93 1.777-1.55 2.566a23.814 23.814 0 012.768-5.276v-.015zM40.02 287.883a8.752 8.752 0 01-1.34-2.235 9.246 9.246 0 01-1.01-2.407 8.98 8.98 0 011.34 2.234 9.566 9.566 0 011.01 2.408zM38.57 295.271a4.97 4.97 0 01-.9 1.687c-.584.879-1.125 1.542-1.212 1.485a5.03 5.03 0 01.901-1.694c.584-.873 1.14-1.536 1.212-1.478z" fill="#263238"/><path opacity=".3" d="M41.937 183.242c.519 0 .944 27.391.944 61.161s-.425 61.168-.944 61.168c-.52 0-.938-27.391-.938-61.168s.426-61.161.938-61.161zM58.912 232.604c.252 0 .562 3.128.72 8.188.16 5.06.13 12.045.267 19.75a47.674 47.674 0 01-.944 11.014 22.595 22.595 0 01-1.593 4.649 33.67 33.67 0 01-2.047 3.698 8.993 8.993 0 01-2.509 2.61c-.757.493-1.59.86-2.465 1.088-1.441.368-2.205.375-2.234.259-.03-.115.72-.389 1.982-.944a9.178 9.178 0 002.105-1.254 8.247 8.247 0 001.99-2.458 38.472 38.472 0 001.758-3.64 22.646 22.646 0 001.297-4.383c.6-3.51.842-7.072.721-10.632-.137-7.727.108-14.726.281-19.771.173-5.046.44-8.167.67-8.174z" fill="#000"/><path d="M60.058 305.766H17.703v5.817h42.355v-5.817z" fill="#263238"/><path d="M60.123 311.662H17.595v-5.968h42.528v5.968zm-42.348-.115h42.211v-5.673h-42.21v5.673z" fill="#263238"/><path d="M21.624 309.651l6.098 30.08h22.561l5.897-28.141-34.556-1.939z" fill="#263238"/><path d="M21.624 336.883l3.258 4.469h27.42l3.878-4.469H21.624zM60.123 311.547c0 .086-9.515.151-21.25.151-11.734 0-21.249-.065-21.249-.151 0-.087 9.508-.151 21.25-.151 11.741 0 21.249.086 21.249.151zM53.506 323.801c0 .079-6.408.151-14.315.151-7.908 0-14.316-.072-14.316-.151 0-.08 6.416-.145 14.345-.145 7.928 0 14.286.065 14.286.145zM53.26 325.559c0 .08-6.3.145-14.07.145-7.77 0-14.063-.065-14.063-.145 0-.079 6.293-.151 14.064-.151 7.77 0 14.07.065 14.07.151zM53.758 322.359c0 .087-6.631.151-14.805.151s-14.813-.064-14.813-.151c0-.086 6.632-.144 14.813-.144 8.181 0 14.805.065 14.805.144z" fill="#455A64"/><path d="M415.685 134.775l9.587-3.07 15.857-.397 11.043 2.919 4.606 44.986c.418 3.979-.54 8.816-3.496 11.533l-.137.152-32.616-.39c-1.154 0-2.257-2.933-2.884-5.045l-1.585-14.02-1.298-5.19-3.726 10.401-13.501 9.573s-3.46-3.496-1.442-13.415c1.225-6.126 5.622-17.436 8.801-25.185-.007 0 2.191-10.091 10.791-12.852z" fill="#FF725E"/><path d="M459.496 181.887l-3.864-6.256-3.46-41.404s5.486 2.098 7.54 7.273c1.543 3.893 10.589 34.895 10.589 34.895" fill="#FF725E"/><path d="M411.389 149.365c.101 0 1.124 4.627 2.285 10.386 1.16 5.76 2.011 10.438 1.91 10.459-.101.022-1.124-4.627-2.278-10.387-1.153-5.759-2.018-10.458-1.917-10.458zM411.158 174.045a18.472 18.472 0 00-2.602-1.204 9.856 9.856 0 00-11.814 4.541c-.446.847-.82 1.729-1.117 2.639a2.384 2.384 0 01.122-.772c.172-.692.429-1.36.764-1.989a9.76 9.76 0 0112.131-4.671 8.649 8.649 0 011.903.966c.225.136.431.301.613.49zM454.954 147.599c.087 1.91.318 6.544.649 13.327.209 3.64.397 6.942.541 9.421.072 1.146.122 2.112.173 2.884.036.349.036.702 0 1.052a6.739 6.739 0 01-.166-1.038c-.079-.678-.18-1.643-.288-2.883a273.644 273.644 0 01-.649-9.421 278.88 278.88 0 01-.353-9.436 21.599 21.599 0 01.093-3.906zM431.651 190.717a2.553 2.553 0 01-.988-.612 6.953 6.953 0 01-2.414-4.938 2.43 2.43 0 01.122-1.153 11.39 11.39 0 00.916 3.705 11.623 11.623 0 002.364 2.998zM450.911 180.359c.158.528.222 1.08.187 1.629a12.132 12.132 0 01-2.508 7.41 4.882 4.882 0 01-1.146 1.175 18.986 18.986 0 002.638-4.808c.532-1.753.812-3.573.829-5.406z" fill="#263238"/><path d="M412.11 153.776a29.527 29.527 0 01-4.606-.771 28.796 28.796 0 01-4.527-1.132 29.43 29.43 0 014.606.771c1.537.253 3.051.632 4.527 1.132zM412.232 155.354c0 .109-2.163-.418-4.729-.973-2.566-.555-4.721-.944-4.707-1.045a34.57 34.57 0 019.436 2.018zM454.933 156.155c-.14.031-.283.043-.425.036l-1.204.036-4.426.086c-3.734.087-8.895.26-14.582.613-5.687.353-10.812.829-14.553 1.218l-4.404.461-1.197.123a1.72 1.72 0 01-.418 0c.132-.049.271-.081.411-.094l1.189-.187c1.031-.159 2.53-.361 4.39-.584a257.71 257.71 0 0114.553-1.326 252.55 252.55 0 0114.611-.505h4.426l1.204.036c.143.018.285.047.425.087zM455.171 157.726c-.137.033-.277.05-.418.05l-1.204.08-4.433.23c-3.741.195-8.902.49-14.603.916-5.702.425-10.813.894-14.582 1.254l-4.412.418-1.204.101a1.777 1.777 0 01-.425 0c.135-.046.276-.075.418-.087l1.19-.173c1.038-.144 2.544-.331 4.404-.54 3.726-.425 8.88-.937 14.582-1.363a378.688 378.688 0 0114.625-.807c1.874-.065 3.388-.101 4.433-.115h1.211c.14-.007.281.005.418.036zM461.939 149.083a17.28 17.28 0 01-3.215 1.514 17.136 17.136 0 01-3.359 1.168 17.28 17.28 0 013.215-1.514 17.136 17.136 0 013.359-1.168zM462.639 150.129a22.51 22.51 0 01-3.605 1.989 22.836 22.836 0 01-3.769 1.651 22.91 22.91 0 013.604-1.99 23.097 23.097 0 013.77-1.65z" fill="#FAFAFA"/><path opacity=".3" d="M411.396 149.61c.05 3.15.151 6.739-.079 9.846-.231 3.107.079 7.864 2.285 10.091l1.196-3.474s-3.078-15.137-3.402-16.442M447.199 190.833c1.953-2.379 3.539-5.226 3.827-8.29.721.779.195 2.264-.036 3.309a11.749 11.749 0 01-1.103 3.308c-.584 1.01-1.65 1.565-1.593 1.694" fill="#000"/><path d="M426.144 303.877l-18.02 14.777 18.265 22.504c2.04-1.874-3.092-17.019-3.092-17.019l11.936-8.988-9.089-11.274z" fill="#FF725E"/><path opacity=".6" d="M418.633 316.384a1.186 1.186 0 00-1.564.216 1.135 1.135 0 00.202 1.557 1.237 1.237 0 001.65-.238 1.173 1.173 0 00-.382-1.593M408.203 318.589l1.809-1.499 16.737 22.345s.368 1.355-.432 1.809l-18.114-22.655z" fill="#fff"/><path d="M423.715 324.406c-.108.087-.606-.418-1.399-.677-.792-.26-1.492-.166-1.528-.303-.036-.137.721-.483 1.687-.166.966.317 1.362 1.089 1.24 1.146zM424.659 327.563c-.087.109-.663-.216-1.442-.209-.778.008-1.348.296-1.441.181-.094-.116.482-.685 1.441-.678.959.007 1.543.62 1.442.706zM422.921 331.196c-.108-.079.317-.684 1.146-.886.829-.202 1.493.115 1.442.23-.05.116-.634.065-1.312.245-.677.181-1.182.512-1.276.411zM426.209 322.056c-.137.036-.397-.591-.944-1.175-.548-.583-1.132-.915-1.089-1.052.043-.137.822 0 1.442.721s.721 1.492.591 1.506zM428.457 319.353c-.043.036-.468-.338-.908-1.131a6.542 6.542 0 01-.598-1.442 7.34 7.34 0 01-.18-.93 1.722 1.722 0 010-.555.608.608 0 01.54-.526.795.795 0 01.642.281c.116.141.211.299.281.469.136.287.247.586.332.893.135.52.188 1.057.158 1.593.023.496-.108.987-.375 1.406-.079 0 .065-.548 0-1.406a5.356 5.356 0 00-.576-2.277c-.13-.289-.289-.491-.447-.469-.159.022-.08 0-.108.13a1.349 1.349 0 000 .411c.029.293.075.584.137.872.112.493.269.976.468 1.442.239.398.451.812.634 1.239z" fill="#263238"/><path d="M428.169 319.339c-.05 0 .166-.562.843-1.182a4.805 4.805 0 011.363-.844c.296-.12.602-.211.915-.274a1.217 1.217 0 011.154.26.729.729 0 01.072.721 2.07 2.07 0 01-.325.447c-.208.241-.451.45-.721.62a3.3 3.3 0 01-1.556.461 1.892 1.892 0 01-1.442-.353c0-.087.548.122 1.384 0 .48-.069.94-.241 1.348-.505.237-.15.451-.335.634-.548.209-.23.332-.475.231-.548a.863.863 0 00-.721-.093 4.82 4.82 0 00-.836.216c-.467.177-.907.42-1.305.721-.656.497-.973.944-1.038.901z" fill="#263238"/><path d="M418.128 318.034l.224 23.297 28.984-.123c-.188-2.768-15.202-8.26-15.202-8.26l.476-14.935-14.482.021z" fill="#FF725E"/><path opacity=".6" d="M423.167 331.73a1.181 1.181 0 00-.815 1.355 1.14 1.14 0 001.334.814 1.255 1.255 0 00.857-1.441 1.171 1.171 0 00-1.484-.721M418.366 341.259v-2.35l27.874.944s1.29.562 1.139 1.442l-29.013-.036z" fill="#fff"/><path d="M432.602 332.818c0 .144-.721.209-1.442.663-.721.454-1.059 1.06-1.196 1.002-.137-.058.079-.872.93-1.441.85-.57 1.737-.354 1.708-.224zM435.665 334.065c0 .137-.583.375-1.059.98-.476.606-.613 1.233-.721 1.226-.108-.007-.231-.808.375-1.543.605-.735 1.405-.8 1.405-.663zM437.388 337.691c-.13.036-.324-.671.036-1.442.361-.771 1.016-1.088 1.081-.973.065.115-.353.533-.634 1.175-.281.641-.339 1.225-.483 1.24zM432.336 329.401c-.065.13-.721-.064-1.514 0-.793.065-1.442.318-1.492.195-.051-.122.519-.627 1.441-.685.923-.057 1.629.382 1.565.49zM431.629 325.963a2.773 2.773 0 01-1.441 0 6.446 6.446 0 01-1.514-.454 6.11 6.11 0 01-.836-.44 1.768 1.768 0 01-.44-.338.624.624 0 01-.072-.757.78.78 0 01.62-.325c.185-.001.369.023.548.072.308.076.609.178.901.303.491.22.943.517 1.34.88.678.619.909 1.146.858 1.174-.05.029-.389-.396-1.081-.908a5.884 5.884 0 00-1.298-.721 5.688 5.688 0 00-.828-.252c-.31-.079-.57-.079-.649.058-.08.137 0 .072 0 .166.095.095.201.177.317.245a7.804 7.804 0 002.213.966c.461.077.917.188 1.362.331z" fill="#263238"/><path d="M431.442 326.172a2.312 2.312 0 01-.39-1.398 4.747 4.747 0 01.563-2.48 1.196 1.196 0 01.922-.721.728.728 0 01.606.404 1.9 1.9 0 01.151.533 3.12 3.12 0 010 .974 3.346 3.346 0 01-.613 1.506c-.562.721-1.153.923-1.167.879-.015-.043.447-.353.872-1.074.251-.414.407-.88.454-1.362.039-.28.039-.564 0-.843-.043-.303-.166-.555-.274-.519-.108.036-.389.23-.512.475a5.535 5.535 0 00-.353.786c-.161.465-.253.95-.274 1.442-.086.843.094 1.377.015 1.398z" fill="#263238"/><path d="M420.529 190.508s-3.857 4.131-5.767 8.088c-1.91 3.957-3.099 13.4-3.099 13.4s-5.327 11.864-4.52 17.934c.808 6.069 6.235 47.573 6.235 47.573s-.266 40.366 3.604 47.574l.851 3.885 15.519-2.754.872-2.162 2.365-79.289 9.666-53.859-25.726-.39z" fill="#263238"/><path d="M453.282 190.905l.858 4.267s3.409 4.022 3.885 8.924c.476 4.901 1.261 19.995 1.261 19.995l-1.441 3.755s3.604 2.682 4.195 4.441c.591 1.758 10.682 48.294 9.334 51.055-1.347 2.76-37.258 36.682-37.258 36.682l-10.243-13.523 18.669-21.314 4.952-2.249 1.024-4.325-1.147-2.732-.079-4.505-12.311-26.482.98-22.792 7.705-31.32 9.616.123z" fill="#263238"/><path d="M427.484 206.719a2.476 2.476 0 01-.101-.634 19.51 19.51 0 01-.079-1.737c.005-1.908.118-3.814.339-5.709.252-2.162.483-4.109.663-5.673.051-.786.152-1.569.303-2.342.06.79.046 1.584-.043 2.371-.094 1.442-.31 3.467-.548 5.68-.238 2.213-.404 4.224-.447 5.68-.043 1.456-.022 2.357-.087 2.364zM430.361 197.169a10.385 10.385 0 01-.772-3.208 10.188 10.188 0 01-.086-3.301c.222 1.072.373 2.158.454 3.251.209 1.075.344 2.164.404 3.258zM439.068 225.561a4.6 4.6 0 01-.072.923l-.317 2.508a427.38 427.38 0 00-.995 8.261 334.083 334.083 0 00-.793 8.289 321.577 321.577 0 00-.223 2.516 4.629 4.629 0 01-.13.915 4.517 4.517 0 010-.93c0-.591.05-1.441.108-2.522.115-2.127.339-5.046.721-8.304.382-3.258.757-6.156 1.096-8.261.173-1.059.324-1.91.439-2.494.022-.305.077-.607.166-.901zM442.701 190.818a8.13 8.13 0 010 1.168c-.036.721-.101 1.831-.195 3.172a407.099 407.099 0 01-.901 10.444 391.542 391.542 0 01-1.16 10.423 144.484 144.484 0 01-.426 3.15c-.034.39-.104.776-.209 1.153-.012-.39.01-.781.065-1.167.08-.815.181-1.874.303-3.165.281-2.732.649-6.386 1.052-10.43.404-4.044.721-7.698 1.01-10.43.129-1.283.237-2.35.317-3.164.012-.388.06-.774.144-1.154zM440.322 193.983c-.064 0-.043-.512-.591-.894a1.155 1.155 0 00-1.066-.108 1.104 1.104 0 00-.68 1.132 1.108 1.108 0 001.351.975c.154-.035.298-.102.424-.197.277-.238.473-.555.562-.908 0 0 .065.108.044.324a1.288 1.288 0 01-.44.793 1.39 1.39 0 01-2.038-.25 1.443 1.443 0 01.654-2.194 1.396 1.396 0 011.341.217c.249.19.416.469.468.778.029.216-.007.332-.029.332z" fill="#455A64"/><path d="M438.117 234.175c-.065 0-.159-.865-.483-2.234a21.855 21.855 0 00-5.046-9.601c-.944-1.046-1.607-1.622-1.564-1.673.185.095.357.214.512.353.436.359.853.742 1.247 1.147a19.282 19.282 0 015.11 9.73c.109.553.183 1.111.224 1.673.035.2.035.405 0 .605zM461.449 278.483s-.122.152-.382.375a8.128 8.128 0 01-1.211.808c-.633.354-1.302.639-1.997.85-.849.254-1.724.411-2.609.469a12.092 12.092 0 01-2.653-.159 10.373 10.373 0 01-2.083-.62 7.703 7.703 0 01-1.29-.663c-.288-.195-.44-.303-.425-.332.014-.028.677.346 1.816.721.662.237 1.345.411 2.04.519 1.705.273 3.449.172 5.111-.295a11.892 11.892 0 001.968-.721c1.081-.534 1.672-1.009 1.715-.952zM454.861 283.125a20.973 20.973 0 01-3.921.109 20.665 20.665 0 01-3.921-.26 40.456 40.456 0 017.842.151zM435.457 281.511c.013.144.013.288 0 .432v1.24c0 1.081 0 2.638-.072 4.563-.087 3.849-.303 9.168-.555 15.036a703.448 703.448 0 00-.505 15.036c-.043 1.889-.072 3.438-.094 4.563v1.24a2.08 2.08 0 010 .432 1.57 1.57 0 01-.036-.432v-1.24c0-1.081-.036-2.638 0-4.563 0-3.856.144-9.176.397-15.051.252-5.874.49-11.136.663-15.028.079-1.889.144-3.432.194-4.556 0-.505.051-.915.065-1.24a1.903 1.903 0 01-.057-.432z" fill="#455A64"/><path d="M405.6 174.845a10.04 10.04 0 00-7.82 5.99c-.8 1.889-1.19 3.914-.231 5.392 2.379 3.669 5.673 3.301 8.866 2.011 3.193-1.29 25.949-9.738 25.949-9.738l-1.881-7.281-24.883 3.626z" fill="#FFBE9D"/><path d="M447.92 167.961l-5.097.901-2.162 1.327s.49-.62.908-1.255a17.988 17.988 0 012.112-2.083l3.792-.72s2.162-.346 2.162-1.839h-2.941s2.999-.468 2.804-1.975l-2.249-.201a.717.717 0 00.506-.294.715.715 0 00.121-.571l-6.155-.166-5.479 4.635-5.211 5.456-1.261.166.245 8.174s4.952-1.038 6.256-1.831c1.305-.793 6.898-6.776 6.898-6.776s3.15-.547 3.965-1.376c.454-.403.736-.966.786-1.572z" fill="#FFBE9D"/><path d="M428.782 179.711h.079l.231-.036.908-.181c.8-.165 1.961-.411 3.438-.793a21.753 21.753 0 002.43-.756c.447-.2.857-.476 1.211-.815.374-.324.72-.677 1.138-1.052 1.55-1.485 3.237-3.222 5.046-5.154h-.065c.961-.159 1.906-.4 2.826-.721.249-.085.49-.191.721-.317.119-.065.235-.137.346-.216l.158-.137.137-.152c.18-.2.332-.423.454-.663.135-.254.214-.534.231-.821v-.152h-.159l-5.096.894-2.162 1.319.18.209.649-.894.324-.447c.112-.146.233-.285.361-.418a24.781 24.781 0 011.672-1.557h-.065l2.278-.425 1.167-.223c.195-.044.397-.072.599-.123a4.13 4.13 0 00.591-.195c.364-.141.694-.36.966-.641.283-.289.444-.676.447-1.081v-.144h-.137l-2.941-.036v.281a6.583 6.583 0 001.83-.584c.299-.14.566-.339.786-.584a1.216 1.216 0 00.303-.959v-.115h-.115l-2.372-.144v.274c.24-.044.46-.162.627-.339a.83.83 0 00.195-.721v-.115h-.108l-6.113-.195h-.05v.036l-5.471 4.642-5.19 5.486h.05l-5.168.72-1.376.202-.346.058h-.123.029l.353-.036 1.377-.166 5.182-.649 5.226-5.442 5.493-4.613h-.087l6.113.216-.137-.115a.565.565 0 01-.123.476.956.956 0 01-.475.252l-.988.209 1.009.065 2.372.137-.13-.116a.94.94 0 01-.245.721 2.158 2.158 0 01-.721.512 6.279 6.279 0 01-1.752.555v.288h2.941l-.137-.144a1.303 1.303 0 01-.374.894c-.245.249-.54.443-.865.569a3.103 3.103 0 01-.555.181c-.181.05-.382.079-.577.122l-1.175.224-2.271.425h-.043a29.595 29.595 0 00-1.694 1.579c-.129.144-.259.288-.374.439l-.332.462-.634.879-.418.577.598-.375 2.162-1.327h-.043l5.089-.908-.151-.13a1.853 1.853 0 01-.202.721 2.735 2.735 0 01-.418.613c-.344.351-.77.611-1.24.757-.906.318-1.836.559-2.782.721-1.817 1.939-3.496 3.683-5.046 5.175-.382.375-.757.721-1.132 1.06-.334.33-.725.598-1.153.793-.782.304-1.581.564-2.393.778-1.442.396-2.631.663-3.424.851l-.901.216-.223.057-.051.282z" fill="#EB996E"/><path d="M439.45 167.385c.354-.204.685-.446.987-.721.584-.49 1.384-1.175 2.256-1.939l.238-.216-.057-.007a69.658 69.658 0 002.753-.159 4.83 4.83 0 001.117-.144 4.503 4.503 0 00-1.124-.051c-.721 0-1.672 0-2.761.072h-.05v.036l-.245.21a133.76 133.76 0 00-2.199 1.996 5.328 5.328 0 00-.915.923zM439.868 164.602c.328-.187.633-.412.908-.67.534-.447 1.276-1.081 2.091-1.802h-.094 3.337c.415.023.832-.004 1.24-.079a5.493 5.493 0 00-1.24-.123 85.355 85.355 0 00-2.991-.101h-.404v.044a72.706 72.706 0 00-2.032 1.859 4.216 4.216 0 00-.815.872z" fill="#EB996E"/><path d="M425.077 116.409a48.822 48.822 0 01-2.342-8.015 16.859 16.859 0 01.418-8.261c.137-.403 1.312-3.092 1.73-3.063.302 0-.397 2.523-.238 2.775a14.27 14.27 0 011.859 8.311 37.352 37.352 0 01-1.441 8.253" fill="#263238"/><path d="M433.28 139.41a7.93 7.93 0 01-8.009-7.705l-.785-25.993c-.433-6.977 3.265-13.047 10.25-13.284h.648a12.499 12.499 0 0112.182 11.785c.339 6.047.634 12.737.519 15.973-.245 6.704-6.977 7.583-6.977 7.583s0 1.557.05 3.525a7.924 7.924 0 01-4.819 7.467 7.93 7.93 0 01-3.059.635v.014z" fill="#FFBE9D"/><path d="M441.115 127.87a16.204 16.204 0 01-8.65-2.797s2.011 4.93 8.715 4.491l-.065-1.694z" fill="#EB996E"/><path d="M436.387 117.029c.148-.155.329-.275.529-.352a1.455 1.455 0 011.237.101 1.44 1.44 0 01.346 2.213 1.447 1.447 0 01-.519.366 1.83 1.83 0 01-1.161 0 1.44 1.44 0 01-.721-.468 1.278 1.278 0 01-.108-1.226c.129-.334.349-.626.634-.843" fill="#FF725E"/><path d="M445.793 109.41a.956.956 0 01-.951.944.913.913 0 01-.966-.886.968.968 0 01.951-.945.918.918 0 01.884.533.907.907 0 01.082.354zM446.074 107.493c-.122.122-.836-.433-1.867-.454-1.031-.022-1.795.475-1.91.346-.115-.13.079-.282.411-.512a2.652 2.652 0 011.528-.433 2.605 2.605 0 011.485.519c.31.253.411.483.353.534zM436.221 109.374a.963.963 0 01-.952.937.899.899 0 01-.672-.237.902.902 0 01-.294-.65.969.969 0 01.952-.944.916.916 0 01.67.245.917.917 0 01.296.649zM436.156 107.5c-.123.122-.836-.433-1.867-.454-1.031-.022-1.795.475-1.903.346-.108-.13.072-.274.404-.512a2.652 2.652 0 011.528-.433 2.588 2.588 0 011.485.519c.309.253.41.483.353.534zM439.465 115.241a6.421 6.421 0 011.686-.266c.26 0 .512-.065.563-.245a1.352 1.352 0 00-.159-.786l-.721-2.018c-1.016-2.884-1.737-5.248-1.622-5.284.116-.036 1.031 2.263 2.04 5.139l.721 2.033c.157.322.196.69.108 1.038a.66.66 0 01-.44.375 2.154 2.154 0 01-.446.05 7.054 7.054 0 01-1.73-.036zM436.386 115.876c.173 0 .144 1.117 1.082 1.931.937.815 2.162.721 2.162.88 0 .158-.274.209-.779.209a2.73 2.73 0 01-1.78-.671 2.395 2.395 0 01-.836-1.614c-.029-.469.108-.743.151-.735zM436.278 103.478c-.115.274-1.139.115-2.35.23-1.211.116-2.198.426-2.349.173-.073-.122.108-.382.504-.648a3.98 3.98 0 011.759-.563 3.829 3.829 0 011.824.26c.439.187.655.411.612.548zM445.757 104.566c-.187.231-.887 0-1.744-.065-.858-.065-1.579.123-1.738-.122-.072-.123.051-.354.368-.57a2.379 2.379 0 011.442-.346c.502.018.985.192 1.384.498.288.252.353.497.288.605z" fill="#263238"/><path d="M424.919 110.765c-.116-.05-4.577-1.442-4.541 3.114.036 4.556 4.634 3.604 4.642 3.474.007-.129-.101-6.588-.101-6.588z" fill="#FFBE9D"/><path d="M423.607 115.631s-.08.057-.217.115a.784.784 0 01-.598 0 1.996 1.996 0 01-.93-1.766 2.64 2.64 0 01.217-1.146.913.913 0 01.598-.62.398.398 0 01.468.216c.065.123 0 .216.065.224.065.007.094-.08.058-.267a.499.499 0 00-.187-.281.566.566 0 00-.44-.115 1.126 1.126 0 00-.829.72c-.191.4-.283.84-.267 1.283a2.079 2.079 0 001.182 1.975.85.85 0 00.721-.129c.151-.101.173-.202.159-.209z" fill="#EB996E"/><path d="M444.618 96.853c.721-.425-1.68-2.883-3.518-3.676-2.782-1.21-6.999-1.91-9.529-1.146-3.049.923-5.564 2.487-7.056 5.298a18.066 18.066 0 00-1.875 9.241 5.56 5.56 0 00.721 2.797c.656.987 1.874 1.607 1.874 2.969a2 2 0 00.433 1.37c.865.995 1.917.115 2.386-.757.98-1.802 1.059-3.943 1.11-5.997.102-1.638 0-3.282-.303-4.894a5.135 5.135 0 01-.187-1.55c.006-.855.256-1.69.72-2.408a3.1 3.1 0 01.411-.425 4.128 4.128 0 014.03-.72c2.616.864 4.728 2.291 7.72 1.008.51-.28.949-.675 1.283-1.153a1.332 1.332 0 011.809 0l-.029.043zM424.998 118.997s.05.101-.044.245a.833.833 0 01-.605.31 1.592 1.592 0 01-.959-.209 1.61 1.61 0 01-.721-.959 1.71 1.71 0 01.101-1.204c.145-.301.376-.552.664-.72.497-.274.857-.202.85-.166-.007.036-.317.101-.721.389a1.489 1.489 0 00-.555 1.6 1.4 1.4 0 001.327 1.002c.18.01.36-.038.511-.137.094-.057.123-.158.152-.151zM451.805 187.885c.093.036-.137.792-.793 1.492-.656.699-1.399.98-1.442.886-.043-.093.562-.497 1.161-1.146.598-.649.98-1.276 1.074-1.232z" fill="#263238"/><path d="M448.784 176.849l39.133-2.537a1.304 1.304 0 001.175-.981l5.579-22.345a1.292 1.292 0 00-.242-1.124 1.304 1.304 0 00-1.041-.49l-24.443.396a1.293 1.293 0 00-1.239.98l-5.616 22.576a1.282 1.282 0 01-1.124.973l-13.508 1.442a1.213 1.213 0 00.428.836 1.215 1.215 0 00.898.274z" fill="#455A64"/><path d="M470.373 150.489s-.137.058-.368.195c-.324.22-.589.517-.771.865-.519.893-.721 2.4-1.226 4.188l-3.51 14.048c-.36 1.37-.663 2.703-1.052 4.001-.111.333-.291.64-.527.901-.25.243-.561.414-.901.497-.625.12-1.259.185-1.895.195l-6.488.367-4.382.224-1.189.05a1.72 1.72 0 01-.418 0l.41-.05 1.19-.101 4.382-.31 6.488-.425a10.59 10.59 0 001.845-.195c.294-.071.563-.22.778-.433.209-.231.366-.503.462-.8.374-1.254.677-2.623 1.038-3.986l3.604-14.02.641-2.421c.142-.62.37-1.217.678-1.774a2.3 2.3 0 01.836-.857c.116-.072.243-.125.375-.159z" fill="#263238"/><path d="M494.491 149.948h-.966l-2.58.058c-2.163.043-5.197.144-8.527.26-3.33.115-6.343.209-8.527.23H470.337h.966l2.588-.086 8.519-.303c3.331-.123 6.344-.187 8.528-.187H494.246c.159.007.245.014.245.028z" fill="#263238"/><path d="M481.632 154.136a.724.724 0 01.464 1.165.72.72 0 11-.464-1.165" fill="#fff"/><path d="M478.474 174.924l-22.107 1.392s2.451 8.844 7.562 9.752c4.735.844 15.634-9.298 15.634-9.298l-1.089-1.846z" fill="#FFBE9D"/><path d="M469.543 175.948s1.442-1.953 2.437-1.939c.995.014 3.604-.332 3.604-.332a8.6 8.6 0 001.932-1.809c.648-.944 1.521-2.018 1.924-1.809.404.209.555.332.18 1.197-.374.865-1.268 2.609-1.268 2.609l.901.101s1.535-4.448 2.746-4.253c0 0 .548.389.44.858 0 0 .785-1.247 1.124-.937.339.31.209 1.441 0 2.515s-.425 1.81-.425 1.81l.937-.195s2.703-4.325 3.33-4.166c.627.158.534.922.252 1.477-.281.555-1.83 3.266-1.83 3.266s-4.325 1.794-5.176 2.076c-.85.281-7.936 3.222-7.936 3.222l-3.172-3.691z" fill="#FFBE9D"/><path d="M470.474 177.31c-.058.072-.498-.216-.721-.807a1.21 1.21 0 010-.822c.079-.201.202-.281.238-.252.036.029-.065.447.151.944.216.498.411.865.332.937z" fill="#EB996E"/><path d="M462.631 181.873c.002-.504.131-1 .375-1.442a7.214 7.214 0 012.321-2.782c.99-.698 2.081-1.24 3.236-1.607.46-.197.945-.326 1.442-.382a7.057 7.057 0 01-1.348.627c-1.1.431-2.145.99-3.114 1.665a7.933 7.933 0 00-2.307 2.595c-.418.778-.547 1.34-.605 1.326zM478.388 173.822c.058.086-.591.598-1.52.98a3.217 3.217 0 01-1.766.367 7.083 7.083 0 011.621-.72 7.356 7.356 0 011.665-.627zM482.626 170.463a5.93 5.93 0 01-.201 1.066 6.698 6.698 0 01-.844 2.545 4.024 4.024 0 01-2.292 1.442 2.638 2.638 0 01-1.088.165 4.035 4.035 0 011.009-.418 4.273 4.273 0 002.061-1.376c.42-.747.721-1.555.894-2.394.195-.684.418-1.052.461-1.03z" fill="#EB996E"/><path d="M477.177 341.352c0 .109-105.188.188-234.913.188-129.724 0-234.94-.079-234.94-.188 0-.108 105.166-.187 234.94-.187 129.775 0 234.913.087 234.913.187z" fill="#263238"/></svg>