<svg width="500" height="375" fill="none" xmlns="http://www.w3.org/2000/svg"><path d="M500 328.4H0v.25h500v-.25zM393.18 336h-16.86v.25h16.86V336zM448.56 335.88H404v.25h44.56v-.25zM320.73 337.56h-55.47v.25h55.47v-.25zM259.5 337.56h-20.72v.25h20.72v-.25zM151.56 335.63h-9.1v.25h9.1v-.25zM172.15 335.63h-15.04v.25h15.04v-.25zM133.45 340.14H66.89v.25h66.56v-.25zM237 283.8H43.91a5.71 5.71 0 01-5.7-5.71V6.66A5.71 5.71 0 0143.91 1H237a5.712 5.712 0 015.71 5.71v271.38a5.715 5.715 0 01-1.672 4.038A5.715 5.715 0 01237 283.8zM43.91 1.2a5.46 5.46 0 00-5.45 5.46v271.43a5.459 5.459 0 005.45 5.46H237a5.475 5.475 0 003.858-1.602 5.475 5.475 0 001.602-3.858V6.66A5.473 5.473 0 00237 1.2H43.91zM453.31 283.8h-193.1a5.724 5.724 0 01-4.035-1.675 5.724 5.724 0 01-1.675-4.035V6.66A5.72 5.72 0 01260.21 1h193.1A5.71 5.71 0 01459 6.66v271.43a5.71 5.71 0 01-5.69 5.71zM260.21 1.2a5.47 5.47 0 00-5.46 5.46v271.43a5.473 5.473 0 005.46 5.46h193.1a5.473 5.473 0 005.46-5.46V6.66a5.473 5.473 0 00-5.46-5.46h-193.1z" fill="#E0E0E0"/><path d="M317.79 206.54h-47.36V328.4h47.36V206.54z" fill="#E0E0E0"/><path d="M308.79 328.4h9v-25.59h-18.43l9.43 25.59z" fill="#F0F0F0"/><path d="M140.79 206.54H93.43V328.4h47.36V206.54z" fill="#E0E0E0"/><path d="M317.78 206.54H132.94V312.7h184.84V206.54z" fill="#F0F0F0"/><path d="M228.38 214.25v66.46h82.43v-66.46h-82.43zM139.92 214.26v66.46h82.43v-66.46h-82.43zM310.81 302.81v-4.89h-82.43v4.89h82.43zM222.35 302.81v-4.89h-82.43v4.89h82.43zM310.8 293.36v-4.89h-82.43v4.89h82.43zM222.34 293.37v-4.89h-82.43v4.89h82.43z" fill="#E0E0E0"/><path d="M189.29 221.41H173a25.811 25.811 0 01-18.73-8.05H208a25.786 25.786 0 01-18.71 8.05zM278.58 221.41h-16.3a25.798 25.798 0 01-18.73-8.05h53.76a25.784 25.784 0 01-18.73 8.05zM141.94 328.4h-9v-25.59h18.43l-9.43 25.59z" fill="#F0F0F0"/><path d="M316.77 19.99H68.35v141.9h248.42V19.99zM330.51 15.61H60a1.27 1.27 0 00-1.27 1.27A1.27 1.27 0 0060 18.16h270.51a1.263 1.263 0 00.902-.376 1.265 1.265 0 00.368-.904 1.27 1.27 0 00-1.27-1.27z" fill="#E0E0E0"/><path d="M322.21 19.99H70.89v141.9h251.32V19.99z" fill="#E6E6E6"/><path d="M316.77 161.89H68.35V172h248.42v-10.11z" fill="#E0E0E0"/><path d="M331.27 161.89H79.95V172h251.32v-10.11z" fill="#E6E6E6"/><path d="M314.58 154.27V27.61H78.5v126.66h236.08z" fill="#F5F5F5"/><path d="M195.34 154.27l44.71-126.66h21.1l-44.71 126.66h-21.1zM220.98 154.27l44.71-126.66h8.22l-44.7 126.66h-8.23z" fill="#FAFAFA"/><path d="M314.58 154.27V27.61h-.97v126.66h.97z" fill="#E0E0E0"/><path d="M78.59 13.33H65.48v122.22h13.11V13.33z" fill="#EBEBEB"/><path d="M83.7 13.33H73.49v122.22H83.7V13.33z" fill="#E0E0E0"/><path d="M91.7 13.33H78.59v122.22H91.7V13.33z" fill="#EBEBEB"/><path d="M96.81 13.33H86.6v122.22h10.21V13.33z" fill="#E0E0E0"/><path d="M104.81 13.33H91.7v122.22h13.11V13.33zM309.7 13.33h-7.55v122.22h7.55V13.33z" fill="#EBEBEB"/><path d="M312.66 13.33h-5.89v122.22h5.89V13.33z" fill="#E0E0E0"/><path d="M317.26 13.33h-7.55v122.22h7.55V13.33z" fill="#EBEBEB"/><path d="M320.21 13.33h-5.89v122.22h5.89V13.33z" fill="#E0E0E0"/><path d="M324.81 13.33h-7.55v122.22h7.55V13.33z" fill="#EBEBEB"/><path d="M393.53 66.35h-16.76v45.73h16.76V66.35z" fill="#E6E6E6"/><path d="M370.4 119.71l-3.88 10.57h3.88l23.73-10.57H370.4z" fill="#F0F0F0"/><path d="M366.52 119.71v10.57l23.74-10.57h-23.74z" fill="#E0E0E0"/><path d="M410.99 119.71l-3.88 10.57h3.88l23.73-10.57h-23.73z" fill="#F0F0F0"/><path d="M407.11 119.71v10.57l23.74-10.57h-23.74zM349.11 120.2h25.81v-8.05h-25.81v8.05z" fill="#E0E0E0"/><path d="M448.56 112.15h-73.65v8.05h73.65v-8.05z" fill="#F0F0F0"/><path d="M421.45 112.08h-40.79l-5.05-55.41h40.79l5.05 55.41z" fill="#E0E0E0"/><path d="M423.56 112.08h-40.79l-5.04-55.41h40.79l5.04 55.41z" fill="#F0F0F0"/><path d="M388.35 105.95l-3.93-43.15h28.52l3.93 43.15h-28.52z" fill="#FAFAFA"/><path d="M157.41 188.75s-17.59-30.31 6.81-54.44c0 0 6.37 4.15 6.27 9.73-.1 5.58-6.82 7-5.37 11.64 1.45 4.64 7.79 9.23 3.62 13.08-4.17 3.85.67 7.27.39 12s-11.72 7.99-11.72 7.99z" fill="#E0E0E0"/><path d="M158.74 191.52s7.13-34.31-23.63-49.52c0 0-4.73 5.95-2.88 11.21 1.85 5.26 8.67 4.49 8.77 9.36.1 4.87-4.48 11.21.68 13.55s1.66 7.12 3.42 11.5 13.64 3.9 13.64 3.9z" fill="#E0E0E0"/><path d="M131.8 183.92s.58 22.62 23 22.62 23-22.62 23-22.62h-46z" fill="#F0F0F0"/><path d="M396.35 328.4h2.29l6.52-32.16 1.15-5.63 7.11-35h27.29l14.79 72.79h2.29l-15.07-74.18a1.119 1.119 0 00-1.1-.89h-29.11a1.1 1.1 0 00-1.09.89L405.17 285l-1.17 5.63-7.65 37.77z" fill="#EBEBEB"/><path d="M352.54 328.4h2.29l14.79-72.83h27.29l7.09 35.06 1.14 5.61 6.53 32.16H414l-7.67-37.79-1.16-5.61-6.25-30.78a1.119 1.119 0 00-1.1-.89h-29.11a1.118 1.118 0 00-1.1.89l-15.07 74.18z" fill="#EBEBEB"/><path d="M419.81 254.45h-50.14a17.592 17.592 0 01-17.58-17.23L350.22 161A12.81 12.81 0 01363 148h31.43a12.81 12.81 0 0112.73 11.36l12.65 95.09z" fill="#E6E6E6"/><path d="M392.46 244.84h49.07a6.873 6.873 0 016.87 6.87v.24a2.5 2.5 0 01-2.5 2.5h-53.44v-9.61z" fill="#E6E6E6"/><path d="M250 373.56c107.082 0 193.89-5.068 193.89-11.32 0-6.252-86.808-11.32-193.89-11.32-107.083 0-193.89 5.068-193.89 11.32 0 6.252 86.807 11.32 193.89 11.32z" fill="#F5F5F5"/><path d="M186.55 74.28a33.732 33.732 0 00-.45-5.56 35 35 0 00-34.17-29.3h-.3a34.83 34.83 0 00-28.26 14.5c-.53.73-1 1.48-1.48 2.23a.848.848 0 00-.1.16 34.66 34.66 0 00-5 18v.07a34.883 34.883 0 0045.817 33.023A34.877 34.877 0 00180 94.63c.52-.73 1-1.47 1.47-2.23a.844.844 0 00.1-.16 34.444 34.444 0 004.98-17.96zm-68.27-.79a33.005 33.005 0 014.63-16.2h10.91a55.094 55.094 0 00-2.59 16.2h-12.95zm17.07-16.2h15.56v16.2h-18.18a53.382 53.382 0 012.62-16.2zm17.06-1.5V40.87a12.2 12.2 0 016 2.23c3.71 2.54 6.82 7 9 12.69h-15zm15.54 1.5a51.837 51.837 0 012.4 11.55c.15 1.56.22 3.11.24 4.65h-18.18v-16.2h15.54zm-19.24-16a10.57 10.57 0 012.2-.38v14.91h-15c2.8-7.54 7.34-13.02 12.8-14.56v.03zm2.2 33.73v16.2h-15.53A51.27 51.27 0 01133 79.64c-.14-1.56-.22-3.11-.24-4.65l18.15.03zm0 17.7v14.92a12.237 12.237 0 01-6-2.23c-3.7-2.54-6.81-7-9-12.69h15zm3.7 14.53a10.46 10.46 0 01-2.2.38V92.69h15c-2.8 7.51-7.34 13-12.8 14.53v.03zm-2.2-16V75h18.18a53.067 53.067 0 01-2.62 16.2l-15.56.05zM172.09 75h13a33.12 33.12 0 01-4.63 16.2H169.5a55.094 55.094 0 002.59-16.2zm13-1.5h-13c0-1.58-.1-3.18-.25-4.79a52.854 52.854 0 00-2.29-11.41h10.89a33.406 33.406 0 014.19 11.6c.238 1.52.379 3.052.42 4.59l.04.01zm-13.87-26.33a33.568 33.568 0 018.32 8.63H169c-2.24-6.19-5.61-11.09-9.74-13.93l-.32-.21a33.435 33.435 0 0112.24 5.5l.04.01zm-26.87-5.49c-4.21 2.77-7.67 7.81-10 14.12h-10.5l.73-1.07a33.19 33.19 0 0119.73-13.06l.04.01zm-26 33.32h12.95c0 1.58.1 3.18.25 4.79a53.486 53.486 0 002.29 11.41h-10.95a33.202 33.202 0 01-4.19-11.6 32.53 32.53 0 01-.42-4.6h.07zm5.54 17.7h10.46c2.24 6.19 5.61 11.09 9.74 13.93l.33.21a33.621 33.621 0 01-20.53-14.14zM159 106.81c4.2-2.76 7.66-7.81 10-14.12h10.48c-.24.36-.48.72-.73 1.07A33.151 33.151 0 01159 106.81z" fill="#FF725E"/><path opacity=".8" d="M186.55 74.28a33.732 33.732 0 00-.45-5.56 35 35 0 00-34.17-29.3h-.3a34.83 34.83 0 00-28.26 14.5c-.53.73-1 1.48-1.48 2.23a.848.848 0 00-.1.16 34.66 34.66 0 00-5 18v.07a34.883 34.883 0 0045.817 33.023A34.877 34.877 0 00180 94.63c.52-.73 1-1.47 1.47-2.23a.844.844 0 00.1-.16 34.444 34.444 0 004.98-17.96zm-68.27-.79a33.005 33.005 0 014.63-16.2h10.91a55.094 55.094 0 00-2.59 16.2h-12.95zm17.07-16.2h15.56v16.2h-18.18a53.382 53.382 0 012.62-16.2zm17.06-1.5V40.87a12.2 12.2 0 016 2.23c3.71 2.54 6.82 7 9 12.69h-15zm15.54 1.5a51.837 51.837 0 012.4 11.55c.15 1.56.22 3.11.24 4.65h-18.18v-16.2h15.54zm-19.24-16a10.57 10.57 0 012.2-.38v14.91h-15c2.8-7.54 7.34-13.02 12.8-14.56v.03zm2.2 33.73v16.2h-15.53A51.27 51.27 0 01133 79.64c-.14-1.56-.22-3.11-.24-4.65l18.15.03zm0 17.7v14.92a12.237 12.237 0 01-6-2.23c-3.7-2.54-6.81-7-9-12.69h15zm3.7 14.53a10.46 10.46 0 01-2.2.38V92.69h15c-2.8 7.51-7.34 13-12.8 14.53v.03zm-2.2-16V75h18.18a53.067 53.067 0 01-2.62 16.2l-15.56.05zM172.09 75h13a33.12 33.12 0 01-4.63 16.2H169.5a55.094 55.094 0 002.59-16.2zm13-1.5h-13c0-1.58-.1-3.18-.25-4.79a52.854 52.854 0 00-2.29-11.41h10.89a33.406 33.406 0 014.19 11.6c.238 1.52.379 3.052.42 4.59l.04.01zm-13.87-26.33a33.568 33.568 0 018.32 8.63H169c-2.24-6.19-5.61-11.09-9.74-13.93l-.32-.21a33.435 33.435 0 0112.24 5.5l.04.01zm-26.87-5.49c-4.21 2.77-7.67 7.81-10 14.12h-10.5l.73-1.07a33.19 33.19 0 0119.73-13.06l.04.01zm-26 33.32h12.95c0 1.58.1 3.18.25 4.79a53.486 53.486 0 002.29 11.41h-10.95a33.202 33.202 0 01-4.19-11.6 32.53 32.53 0 01-.42-4.6h.07zm5.54 17.7h10.46c2.24 6.19 5.61 11.09 9.74 13.93l.33.21a33.621 33.621 0 01-20.53-14.14zM159 106.81c4.2-2.76 7.66-7.81 10-14.12h10.48c-.24.36-.48.72-.73 1.07A33.151 33.151 0 01159 106.81z" fill="#FAFAFA"/><path d="M414.29 90.9H99.89v76.18h314.4V90.9z" fill="#FF725E"/><path opacity=".6" d="M414.29 90.9H99.89v76.18h314.4V90.9z" fill="#FAFAFA"/><path d="M407.2 97.99H92.8v76.18h314.4V97.99z" fill="#FF725E"/><path opacity=".3" d="M407.2 97.99H92.8v76.18h314.4V97.99z" fill="#000"/><path d="M400.11 105.08H85.71v76.18h314.4v-76.18z" fill="#FF725E"/><path opacity=".1" d="M400.11 105.08H85.71v76.18h314.4v-76.18z" fill="#FAFAFA"/><path d="M385.11 166.26v-46.18h-284.4v46.18h284.4z" fill="#FF725E"/><path opacity=".9" d="M385.11 166.26v-46.18h-284.4v46.18h284.4z" fill="#FAFAFA"/><path d="M337.27 120.08v46.18h1.67v-46.18h-1.67z" fill="#FF725E"/><path opacity=".6" d="M337.27 120.08v46.18h1.67v-46.18h-1.67z" fill="#FAFAFA"/><path d="M107.8 126.45v33.44h1.67v-33.44h-1.67z" fill="#FF725E"/><path opacity=".6" d="M107.8 126.45v33.44h1.67v-33.44h-1.67z" fill="#FAFAFA"/><path d="M360.43 149a7.38 7.38 0 115.22-12.6 7.376 7.376 0 011.601 8.045A7.38 7.38 0 01360.43 149zm0-12.75a5.383 5.383 0 00-4.741 7.92 5.382 5.382 0 009.22.444 5.382 5.382 0 00-.679-6.794 5.33 5.33 0 00-3.8-1.62v.05z" fill="#FF725E"/><path d="M370 152.14a1 1 0 01-.71-.3l-5.05-5.05a1 1 0 111.41-1.41l5.05 5.05a1.001 1.001 0 010 1.41 1.001 1.001 0 01-.7.3z" fill="#FF725E"/><g opacity=".6" fill="#FAFAFA"><path opacity=".6" d="M360.43 149a7.38 7.38 0 115.22-12.6 7.376 7.376 0 011.601 8.045A7.38 7.38 0 01360.43 149zm0-12.75a5.383 5.383 0 00-4.741 7.92 5.382 5.382 0 009.22.444 5.382 5.382 0 00-.679-6.794 5.33 5.33 0 00-3.8-1.62v.05z"/><path opacity=".6" d="M370 152.14a.987.987 0 01-.71-.3l-5.05-5.05a1 1 0 111.41-1.41l5.05 5.05a1.001 1.001 0 010 1.41 1.001 1.001 0 01-.7.3z"/></g><path d="M292.59 44.85h-31.44v.78h31.44v-.78zM292.59 48.16h-31.44v.78h31.44v-.78zM292.59 51.48h-31.44v.78h31.44v-.78zM292.59 54.79h-31.44v.78h31.44v-.78zM292.59 58.1h-31.44v.78h31.44v-.78zM281.65 61.42h-20.5v.78h20.5v-.78z" fill="#FF725E"/><g opacity=".5" fill="#FAFAFA"><path opacity=".5" d="M292.59 44.85h-31.44v.78h31.44v-.78zM292.59 48.16h-31.44v.78h31.44v-.78zM292.59 51.48h-31.44v.78h31.44v-.78zM292.59 54.79h-31.44v.78h31.44v-.78zM292.59 58.1h-31.44v.78h31.44v-.78zM281.65 61.42h-20.5v.78h20.5v-.78z"/></g><path d="M103.35 187.84h-33.5v.5h33.5v-.5zM103.35 189.96h-33.5v.5h33.5v-.5zM103.35 192.08h-33.5v.5h33.5v-.5zM103.35 194.2h-33.5v.5h33.5v-.5zM103.35 196.32h-33.5v.5h33.5v-.5zM90.91 198.45H69.85v.5h21.06v-.5z" fill="#FF725E"/><g opacity=".4" fill="#FAFAFA"><path opacity=".4" d="M103.35 187.84h-33.5v.5h33.5v-.5zM103.35 189.96h-33.5v.5h33.5v-.5zM103.35 192.08h-33.5v.5h33.5v-.5zM103.35 194.2h-33.5v.5h33.5v-.5zM103.35 196.32h-33.5v.5h33.5v-.5zM90.91 198.45H69.85v.5h21.06v-.5z"/></g><path d="M213.45 49.76a6.32 6.32 0 00-6.32 6.32v20.85a6.32 6.32 0 006.32 6.32 6.32 6.32 0 006.32-6.32V56.08a6.32 6.32 0 00-6.32-6.32z" fill="#FF725E"/><path opacity=".2" d="M213.45 49.76a6.32 6.32 0 00-6.32 6.32v20.85a6.32 6.32 0 006.32 6.32 6.32 6.32 0 006.32-6.32V56.08a6.32 6.32 0 00-6.32-6.32z" fill="#FAFAFA"/><path d="M229.29 37.33a6.322 6.322 0 00-6.29 6.32v33.28a6.32 6.32 0 006.32 6.32 6.32 6.32 0 006.32-6.32V43.65a6.31 6.31 0 00-1.862-4.48 6.318 6.318 0 00-4.488-1.84z" fill="#FF725E"/><path opacity=".3" d="M229.29 37.33a6.322 6.322 0 00-6.29 6.32v33.28a6.32 6.32 0 006.32 6.32 6.32 6.32 0 006.32-6.32V43.65a6.31 6.31 0 00-1.862-4.48 6.318 6.318 0 00-4.488-1.84z" fill="#000"/><path d="M245.12 62.19a6.32 6.32 0 00-6.32 6.32v8.42a6.321 6.321 0 006.32 6.32 6.313 6.313 0 004.475-1.848 6.316 6.316 0 001.855-4.472v-8.42a6.324 6.324 0 00-3.909-5.842 6.315 6.315 0 00-2.421-.478z" fill="#FF725E"/><path opacity=".6" d="M245.12 62.19a6.32 6.32 0 00-6.32 6.32v8.42a6.321 6.321 0 006.32 6.32 6.313 6.313 0 004.475-1.848 6.316 6.316 0 001.855-4.472v-8.42a6.324 6.324 0 00-3.909-5.842 6.315 6.315 0 00-2.421-.478z" fill="#FAFAFA"/><path d="M378.61 205.13h25.55l-43.62-45.24 18.07 45.24z" fill="#FF725E"/><path opacity=".1" d="M378.61 205.13h25.55l-43.62-45.24 18.07 45.24z" fill="#000"/><path d="M354.05 181.25l6.49-21.36 3.68 21.36h-10.17z" fill="#FF725E"/><path d="M360.54 159.89v63.3l4.52-4.51 13.55-13.55-18.07-45.24z" fill="#FF725E"/><path opacity=".3" d="M360.54 159.89v63.3l4.52-4.51 13.55-13.55-18.07-45.24z" fill="#FAFAFA"/><path d="M405.72 24.11h-56A10.76 10.76 0 00339 34.82v28.92a10.762 10.762 0 0010.71 10.71h41.09l-.3 10.11 10.37-10.11h4.83a10.76 10.76 0 0010.72-10.71V34.82a10.758 10.758 0 00-10.7-10.71zm-57.26 12.32a2.999 2.999 0 013-3h12.89a2.998 2.998 0 013 3 2.999 2.999 0 01-3 3h-12.9a3.001 3.001 0 01-2.99-3zm54.08 28h-22.28a3.002 3.002 0 01-3.518-2.955 2.999 2.999 0 013.518-2.955h22.28a3 3 0 110 5.91zm0-12.51h-48.09a3.002 3.002 0 01-3.518-2.955 2.999 2.999 0 013.518-2.955h48.09a3 3 0 110 5.91zm0-12.51h-28.47a2.998 2.998 0 01-3-3 2.999 2.999 0 013-3h28.47a2.998 2.998 0 013 3 2.999 2.999 0 01-3 3zM318.14 115.78A53.696 53.696 0 00307.39 98h-79.51a53.696 53.696 0 00-10.75 17.78l11 54.76a53.731 53.731 0 0090-54.76h.01z" fill="#FF725E"/><path opacity=".1" d="M318.14 115.78A53.696 53.696 0 00307.39 98h-79.51a53.696 53.696 0 00-10.75 17.78l11 54.76a53.731 53.731 0 0090-54.76h.01z" fill="#FAFAFA"/><path d="M321.31 136.61a53.546 53.546 0 01-14.16 33.93h-79a53.814 53.814 0 01-11-54.76h101a53.413 53.413 0 013.16 20.83z" fill="#FF725E"/><path opacity=".9" d="M321.31 136.61a53.546 53.546 0 01-14.16 33.93h-79a53.814 53.814 0 01-11-54.76h101a53.413 53.413 0 013.16 20.83z" fill="#FAFAFA"/><path opacity=".3" d="M321.31 136.61a53.61 53.61 0 11-107.102-5.012 53.61 53.61 0 01107.102 5.012z" fill="#fff"/><path opacity=".4" d="M297.92 89.76l-77.26 70.46a105.12 105.12 0 01-1.14-2.16 53.002 53.002 0 01-4.87-15l66.73-60.86a53.422 53.422 0 0116.54 7.56zM318.59 117.07L246 183.31a53.672 53.672 0 01-19.48-14.64l79.32-72.34a53.758 53.758 0 0112.75 20.74z" fill="#fff"/><path d="M321.29 103.15a61.998 61.998 0 00-94.59-15.638 61.999 61.999 0 003.166 95.821 62 62 0 0068.764 4.457 61.998 61.998 0 0022.66-84.64zm-96 55.44a48.89 48.89 0 1129.694 22.778A48.888 48.888 0 01225.3 158.59h-.01z" fill="#FF725E"/><path opacity=".1" d="M321.29 103.15a61.998 61.998 0 00-94.59-15.638 61.999 61.999 0 003.166 95.821 62 62 0 0068.764 4.457 61.998 61.998 0 0022.66-84.64zm-96 55.44a48.89 48.89 0 1129.694 22.778A48.888 48.888 0 01225.3 158.59h-.01z" fill="#000"/><path d="M125.06 197.89l7.66 1.78-6.35 4.74s-4.55-2.06-4.76-5.29l3.45-1.23zM136.82 204.77l-5.52 3.68-4.93-4.04 6.35-4.73 4.1 5.09z" fill="#E4897B"/><path d="M223.47 166.78c-8.14 6-16.49 11.7-24.88 17.27s-16.89 11-25.43 16.33c-8.54 5.33-17.16 10.55-25.81 15.62-4.32 2.58-8.68 5.08-13 7.62a25.334 25.334 0 01-6.94 3.07c-1.31.347-2.649.572-4 .67-1.5.122-3.01.045-4.49-.23a8.205 8.205 0 01-5.226-3.487 8.206 8.206 0 01-1.224-6.163c.068-.34.162-.674.28-1a16.548 16.548 0 012-4 21.172 21.172 0 012.56-3.1 25.497 25.497 0 016.13-4.48c4.37-2.49 8.71-5 13.11-7.47 8.76-4.95 17.6-9.77 26.46-14.53s17.83-9.37 26.85-13.87c9.02-4.5 18.11-8.88 27.39-12.92a6.21 6.21 0 016.18 10.69l.04-.02z" fill="#FF725E"/><path opacity=".1" d="M223.47 166.78c-8.14 6-16.49 11.7-24.88 17.27s-16.89 11-25.43 16.33c-8.54 5.33-17.16 10.55-25.81 15.62-4.32 2.58-8.68 5.08-13 7.62a25.334 25.334 0 01-6.94 3.07c-1.31.347-2.649.572-4 .67-1.5.122-3.01.045-4.49-.23a8.205 8.205 0 01-5.226-3.487 8.206 8.206 0 01-1.224-6.163c.068-.34.162-.674.28-1a16.548 16.548 0 012-4 21.172 21.172 0 012.56-3.1 25.497 25.497 0 016.13-4.48c4.37-2.49 8.71-5 13.11-7.47 8.76-4.95 17.6-9.77 26.46-14.53s17.83-9.37 26.85-13.87c9.02-4.5 18.11-8.88 27.39-12.92a6.21 6.21 0 016.18 10.69l.04-.02z" fill="#000"/><path d="M136.16 150.52c-.5.81-1.07 1.79-1.61 2.71-.54.92-1.07 1.88-1.57 2.85-1 1.91-2 3.85-3 5.82-1 1.97-1.81 4-2.63 6-.4 1-.82 2-1.19 3l-.56 1.53c-.11.29-.13.41-.2.62-.07.21-.1.41-.16.61a31.151 31.151 0 00-.59 6c-.05 2.15 0 4.34.12 6.55s.24 4.43.44 6.65c.2 2.22.4 4.48.61 6.68l-3.86.79c-.68-2.23-1.21-4.45-1.74-6.7s-.93-4.51-1.32-6.81-.65-4.61-.82-7a34.799 34.799 0 01.19-7.51c.06-.35.11-.68.2-1 .09-.32.18-.77.26-1l.49-1.7c.32-1.13.69-2.25 1.07-3.36.77-2.23 1.61-4.42 2.55-6.58.94-2.16 1.94-4.27 3-6.35.55-1 1.13-2.07 1.72-3.1.59-1.03 1.18-2 1.92-3.09l6.68 4.39z" fill="#E4897B"/><path d="M131.89 357a9.378 9.378 0 01-2-.28.176.176 0 01-.093-.047.176.176 0 01-.047-.093.196.196 0 01.012-.107.196.196 0 01.068-.083c.27-.18 2.63-1.7 3.54-1.29a.612.612 0 01.251.211.613.613 0 01.109.309.998.998 0 01-.3 1 2.256 2.256 0 01-1.54.38zm-1.53-.54c1.36.27 2.38.22 2.77-.14a.684.684 0 00.19-.65.269.269 0 00-.16-.24c-.47-.21-1.84.45-2.8 1.03z" fill="#FF725E"/><path d="M129.88 356.73a.153.153 0 01-.09 0 .157.157 0 01-.068-.067.167.167 0 01-.022-.093c0-.09 0-2.33.85-3.08a1 1 0 01.78-.25.641.641 0 01.62.52c.18.87-1.24 2.55-2 3a.156.156 0 01-.07-.03zm1.33-3.16a.617.617 0 00-.41.16 4.174 4.174 0 00-.72 2.46c.74-.6 1.62-1.86 1.51-2.39 0-.09-.07-.19-.3-.22l-.08-.01zM167.31 357a12.466 12.466 0 01-2.45-.28.164.164 0 01-.101-.049.175.175 0 01-.049-.101.19.19 0 01.1-.19c.35-.18 3.45-1.76 4.4-1.24a.587.587 0 01.32.49 1.001 1.001 0 01-.34.89 2.899 2.899 0 01-1.88.48zm-1.84-.54c1.73.29 3 .21 3.48-.21a.673.673 0 00.21-.59.234.234 0 00-.12-.2c-.52-.28-2.3.39-3.57 1z" fill="#FF725E"/><path d="M164.89 356.73a.124.124 0 01-.05.01.124.124 0 01-.05-.01.15.15 0 01-.08-.16c0-.09.19-2.19 1.16-3a1.39 1.39 0 011-.32c.51.05.65.31.69.52.14.88-1.69 2.56-2.62 3l-.05-.04zm1.86-3.16a.995.995 0 00-.64.24 4.286 4.286 0 00-1 2.4c.94-.57 2.19-1.89 2.1-2.42 0 0 0-.18-.36-.21l-.1-.01z" fill="#FF725E"/><path d="M148 120.49c.61 4.67 2 14.14-1.38 17 0 0 1 4.76 9.52 5.31 9.42.61 4.8-4.38 4.8-4.38-5.06-1.56-4.68-5.37-3.55-8.89l-9.39-9.04z" fill="#E4897B"/><path d="M165.47 111a.337.337 0 01-.17-.05.358.358 0 01-.15-.5 3.644 3.644 0 012.73-2 .371.371 0 01.286.585.367.367 0 01-.216.145 3.009 3.009 0 00-2.15 1.58.404.404 0 01-.33.24z" fill="#263238"/><path d="M168.16 115.1a16.753 16.753 0 002.6 3.78 2.693 2.693 0 01-2.19.63l-.41-4.41z" fill="#DE5753"/><path d="M167.5 114.08c.06.63.44 1.1.84 1.06.4-.04.7-.57.64-1.2-.06-.63-.44-1.1-.85-1.06-.41.04-.69.58-.63 1.2z" fill="#263238"/><path d="M168 112.93l1.46-.57s-.7 1.24-1.46.57z" fill="#263238"/><path d="M156.33 356.54h7.79l.52-18.02h-7.79l-.52 18.02zM120.96 356.54h7.79l2.5-18.02h-7.78l-2.51 18.02z" fill="#E4897B"/><path d="M129.23 355.64h-8.75a.617.617 0 00-.62.53l-1 6.92a1.248 1.248 0 001.24 1.39c3-.05 4.52-.23 8.37-.23 2.36 0 5.82.24 9.09.24 3.27 0 3.44-3.23 2.08-3.52-6.1-1.31-7.06-3.12-9.12-4.85a1.997 1.997 0 00-1.29-.48zM164.38 355.64h-8.74a.61.61 0 00-.62.53l-1 6.92a1.257 1.257 0 00.739 1.28c.161.072.335.11.511.11 3-.05 4.52-.23 8.36-.23 2.37 0 7.26.24 10.53.24 3.27 0 3.44-3.23 2.08-3.52-6.1-1.31-8.5-3.12-10.56-4.85a1.998 1.998 0 00-1.3-.48z" fill="#263238"/><path d="M164.63 338.52l-.26 9.29h-7.79l.27-9.29h7.78zM123.46 338.52h7.79l-1.29 9.29h-7.79l1.29-9.29z" fill="#CE6F64"/><path d="M139.48 151.72a39.98 39.98 0 01-5.11 6.42l-.89-.59-9.86-6.55s5.38-12 9.43-12.61c3.87-.62 6.69 3.38 8 7.66.5 1.55-.33 3.65-1.57 5.67z" fill="#FF725E"/><path opacity=".6" d="M139.48 151.72a39.98 39.98 0 01-5.11 6.42l-.89-.59-9.86-6.55s5.38-12 9.43-12.61c3.87-.62 6.69 3.38 8 7.66.5 1.55-.33 3.65-1.57 5.67z" fill="#FAFAFA"/><path d="M139.48 151.72a39.924 39.924 0 01-5.11 6.42l-.89-.59c.44-3.6 1.84-7.17 3.44-8.3.98.1 1.85 1.14 2.56 2.47z" fill="#FF725E"/><path opacity=".4" d="M139.48 151.72a39.924 39.924 0 01-5.11 6.42l-.89-.59c.44-3.6 1.84-7.17 3.44-8.3.98.1 1.85 1.14 2.56 2.47z" fill="#FAFAFA"/><path d="M173.21 157.71c-.47 3-1.08 6.53-1.9 10.72-1 5.36-2.4 11.79-4.17 19.48l-31.55-2c1.36-12.81 1.89-20.73-2.54-47.48a92.777 92.777 0 0113.52-.89c4.789-.031 9.575.279 14.32.93 6.12 1 13 2.84 13 2.84s1.76.69-.68 16.4z" fill="#FF725E"/><path opacity=".6" d="M173.21 157.71c-.47 3-1.08 6.53-1.9 10.72-1 5.36-2.4 11.79-4.17 19.48l-31.55-2c1.36-12.81 1.89-20.73-2.54-47.48a92.777 92.777 0 0113.52-.89c4.789-.031 9.575.279 14.32.93 6.12 1 13 2.84 13 2.84s1.76.69-.68 16.4z" fill="#FAFAFA"/><path d="M173.21 157.71c-.47 3-1.08 6.53-1.9 10.72A77.587 77.587 0 01167 157h5.86l.35.71z" fill="#FF725E"/><path opacity=".4" d="M173.21 157.71c-.47 3-1.08 6.53-1.9 10.72A77.587 77.587 0 01167 157h5.86l.35.71z" fill="#FAFAFA"/><path d="M146.28 113.92c1.19 7.63 1.54 10.89 5.79 14.46 6.39 5.38 15.5 2.24 16.61-5.6 1-7.05-1.12-18.35-8.93-20.69a10.533 10.533 0 00-10.037 2.155 10.533 10.533 0 00-3.433 9.675z" fill="#E4897B"/><path d="M158.8 187.37s-.5 13.89-1.7 31.41c-1 14.7-2.51 31.94-4.62 45.68l-.06.38c-3.79 24.32-20.58 81.16-20.58 81.16h-10.62s8.75-54.9 10.67-79c4.87-60.87-7.33-67.76 3.7-81.18l23.21 1.55z" fill="#FF725E"/><path opacity=".3" d="M158.8 187.37s-.5 13.89-1.7 31.41c-1 14.7-2.51 31.94-4.62 45.68l-.06.38c-3.79 24.32-20.58 81.16-20.58 81.16h-10.62s8.75-54.9 10.67-79c4.87-60.87-7.33-67.76 3.7-81.18l23.21 1.55z" fill="#000"/><path d="M157.1 218.78c-1 14.7-2.51 31.94-4.62 45.68-3.59-17.85-9.49-43.92-1.57-61 1.89 4.85 4.09 10.33 6.19 15.32z" fill="#FF725E"/><path opacity=".4" d="M157.1 218.78c-1 14.7-2.51 31.94-4.62 45.68-3.59-17.85-9.49-43.92-1.57-61 1.89 4.85 4.09 10.33 6.19 15.32z" fill="#000"/><path d="M167.14 187.92s9 53.34 8.46 77.08c-.53 24.7-9.58 81-9.58 81H155.5s1.66-54.87.73-79.12c-1-26.44-12.2-80.47-12.2-80.47l23.11 1.51z" fill="#FF725E"/><path opacity=".3" d="M167.14 187.92s9 53.34 8.46 77.08c-.53 24.7-9.58 81-9.58 81H155.5s1.66-54.87.73-79.12c-1-26.44-12.2-80.47-12.2-80.47l23.11 1.51z" fill="#000"/><path d="M153.7 346.5h14.11l1.1-4.73-15.71.11.5 4.62zM119.68 346.5h14.11l1.1-4.73-15.11.11-.1 4.62zM135.23 184l-1.6 2.74c-.13.21.12.45.48.47l33.09 2.15c.28 0 .53-.1.56-.28l.47-2.81c0-.19-.21-.37-.52-.39l-32-2.08a.618.618 0 00-.48.2z" fill="#263238"/><path d="M139.29 187.84l-.85-.06c-.17 0-.3-.11-.28-.21l.64-3.65c0-.1.17-.18.34-.17l.86.05c.17 0 .29.11.28.22l-.64 3.64c-.02.11-.18.19-.35.18z" fill="#FF725E"/><path opacity=".3" d="M139.29 187.84l-.85-.06c-.17 0-.3-.11-.28-.21l.64-3.65c0-.1.17-.18.34-.17l.86.05c.17 0 .29.11.28.22l-.64 3.64c-.02.11-.18.19-.35.18z" fill="#000"/><path d="M160 189.18l-.85-.05c-.17 0-.3-.11-.28-.22l.64-3.64c0-.11.17-.18.35-.17l.85.05c.17 0 .3.11.28.22l-.64 3.64c.01.11-.15.18-.35.17z" fill="#FF725E"/><path opacity=".3" d="M160 189.18l-.85-.05c-.17 0-.3-.11-.28-.22l.64-3.64c0-.11.17-.18.35-.17l.85.05c.17 0 .3.11.28.22l-.64 3.64c.01.11-.15.18-.35.17z" fill="#000"/><path d="M175.68 149.31c1.2 4 2.34 8.05 3.45 12.09l3.35 12.09.42 1.5.11.37.05.19v.1c.036.132.079.263.13.39a6.41 6.41 0 001 1.68 16.695 16.695 0 004.1 3.16 52.866 52.866 0 0011 4.44l-.58 3.9a41.597 41.597 0 01-13.08-2.83 20.718 20.718 0 01-6.29-3.88 12.462 12.462 0 01-2.6-3.42 9.33 9.33 0 01-.47-1.07l-.11-.27-.07-.19-.13-.37-.53-1.51c-1.4-4-2.7-8-3.93-12.06-1.23-4.06-2.44-8.06-3.54-12.14l7.72-2.17z" fill="#E4897B"/><path d="M173.89 141.27c4 1.31 8.2 14.39 8.2 14.39l-14.44 6.22s-6-14.68-3.34-18c2.66-3.32 4.99-4.11 9.58-2.61z" fill="#FF725E"/><path opacity=".6" d="M173.89 141.27c4 1.31 8.2 14.39 8.2 14.39l-14.44 6.22s-6-14.68-3.34-18c2.66-3.32 4.99-4.11 9.58-2.61z" fill="#FAFAFA"/><path d="M166.17 101.65c-2.55-3.15-22.25-5.4-23.3 3.18-7 4.9-.36 17.56.64 20.78-4.83 1.34-20.39 6.66-9 17s28.47 8.58 31.81-2.12c2.34-7.48-5.09-20-4.93-24.38.16-4.38 9.15-9.11 4.78-14.46z" fill="#263238"/><path d="M144.89 127.19a.227.227 0 01-.19-.09c-1.81-2.2-8.11-13.76-5.9-19.26a4.788 4.788 0 014.23-3 .24.24 0 01.27.22.252.252 0 01-.21.28 4.321 4.321 0 00-3.83 2.66c-2.13 5.32 4.05 16.61 5.82 18.77a.246.246 0 01.059.126.248.248 0 01-.021.137.242.242 0 01-.228.137v.02z" fill="#263238"/><path d="M159.83 115.64a6.64 6.64 0 002 3.82c1.42 1.36 2.76.43 2.89-1.3.12-1.55-.48-4.12-2.16-4.84-1.68-.72-2.94.59-2.73 2.32zM194.39 184.24l5.68-1.93-.89 6.83s-2.24 1-5.14-1.52l-2.77-1.77 2.18-1.19a5.31 5.31 0 01.94-.42z" fill="#E4897B"/><path d="M204.04 182.29l-1.74 5.97-3.12.87.89-6.82 3.97-.02z" fill="#E4897B"/></svg>